<svg width="633" height="739" viewBox="0 0 633 739" fill="none" xmlns="http://www.w3.org/2000/svg">
<path d="M156.99 652.449H136.942V731.429H156.99V652.449Z" fill="black"/>
<path d="M250.073 652.536H156.862V674.165H250.073V652.536Z" fill="black"/>
<path d="M229.927 659.86H190.266V709.704H229.927V659.86Z" fill="#1A1A1A"/>
<path d="M137.114 652.442H117.066V674.071H137.114V652.442Z" fill="black"/>
<path d="M210.294 709.582H190.247V731.211H210.294V709.582Z" fill="black"/>
<path d="M230.027 688.513H209.98V710.142H230.027V688.513Z" fill="black"/>
<path d="M250.168 659.708H230.12V688.344H250.168V659.708Z" fill="black"/>
<path d="M190.384 659.534H156.682V731.667H190.384V659.534Z" fill="#1A1A1A"/>
<path d="M575.686 320.177H414.397V341.806H575.686V320.177Z" fill="#333333"/>
<path d="M558 297.648H428.708V321.461H558V297.648Z" fill="#333333"/>
<path d="M543.567 277.534H411.752V299.163H543.567V277.534Z" fill="#333333"/>
<path d="M538.215 238.495H372.175V278.262H538.215V238.495Z" fill="#333333"/>
<path d="M520.056 221.875H372.312V243.504H520.056V221.875Z" fill="#333333"/>
<path d="M501.897 202.087H372.763V223.716H501.897V202.087Z" fill="#333333"/>
<path d="M463.719 180.867H372.926V202.496H463.719V180.867Z" fill="#333333"/>
<path d="M537.53 475.127H500.467V494.441H537.53V475.127Z" fill="#1A1A1A"/>
<path d="M537.373 436.332H499.423V477.479H537.373V436.332Z" fill="#1A1A1A"/>
<path d="M554.406 436.332H496.941V456.318H554.406V436.332Z" fill="#1A1A1A"/>
<path d="M574.333 417.905H502.079V437.856H574.333V417.905Z" fill="#1A1A1A"/>
<path d="M594.475 337.833H465.814V359.462H594.475V337.833Z" fill="#333333"/>
<path d="M612.25 358.764H591.284V374.914H612.25V358.764Z" fill="#333333"/>
<path d="M593.384 393.678H484.447V417.938H593.384V393.678Z" fill="#333333"/>
<path d="M613.402 371.708H484.447V396.308H613.402V371.708Z" fill="#333333"/>
<path d="M593.752 350.688H484.67V372.317H593.752V350.688Z" fill="#333333"/>
<path d="M375.841 237.158H352.734V297.502H375.841V237.158Z" fill="#333333"/>
<path d="M353.166 258.197H332.855V316.27H353.166V258.197Z" fill="#333333"/>
<path d="M428.775 273.882H316.274V357.777H428.775V273.882Z" fill="#333333"/>
<path d="M316.592 300.336H296.281V374.029H316.592V300.336Z" fill="#333333"/>
<path d="M297.428 321.079H259.453V433.567H297.428V321.079Z" fill="#333333"/>
<path d="M333.996 558.512H262.743V690.315H333.996V558.512Z" fill="#24221C"/>
<path d="M263.418 577.438H168.823V652.81H263.418V577.438Z" fill="#24221C"/>
<path d="M274.059 651.298H209.272V688.714H274.059V651.298Z" fill="#24221C"/>
<path d="M181.632 611.86H148.1V652.971H181.632V611.86Z" fill="#24221C"/>
<path d="M203.657 537.704H150.856V579.319H203.657V537.704Z" fill="#24221C"/>
<path d="M502.506 340.469H222.396V474.622H502.506V340.469Z" fill="#333333"/>
<path d="M224.171 357.338H203.86V476.041H224.171V357.338Z" fill="#333333"/>
<path d="M208.113 374.44H187.802V456.194H208.113V374.44Z" fill="#333333"/>
<path d="M190.269 414.342H169.485V456.796H190.269V414.342Z" fill="#333333"/>
<path d="M324.86 455.664H169.406V496.775H324.86V455.664Z" fill="#333333"/>
<path d="M501.798 496.284H187.579V517.913H501.798V496.284Z" fill="#333333"/>
<path d="M517.863 470.085H316.274V497.724H517.863V470.085Z" fill="#333333"/>
<path d="M316.734 515.047H205.645V537.152H316.734V515.047Z" fill="#333333"/>
<path d="M336.696 515.047H316.385V537.27H336.696V515.047Z" fill="#1A1A1A"/>
<path d="M336.473 536.78H187.244V559.002H336.473V536.78Z" fill="#1A1A1A"/>
<path d="M263.65 556.849H202.076V578.478H263.65V556.849Z" fill="#1A1A1A"/>
<path d="M206.329 516.947H150.777V538.576H206.329V516.947Z" fill="#1A1A1A"/>
<path d="M189.377 495.809H150.777V517.438H189.377V495.809Z" fill="#1A1A1A"/>
<path d="M169.861 439.756H132.153V496.3H169.861V439.756Z" fill="#1A1A1A"/>
<path d="M169.75 339.523H149.438V441.553H169.75V339.523Z" fill="#1A1A1A"/>
<path d="M189.638 316.985H169.327V414.862H189.638V316.985Z" fill="#1A1A1A"/>
<path d="M204.544 319.949H184.233V375.167H204.544V319.949Z" fill="#1A1A1A"/>
<path d="M222.545 319.452H202.234V358.044H222.545V319.452Z" fill="#1A1A1A"/>
<path d="M188.039 296.061H77.842V321.59H188.039V296.061Z" fill="#1A1A1A"/>
<path d="M168.411 278.247H96.3542V299.738H168.411V278.247Z" fill="#1A1A1A"/>
<path d="M152.575 258.533H95.0161V280.024H152.575V258.533Z" fill="#1A1A1A"/>
<path d="M134.732 237.157H114.421V258.648H134.732V237.157Z" fill="#1A1A1A"/>
<path d="M179.563 316.962H58.6604V357.691H179.563V316.962Z" fill="#1A1A1A"/>
<path d="M260.751 242.857H223.042V299.738H260.751V242.857Z" fill="#1A1A1A"/>
<path d="M299.351 243.218H258.729V286.2H299.351V243.218Z" fill="#1A1A1A"/>
<path d="M317.403 221.244H281.925V279.55H317.403V221.244Z" fill="#1A1A1A"/>
<path d="M336.362 201.768H316.05V258.41H336.362V201.768Z" fill="#1A1A1A"/>
<path d="M355.32 181.341H335.009V238.221H355.32V181.341Z" fill="#1A1A1A"/>
<path d="M227.741 240.72H169.066V280.024H227.741V240.72Z" fill="#1A1A1A"/>
<path d="M173.541 201.768H152.003V259.123H173.541V201.768Z" fill="#1A1A1A"/>
<path d="M204.767 220.531H172.365V242.022H204.767V220.531Z" fill="#1A1A1A"/>
<path d="M257.628 102.487H227.057V247.96H257.628V102.487Z" fill="#1A1A1A"/>
<path d="M297.552 100.35H257.614V178.131H297.552V100.35Z" fill="#1A1A1A"/>
<path d="M280.601 198.68H255.606V220.171H280.601V198.68Z" fill="#1A1A1A"/>
<path d="M236.662 197.73H207.652V219.221H236.662V197.73Z" fill="#1A1A1A"/>
<path d="M316.957 63.2974H296.646V160.317H316.957V63.2974Z" fill="#1A1A1A"/>
<path d="M299.783 79.9233H262.743V101.414H299.783V79.9233Z" fill="#1A1A1A"/>
<path d="M300.675 20.7827H280.364V83.1258H300.675V20.7827Z" fill="#1A1A1A"/>
<path d="M244.692 80.8735H189.14V179.081H244.692V80.8735Z" fill="#1A1A1A"/>
<path d="M189.154 102.725H168.843V161.031H189.154V102.725Z" fill="#1A1A1A"/>
<path d="M226.402 21.2583H206.091V85.2641H226.402V21.2583Z" fill="#1A1A1A"/>
<path d="M261.42 298.911H222.749V320.401H261.42V298.911Z" fill="#333333"/>
<path d="M297.329 281.334H257.39V302.825H297.329V281.334Z" fill="#333333"/>
<path d="M223.28 278.247H188.025V299.738H223.28V278.247Z" fill="#333333"/>
<path d="M227.042 218.516H203.821V241.518H227.042V218.516Z" fill="#D4AA00"/>
<path d="M320.269 199.126H280.173V222.128H320.269V199.126Z" fill="#AA8800"/>
<path d="M353.51 159.172H296.853V182.174H353.51V159.172Z" fill="#AA8800"/>
<path d="M353.847 121.245H316.274V163.729H353.847V121.245Z" fill="#AA8800"/>
<path d="M336.971 82.4561H316.274V127.627H336.971V82.4561Z" fill="#AA8800"/>
<path d="M207.661 178.646H173.4V220.459H207.661V178.646Z" fill="#AA8800"/>
<path d="M227.555 178.676H204.334V201.679H227.555V178.676Z" fill="#AA8800"/>
<path d="M189.471 160.927H152.529V202.067H189.471V160.927Z" fill="#AA8800"/>
<path d="M169.195 121.667H132.149V178.93H169.195V121.667Z" fill="#AA8800"/>
<path d="M169.167 82.7295H145.5V131.596H169.167V82.7295Z" fill="#AA8800"/>
<path d="M336.019 178.005H256.336V202.015H336.019V178.005Z" fill="#AA8800"/>
<path d="M282.491 219.106H256.983V243.368H282.491V219.106Z" fill="#D4AA00"/>
<path d="M133.84 355.438H77.1729V439.633H133.84V355.438Z" fill="#1A1A1A"/>
<path d="M112.874 414.342H59.3296V494.973H112.874V414.342Z" fill="#1A1A1A"/>
<path d="M73.1725 452.582H40.1479V494.023H73.1725V452.582Z" fill="#1A1A1A"/>
<path d="M133.171 492.246H54.8208V632.307H133.171V492.246Z" fill="#1A1A1A"/>
<path d="M149.545 551.868H128.918V612.994H149.545V551.868Z" fill="#1A1A1A"/>
<path d="M130.406 631.625H73.5054V653.116H130.406V631.625Z" fill="#1A1A1A"/>
<path d="M58.2288 514.499H37.9177V610.642H58.2288V514.499Z" fill="#1A1A1A"/>
<path d="M40.4839 532.369H20.1729V590.136H40.4839V532.369Z" fill="#1A1A1A"/>
<path d="M480.464 296.598H428.065V317.921H480.464V296.598Z" fill="#800000"/>
<path d="M498.607 279.55H480.432V298.185H498.607V279.55Z" fill="#800000"/>
<path d="M538.954 260.266H497.911V281.589H538.954V260.266Z" fill="#800000"/>
<path d="M540.521 415.182H502.475V435.665H540.521V415.182Z" fill="#800000"/>
<path d="M593.606 395.341H539.316V418.343H593.606V395.341Z" fill="#800000"/>
<path d="M612.547 373.653H591.849V396.655H612.547V373.653Z" fill="#800000"/>
<path d="M333.403 611.953H187.802V634.955H333.403V611.953Z" fill="#800000"/>
<path d="M188.872 590.576H168.174V613.579H188.872V590.576Z" fill="#800000"/>
<path d="M210.507 456.144H168.174V479.146H210.507V456.144Z" fill="#800000"/>
<path d="M306.89 476.57H207.652V499.573H306.89V476.57Z" fill="black"/>
<path d="M112.146 454.244H76.3074V477.247H112.146V454.244Z" fill="#800000"/>
<path d="M80.3428 434.404H59.645V457.406H80.3428V434.404Z" fill="#800000"/>
<path d="M98.9451 297.628H78.2473V320.63H98.9451V297.628Z" fill="#800000"/>
<path d="M170.076 318.843H98.5942V341.845H170.076V318.843Z" fill="#800000"/>
<path d="M353.901 514.669H333.648V710.008H353.901V514.669Z" fill="black"/>
<path d="M74.7476 631.095H54.4365V652.724H74.7476V631.095Z" fill="black"/>
<path d="M54.9161 609.266H34.605V630.895H54.9161V609.266Z" fill="black"/>
<path d="M39.3812 589.389H19.0701V611.018H39.3812V589.389Z" fill="black"/>
<path d="M20.3113 530.485H0V590.354H20.3113V530.485Z" fill="black"/>
<path d="M40.3848 512.91H20.0737V534.539H40.3848V512.91Z" fill="black"/>
<path d="M60.0123 493.077H39.7012V514.706H60.0123V493.077Z" fill="black"/>
<path d="M40.3848 452.938H20.0737V494.043H40.3848V452.938Z" fill="black"/>
<path d="M60.0123 414.105H39.7012V454.141H60.0123V414.105Z" fill="black"/>
<path d="M79.4173 355.083H59.1062V415.189H79.4173V355.083Z" fill="black"/>
<path d="M59.1204 315.18H38.8091V357.591H59.1204V315.18Z" fill="black"/>
<path d="M374.055 178.729H353.744V237.642H374.055V178.729Z" fill="black"/>
<path d="M355.897 236.74H335.586V258.369H355.897V236.74Z" fill="black"/>
<path d="M336.535 258.197H316.224V279.826H336.535V258.197Z" fill="black"/>
<path d="M316.849 278.763H296.537V300.392H316.849V278.763Z" fill="black"/>
<path d="M298.167 299.391H260.823V321.02H298.167V299.391Z" fill="black"/>
<path d="M261.534 319.231H221.666V340.86H261.534V319.231Z" fill="black"/>
<path d="M222.959 298.436H187.192V320.064H222.959V298.436Z" fill="black"/>
<path d="M188.261 278.959H167.95V300.588H188.261V278.959Z" fill="black"/>
<path d="M169.749 258.771H149.438V280.4H169.749V258.771Z" fill="black"/>
<path d="M152.798 237.87H132.487V259.499H152.798V237.87Z" fill="black"/>
<path d="M78.5254 296.536H58.2141V318.165H78.5254V296.536Z" fill="black"/>
<path d="M96.3685 257.939H76.0574V298.094H96.3685V257.939Z" fill="black"/>
<path d="M115.327 237.276H95.0156V258.905H115.327V237.276Z" fill="black"/>
<path d="M337.352 688.345H206.64V709.974H337.352V688.345Z" fill="black"/>
<path d="M152.496 217.456H112.859V239.084H152.496V217.456Z" fill="black"/>
<path d="M152.532 178.417H132.221V217.512H152.532V178.417Z" fill="black"/>
<path d="M132.382 120.764H112.071V179.342H132.382V120.764Z" fill="black"/>
<path d="M151.487 81.6787H131.176V122.118H151.487V81.6787Z" fill="black"/>
<path d="M170.434 61.4795H150.123V83.1084H170.434V61.4795Z" fill="black"/>
<path d="M189.377 81.5864H168.396V103.215H189.377V81.5864Z" fill="black"/>
<path d="M207.22 21.2583H186.909V82.5522H207.22V21.2583Z" fill="black"/>
<path d="M225.51 0.119141H205.198V21.748H225.51V0.119141Z" fill="black"/>
<path d="M244.914 21.0205H224.603V81.3639H244.914V21.0205Z" fill="black"/>
<path d="M263.315 81.1113H243.004V102.74H263.315V81.1113Z" fill="black"/>
<path d="M281.27 21.2583H260.958V81.3643H281.27V21.2583Z" fill="black"/>
<path d="M300.005 0H279.694V21.6289H300.005V0Z" fill="black"/>
<path d="M318.406 20.3081H298.095V64.0259H318.406V20.3081Z" fill="black"/>
<path d="M336.584 60.9224H316.273V82.5513H336.584V60.9224Z" fill="black"/>
<path d="M355.71 82.2993H335.399V121.73H355.71V82.2993Z" fill="black"/>
<path d="M374.055 119.826H353.744V180.882H374.055V119.826Z" fill="black"/>
<path d="M465.364 159.172H373.608V180.801H465.364V159.172Z" fill="black"/>
<path d="M500.041 180.797H463.643V202.426H500.041V180.797Z" fill="black"/>
<path d="M520.213 201.194H499.902V222.823H520.213V201.194Z" fill="black"/>
<path d="M539.999 219.555H519.687V241.184H539.999V219.555Z" fill="black"/>
<path d="M558.631 239.145H538.32V299.488H558.631V239.145Z" fill="black"/>
<path d="M577.47 298.436H557.158V320.064H577.47V298.436Z" fill="black"/>
<path d="M595.313 316.012H575.001V337.641H595.313V316.012Z" fill="black"/>
<path d="M614.271 337.15H593.96V358.779H614.271V337.15Z" fill="black"/>
<path d="M632.115 358.289H611.804V397.494H632.115V358.289Z" fill="black"/>
<path d="M612.933 396.528H592.622V418.157H612.933V396.528Z" fill="black"/>
<path d="M594.42 417.667H574.109V439.295H594.42V417.667Z" fill="black"/>
<path d="M574.57 435.956H554.259V457.585H574.57V435.956Z" fill="black"/>
<path d="M557.396 455.431H537.085V495.349H557.396V455.431Z" fill="black"/>
<path d="M538.883 494.383H499.39V516.012H538.883V494.383Z" fill="black"/>
<path d="M502.528 515.047H351.216V536.676H502.528V515.047Z" fill="black"/>
<path d="M148.114 610.527H127.803V654.245H148.114V610.527Z" fill="black"/>
<path d="M168.857 555.425H148.546V612.681H168.857V555.425Z" fill="black"/>
<path d="M151.014 495.085H130.703V555.678H151.014V495.085Z" fill="black"/>
<path d="M132.278 438.806H111.967V495.824H132.278V438.806Z" fill="black"/>
<path d="M152.352 357.338H132.041V440.009H152.352V357.338Z" fill="black"/>
<path d="M477.008 540.428H455.379V738.411H477.008V540.428Z" fill="black"/>
<path d="M417.155 459.911H337.216V738.51H417.155V459.911Z" fill="#ECECEC"/>
<path d="M337.49 459.605H315.861V738.865H337.49V459.605Z" fill="black"/>
<path d="M317.985 459.525H296.356V481.154H317.985V459.525Z" fill="black"/>
<path d="M299.067 480.007H259.804V501.636H299.067V480.007Z" fill="black"/>
<path d="M259.921 437.162H238.292V480.42H259.921V437.162Z" fill="black"/>
<path d="M279.635 419.89H258.184V439.856H279.635V419.89Z" fill="black"/>
<path d="M297.804 377.613H276.176V421.212H297.804V377.613Z" fill="black"/>
<path d="M336.637 361.581H297.195V383.209H336.637V361.581Z" fill="black"/>
<path d="M336.757 319.778H315.128V361.833H336.757V319.778Z" fill="black"/>
<path d="M358.014 301.016H336.385V322.645H358.014V301.016Z" fill="black"/>
<path d="M399.119 282.014H355.861V303.643H399.119V282.014Z" fill="black"/>
<path d="M416.917 302.084H395.288V323.713H416.917V302.084Z" fill="black"/>
<path d="M437.462 322.155H415.833V343.784H437.462V322.155Z" fill="black"/>
<path d="M457.294 341.037H435.665V362.666H457.294V341.037Z" fill="black"/>
<path d="M476.533 359.681H454.904V419.549H476.533V359.681Z" fill="black"/>
<path d="M495.772 418.94H474.143V440.569H495.772V418.94Z" fill="black"/>
<path d="M514.772 439.961H493.143V480.235H514.772V439.961Z" fill="black"/>
<path d="M493.634 477.487H454.118V499.116H493.634V477.487Z" fill="black"/>
<path d="M455.295 459.242H417.04V480.871H455.295V459.242Z" fill="black"/>
<path d="M455.426 480.813H417.14V738.515H455.426V480.813Z" fill="#1A1A1A"/>
<path d="M493.634 439.961H454.904V477.491H493.634V439.961Z" fill="#666666"/>
<path d="M298.252 438.773H258.956V480.354H298.252V438.773Z" fill="#666666"/>
<path d="M455.75 378.445H297.195V421.925H455.75V378.445Z" fill="#666666"/>
<path d="M455.632 359.681H333.297V381.31H455.632V359.681Z" fill="#666666"/>
<path d="M436.868 340.68H332.961V362.309H436.868V340.68Z" fill="#333333"/>
<path d="M416.917 321.679H333.182V343.308H416.917V321.679Z" fill="#333333"/>
<path d="M396.016 303.153H356.336V324.782H396.016V303.153Z" fill="#333333"/>
<path d="M352.297 361.989H333.132V378.375H352.297V361.989Z" fill="#333333"/>
<path d="M493.771 455.852H472.142V477.48H493.771V455.852Z" fill="#333333"/>
<path d="M456.041 359.02H435.42V378.507H456.041V359.02Z" fill="#333333"/>
<path d="M472.071 420.484H277.719V459.41H472.071V420.484Z" fill="#666666"/>
<path d="M297.217 420.249H276.663V441.106H297.217V420.249Z" fill="#333333"/>
<path d="M476.533 418.92H455.32V439.896H476.533V418.92Z" fill="#333333"/>
<path d="M280.534 438.71H258.905V460.339H280.534V438.71Z" fill="#333333"/>
<path d="M476.881 498.852H455.552V541.175H476.881V498.852Z" fill="#1A1A1A"/>
<path d="M492.668 499.02H475.033V520.685H492.668V499.02Z" fill="#1A1A1A"/>
</svg>
