<svg width="674" height="735" viewBox="0 0 674 735" fill="none" xmlns="http://www.w3.org/2000/svg">
<path d="M122.639 652.449H101.01V731.429H122.639V652.449Z" fill="black"/>
<path d="M223.066 652.536H122.502V674.165H223.066V652.536Z" fill="black"/>
<path d="M201.33 659.86H158.54V709.704H201.33V659.86Z" fill="#1A1A1A"/>
<path d="M101.195 652.442H79.5664V674.071H101.195V652.442Z" fill="black"/>
<path d="M180.149 709.582H158.52V731.211H180.149V709.582Z" fill="black"/>
<path d="M201.438 688.513H179.809V710.142H201.438V688.513Z" fill="black"/>
<path d="M223.167 659.708H201.538V688.344H223.167V659.708Z" fill="black"/>
<path d="M158.668 659.534H122.307V731.667H158.668V659.534Z" fill="#1A1A1A"/>
<path d="M613.036 320.177H441.283V341.806H613.036V320.177Z" fill="#333333"/>
<path d="M594.203 297.648H456.523V321.461H594.203V297.648Z" fill="#333333"/>
<path d="M578.834 277.534H438.467V299.163H578.834V277.534Z" fill="#333333"/>
<path d="M573.134 238.495H396.322V278.262H573.134V238.495Z" fill="#333333"/>
<path d="M553.797 221.875H396.467V243.504H553.797V221.875Z" fill="#333333"/>
<path d="M534.46 202.087H396.948V223.716H534.46V202.087Z" fill="#333333"/>
<path d="M493.805 180.867H397.122V202.496H493.805V180.867Z" fill="#333333"/>
<path d="M572.405 475.127H532.938V494.441H572.405V475.127Z" fill="#1A1A1A"/>
<path d="M572.238 436.332H531.826V477.479H572.238V436.332Z" fill="#1A1A1A"/>
<path d="M590.376 436.332H529.183V456.318H590.376V436.332Z" fill="#1A1A1A"/>
<path d="M611.596 417.905H534.654V437.856H611.596V417.905Z" fill="#1A1A1A"/>
<path d="M633.045 337.833H496.037V359.462H633.045V337.833Z" fill="#333333"/>
<path d="M651.973 358.764H629.647V374.914H651.973V358.764Z" fill="#333333"/>
<path d="M631.883 393.678H515.878V417.938H631.883V393.678Z" fill="#333333"/>
<path d="M653.2 371.708H515.878V396.308H653.2V371.708Z" fill="#333333"/>
<path d="M632.275 350.688H516.116V372.317H632.275V350.688Z" fill="#333333"/>
<path d="M400.225 237.158H375.619V297.502H400.225V237.158Z" fill="#333333"/>
<path d="M376.079 258.197H354.45V316.27H376.079V258.197Z" fill="#333333"/>
<path d="M456.594 273.882H336.793V357.777H456.594V273.882Z" fill="#333333"/>
<path d="M337.133 300.336H315.504V374.029H337.133V300.336Z" fill="#333333"/>
<path d="M316.726 321.079H276.286V433.567H316.726V321.079Z" fill="#333333"/>
<path d="M355.666 558.512H279.79V690.315H355.666V558.512Z" fill="#24221C"/>
<path d="M280.508 577.438H179.776V652.81H280.508V577.438Z" fill="#24221C"/>
<path d="M291.84 651.298H222.85V688.714H291.84V651.298Z" fill="#24221C"/>
<path d="M193.416 611.86H157.708V652.971H193.416V611.86Z" fill="#24221C"/>
<path d="M216.87 537.704H160.644V579.319H216.87V537.704Z" fill="#24221C"/>
<path d="M535.108 340.469H236.825V474.622H535.108V340.469Z" fill="#333333"/>
<path d="M238.716 357.338H217.087V476.041H238.716V357.338Z" fill="#333333"/>
<path d="M221.615 374.44H199.986V456.194H221.615V374.44Z" fill="#333333"/>
<path d="M202.614 414.342H180.481V456.796H202.614V414.342Z" fill="#333333"/>
<path d="M345.937 455.664H180.397V496.775H345.937V455.664Z" fill="#333333"/>
<path d="M534.354 496.284H199.748V517.913H534.354V496.284Z" fill="#333333"/>
<path d="M551.462 470.085H336.793V497.724H551.462V470.085Z" fill="#333333"/>
<path d="M337.284 515.047H218.987V537.152H337.284V515.047Z" fill="#333333"/>
<path d="M358.541 515.047H336.912V537.27H358.541V515.047Z" fill="#1A1A1A"/>
<path d="M358.304 536.78H199.393V559.002H358.304V536.78Z" fill="#1A1A1A"/>
<path d="M280.756 556.849H215.187V578.478H280.756V556.849Z" fill="#1A1A1A"/>
<path d="M219.715 516.947H160.559V538.576H219.715V516.947Z" fill="#1A1A1A"/>
<path d="M201.664 495.809H160.559V517.438H201.664V495.809Z" fill="#1A1A1A"/>
<path d="M180.881 439.756H140.726V496.3H180.881V439.756Z" fill="#1A1A1A"/>
<path d="M180.763 339.523H159.134V441.553H180.763V339.523Z" fill="#1A1A1A"/>
<path d="M201.942 316.985H180.313V414.862H201.942V316.985Z" fill="#1A1A1A"/>
<path d="M217.815 319.949H196.186V375.167H217.815V319.949Z" fill="#1A1A1A"/>
<path d="M236.984 319.452H215.355V358.044H236.984V319.452Z" fill="#1A1A1A"/>
<path d="M200.239 296.061H82.8923V321.59H200.239V296.061Z" fill="#1A1A1A"/>
<path d="M179.337 278.247H102.605V299.738H179.337V278.247Z" fill="#1A1A1A"/>
<path d="M162.474 258.533H101.18V280.024H162.474V258.533Z" fill="#1A1A1A"/>
<path d="M143.474 237.157H121.844V258.648H143.474V237.157Z" fill="#1A1A1A"/>
<path d="M191.213 316.962H62.4661V357.691H191.213V316.962Z" fill="#1A1A1A"/>
<path d="M277.668 242.857H237.513V299.738H277.668V242.857Z" fill="#1A1A1A"/>
<path d="M318.773 243.218H275.515V286.2H318.773V243.218Z" fill="#1A1A1A"/>
<path d="M337.996 221.244H300.217V279.55H337.996V221.244Z" fill="#1A1A1A"/>
<path d="M358.185 201.768H336.556V258.41H358.185V201.768Z" fill="#1A1A1A"/>
<path d="M378.374 181.341H356.745V238.221H378.374V181.341Z" fill="#1A1A1A"/>
<path d="M242.516 240.72H180.035V280.024H242.516V240.72Z" fill="#1A1A1A"/>
<path d="M184.801 201.768H161.865V259.123H184.801V201.768Z" fill="#1A1A1A"/>
<path d="M218.053 220.531H183.548V242.022H218.053V220.531Z" fill="#1A1A1A"/>
<path d="M274.343 102.487H241.788V247.96H274.343V102.487Z" fill="#1A1A1A"/>
<path d="M316.858 100.35H274.327V178.131H316.858V100.35Z" fill="#1A1A1A"/>
<path d="M298.807 198.68H272.19V220.171H298.807V198.68Z" fill="#1A1A1A"/>
<path d="M252.016 197.73H221.125V219.221H252.016V197.73Z" fill="#1A1A1A"/>
<path d="M337.521 63.2974H315.892V160.317H337.521V63.2974Z" fill="#1A1A1A"/>
<path d="M319.233 79.9233H279.79V101.414H319.233V79.9233Z" fill="#1A1A1A"/>
<path d="M320.183 20.7827H298.554V83.1258H320.183V20.7827Z" fill="#1A1A1A"/>
<path d="M260.567 80.8735H201.411V179.081H260.567V80.8735Z" fill="#1A1A1A"/>
<path d="M201.427 102.725H179.798V161.031H201.427V102.725Z" fill="#1A1A1A"/>
<path d="M241.091 21.2583H219.462V85.2641H241.091V21.2583Z" fill="#1A1A1A"/>
<path d="M278.38 298.911H237.2V320.401H278.38V298.911Z" fill="#333333"/>
<path d="M316.62 281.334H274.09V302.825H316.62V281.334Z" fill="#333333"/>
<path d="M237.766 278.247H200.224V299.738H237.766V278.247Z" fill="#333333"/>
<path d="M241.772 218.516H217.044V241.518H241.772V218.516Z" fill="#D4AA00"/>
<path d="M341.048 199.126H298.35V222.128H341.048V199.126Z" fill="#AA8800"/>
<path d="M376.445 159.172H316.113V182.174H376.445V159.172Z" fill="#AA8800"/>
<path d="M376.804 121.245H336.793V163.729H376.804V121.245Z" fill="#AA8800"/>
<path d="M358.834 82.4561H336.793V127.627H358.834V82.4561Z" fill="#AA8800"/>
<path d="M221.134 178.646H184.65V220.459H221.134V178.646Z" fill="#AA8800"/>
<path d="M242.319 178.676H217.591V201.679H242.319V178.676Z" fill="#AA8800"/>
<path d="M201.764 160.927H162.425V202.067H201.764V160.927Z" fill="#AA8800"/>
<path d="M180.173 121.667H140.723V178.93H180.173V121.667Z" fill="#AA8800"/>
<path d="M180.143 82.7295H154.94V131.596H180.143V82.7295Z" fill="#AA8800"/>
<path d="M357.82 178.005H272.967V202.015H357.82V178.005Z" fill="#AA8800"/>
<path d="M300.819 219.106H273.656V243.368H300.819V219.106Z" fill="#D4AA00"/>
<path d="M142.523 355.438H82.1797V439.633H142.523V355.438Z" fill="#1A1A1A"/>
<path d="M120.197 414.342H63.1785V494.973H120.197V414.342Z" fill="#1A1A1A"/>
<path d="M77.9196 452.582H42.7524V494.023H77.9196V452.582Z" fill="#1A1A1A"/>
<path d="M141.811 492.246H58.3772V632.307H141.811V492.246Z" fill="#1A1A1A"/>
<path d="M159.247 551.868H137.282V612.994H159.247V551.868Z" fill="#1A1A1A"/>
<path d="M138.867 631.625H78.2742V653.116H138.867V631.625Z" fill="#1A1A1A"/>
<path d="M62.0063 514.499H40.3774V610.642H62.0063V514.499Z" fill="#1A1A1A"/>
<path d="M43.1103 532.369H21.4814V590.136H43.1103V532.369Z" fill="#1A1A1A"/>
<path d="M511.636 296.598H455.838V317.921H511.636V296.598Z" fill="#800000"/>
<path d="M530.956 279.55H511.603V298.185H530.956V279.55Z" fill="#800000"/>
<path d="M573.921 260.266H530.215V281.589H573.921V260.266Z" fill="#800000"/>
<path d="M575.59 415.182H535.076V435.665H575.59V415.182Z" fill="#800000"/>
<path d="M632.12 395.341H574.307V418.343H632.12V395.341Z" fill="#800000"/>
<path d="M652.289 373.653H630.249V396.655H652.289V373.653Z" fill="#800000"/>
<path d="M355.034 611.953H199.986V634.955H355.034V611.953Z" fill="#800000"/>
<path d="M201.126 590.576H179.085V613.579H201.126V590.576Z" fill="#800000"/>
<path d="M224.164 456.144H179.085V479.146H224.164V456.144Z" fill="#800000"/>
<path d="M326.801 476.57H221.125V499.573H326.801V476.57Z" fill="black"/>
<path d="M119.421 454.244H81.2578V477.247H119.421V454.244Z" fill="#800000"/>
<path d="M85.5553 434.404H63.5146V457.406H85.5553V434.404Z" fill="#800000"/>
<path d="M105.364 297.628H83.3237V320.63H105.364V297.628Z" fill="#800000"/>
<path d="M181.11 318.843H104.991V341.845H181.11V318.843Z" fill="#800000"/>
<path d="M376.863 514.669H355.296V710.008H376.863V514.669Z" fill="black"/>
<path d="M79.5974 631.095H57.9685V652.724H79.5974V631.095Z" fill="black"/>
<path d="M58.479 609.266H36.8501V630.895H58.479V609.266Z" fill="black"/>
<path d="M41.936 589.389H20.3071V611.018H41.936V589.389Z" fill="black"/>
<path d="M21.6292 530.485H0V590.354H21.6292V530.485Z" fill="black"/>
<path d="M43.0049 512.91H21.376V534.539H43.0049V512.91Z" fill="black"/>
<path d="M63.9062 493.077H42.2773V514.706H63.9062V493.077Z" fill="black"/>
<path d="M43.0049 452.938H21.376V494.043H43.0049V452.938Z" fill="black"/>
<path d="M63.9062 414.105H42.2773V454.141H63.9062V414.105Z" fill="black"/>
<path d="M84.5698 355.083H62.9409V415.189H84.5698V355.083Z" fill="black"/>
<path d="M62.9563 315.18H41.3271V357.591H62.9563V315.18Z" fill="black"/>
<path d="M398.324 178.729H376.696V237.642H398.324V178.729Z" fill="black"/>
<path d="M378.988 236.74H357.359V258.369H378.988V236.74Z" fill="black"/>
<path d="M358.37 258.197H336.741V279.826H358.37V258.197Z" fill="black"/>
<path d="M337.406 278.763H315.777V300.392H337.406V278.763Z" fill="black"/>
<path d="M317.512 299.391H277.745V321.02H317.512V299.391Z" fill="black"/>
<path d="M278.502 319.231H236.048V340.86H278.502V319.231Z" fill="black"/>
<path d="M237.425 298.436H199.337V320.064H237.425V298.436Z" fill="black"/>
<path d="M200.476 278.959H178.847V300.588H200.476V278.959Z" fill="black"/>
<path d="M180.763 258.771H159.134V280.4H180.763V258.771Z" fill="black"/>
<path d="M162.712 237.87H141.083V259.499H162.712V237.87Z" fill="black"/>
<path d="M83.6201 296.536H61.991V318.165H83.6201V296.536Z" fill="black"/>
<path d="M102.621 257.939H80.9919V298.094H102.621V257.939Z" fill="black"/>
<path d="M122.809 237.276H101.18V258.905H122.809V237.276Z" fill="black"/>
<path d="M359.239 688.345H220.047V709.974H359.239V688.345Z" fill="black"/>
<path d="M162.39 217.456H120.181V239.084H162.39V217.456Z" fill="black"/>
<path d="M162.429 178.417H140.8V217.512H162.429V178.417Z" fill="black"/>
<path d="M140.971 120.764H119.342V179.342H140.971V120.764Z" fill="black"/>
<path d="M161.315 81.6787H139.686V122.118H161.315V81.6787Z" fill="black"/>
<path d="M181.492 61.4795H159.863V83.1084H181.492V61.4795Z" fill="black"/>
<path d="M201.664 81.5864H179.322V103.215H201.664V81.5864Z" fill="black"/>
<path d="M220.665 21.2583H199.036V82.5522H220.665V21.2583Z" fill="black"/>
<path d="M240.141 0.119141H218.512V21.748H240.141V0.119141Z" fill="black"/>
<path d="M260.804 21.0205H239.175V81.3639H260.804V21.0205Z" fill="black"/>
<path d="M280.399 81.1113H258.77V102.74H280.399V81.1113Z" fill="black"/>
<path d="M299.519 21.2583H277.89V81.3643H299.519V21.2583Z" fill="black"/>
<path d="M319.47 0H297.841V21.6289H319.47V0Z" fill="black"/>
<path d="M339.065 20.3081H317.436V64.0259H339.065V20.3081Z" fill="black"/>
<path d="M358.422 60.9224H336.793V82.5513H358.422V60.9224Z" fill="black"/>
<path d="M378.789 82.2993H357.16V121.73H378.789V82.2993Z" fill="black"/>
<path d="M398.324 119.826H376.696V180.882H398.324V119.826Z" fill="black"/>
<path d="M495.557 159.172H397.848V180.801H495.557V159.172Z" fill="black"/>
<path d="M532.484 180.797H493.724V202.426H532.484V180.797Z" fill="black"/>
<path d="M553.965 201.194H532.336V222.823H553.965V201.194Z" fill="black"/>
<path d="M575.034 219.555H553.405V241.184H575.034V219.555Z" fill="black"/>
<path d="M594.875 239.145H573.246V299.488H594.875V239.145Z" fill="black"/>
<path d="M614.936 298.436H593.307V320.064H614.936V298.436Z" fill="black"/>
<path d="M633.937 316.012H612.308V337.641H633.937V316.012Z" fill="black"/>
<path d="M654.126 337.15H632.497V358.779H654.126V337.15Z" fill="black"/>
<path d="M673.127 358.289H651.499V397.494H673.127V358.289Z" fill="black"/>
<path d="M652.701 396.528H631.072V418.157H652.701V396.528Z" fill="black"/>
<path d="M632.987 417.667H611.358V439.295H632.987V417.667Z" fill="black"/>
<path d="M611.848 435.956H590.219V457.585H611.848V435.956Z" fill="black"/>
<path d="M593.56 455.431H571.931V495.349H593.56V455.431Z" fill="black"/>
<path d="M573.846 494.383H531.791V516.012H573.846V494.383Z" fill="black"/>
<path d="M535.132 515.047H374.003V536.676H535.132V515.047Z" fill="black"/>
<path d="M157.724 610.527H136.095V654.245H157.724V610.527Z" fill="black"/>
<path d="M179.812 555.425H158.184V612.681H179.812V555.425Z" fill="black"/>
<path d="M160.812 495.085H139.183V555.678H160.812V495.085Z" fill="black"/>
<path d="M140.861 438.806H119.231V495.824H140.861V438.806Z" fill="black"/>
<path d="M162.236 357.338H140.607V440.009H162.236V357.338Z" fill="black"/>
<path d="M516.606 536.186H494.977V734.168H516.606V536.186Z" fill="black"/>
<path d="M456.752 455.669H376.814V734.267H456.752V455.669Z" fill="#ECECEC"/>
<path d="M377.087 455.363H355.458V734.623H377.087V455.363Z" fill="black"/>
<path d="M357.583 455.283H335.954V476.912H357.583V455.283Z" fill="black"/>
<path d="M338.665 475.764H299.402V497.393H338.665V475.764Z" fill="black"/>
<path d="M299.519 432.92H277.89V476.178H299.519V432.92Z" fill="black"/>
<path d="M319.232 415.648H297.781V435.614H319.232V415.648Z" fill="black"/>
<path d="M337.402 373.371H315.773V416.97H337.402V373.371Z" fill="black"/>
<path d="M376.235 357.338H336.793V378.967H376.235V357.338Z" fill="black"/>
<path d="M376.354 315.536H354.725V357.591H376.354V315.536Z" fill="black"/>
<path d="M397.611 296.773H375.982V318.402H397.611V296.773Z" fill="black"/>
<path d="M438.717 277.772H395.459V299.401H438.717V277.772Z" fill="black"/>
<path d="M456.515 297.842H434.886V319.471H456.515V297.842Z" fill="black"/>
<path d="M477.06 317.912H455.431V339.541H477.06V317.912Z" fill="black"/>
<path d="M496.892 336.794H475.263V358.423H496.892V336.794Z" fill="black"/>
<path d="M516.13 355.438H494.501V415.307H516.13V355.438Z" fill="black"/>
<path d="M535.369 414.698H513.74V436.327H535.369V414.698Z" fill="black"/>
<path d="M554.37 435.719H532.741V475.993H554.37V435.719Z" fill="black"/>
<path d="M533.231 473.245H493.716V494.874H533.231V473.245Z" fill="black"/>
<path d="M494.893 455H456.637V476.629H494.893V455Z" fill="black"/>
<path d="M495.023 476.57H456.737V734.272H495.023V476.57Z" fill="#1A1A1A"/>
<path d="M533.232 435.719H494.502V473.248H533.232V435.719Z" fill="#666666"/>
<path d="M337.849 434.53H298.553V476.111H337.849V434.53Z" fill="#666666"/>
<path d="M495.348 374.203H336.793V417.683H495.348V374.203Z" fill="#666666"/>
<path d="M495.229 355.438H372.895V377.067H495.229V355.438Z" fill="#666666"/>
<path d="M476.466 336.438H372.559V358.066H476.466V336.438Z" fill="#333333"/>
<path d="M456.515 317.437H372.78V339.065H456.515V317.437Z" fill="#333333"/>
<path d="M435.614 298.91H395.934V320.54H435.614V298.91Z" fill="#333333"/>
<path d="M391.894 357.747H372.729V374.133H391.894V357.747Z" fill="#333333"/>
<path d="M533.369 451.609H511.74V473.238H533.369V451.609Z" fill="#333333"/>
<path d="M495.639 354.777H475.018V374.265H495.639V354.777Z" fill="#333333"/>
<path d="M511.669 416.242H317.317V455.167H511.669V416.242Z" fill="#666666"/>
<path d="M336.814 416.006H316.261V436.864H336.814V416.006Z" fill="#333333"/>
<path d="M516.131 414.678H494.917V435.653H516.131V414.678Z" fill="#333333"/>
<path d="M320.131 434.468H298.502V456.097H320.131V434.468Z" fill="#333333"/>
<path d="M516.479 494.61H495.149V536.932H516.479V494.61Z" fill="#1A1A1A"/>
<path d="M532.266 494.777H514.631V516.442H532.266V494.777Z" fill="#1A1A1A"/>
</svg>
