<svg width="190" height="267" viewBox="0 0 190 267" fill="none" xmlns="http://www.w3.org/2000/svg">
<path d="M143.399 208.844H112.375V219.867H143.399V208.844Z" fill="#1A1A1A"/>
<path d="M133.118 227.625H105.438V266.68H133.118V227.625Z" fill="#1A1A1A"/>
<path d="M114.493 208.875H77.1252V219.305H114.493V208.875Z" fill="#1A1A1A"/>
<path d="M132.993 219.125H95.7502V229.555H132.993V219.125Z" fill="#1A1A1A"/>
<path d="M153.114 208.894H142.684V219.074H153.114V208.894Z" fill="black"/>
<path d="M125.625 208.844H113.875V219.5H125.625V208.844Z" fill="#B3B3B3"/>
<path d="M143.32 218.435H132.89V266.844H143.32V218.435Z" fill="black"/>
<path d="M115.172 245.746H104.742V266.783H115.172V245.746Z" fill="black"/>
<path d="M105.573 226.665H95.1428V247.524H105.573V226.665Z" fill="black"/>
<path d="M96.0372 218.625H76.5918V229.055H96.0372V218.625Z" fill="black"/>
<path d="M79.6969 219.062H56.1421V244.555H79.6969V219.062Z" fill="#1A1A1A"/>
<path d="M70.9936 218.975H43.3137V266.161H70.9936V218.975Z" fill="#1A1A1A"/>
<path d="M90.3262 209.261H33.655V219.324H90.3262V209.261Z" fill="#1A1A1A"/>
<path d="M90.1134 218.898H79.6211V228.14H90.1134V218.898Z" fill="black"/>
<path d="M81.5719 227.5H71.1421V246.415H81.5719V227.5Z" fill="black"/>
<path d="M72.0719 246.125H61.6421V266.298H72.0719V246.125Z" fill="black"/>
<path d="M43.3219 218.75H32.8921V266.68H43.3219V218.75Z" fill="black"/>
<path d="M99.8754 47.1569H53.2065V76.0631H99.8754V47.1569Z" fill="#B3B3B3"/>
<path d="M90.4137 28.6664H62.7312V57.5726H90.4137V28.6664Z" fill="#B3B3B3"/>
<path d="M83.1888 9.82251H71.1323V62.24H83.1888V9.82251Z" fill="#B3B3B3"/>
<path d="M102.468 89.5H52.7751V118.406H102.468V89.5Z" fill="#D4AA00"/>
<path d="M37.0685 104.625H9.38599V133.531H37.0685V104.625Z" fill="#B3B3B3"/>
<path d="M177.501 109.25H153.264V133.156H177.501V109.25Z" fill="#CCCCCC"/>
<path d="M180.59 104.125H162.055V123.781H180.59V104.125Z" fill="#B3B3B3"/>
<path d="M91.0227 150.696H37.6152V209.871H91.0227V150.696Z" fill="#550000"/>
<path d="M57.4629 132.98H16.489V164.932H57.4629V132.98Z" fill="#550000"/>
<path d="M68.9163 123.323H27.9424V155.275H68.9163V123.323Z" fill="#550000"/>
<path d="M166.123 138.58H125.149V170.531H166.123V138.58Z" fill="#550000"/>
<path d="M145.602 114.06H125.462V140.531H145.602V114.06Z" fill="#550000"/>
<path d="M171.916 133.625H162.531V162.531H171.916V133.625Z" fill="#800000"/>
<path d="M162.531 123H153.145V152.281H162.531V123Z" fill="#800000"/>
<path d="M153.858 114.125H144.472V143.531H153.858V114.125Z" fill="#800000"/>
<path d="M145.303 142.5H135.917V152.531H145.303V142.5Z" fill="#800000"/>
<path d="M126.309 66.824H108.018V161.354H126.309V66.824Z" fill="#1A1A1A"/>
<path d="M116.794 151.574H90.27V190.597H116.794V151.574Z" fill="#800000"/>
<path d="M92.6962 151.07H80.79V171.531H92.6962V151.07Z" fill="#800000"/>
<path d="M109.186 189.5H82.4934V209.254H109.186V189.5Z" fill="#800000"/>
<path d="M135.799 113.5H125.489V123.531H135.799V113.5Z" fill="#1A1A1A"/>
<path d="M109.411 115.044H45.2502V151.592H109.411V115.044Z" fill="#1A1A1A"/>
<path d="M81.7897 151.439H72.4038V161.471H81.7897V151.439Z" fill="#1A1A1A"/>
<path d="M54.0581 200.5H19.469V210.531H54.0581V200.5Z" fill="#1A1A1A"/>
<path d="M45.5038 191.5H9.57056V201.531H45.5038V191.5Z" fill="#1A1A1A"/>
<path d="M36.9495 179.495H9.92139V192.531H36.9495V179.495Z" fill="#1A1A1A"/>
<path d="M36.9496 169.5H18.1731V179.531H36.9496V169.5Z" fill="#1A1A1A"/>
<path d="M36.9495 152.545H9.11011V170.531H36.9495V152.545Z" fill="#1A1A1A"/>
<path d="M45.5038 141.777H36.1179V161.531H45.5038V141.777Z" fill="#1A1A1A"/>
<path d="M62.6122 105.5H45.4973V115.531H62.6122V105.5Z" fill="#1A1A1A"/>
<path d="M109.047 105.5H82.6909V115.531H109.047V105.5Z" fill="#1A1A1A"/>
<path d="M110.304 57.084H99.5737V105.653H110.304V57.084Z" fill="#1A1A1A"/>
<path d="M99.6229 66.2314H81.8359V95.001H99.6229V66.2314Z" fill="#1A1A1A"/>
<path d="M82.3465 75.7773H45.0691V94.6474H82.3465V75.7773Z" fill="#1A1A1A"/>
<path d="M63.4523 67.0859H54.0664V77.1171H63.4523V67.0859Z" fill="#1A1A1A"/>
<path d="M54.058 91.4341H44.6721V105.531H54.058V91.4341Z" fill="#1A1A1A"/>
<path d="M41.353 209.5H0.118652V219.93H41.353V209.5Z" fill="black"/>
<path d="M154.095 198.125H142.927V208.781H154.095V198.125Z" fill="#CCCCCC"/>
<path d="M143.126 199.5H99.7996V209.531H143.126V199.5Z" fill="#1A1A1A"/>
<path d="M163.216 190.5H108.884V200.531H163.216V190.5Z" fill="#1A1A1A"/>
<path d="M163.362 181.408H153.977V208.94H163.362V181.408Z" fill="#1A1A1A"/>
<path d="M154.857 170.363H116.908V191.531H154.857V170.363Z" fill="#1A1A1A"/>
<path d="M135.199 151.247H116.488V194.159H135.199V151.247Z" fill="#1A1A1A"/>
<path d="M19.3658 198.875H8.19775V209.531H19.3658V198.875Z" fill="#ECECEC"/>
<path d="M10.2174 179.75H0.118652V210.406H10.2174V179.75Z" fill="black"/>
<path d="M18.5341 169.5H9.14819V180.15H18.5341V169.5Z" fill="black"/>
<path d="M9.50457 151.25H0.118652V170.906H9.50457V151.25Z" fill="black"/>
<path d="M17.9401 122.812H8.5542V152.531H17.9401V122.812Z" fill="black"/>
<path d="M9.38591 103.5H0V124.531H9.38591V103.5Z" fill="black"/>
<path d="M28.3359 94.5H9.08887V104.531H28.3359V94.5Z" fill="black"/>
<path d="M36.9496 104.5H27.5637V114.531H36.9496V104.5Z" fill="black"/>
<path d="M108.948 47.0001H99.562V57.0314H108.948V47.0001Z" fill="black"/>
<path d="M117.634 56.7981H108.248V66.8293H117.634V56.7981Z" fill="black"/>
<path d="M126.813 66.3667H117.427V76.3979H126.813V66.3667Z" fill="black"/>
<path d="M135.809 75.8311H126.423V113.439H135.809V75.8311Z" fill="black"/>
<path d="M162.163 104.086H135.135V114.117H162.163V104.086Z" fill="black"/>
<path d="M181.76 94.3232H161.806V104.354H181.76V94.3232Z" fill="black"/>
<path d="M189.976 103.5H180.59V123.9H189.976V103.5Z" fill="black"/>
<path d="M180.471 122.5H171.085V172.306H180.471V122.5Z" fill="black"/>
<path d="M172.195 180.146H162.809V209.8H172.195V180.146Z" fill="black"/>
<path d="M171.917 162.323H153.625V172.354H171.917V162.323Z" fill="black"/>
<path d="M163.084 171.677H153.698V181.708H163.084V171.677Z" fill="black"/>
<path d="M45.5038 75.625H36.1179V124.406H45.5038V75.625Z" fill="black"/>
<path d="M54.058 46.5H44.6721V76.5312H54.058V46.5Z" fill="black"/>
<path d="M62.6122 27.75H53.2263V48.2812H62.6122V27.75Z" fill="black"/>
<path d="M72.3546 8.25H62.9688V29.1562H72.3546V8.25Z" fill="black"/>
<path d="M91.1264 8.25012H81.7405V29.1563H91.1264V8.25012Z" fill="black"/>
<path d="M100.037 28.75H90.6514V47.7812H100.037V28.75Z" fill="black"/>
<path d="M81.7407 0H72.3547V10.0312H81.7407V0Z" fill="black"/>
<path d="M91.0919 208.749H71.8115V219.179H91.0919V208.749Z" fill="black"/>
<path d="M144.583 209.284H136.434V219.449H144.583V209.284Z" fill="black"/>
<path d="M136.602 170.305H126.016V209.284H136.602V170.305Z" fill="black"/>
<path d="M37.6624 198.625H18.8906V209.75H37.6624V198.625Z" fill="black"/>
<path d="M37.6624 161.375H30.1775V198.75H37.6624V161.375Z" fill="black"/>
</svg>
