<svg width="200" height="267" viewBox="0 0 200 267" fill="none" xmlns="http://www.w3.org/2000/svg">
<path d="M162.024 208.719H131V219.742H162.024V208.719Z" fill="#1A1A1A"/>
<path d="M151.743 227.5H124.063V266.555H151.743V227.5Z" fill="#1A1A1A"/>
<path d="M133.118 208.75H95.7502V219.18H133.118V208.75Z" fill="#1A1A1A"/>
<path d="M151.618 219H114.375V229.43H151.618V219Z" fill="#1A1A1A"/>
<path d="M171.739 208.769H161.31V218.949H171.739V208.769Z" fill="black"/>
<path d="M144.25 208.719H132.5V219.375H144.25V208.719Z" fill="#B3B3B3"/>
<path d="M161.945 218.31H151.515V266.719H161.945V218.31Z" fill="black"/>
<path d="M133.797 245.621H123.368V266.658H133.797V245.621Z" fill="black"/>
<path d="M124.198 226.54H113.768V247.399H124.198V226.54Z" fill="black"/>
<path d="M114.662 218.5H95.2168V228.93H114.662V218.5Z" fill="black"/>
<path d="M65.5548 219.062H42V244.555H65.5548V219.062Z" fill="#1A1A1A"/>
<path d="M56.8515 218.975H29.1716V266.161H56.8515V218.975Z" fill="#1A1A1A"/>
<path d="M76.1844 209.261H19.5132V219.324H76.1844V209.261Z" fill="#1A1A1A"/>
<path d="M75.9714 218.898H65.479V228.14H75.9714V218.898Z" fill="black"/>
<path d="M67.4298 227.5H57V246.415H67.4298V227.5Z" fill="black"/>
<path d="M57.9298 246.125H47.5V266.299H57.9298V246.125Z" fill="black"/>
<path d="M29.1798 218.75H18.75V266.68H29.1798V218.75Z" fill="black"/>
<path d="M105.08 47.1569H55.9792V76.0631H105.08V47.1569Z" fill="#B3B3B3"/>
<path d="M95.125 28.6664H66V57.5726H95.125V28.6664Z" fill="#B3B3B3"/>
<path d="M87.5236 9.82239H74.8389V62.2399H87.5236V9.82239Z" fill="#B3B3B3"/>
<path d="M107.808 89.5H55.5251V118.406H107.808V89.5Z" fill="#D4AA00"/>
<path d="M39 104.625H9.875V133.531H39V104.625Z" fill="#B3B3B3"/>
<path d="M186.75 109.25H161.25V133.156H186.75V109.25Z" fill="#CCCCCC"/>
<path d="M190 104.125H170.5V123.781H190V104.125Z" fill="#B3B3B3"/>
<path d="M95.7659 150.696H39.5754V209.871H95.7659V150.696Z" fill="#550000"/>
<path d="M60.4574 132.98H17.3484V164.932H60.4574V132.98Z" fill="#550000"/>
<path d="M72.5077 123.323H29.3987V155.275H72.5077V123.323Z" fill="#550000"/>
<path d="M174.78 138.58H131.671V170.531H174.78V138.58Z" fill="#550000"/>
<path d="M153.189 114.06H132V140.531H153.189V114.06Z" fill="#550000"/>
<path d="M180.875 133.625H171V162.531H180.875V133.625Z" fill="#800000"/>
<path d="M171 123H161.125V152.281H171V123Z" fill="#800000"/>
<path d="M161.875 114.125H152V143.531H161.875V114.125Z" fill="#800000"/>
<path d="M152.875 142.5H143V152.531H152.875V142.5Z" fill="#800000"/>
<path d="M132.891 66.824H113.646V161.354H132.891V66.824Z" fill="#1A1A1A"/>
<path d="M122.88 151.574H94.9741V190.597H122.88V151.574Z" fill="#800000"/>
<path d="M97.5266 151.07H85V171.531H97.5266V151.07Z" fill="#800000"/>
<path d="M114.875 189.5H86.792V209.254H114.875V189.5Z" fill="#800000"/>
<path d="M142.875 113.5H132.028V123.531H142.875V113.5Z" fill="#1A1A1A"/>
<path d="M113.875 115.044H47.6084V151.415H113.875V115.044Z" fill="#1A1A1A"/>
<path d="M86.0518 151.439H76.1768V161.47H86.0518V151.439Z" fill="#1A1A1A"/>
<path d="M56.8751 200.5H20.4836V210.531H56.8751V200.5Z" fill="#1A1A1A"/>
<path d="M47.875 191.5H10.0693V201.531H47.875V191.5Z" fill="#1A1A1A"/>
<path d="M38.875 179.495H10.4385V192.531H38.875V179.495Z" fill="#1A1A1A"/>
<path d="M38.875 169.5H19.8076V179.531H38.875V169.5Z" fill="#1A1A1A"/>
<path d="M38.8751 152.545H10.085V170.531H38.8751V152.545Z" fill="#1A1A1A"/>
<path d="M47.875 141.777H38V161.531H47.875V141.777Z" fill="#1A1A1A"/>
<path d="M65.8751 105.5H47.8684V115.531H65.8751V105.5Z" fill="#1A1A1A"/>
<path d="M114.729 105.5H87V115.531H114.729V105.5Z" fill="#1A1A1A"/>
<path d="M116.052 57.084H104.763V105.653H116.052V57.084Z" fill="#1A1A1A"/>
<path d="M104.814 66.2312H86.1006V95.0007H104.814V66.2312Z" fill="#1A1A1A"/>
<path d="M86.6376 75.7773H47.4177V94.6474H86.6376V75.7773Z" fill="#1A1A1A"/>
<path d="M66.759 67.0859H56.884V77.1171H66.759V67.0859Z" fill="#1A1A1A"/>
<path d="M56.875 91.4341H47V105.531H56.875V91.4341Z" fill="#1A1A1A"/>
<path d="M19.5548 209.5H0.125V219.93H19.5548V209.5Z" fill="black"/>
<path d="M162.125 198.125H150.375V208.781H162.125V198.125Z" fill="#CCCCCC"/>
<path d="M150.584 199.5H105V209.531H150.584V199.5Z" fill="#1A1A1A"/>
<path d="M171.721 190.5H115V200.531H171.721V190.5Z" fill="#1A1A1A"/>
<path d="M171.875 181.408H162V208.94H171.875V181.408Z" fill="#1A1A1A"/>
<path d="M162.927 170.363H123V191.531H162.927V170.363Z" fill="#1A1A1A"/>
<path d="M142.244 151.247H123V171.531H142.244V151.247Z" fill="#1A1A1A"/>
<path d="M20.375 198.875H8.625V209.531H20.375V198.875Z" fill="#ECECEC"/>
<path d="M10.75 179.75H0.125V210.406H10.75V179.75Z" fill="black"/>
<path d="M19.5 169.5H9.625V179.531H19.5V169.5Z" fill="black"/>
<path d="M10 151.25H0.125V170.906H10V151.25Z" fill="black"/>
<path d="M18.875 122.812H9V152.531H18.875V122.812Z" fill="black"/>
<path d="M9.87501 103.5H0V124.531H9.87501V103.5Z" fill="black"/>
<path d="M29.8125 94.5H9.5625V104.531H29.8125V94.5Z" fill="black"/>
<path d="M38.875 104.5H29V114.531H38.875V104.5Z" fill="black"/>
<path d="M114.625 47H104.75V57.0312H114.625V47Z" fill="black"/>
<path d="M123.764 56.7981H113.889V66.8293H123.764V56.7981Z" fill="black"/>
<path d="M133.421 66.3667H123.546V76.3979H133.421V66.3667Z" fill="black"/>
<path d="M142.886 75.8311H133.01V113.439H142.886V75.8311Z" fill="black"/>
<path d="M170.613 104.086H142.177V114.117H170.613V104.086Z" fill="black"/>
<path d="M191.232 94.3232H170.238V104.354H191.232V94.3232Z" fill="black"/>
<path d="M199.875 103.5H190V123.9H199.875V103.5Z" fill="black"/>
<path d="M189.875 122.5H180V172.306H189.875V122.5Z" fill="black"/>
<path d="M181.168 180.146H171.293V209.8H181.168V180.146Z" fill="black"/>
<path d="M180.875 162.323H161.631V172.354H180.875V162.323Z" fill="black"/>
<path d="M171.582 171.677H161.707V181.708H171.582V171.677Z" fill="black"/>
<path d="M47.875 75.625H38V124.406H47.875V75.625Z" fill="black"/>
<path d="M56.875 46.5H47V76.5312H56.875V46.5Z" fill="black"/>
<path d="M65.875 27.75H56V48.2812H65.875V27.75Z" fill="black"/>
<path d="M76.125 8.25H66.25V29.1562H76.125V8.25Z" fill="black"/>
<path d="M95.875 8.25H86V29.1562H95.875V8.25Z" fill="black"/>
<path d="M105.25 28.75H95.375V47.7812H105.25V28.75Z" fill="black"/>
<path d="M86 0H76.125V10.0312H86V0Z" fill="black"/>
<path d="M95.8388 208.749H75.5537V219.179H95.8388V208.749Z" fill="black"/>
<path d="M152.117 209.284H143.543V219.449H152.117V209.284Z" fill="black"/>
<path d="M143.72 170.305H132.583V209.284H143.72V170.305Z" fill="black"/>
<path d="M39.625 198.625H19.875V209.75H39.625V198.625Z" fill="black"/>
<path d="M39.625 161.375H31.75V198.75H39.625V161.375Z" fill="black"/>
</svg>
