<svg width="671" height="352" viewBox="0 0 671 352" fill="none" xmlns="http://www.w3.org/2000/svg">
<rect x="51.6147" y="75.2866" width="25.8074" height="25.0955" fill="#272634"/>
<rect x="77.4221" y="75.2866" width="25.8074" height="25.0955" fill="#272634"/>
<rect x="25.8076" y="100.382" width="25.8074" height="25.0955" fill="#272634"/>
<rect y="125.478" width="25.8074" height="25.0955" fill="#272634"/>
<rect y="150.573" width="25.8074" height="25.0955" fill="#272634"/>
<rect x="25.8076" y="175.669" width="25.8074" height="25.0955" fill="#272634"/>
<rect x="25.8076" y="200.764" width="25.8074" height="25.0955" fill="#272634"/>
<rect x="154.844" y="125.478" width="25.8074" height="25.0955" fill="#272634"/>
<rect x="180.652" y="100.382" width="25.8074" height="25.0955" fill="#272634"/>
<rect x="206.459" y="75.2866" width="25.8074" height="25.0955" fill="#272634"/>
<rect x="232.267" y="75.2866" width="25.8074" height="25.0955" fill="#272634"/>
<rect x="258.074" y="100.382" width="25.8074" height="25.0955" fill="#272634"/>
<rect x="283.881" y="125.478" width="25.8074" height="25.0955" fill="#272634"/>
<rect x="335.496" y="125.478" width="25.8074" height="25.0955" fill="#272634"/>
<rect x="335.496" y="100.382" width="25.8074" height="25.0955" fill="#272634"/>
<rect x="283.881" y="150.573" width="25.8074" height="25.0955" fill="#272634"/>
<rect x="283.881" y="100.382" width="25.8074" height="25.0955" fill="#272634"/>
<rect x="283.881" y="75.2866" width="25.8074" height="25.0955" fill="#272634"/>
<rect x="283.881" y="50.1912" width="25.8074" height="25.0955" fill="#272634"/>
<rect x="283.881" y="25.0955" width="25.8074" height="25.0955" fill="#272634"/>
<rect x="283.881" width="25.8074" height="25.0955" fill="#272634"/>
<rect x="309.688" width="25.8074" height="25.0955" fill="#272634"/>
<rect x="335.496" y="25.0955" width="25.8074" height="25.0955" fill="#272634"/>
<rect x="335.496" y="50.1912" width="25.8074" height="25.0955" fill="#272634"/>
<rect x="387.111" y="125.478" width="25.8074" height="25.0955" fill="#272634"/>
<rect x="412.918" y="150.573" width="25.8074" height="25.0955" fill="#272634"/>
<rect x="438.726" y="150.573" width="25.8074" height="25.0955" fill="#272634"/>
<rect x="438.726" y="125.478" width="25.8074" height="25.0955" fill="#272634"/>
<rect x="438.726" y="100.382" width="25.8074" height="25.0955" fill="#272634"/>
<rect x="464.533" y="100.382" width="25.8074" height="25.0955" fill="#272634"/>
<rect x="490.34" y="100.382" width="25.8074" height="25.0955" fill="#272634"/>
<rect x="490.34" y="75.2866" width="25.8074" height="25.0955" fill="#272634"/>
<rect x="490.34" y="50.1912" width="25.8074" height="25.0955" fill="#272634"/>
<rect x="490.34" y="25.0955" width="25.8074" height="25.0955" fill="#272634"/>
<rect x="490.34" width="25.8074" height="25.0955" fill="#272634"/>
<rect x="464.533" width="25.8074" height="25.0955" fill="#272634"/>
<rect x="438.726" width="25.8074" height="25.0955" fill="#272634"/>
<rect x="412.918" width="25.8074" height="25.0955" fill="#272634"/>
<rect x="438.726" y="50.1912" width="25.8074" height="25.0955" fill="#272634"/>
<rect x="438.726" y="50.1912" width="25.8074" height="25.0955" fill="#272634"/>
<rect x="387.111" y="100.382" width="25.8074" height="25.0955" fill="#272634"/>
<rect x="387.111" y="75.2866" width="25.8074" height="25.0955" fill="#272634"/>
<rect x="387.111" y="50.1912" width="25.8074" height="25.0955" fill="#272634"/>
<rect x="387.111" y="25.0955" width="25.8074" height="25.0955" fill="#272634"/>
<rect x="387.111" width="25.8074" height="25.0955" fill="#272634"/>
<rect x="361.303" width="25.8074" height="25.0955" fill="#272634"/>
<rect x="335.496" width="25.8074" height="25.0955" fill="#272634"/>
<rect x="77.4221" y="250.955" width="25.8074" height="25.0955" fill="#272634"/>
<rect x="103.229" y="276.051" width="25.8074" height="25.0955" fill="#272634"/>
<rect x="129.037" y="301.146" width="25.8074" height="25.0955" fill="#272634"/>
<rect x="129.037" y="326.242" width="25.8074" height="25.0955" fill="#272634"/>
<rect x="154.844" y="326.242" width="25.8074" height="25.0955" fill="#272634"/>
<rect x="180.652" y="326.242" width="25.8074" height="25.0955" fill="#272634"/>
<rect x="206.459" y="326.242" width="25.8074" height="25.0955" fill="#272634"/>
<rect x="232.267" y="326.242" width="25.8074" height="25.0955" fill="#272634"/>
<rect x="258.074" y="326.242" width="25.8074" height="25.0955" fill="#272634"/>
<rect x="283.881" y="326.242" width="25.8074" height="25.0955" fill="#272634"/>
<rect x="309.688" y="326.242" width="25.8074" height="25.0955" fill="#272634"/>
<rect x="335.496" y="326.242" width="25.8074" height="25.0955" fill="#272634"/>
<rect x="361.303" y="326.242" width="25.8074" height="25.0955" fill="#272634"/>
<rect x="412.918" y="225.86" width="25.8074" height="25.0955" fill="#C3C2D2"/>
<rect x="438.726" y="225.86" width="25.8074" height="25.0955" fill="#C3C2D2"/>
<rect x="464.533" y="225.86" width="25.8074" height="25.0955" fill="#C3C2D2"/>
<rect x="541.955" y="225.86" width="25.8074" height="25.0955" fill="#C2C1D1"/>
<rect x="567.762" y="225.86" width="25.8074" height="25.0955" fill="#C2C1D1"/>
<rect x="593.57" y="225.86" width="25.8074" height="25.0955" fill="#C2C1D1"/>
<rect x="490.34" y="225.86" width="25.8074" height="25.0955" fill="#C3C2D2"/>
<rect x="258.074" y="225.86" width="25.8074" height="25.0955" fill="#C3C2D2"/>
<rect x="283.881" y="225.86" width="25.8074" height="25.0955" fill="#C3C2D2"/>
<rect x="309.688" y="225.86" width="25.8074" height="25.0955" fill="#C3C2D2"/>
<rect x="335.496" y="225.86" width="51.6148" height="25.0955" fill="#C3C2D2"/>
<rect x="516.148" y="225.86" width="25.8074" height="25.0955" fill="#AF3257"/>
<rect x="412.918" y="250.955" width="103.23" height="50.191" fill="#807F8F"/>
<rect x="232.267" y="250.955" width="154.844" height="50.191" fill="#807F8F"/>
<rect x="541.955" y="250.955" width="51.6148" height="50.191" fill="#7E7D8D"/>
<rect x="593.57" y="250.955" width="25.8074" height="25.0955" fill="#7E7D8D"/>
<rect x="593.57" y="250.955" width="25.8074" height="25.0955" fill="#7E7D8D"/>
<rect x="541.955" y="200.764" width="77.4221" height="25.0955" fill="#7F7D8E"/>
<rect x="412.918" y="200.764" width="103.23" height="25.0955" fill="#7E808F"/>
<rect x="283.881" y="200.764" width="103.23" height="25.0955" fill="#7E808F"/>
<rect x="516.148" y="200.764" width="25.8074" height="25.0955" fill="#626171"/>
<rect x="387.111" y="200.764" width="25.8074" height="25.0955" fill="#626171"/>
<rect x="516.148" y="225.86" width="25.8074" height="25.0955" fill="#75255A"/>
<rect x="516.148" y="250.955" width="25.8074" height="25.0955" fill="#626171"/>
<rect x="516.148" y="276.051" width="25.8074" height="25.0955" fill="#626171"/>
<rect x="387.111" y="250.955" width="25.8074" height="25.0955" fill="#626171"/>
<rect x="387.111" y="276.051" width="25.8074" height="25.0955" fill="#626171"/>
<rect x="387.111" y="250.955" width="25.8074" height="25.0955" fill="#626171"/>
<rect x="387.111" y="276.051" width="25.8074" height="25.0955" fill="#626171"/>
<rect x="387.111" y="301.146" width="25.8074" height="25.0955" fill="#626171"/>
<rect x="516.148" y="301.146" width="25.8074" height="25.0955" fill="#626171"/>
<rect x="412.918" y="301.146" width="129.037" height="25.0955" fill="#626171"/>
<rect x="180.652" y="301.146" width="206.459" height="25.0955" fill="#626171"/>
<rect x="541.955" y="301.146" width="25.8074" height="25.0955" fill="#626171"/>
<rect x="567.762" y="301.146" width="25.8074" height="25.0955" fill="#626171"/>
<rect x="593.57" y="276.051" width="25.8074" height="25.0955" fill="#626171"/>
<rect x="619.377" y="250.955" width="25.8074" height="25.0955" fill="#626171"/>
<rect x="619.377" y="200.764" width="25.8074" height="25.0955" fill="#626171"/>
<rect x="619.377" y="175.669" width="25.8074" height="25.0955" fill="#272634"/>
<rect x="645.185" y="175.669" width="25.8074" height="25.0955" fill="#272634"/>
<rect x="645.185" y="200.764" width="25.8074" height="25.0955" fill="#272634"/>
<rect x="645.185" y="225.86" width="25.8074" height="25.0955" fill="#272634"/>
<rect x="645.185" y="250.955" width="25.8074" height="25.0955" fill="#272634"/>
<rect x="619.377" y="276.051" width="25.8074" height="25.0955" fill="#272634"/>
<rect x="593.57" y="301.146" width="25.8074" height="25.0955" fill="#272634"/>
<rect x="567.762" y="326.242" width="25.8074" height="25.0955" fill="#272634"/>
<rect x="541.955" y="326.242" width="25.8074" height="25.0955" fill="#272634"/>
<rect x="309.688" y="175.669" width="103.23" height="25.0955" fill="#272634"/>
<rect x="309.688" y="150.573" width="103.23" height="25.0955" fill="#272634"/>
<rect x="412.918" y="175.669" width="103.23" height="25.0955" fill="#272634"/>
<rect x="516.148" y="175.669" width="103.23" height="25.0955" fill="#272634"/>
<rect x="412.918" y="326.242" width="129.037" height="25.0955" fill="#272634"/>
<rect x="387.111" y="326.242" width="25.8074" height="25.0955" fill="#272634"/>
<rect x="206.459" y="276.051" width="25.8074" height="25.0955" fill="#272634"/>
<rect x="180.652" y="276.051" width="25.8074" height="25.0955" fill="#272634"/>
<rect x="154.844" y="301.146" width="25.8074" height="25.0955" fill="#272634"/>
<rect x="206.459" y="250.955" width="25.8074" height="25.0955" fill="#272634"/>
<rect x="232.267" y="225.86" width="25.8074" height="25.0955" fill="#272634"/>
<rect x="258.074" y="200.764" width="25.8074" height="25.0955" fill="#272634"/>
<rect x="258.074" y="175.669" width="25.8074" height="25.0955" fill="#272634"/>
<rect x="283.881" y="175.669" width="25.8074" height="25.0955" fill="#272634"/>
<rect x="51.6147" y="225.86" width="25.8074" height="25.0955" fill="#272634"/>
<rect x="103.229" y="100.382" width="25.8074" height="25.0955" fill="#272634"/>
<rect x="129.037" y="125.478" width="25.8074" height="25.0955" fill="#272634"/>
<rect x="309.688" y="125.478" width="25.8074" height="25.0955" fill="#AC345A"/>
<rect x="516.148" y="225.86" width="25.8074" height="25.0955" fill="#818090"/>
<rect x="387.111" y="225.86" width="25.8074" height="25.0955" fill="#818090"/>
<rect x="619.377" y="225.86" width="25.8074" height="25.0955" fill="#818090"/>
<rect x="103.229" y="250.955" width="25.8074" height="25.0955" fill="#43424F"/>
<rect x="51.6147" y="200.764" width="25.8074" height="25.0955" fill="#43424F"/>
<rect x="25.8076" y="150.573" width="25.8074" height="25.0955" fill="#43424F"/>
<rect x="25.8076" y="125.478" width="25.8074" height="25.0955" fill="#43424F"/>
<rect x="51.6147" y="100.382" width="25.8074" height="25.0955" fill="#43424F"/>
<rect x="77.4221" y="100.382" width="25.8074" height="25.0955" fill="#43424F"/>
<rect x="103.229" y="125.478" width="25.8074" height="25.0955" fill="#43424F"/>
<rect x="154.844" y="150.573" width="25.8074" height="25.0955" fill="#43424F"/>
<rect x="206.459" y="125.478" width="25.8074" height="25.0955" fill="#616070"/>
<rect x="206.459" y="150.573" width="25.8074" height="25.0955" fill="#616070"/>
<rect x="206.459" y="175.669" width="25.8074" height="25.0955" fill="#616070"/>
<rect x="206.459" y="200.764" width="25.8074" height="25.0955" fill="#616070"/>
<rect x="206.459" y="225.86" width="25.8074" height="25.0955" fill="#616070"/>
<rect x="180.652" y="225.86" width="25.8074" height="25.0955" fill="#616070"/>
<rect x="180.652" y="200.764" width="25.8074" height="25.0955" fill="#616070"/>
<rect x="180.652" y="175.669" width="25.8074" height="25.0955" fill="#616070"/>
<rect x="180.652" y="150.573" width="25.8074" height="25.0955" fill="#616070"/>
<rect x="154.844" y="250.955" width="25.8074" height="25.0955" fill="#616070"/>
<rect x="129.037" y="250.955" width="25.8074" height="25.0955" fill="#616070"/>
<rect x="129.037" y="225.86" width="25.8074" height="25.0955" fill="#616070"/>
<rect x="129.037" y="200.764" width="25.8074" height="25.0955" fill="#616070"/>
<rect x="232.267" y="125.478" width="25.8074" height="25.0955" fill="#616070"/>
<rect x="232.267" y="150.573" width="25.8074" height="25.0955" fill="#616070"/>
<rect x="232.267" y="175.669" width="25.8074" height="25.0955" fill="#616070"/>
<rect x="232.267" y="175.669" width="25.8074" height="25.0955" fill="#616070"/>
<rect x="103.229" y="175.669" width="25.8074" height="25.0955" fill="#616070"/>
<rect x="77.4221" y="200.764" width="25.8074" height="25.0955" fill="#616070"/>
<rect x="51.6147" y="175.669" width="25.8074" height="25.0955" fill="#616070"/>
<rect x="51.6147" y="150.573" width="25.8074" height="25.0955" fill="#616070"/>
<rect x="77.4221" y="125.478" width="25.8074" height="25.0955" fill="#616070"/>
<rect x="77.4221" y="225.86" width="25.8074" height="25.0955" fill="#616070"/>
<rect x="103.229" y="225.86" width="25.8074" height="25.0955" fill="#616070"/>
<rect x="103.229" y="200.764" width="25.8074" height="25.0955" fill="#616070"/>
<rect x="129.037" y="175.669" width="25.8074" height="25.0955" fill="#616070"/>
<rect x="154.844" y="175.669" width="25.8074" height="25.0955" fill="#616070"/>
<rect x="154.844" y="200.764" width="25.8074" height="25.0955" fill="#616070"/>
<rect x="154.844" y="225.86" width="25.8074" height="25.0955" fill="#616070"/>
<rect x="77.4221" y="175.669" width="25.8074" height="25.0955" fill="#807F8F"/>
<rect x="77.4221" y="150.573" width="25.8074" height="25.0955" fill="#807F8F"/>
<rect x="103.229" y="150.573" width="25.8074" height="25.0955" fill="#807F8F"/>
<rect x="51.6147" y="125.478" width="25.8074" height="25.0955" fill="#616070"/>
<rect x="51.6147" y="125.478" width="25.8074" height="25.0955" fill="#616070"/>
<rect x="180.652" y="125.478" width="25.8074" height="25.0955" fill="#43424F"/>
<rect x="206.459" y="100.382" width="25.8074" height="25.0955" fill="#43424F"/>
<rect x="232.267" y="100.382" width="25.8074" height="25.0955" fill="#43424F"/>
<rect x="129.037" y="276.051" width="25.8074" height="25.0955" fill="#43424F"/>
<rect x="154.844" y="276.051" width="25.8074" height="25.0955" fill="#43424F"/>
<rect x="180.652" y="250.955" width="25.8074" height="25.0955" fill="#43424F"/>
<rect x="232.267" y="200.764" width="25.8074" height="25.0955" fill="#43424F"/>
<rect x="258.074" y="150.573" width="25.8074" height="25.0955" fill="#43424F"/>
<rect x="258.074" y="125.478" width="25.8074" height="25.0955" fill="#43424F"/>
<rect x="129.037" y="150.573" width="25.8074" height="25.0955" fill="#43424F"/>
<rect x="309.688" y="100.382" width="25.8074" height="25.0955" fill="#AC345A"/>
<rect x="309.688" y="75.2866" width="25.8074" height="25.0955" fill="#AC345A"/>
<rect x="335.496" y="75.2866" width="25.8074" height="25.0955" fill="#AC345A"/>
<rect x="309.688" y="50.1912" width="25.8074" height="25.0955" fill="#AC345A"/>
<rect x="309.688" y="25.0955" width="25.8074" height="25.0955" fill="#AC345A"/>
<rect x="361.303" y="125.478" width="25.8074" height="25.0955" fill="#AC345A"/>
<rect x="361.303" y="100.382" width="25.8074" height="25.0955" fill="#AC345A"/>
<rect x="361.303" y="75.2866" width="25.8074" height="25.0955" fill="#AC345A"/>
<rect x="361.303" y="50.1912" width="25.8074" height="25.0955" fill="#AC345A"/>
<rect x="361.303" y="25.0955" width="25.8074" height="25.0955" fill="#AC345A"/>
<rect x="412.918" y="125.478" width="25.8074" height="25.0955" fill="#AC345A"/>
<rect x="412.918" y="100.382" width="25.8074" height="25.0955" fill="#AC345A"/>
<rect x="412.918" y="75.2866" width="25.8074" height="25.0955" fill="#AC345A"/>
<rect x="412.918" y="50.1912" width="25.8074" height="25.0955" fill="#AC345A"/>
<rect x="412.918" y="25.0955" width="25.8074" height="25.0955" fill="#AC345A"/>
<rect x="438.726" y="25.0955" width="25.8074" height="25.0955" fill="#AC345A"/>
<rect x="464.533" y="25.0955" width="25.8074" height="25.0955" fill="#AC345A"/>
<rect x="464.533" y="50.1912" width="25.8074" height="25.0955" fill="#AC345A"/>
<rect x="464.533" y="75.2866" width="25.8074" height="25.0955" fill="#AC345A"/>
<rect x="438.726" y="75.2866" width="25.8074" height="25.0955" fill="#AC345A"/>
</svg>
