<svg width="650" height="350" viewBox="0 0 650 350" fill="none" xmlns="http://www.w3.org/2000/svg">
<rect x="50" y="75" width="25" height="25" fill="#272634"/>
<rect x="75" y="75" width="25" height="25" fill="#272634"/>
<rect x="25" y="100" width="25" height="25" fill="#272634"/>
<rect y="125" width="25" height="25" fill="#272634"/>
<rect y="150" width="25" height="25" fill="#272634"/>
<rect x="25" y="175" width="25" height="25" fill="#272634"/>
<rect x="25" y="200" width="25" height="25" fill="#272634"/>
<rect x="150" y="125" width="25" height="25" fill="#272634"/>
<rect x="175" y="100" width="25" height="25" fill="#272634"/>
<rect x="200" y="75" width="25" height="25" fill="#272634"/>
<rect x="225" y="75" width="25" height="25" fill="#272634"/>
<rect x="250" y="100" width="25" height="25" fill="#272634"/>
<rect x="275" y="125" width="25" height="25" fill="#272634"/>
<rect x="325" y="125" width="25" height="25" fill="#272634"/>
<rect x="325" y="100" width="25" height="25" fill="#272634"/>
<rect x="275" y="150" width="25" height="25" fill="#272634"/>
<rect x="275" y="100" width="25" height="25" fill="#272634"/>
<rect x="275" y="75" width="25" height="25" fill="#272634"/>
<rect x="275" y="50" width="25" height="25" fill="#272634"/>
<rect x="275" y="25" width="25" height="25" fill="#272634"/>
<rect x="275" width="25" height="25" fill="#272634"/>
<rect x="300" width="25" height="25" fill="#272634"/>
<rect x="325" y="25" width="25" height="25" fill="#272634"/>
<rect x="325" y="50" width="25" height="25" fill="#272634"/>
<rect x="375" y="125" width="25" height="25" fill="#272634"/>
<rect x="400" y="150" width="25" height="25" fill="#272634"/>
<rect x="425" y="150" width="25" height="25" fill="#272634"/>
<rect x="425" y="125" width="25" height="25" fill="#272634"/>
<rect x="425" y="100" width="25" height="25" fill="#272634"/>
<rect x="450" y="100" width="25" height="25" fill="#272634"/>
<rect x="475" y="100" width="25" height="25" fill="#272634"/>
<rect x="475" y="75" width="25" height="25" fill="#272634"/>
<rect x="475" y="50" width="25" height="25" fill="#272634"/>
<rect x="475" y="25" width="25" height="25" fill="#272634"/>
<rect x="475" width="25" height="25" fill="#272634"/>
<rect x="450" width="25" height="25" fill="#272634"/>
<rect x="425" width="25" height="25" fill="#272634"/>
<rect x="400" width="25" height="25" fill="#272634"/>
<rect x="425" y="50" width="25" height="25" fill="#272634"/>
<rect x="425" y="50" width="25" height="25" fill="#272634"/>
<rect x="375" y="100" width="25" height="25" fill="#272634"/>
<rect x="375" y="75" width="25" height="25" fill="#272634"/>
<rect x="375" y="50" width="25" height="25" fill="#272634"/>
<rect x="375" y="25" width="25" height="25" fill="#272634"/>
<rect x="375" width="25" height="25" fill="#272634"/>
<rect x="350" width="25" height="25" fill="#272634"/>
<rect x="325" width="25" height="25" fill="#272634"/>
<rect x="75" y="250" width="25" height="25" fill="#272634"/>
<rect x="100" y="275" width="25" height="25" fill="#272634"/>
<rect x="125" y="300" width="25" height="25" fill="#272634"/>
<rect x="125" y="325" width="25" height="25" fill="#272634"/>
<rect x="150" y="325" width="25" height="25" fill="#272634"/>
<rect x="175" y="325" width="25" height="25" fill="#272634"/>
<rect x="200" y="325" width="25" height="25" fill="#272634"/>
<rect x="225" y="325" width="25" height="25" fill="#272634"/>
<rect x="250" y="325" width="25" height="25" fill="#272634"/>
<rect x="275" y="325" width="25" height="25" fill="#272634"/>
<rect x="300" y="325" width="25" height="25" fill="#272634"/>
<rect x="325" y="325" width="25" height="25" fill="#272634"/>
<rect x="350" y="325" width="25" height="25" fill="#272634"/>
<rect x="375" y="200" width="25" height="25" fill="#75255A"/>
<rect x="375" y="225" width="25" height="25" fill="#75255A"/>
<rect x="375" y="225" width="25" height="25" fill="#AF3257"/>
<rect x="350" y="225" width="25" height="25" fill="#E95644"/>
<rect x="400" y="225" width="25" height="25" fill="#C5C4D4"/>
<rect x="425" y="225" width="25" height="25" fill="#C5C4D4"/>
<rect x="450" y="225" width="25" height="25" fill="#C5C4D4"/>
<rect x="525" y="225" width="25" height="25" fill="#C5C4D4"/>
<rect x="550" y="225" width="25" height="25" fill="#C5C4D4"/>
<rect x="575" y="225" width="25" height="25" fill="#C5C4D4"/>
<rect x="475" y="225" width="25" height="25" fill="#C5C4D4"/>
<rect x="325" y="225" width="25" height="25" fill="#E95644"/>
<rect x="300" y="225" width="25" height="25" fill="#E95644"/>
<rect x="275" y="225" width="25" height="25" fill="#E95644"/>
<rect x="250" y="225" width="25" height="25" fill="#E95644"/>
<rect x="375" y="250" width="25" height="25" fill="#75255A"/>
<rect x="500" y="225" width="25" height="25" fill="#AF3257"/>
<rect x="375" y="275" width="25" height="25" fill="#75255A"/>
<rect x="225" y="250" width="150" height="50" fill="#AC325B"/>
<rect x="400" y="250" width="100" height="50" fill="#807F8F"/>
<rect x="525" y="250" width="50" height="50" fill="#807F8F"/>
<rect x="575" y="250" width="25" height="25" fill="#807F8F"/>
<rect x="525" y="200" width="75" height="25" fill="#807F8F"/>
<rect x="400" y="200" width="100" height="25" fill="#807F8F"/>
<rect x="275" y="200" width="100" height="25" fill="#AC325B"/>
<rect x="375" y="300" width="25" height="25" fill="#75255A"/>
<rect x="400" y="300" width="100" height="25" fill="#5D5C6C"/>
<rect x="175" y="300" width="200" height="25" fill="#75255A"/>
<rect x="500" y="225" width="25" height="25" fill="#75255A"/>
<rect x="525" y="300" width="25" height="25" fill="#5D5C6C"/>
<rect x="500" y="300" width="25" height="25" fill="#5D5C6C"/>
<rect x="500" y="275" width="25" height="25" fill="#5D5C6C"/>
<rect x="500" y="250" width="25" height="25" fill="#5D5C6C"/>
<rect x="500" y="200" width="25" height="25" fill="#5D5C6C"/>
<rect x="550" y="300" width="25" height="25" fill="#5D5C6C"/>
<rect x="575" y="275" width="25" height="25" fill="#5D5C6C"/>
<rect x="600" y="250" width="25" height="25" fill="#5D5C6C"/>
<rect x="600" y="200" width="25" height="25" fill="#5D5C6C"/>
<rect x="600" y="175" width="25" height="25" fill="#272634"/>
<rect x="625" y="175" width="25" height="25" fill="#272634"/>
<rect x="625" y="200" width="25" height="25" fill="#272634"/>
<rect x="625" y="225" width="25" height="25" fill="#272634"/>
<rect x="625" y="250" width="25" height="25" fill="#272634"/>
<rect x="600" y="275" width="25" height="25" fill="#272634"/>
<rect x="575" y="300" width="25" height="25" fill="#272634"/>
<rect x="550" y="325" width="25" height="25" fill="#272634"/>
<rect x="525" y="325" width="25" height="25" fill="#272634"/>
<rect x="300" y="175" width="100" height="25" fill="#272634"/>
<rect x="300" y="150" width="100" height="25" fill="#272634"/>
<rect x="400" y="175" width="100" height="25" fill="#272634"/>
<rect x="500" y="175" width="100" height="25" fill="#272634"/>
<rect x="400" y="325" width="125" height="25" fill="#272634"/>
<rect x="375" y="325" width="25" height="25" fill="#272634"/>
<rect x="200" y="275" width="25" height="25" fill="#272634"/>
<rect x="175" y="275" width="25" height="25" fill="#272634"/>
<rect x="150" y="300" width="25" height="25" fill="#272634"/>
<rect x="200" y="250" width="25" height="25" fill="#272634"/>
<rect x="225" y="225" width="25" height="25" fill="#272634"/>
<rect x="250" y="200" width="25" height="25" fill="#272634"/>
<rect x="250" y="175" width="25" height="25" fill="#272634"/>
<rect x="275" y="175" width="25" height="25" fill="#272634"/>
<rect x="50" y="225" width="25" height="25" fill="#272634"/>
<rect x="100" y="100" width="25" height="25" fill="#272634"/>
<rect x="125" y="125" width="25" height="25" fill="#272634"/>
<rect x="300" y="125" width="25" height="25" fill="#D9D9D9"/>
<rect x="600" y="225" width="25" height="25" fill="#807F8F"/>
<rect x="500" y="225" width="25" height="25" fill="#807F8F"/>
<rect x="100" y="250" width="25" height="25" fill="#AB305F"/>
<rect x="50" y="200" width="25" height="25" fill="#AB305F"/>
<rect x="25" y="150" width="25" height="25" fill="#AB305F"/>
<rect x="25" y="125" width="25" height="25" fill="#AB305F"/>
<rect x="50" y="100" width="25" height="25" fill="#AB305F"/>
<rect x="75" y="100" width="25" height="25" fill="#AB305F"/>
<rect x="100" y="125" width="25" height="25" fill="#AB305F"/>
<rect x="150" y="150" width="25" height="25" fill="#AB305F"/>
<rect x="200" y="125" width="25" height="25" fill="#EA564A"/>
<rect x="200" y="150" width="25" height="25" fill="#EA564A"/>
<rect x="200" y="175" width="25" height="25" fill="#EA564A"/>
<rect x="200" y="200" width="25" height="25" fill="#EA564A"/>
<rect x="200" y="225" width="25" height="25" fill="#EA564A"/>
<rect x="175" y="225" width="25" height="25" fill="#EA564A"/>
<rect x="175" y="200" width="25" height="25" fill="#EA564A"/>
<rect x="175" y="175" width="25" height="25" fill="#EA564A"/>
<rect x="175" y="150" width="25" height="25" fill="#EA564A"/>
<rect x="150" y="250" width="25" height="25" fill="#EA564A"/>
<rect x="125" y="250" width="25" height="25" fill="#EA564A"/>
<rect x="125" y="225" width="25" height="25" fill="#EA564A"/>
<rect x="125" y="200" width="25" height="25" fill="#EA564A"/>
<rect x="225" y="125" width="25" height="25" fill="#EA564A"/>
<rect x="225" y="150" width="25" height="25" fill="#EA564A"/>
<rect x="225" y="175" width="25" height="25" fill="#EA564A"/>
<rect x="225" y="175" width="25" height="25" fill="#EA564A"/>
<rect x="100" y="175" width="25" height="25" fill="#EA564A"/>
<rect x="75" y="200" width="25" height="25" fill="#EA564A"/>
<rect x="50" y="175" width="25" height="25" fill="#EA564A"/>
<rect x="50" y="150" width="25" height="25" fill="#EA564A"/>
<rect x="75" y="125" width="25" height="25" fill="#EA564A"/>
<rect x="75" y="225" width="25" height="25" fill="#EA564A"/>
<rect x="100" y="225" width="25" height="25" fill="#EA564A"/>
<rect x="100" y="200" width="25" height="25" fill="#EA564A"/>
<rect x="125" y="175" width="25" height="25" fill="#EA564A"/>
<rect x="150" y="175" width="25" height="25" fill="#EA564A"/>
<rect x="150" y="200" width="25" height="25" fill="#EA564A"/>
<rect x="150" y="225" width="25" height="25" fill="#EA564A"/>
<rect x="75" y="175" width="25" height="25" fill="#F8906B"/>
<rect x="75" y="150" width="25" height="25" fill="#F8906B"/>
<rect x="100" y="150" width="25" height="25" fill="#F8906B"/>
<rect x="50" y="125" width="25" height="25" fill="#EA564A"/>
<rect x="50" y="125" width="25" height="25" fill="#EA564A"/>
<rect x="175" y="125" width="25" height="25" fill="#AB305F"/>
<rect x="200" y="100" width="25" height="25" fill="#AB305F"/>
<rect x="225" y="100" width="25" height="25" fill="#AB305F"/>
<rect x="125" y="275" width="25" height="25" fill="#AB305F"/>
<rect x="150" y="275" width="25" height="25" fill="#AB305F"/>
<rect x="175" y="250" width="25" height="25" fill="#AB305F"/>
<rect x="225" y="200" width="25" height="25" fill="#AB305F"/>
<rect x="250" y="150" width="25" height="25" fill="#AB305F"/>
<rect x="250" y="125" width="25" height="25" fill="#AB305F"/>
<rect x="125" y="150" width="25" height="25" fill="#AB305F"/>
<rect x="300" y="100" width="25" height="25" fill="#D9D9D9"/>
<rect x="300" y="75" width="25" height="25" fill="#D9D9D9"/>
<rect x="325" y="75" width="25" height="25" fill="#D9D9D9"/>
<rect x="300" y="50" width="25" height="25" fill="#D9D9D9"/>
<rect x="300" y="25" width="25" height="25" fill="#D9D9D9"/>
<rect x="350" y="125" width="25" height="25" fill="#D9D9D9"/>
<rect x="350" y="100" width="25" height="25" fill="#D9D9D9"/>
<rect x="350" y="75" width="25" height="25" fill="#D9D9D9"/>
<rect x="350" y="50" width="25" height="25" fill="#D9D9D9"/>
<rect x="350" y="25" width="25" height="25" fill="#D9D9D9"/>
<rect x="400" y="125" width="25" height="25" fill="#D9D9D9"/>
<rect x="400" y="100" width="25" height="25" fill="#D9D9D9"/>
<rect x="400" y="75" width="25" height="25" fill="#D9D9D9"/>
<rect x="400" y="50" width="25" height="25" fill="#D9D9D9"/>
<rect x="400" y="25" width="25" height="25" fill="#D9D9D9"/>
<rect x="425" y="25" width="25" height="25" fill="#D9D9D9"/>
<rect x="450" y="25" width="25" height="25" fill="#D9D9D9"/>
<rect x="450" y="50" width="25" height="25" fill="#D9D9D9"/>
<rect x="450" y="75" width="25" height="25" fill="#D9D9D9"/>
<rect x="425" y="75" width="25" height="25" fill="#D9D9D9"/>
</svg>
