<svg width="107" height="185" viewBox="0 0 107 185" fill="none" xmlns="http://www.w3.org/2000/svg">
<path d="M51.1019 180.367C50.9779 178.505 50.64 173.75 51.1019 169.485C51.4148 166.597 48.9543 164.474 46.3771 164.474C43.5136 164.474 41.755 166.495 41.2228 168.34C40.0044 172.564 40.5069 174.998 41.3659 178.935C42.0532 182.085 42.4398 183.808 44.0863 184.232C45.1759 184.514 49.3122 185.061 51.1019 183.875C51.9953 183.282 51.226 182.228 51.1019 180.367Z" fill="#FFE5A2"/>
<path d="M46.3771 164.08C49.1422 164.08 51.8363 166.363 51.4935 169.528C51.0358 173.752 51.3705 178.475 51.4949 180.341C51.5556 181.251 51.7642 181.893 51.8718 182.531C51.922 182.829 51.9501 183.14 51.8788 183.432C51.8022 183.745 51.6197 184.004 51.3195 184.203C50.8076 184.542 50.1529 184.743 49.4697 184.859C48.7819 184.975 48.0373 185.01 47.3248 184.998C45.9044 184.974 44.5667 184.763 43.9879 184.614C43.0127 184.362 42.4264 183.714 42.0063 182.765C41.5981 181.842 41.3215 180.578 40.9813 179.019C40.1194 175.068 39.5976 172.553 40.8444 168.231C41.4139 166.257 43.3001 164.08 46.3771 164.08ZM46.3771 164.868C43.7271 164.868 42.0962 166.733 41.6011 168.449C40.4112 172.574 40.8944 174.927 41.7506 178.851C42.0976 180.442 42.3579 181.614 42.7264 182.446C43.0831 183.252 43.5134 183.678 44.1847 183.851C44.6955 183.983 45.9707 184.187 47.3383 184.21C48.0198 184.222 48.7131 184.188 49.3383 184.083C49.968 183.976 50.5015 183.8 50.8844 183.546C51.0308 183.449 51.0873 183.353 51.1138 183.245C51.1457 183.114 51.1412 182.934 51.0952 182.662C51.0106 182.16 50.7724 181.344 50.7091 180.393C50.5853 178.536 50.2442 173.747 50.7105 169.443C50.9934 166.831 48.7664 164.868 46.3771 164.868Z" fill="#614D35"/>
<path d="M46.3771 164.08C49.1421 164.08 51.8363 166.363 51.4934 169.528C51.0358 173.752 51.3704 178.475 51.4948 180.341C51.5555 181.251 51.7642 181.893 51.8718 182.531C51.922 182.829 51.95 183.14 51.8788 183.432C51.8022 183.745 51.6197 184.004 51.3195 184.203C50.8076 184.542 50.1529 184.743 49.4697 184.859C48.7819 184.975 48.0372 185.01 47.3248 184.998C45.9044 184.974 44.5667 184.763 43.9879 184.614C43.0127 184.362 42.4264 183.714 42.0063 182.765C41.5981 181.842 41.3215 180.578 40.9813 179.019C40.1194 175.068 39.5976 172.553 40.8444 168.231C41.4139 166.257 43.3001 164.08 46.3771 164.08ZM46.3771 164.868C43.7271 164.868 42.0962 166.733 41.6011 168.449C40.4112 172.574 40.8944 174.927 41.7506 178.851C42.0976 180.442 42.3579 181.614 42.7264 182.446C43.083 183.252 43.5134 183.678 44.1847 183.851C44.6955 183.983 45.9707 184.187 47.3382 184.21C48.0198 184.222 48.7131 184.188 49.3382 184.083C49.968 183.976 50.5015 183.8 50.8844 183.546C51.0308 183.449 51.0873 183.353 51.1138 183.245C51.1457 183.114 51.1412 182.934 51.0952 182.662C51.0105 182.16 50.7724 181.344 50.709 180.393C50.5853 178.536 50.2442 173.747 50.7104 169.443C50.9934 166.831 48.7664 164.868 46.3771 164.868Z" fill="#614D35"/>
<path d="M67.5672 180.08C67.4431 178.219 67.1053 173.463 67.5672 169.199C67.8801 166.311 65.4196 164.188 62.8424 164.188C59.9789 164.188 58.2203 166.208 57.6881 168.054C56.4697 172.277 56.9722 174.711 57.8312 178.649C58.5185 181.798 58.9051 183.521 60.5516 183.946C61.6411 184.227 65.7775 184.775 67.5672 183.588C68.4606 182.996 67.6913 181.942 67.5672 180.08Z" fill="#FFE5A2"/>
<path d="M62.8424 163.794C65.6075 163.794 68.3016 166.076 67.9587 169.241C67.5011 173.466 67.8357 178.188 67.9601 180.054C68.0208 180.965 68.2295 181.606 68.3371 182.245C68.3873 182.542 68.4153 182.853 68.3441 183.145C68.2675 183.459 68.085 183.717 67.7848 183.916C67.2729 184.256 66.6182 184.457 65.935 184.573C65.2472 184.689 64.5025 184.723 63.7901 184.711C62.3697 184.687 61.032 184.477 60.4532 184.327C59.478 184.076 58.8917 183.428 58.4716 182.479C58.0634 181.556 57.7868 180.292 57.4466 178.732C56.5847 174.782 56.0629 172.267 57.3097 167.944C57.8792 165.97 59.7654 163.794 62.8424 163.794ZM62.8424 164.581C60.1924 164.581 58.5615 166.446 58.0664 168.163C56.8765 172.288 57.3597 174.64 58.2159 178.565C58.5629 180.155 58.8232 181.327 59.1917 182.16C59.5483 182.966 59.9787 183.392 60.65 183.565C61.1608 183.697 62.436 183.901 63.8035 183.924C64.4851 183.936 65.1784 183.902 65.8035 183.796C66.4333 183.69 66.9668 183.514 67.3497 183.26C67.4961 183.163 67.5526 183.067 67.5791 182.958C67.611 182.828 67.6065 182.648 67.5605 182.376C67.4758 181.873 67.2377 181.057 67.1743 180.106C67.0506 178.25 66.7095 173.46 67.1757 169.157C67.4587 166.545 65.2317 164.581 62.8424 164.581Z" fill="#614D35"/>
<path d="M62.8424 163.794C65.6075 163.794 68.3016 166.076 67.9587 169.241C67.5011 173.466 67.8357 178.188 67.9601 180.054C68.0208 180.965 68.2295 181.606 68.3371 182.245C68.3873 182.542 68.4153 182.853 68.3441 183.145C68.2675 183.459 68.085 183.717 67.7848 183.916C67.2729 184.256 66.6182 184.457 65.935 184.573C65.2472 184.689 64.5025 184.723 63.7901 184.711C62.3697 184.687 61.032 184.477 60.4532 184.327C59.478 184.076 58.8917 183.428 58.4716 182.479C58.0634 181.556 57.7868 180.292 57.4466 178.732C56.5847 174.782 56.0629 172.267 57.3097 167.944C57.8792 165.97 59.7654 163.794 62.8424 163.794ZM62.8424 164.581C60.1924 164.581 58.5615 166.446 58.0664 168.163C56.8765 172.288 57.3597 174.64 58.2159 178.565C58.5629 180.155 58.8232 181.327 59.1917 182.16C59.5483 182.966 59.9787 183.392 60.65 183.565C61.1608 183.697 62.436 183.901 63.8035 183.924C64.4851 183.936 65.1784 183.902 65.8035 183.796C66.4333 183.69 66.9668 183.514 67.3497 183.26C67.4961 183.163 67.5526 183.067 67.5791 182.958C67.611 182.828 67.6065 182.648 67.5605 182.376C67.4758 181.873 67.2377 181.057 67.1743 180.106C67.0506 178.25 66.7095 173.46 67.1757 169.157C67.4587 166.545 65.2317 164.581 62.8424 164.581Z" fill="#614D35"/>
<path d="M51.3167 168.555C51.4695 167.791 51.794 163.281 51.6031 161.324C50.0568 154.337 41.0796 156.027 40.2921 160.752C40.2206 162.971 40.5069 167.481 41.2944 168.555C42.5221 170.229 43.9431 170.917 46.4487 171.132C49.4445 171.389 51.0304 169.986 51.3167 168.555Z" fill="#FFE5A2"/>
<path d="M51.8282 160.143C52.0455 160.149 52.2171 160.33 52.2114 160.547C52.1622 162.422 52.1399 164.852 51.9234 167.089C51.8893 167.442 51.7042 168.77 51.4136 170.005C51.3638 170.217 51.1518 170.348 50.9402 170.298C50.7285 170.248 50.5973 170.036 50.6471 169.825C50.9292 168.626 51.1087 167.333 51.1396 167.013C51.3526 164.812 51.3745 162.422 51.4242 160.526C51.4299 160.309 51.6108 160.137 51.8282 160.143Z" fill="#614D35"/>
<path d="M40.6859 168.698C40.6859 167.619 40.4934 166.091 40.2953 164.56C40.1002 163.053 39.8984 161.535 39.8984 160.537C39.8984 160.319 40.0747 160.143 40.2921 160.143C40.5096 160.143 40.6859 160.319 40.6859 160.537C40.6859 161.471 40.8778 162.925 41.0764 164.459C41.2721 165.972 41.4733 167.557 41.4733 168.698C41.4733 168.915 41.297 169.092 41.0796 169.092C40.8621 169.092 40.6859 168.915 40.6859 168.698Z" fill="#614D35"/>
<path d="M52.7553 150.873C53.4712 152.755 53.1133 158.072 53.1133 159.953C53.1133 161.835 49.0767 162.254 46.3124 162.326C43.9888 162.386 39.2967 161.999 39.2967 159.953C39.2968 155.863 38.7956 152.428 40.0126 150.137C41.2296 147.847 43.876 147.11 47.0283 147.11C49.4623 147.11 52.0395 148.992 52.7553 150.873Z" fill="#5E6152"/>
<path d="M52.7911 159.954C52.7911 159.477 52.8138 158.785 52.836 157.996C52.8584 157.204 52.8806 156.308 52.8806 155.413C52.8806 154.518 52.8583 153.628 52.7923 152.849C52.7257 152.062 52.6164 151.414 52.4542 150.988C52.1262 150.126 51.3555 149.233 50.355 148.553C49.3569 147.874 48.1661 147.433 47.0283 147.433C43.8985 147.433 41.4242 148.167 40.2972 150.288C39.7262 151.363 39.5471 152.73 39.5205 154.376C39.5072 155.195 39.5315 156.072 39.5595 157.007C39.5874 157.938 39.6189 158.925 39.6189 159.954C39.6189 160.32 39.8224 160.641 40.247 160.929C40.676 161.22 41.2914 161.447 42.0072 161.616C43.4342 161.952 45.1581 162.034 46.304 162.004C47.6803 161.968 49.3508 161.846 50.6691 161.506C51.3301 161.336 51.8764 161.117 52.2506 160.847C52.6181 160.581 52.7911 160.289 52.7911 159.954ZM53.4354 159.954C53.4354 160.559 53.1038 161.025 52.6281 161.369C52.1591 161.708 51.5235 161.951 50.8299 162.13C49.4388 162.488 47.7088 162.611 46.3208 162.648C45.1431 162.678 43.3591 162.596 41.8592 162.243C41.1116 162.067 40.4087 161.817 39.8854 161.462C39.3577 161.104 38.9746 160.609 38.9746 159.954C38.9746 158.937 38.9435 157.96 38.9155 157.026C38.8875 156.094 38.8626 155.202 38.8762 154.365C38.9032 152.698 39.0821 151.202 39.7281 149.986C41.0351 147.526 43.8535 146.788 47.0283 146.788C48.3245 146.788 49.6393 147.287 50.7172 148.02C51.7927 148.751 52.6686 149.739 53.0564 150.759C53.2521 151.273 53.3666 151.996 53.4342 152.794C53.5024 153.599 53.5249 154.509 53.5249 155.413C53.5249 156.318 53.5024 157.222 53.48 158.015C53.4576 158.811 53.4354 159.489 53.4354 159.954Z" fill="#614D35"/>
<path d="M39.4809 159.359C41.199 151.685 49.2646 152.248 53.0827 153.489C53.2259 151.532 51.1498 147.619 47.8567 147.332C42.774 146.89 41.2706 148.549 40.1252 150.482C39.2089 152.028 39.3139 157.188 39.4809 159.359Z" fill="#4E5142"/>
<path d="M52.7911 159.993C52.7911 159.517 52.8138 158.825 52.836 158.036C52.8584 157.244 52.8806 156.348 52.8806 155.453C52.8806 154.557 52.8583 153.668 52.7923 152.888C52.7257 152.102 52.6164 151.454 52.4542 151.027C52.1262 150.165 51.3555 149.272 50.355 148.592C49.3569 147.914 48.1661 147.472 47.0283 147.472C43.8985 147.472 41.4242 148.207 40.2972 150.328C39.7262 151.402 39.5471 152.769 39.5205 154.415C39.5072 155.235 39.5315 156.112 39.5595 157.046C39.5874 157.978 39.6189 158.965 39.6189 159.993C39.6189 160.36 39.8224 160.68 40.247 160.968C40.676 161.259 41.2914 161.486 42.0072 161.655C43.4342 161.992 45.1581 162.073 46.304 162.043C47.6803 162.007 49.3508 161.885 50.6691 161.546C51.3301 161.375 51.8764 161.157 52.2506 160.886C52.6181 160.62 52.7911 160.328 52.7911 159.993ZM53.4354 159.993C53.4354 160.599 53.1038 161.064 52.6281 161.408C52.1591 161.748 51.5235 161.991 50.8299 162.17C49.4388 162.528 47.7088 162.651 46.3208 162.687C45.1431 162.718 43.3591 162.636 41.8592 162.282C41.1116 162.106 40.4087 161.857 39.8854 161.502C39.3577 161.144 38.9746 160.649 38.9746 159.993C38.9746 158.976 38.9435 158 38.9155 157.065C38.8875 156.133 38.8626 155.242 38.8762 154.405C38.9032 152.738 39.0821 151.241 39.7281 150.025C41.0351 147.566 43.8535 146.828 47.0283 146.828C48.3245 146.828 49.6393 147.327 50.7172 148.059C51.7927 148.791 52.6686 149.779 53.0564 150.798C53.2521 151.313 53.3666 152.035 53.4342 152.834C53.5024 153.639 53.5249 154.549 53.5249 155.453C53.5249 156.358 53.5024 157.261 53.48 158.054C53.4576 158.85 53.4354 159.529 53.4354 159.993Z" fill="#614D35"/>
<path d="M67.8003 168.536C67.9585 167.774 68.3151 163.266 68.1381 161.308C66.6416 154.31 57.6526 155.936 56.8315 160.655C56.7441 162.874 56.9984 167.386 57.7782 168.465C58.9939 170.148 60.4101 170.846 62.9141 171.079C65.9079 171.357 67.5038 169.966 67.8003 168.536Z" fill="#FFE5A2"/>
<path d="M68.3716 160.129C68.5889 160.136 68.7592 160.318 68.752 160.536C68.6894 162.41 68.6498 164.84 68.4174 167.075C68.3807 167.428 68.1862 168.755 67.8869 169.988C67.8355 170.199 67.6227 170.329 67.4113 170.277C67.2 170.226 67.0704 170.013 67.1217 169.802C67.4123 168.605 67.6009 167.313 67.6341 166.994C67.8628 164.794 67.9017 162.404 67.965 160.509C67.9722 160.292 68.1543 160.122 68.3716 160.129Z" fill="#614D35"/>
<path d="M57.1687 168.604C57.1763 167.525 56.9947 165.996 56.8076 164.464C56.6232 162.955 56.4322 161.436 56.4393 160.438C56.4408 160.22 56.6184 160.045 56.8358 160.047C57.0533 160.048 57.2283 160.226 57.2267 160.443C57.2201 161.378 57.4016 162.832 57.5893 164.369C57.7743 165.882 57.9642 167.469 57.9561 168.61C57.9546 168.827 57.777 169.002 57.5596 169.001C57.3421 168.999 57.1671 168.821 57.1687 168.604Z" fill="#614D35"/>
<path d="M69.2206 150.73C69.9365 152.612 69.5786 157.929 69.5786 159.81C69.5786 161.692 65.542 162.11 62.7777 162.183C60.4541 162.243 55.762 161.855 55.762 159.81C55.7621 155.72 55.2609 152.284 56.4779 149.994C57.6949 147.703 60.3413 146.967 63.4936 146.967C65.9276 146.967 68.5048 148.849 69.2206 150.73Z" fill="#5E6152"/>
<path d="M69.2564 159.81C69.2564 159.334 69.2791 158.642 69.3013 157.853C69.3237 157.061 69.3459 156.165 69.3459 155.27C69.3459 154.375 69.3236 153.485 69.2576 152.705C69.1909 151.919 69.0817 151.271 68.9195 150.845C68.5915 149.983 67.8208 149.09 66.8203 148.41C65.8222 147.731 64.6314 147.289 63.4936 147.289C60.3638 147.289 57.8895 148.024 56.7625 150.145C56.1915 151.22 56.0124 152.586 55.9858 154.232C55.9725 155.052 55.9968 155.929 56.0248 156.863C56.0527 157.795 56.0842 158.782 56.0842 159.81C56.0842 160.177 56.2877 160.498 56.7123 160.786C57.1413 161.077 57.7567 161.304 58.4725 161.473C59.8995 161.809 61.6234 161.89 62.7693 161.861C64.1456 161.825 65.8161 161.702 67.1344 161.363C67.7954 161.193 68.3417 160.974 68.7159 160.704C69.0834 160.438 69.2564 160.145 69.2564 159.81ZM69.9007 159.81C69.9007 160.416 69.5691 160.882 69.0934 161.226C68.6244 161.565 67.9888 161.808 67.2952 161.987C65.9041 162.345 64.1741 162.468 62.7861 162.505C61.6084 162.535 59.8244 162.453 58.3245 162.1C57.5769 161.923 56.874 161.674 56.3507 161.319C55.823 160.961 55.4399 160.466 55.4399 159.81C55.4399 158.794 55.4088 157.817 55.3808 156.883C55.3528 155.951 55.3279 155.059 55.3415 154.222C55.3685 152.555 55.5474 151.059 56.1934 149.843C57.5004 147.383 60.3188 146.645 63.4936 146.645C64.7898 146.645 66.1046 147.144 67.1825 147.877C68.258 148.608 69.1339 149.596 69.5217 150.616C69.7174 151.13 69.8319 151.853 69.8995 152.651C69.9677 153.456 69.9902 154.366 69.9902 155.27C69.9902 156.175 69.9677 157.079 69.9453 157.871C69.9229 158.668 69.9007 159.346 69.9007 159.81Z" fill="#614D35"/>
<path d="M55.9462 159.073C57.6643 151.398 65.7299 151.962 69.548 153.202C69.6911 151.246 67.6151 147.332 64.322 147.046C59.2393 146.604 57.7359 148.263 56.5905 150.196C55.6742 151.742 55.7792 156.901 55.9462 159.073Z" fill="#4E5142"/>
<path d="M69.2564 159.706C69.2564 159.23 69.2791 158.538 69.3013 157.749C69.3237 156.957 69.3459 156.061 69.3459 155.166C69.3459 154.271 69.3236 153.381 69.2576 152.601C69.1909 151.815 69.0817 151.167 68.9195 150.741C68.5915 149.879 67.8208 148.986 66.8203 148.306C65.8222 147.627 64.6314 147.186 63.4936 147.186C60.3638 147.186 57.8895 147.92 56.7625 150.041C56.1915 151.116 56.0124 152.483 55.9858 154.129C55.9725 154.948 55.9968 155.825 56.0248 156.759C56.0527 157.691 56.0842 158.678 56.0842 159.706C56.0842 160.073 56.2877 160.394 56.7123 160.682C57.1413 160.973 57.7567 161.2 58.4725 161.369C59.8995 161.705 61.6234 161.787 62.7693 161.757C64.1456 161.721 65.8161 161.599 67.1344 161.259C67.7954 161.089 68.3417 160.87 68.7159 160.6C69.0834 160.334 69.2564 160.042 69.2564 159.706ZM69.9007 159.706C69.9007 160.312 69.5691 160.778 69.0934 161.122C68.6244 161.461 67.9888 161.704 67.2952 161.883C65.9041 162.241 64.1741 162.364 62.7861 162.401C61.6084 162.431 59.8244 162.349 58.3245 161.996C57.5769 161.819 56.874 161.57 56.3507 161.215C55.823 160.857 55.4399 160.362 55.4399 159.706C55.4399 158.69 55.4088 157.713 55.3808 156.779C55.3528 155.847 55.3279 154.955 55.3415 154.118C55.3685 152.451 55.5474 150.955 56.1934 149.739C57.5004 147.279 60.3188 146.541 63.4936 146.541C64.7898 146.541 66.1046 147.04 67.1825 147.773C68.258 148.504 69.1339 149.492 69.5217 150.512C69.7174 151.026 69.8319 151.749 69.8995 152.547C69.9677 153.352 69.9902 154.262 69.9902 155.166C69.9902 156.071 69.9677 156.975 69.9453 157.768C69.9229 158.564 69.9007 159.242 69.9007 159.706Z" fill="#614D35"/>
<path d="M68.3042 116.814C64.0941 109.839 59.9213 106.658 58.9982 108.544C58.191 110.193 58.2294 114.595 58.4954 117.664C58.9385 122.777 59.916 129.825 61.885 131.987C63.0858 133.306 73.8501 131.756 74.1495 129.147C74.5715 125.469 72.9434 124.499 68.3042 116.814Z" fill="#888F62"/>
<path d="M68.5982 116.525C68.4886 116.337 68.2476 116.274 68.0598 116.383C67.872 116.493 67.8086 116.734 67.9182 116.922C69.0691 118.893 70.0538 120.478 70.8671 121.795C71.6828 123.115 72.3197 124.155 72.7857 125.051C73.2508 125.945 73.5334 126.673 73.6522 127.364C73.7699 128.048 73.7306 128.717 73.521 129.497C73.4721 129.679 73.3287 129.892 73.0513 130.124C72.7768 130.353 72.3987 130.579 71.9342 130.792C71.0059 131.219 69.7864 131.574 68.5053 131.823C67.2262 132.073 65.904 132.214 64.7767 132.221C64.2129 132.225 63.7045 132.195 63.2783 132.131C62.8464 132.066 62.5243 131.97 62.3161 131.856C61.7706 131.557 61.1664 130.799 60.7553 129.302C59.8848 126.133 59.2361 120.776 58.9609 117.601C58.9421 117.384 58.7513 117.224 58.5347 117.243C58.318 117.261 58.1576 117.452 58.1764 117.669C58.4519 120.847 59.1049 126.267 59.9958 129.511C60.4335 131.104 61.125 132.101 61.9375 132.546C62.2628 132.724 62.6893 132.839 63.1615 132.91C63.6393 132.981 64.1904 133.012 64.7818 133.008C65.9648 133.001 67.336 132.853 68.6558 132.596C69.9736 132.34 71.2587 131.97 72.2631 131.508C72.7649 131.277 73.2102 131.018 73.5565 130.728C73.8997 130.441 74.1745 130.1 74.2815 129.701C74.5164 128.827 74.5679 128.042 74.4283 127.23C74.2899 126.425 73.9671 125.616 73.4843 124.688C73.0023 123.761 72.3488 122.695 71.5371 121.381C70.7229 120.063 69.7432 118.486 68.5982 116.525Z" fill="#614D35"/>
<path d="M60.5547 107.884C60.3409 107.845 60.1357 107.986 60.0964 108.2C60.0572 108.414 60.1988 108.619 60.4126 108.659C60.7996 108.73 61.3125 108.965 61.9179 109.383C62.5174 109.798 63.1836 110.375 63.875 111.099C65.2576 112.546 66.7224 114.559 67.9416 116.97C68.0398 117.164 68.2766 117.241 68.4706 117.143C68.6647 117.045 68.7424 116.808 68.6443 116.614C67.3919 114.138 65.883 112.061 64.4444 110.555C63.7252 109.802 63.0188 109.187 62.3658 108.736C61.7186 108.288 61.0987 107.984 60.5547 107.884Z" fill="#614D35"/>
<path d="M59.0146 117.021C59.0009 116.864 58.8621 116.747 58.7046 116.761C58.547 116.775 58.4304 116.913 58.444 117.071C58.6768 119.757 59.1602 124.521 59.9658 127.833C60.1353 128.53 60.2968 129.158 60.4884 129.698C60.68 130.237 60.9077 130.707 61.2192 131.079C61.6433 131.585 62.1773 131.926 62.63 132.123C63.0444 132.302 63.565 132.376 64.0822 132.389C64.6038 132.402 65.1449 132.354 65.6138 132.273C66.0763 132.194 66.4932 132.079 66.7547 131.947C66.8216 131.913 66.8872 131.874 66.9433 131.828C66.9958 131.786 67.0626 131.719 67.0982 131.624C67.1404 131.511 67.1271 131.388 67.0592 131.286C67.0019 131.199 66.9188 131.147 66.8512 131.114C66.7091 131.044 66.5376 131.103 66.4682 131.245C66.4348 131.314 66.4315 131.389 66.4526 131.456C66.2581 131.544 65.9271 131.638 65.5167 131.709C65.0795 131.784 64.5759 131.829 64.0965 131.817C63.6127 131.805 63.1757 131.735 62.8579 131.597C62.4696 131.429 62.0143 131.136 61.6583 130.711C61.4088 130.413 61.2088 130.015 61.0281 129.506C60.8475 128.997 60.6921 128.395 60.5223 127.698C59.7284 124.434 59.2477 119.71 59.0146 117.021Z" fill="#888F62"/>
<path d="M74.3238 150.095C76.766 150.018 79.5942 148.863 80.7952 145.684C81.9962 142.505 80.1466 137.94 74.8858 129.777C73.9513 128.327 72.9128 126.486 71.9647 125.074C67.9061 123.513 59.2906 126.423 60.6585 128.942C62.6393 134.851 67.2866 144.269 67.8621 145.179C69.492 147.756 70.6016 150.212 74.3238 150.095Z" fill="#E9D295"/>
<path d="M70.8717 145.967C71.3923 148.5 69.7795 149.039 68.1682 148.671C67.0049 148.405 66.1627 146.639 66.1444 143.804C65.8801 140.925 63.5667 139.251 65.5694 138.823C66.7019 137.728 70.4236 143.786 70.8717 145.967Z" fill="#E9D295"/>
<path d="M79.1549 136.355C79.0334 136.175 78.7887 136.127 78.6084 136.249C78.4281 136.37 78.3805 136.615 78.502 136.795C78.7939 137.228 79.2823 138.092 79.7174 139.074C80.1551 140.062 80.5198 141.127 80.5948 141.974C80.6956 143.113 80.7293 143.992 80.5319 144.863C80.3363 145.726 79.9056 146.613 79.0235 147.736C78.1388 148.862 76.7188 149.449 75.3216 149.669C74.6277 149.778 73.9539 149.794 73.3797 149.745C72.7978 149.696 72.3467 149.583 72.0829 149.454C71.5646 149.201 71.2848 149.021 71.0782 148.845C70.8665 148.665 70.7198 148.483 70.4576 148.176L70.2187 147.897L69.9237 148.116C69.8715 148.155 69.6894 148.244 69.4078 148.3C69.137 148.354 68.8105 148.369 68.4804 148.296C67.855 148.156 67.1264 147.677 66.7577 146.263C66.5933 145.633 66.5431 144.986 66.5181 144.385C66.4941 143.809 66.4941 143.22 66.4167 142.8C66.3019 142.176 66.2418 141.667 66.2355 141.256C66.2292 140.843 66.2781 140.556 66.3606 140.36C66.4451 140.16 66.3513 139.929 66.151 139.845C65.9507 139.76 65.7197 139.854 65.6351 140.054C65.493 140.391 65.4409 140.8 65.4481 141.269C65.4553 141.74 65.5233 142.297 65.6421 142.943C65.7062 143.291 65.7046 143.776 65.7313 144.417C65.7569 145.033 65.8096 145.748 65.9958 146.462C66.4292 148.124 67.3598 148.852 68.3088 149.064C68.7659 149.166 69.2054 149.144 69.5617 149.073C69.7436 149.036 69.9145 148.985 70.0619 148.925C70.2214 149.111 70.3759 149.282 70.5685 149.445C70.8454 149.68 71.1898 149.894 71.7369 150.162C72.1242 150.351 72.6843 150.477 73.3134 150.53C73.9501 150.584 74.6873 150.566 75.444 150.447C76.9482 150.21 78.5887 149.564 79.6427 148.222C80.5742 147.036 81.0716 146.045 81.3001 145.037C81.5268 144.036 81.4807 143.05 81.3793 141.905C81.2926 140.926 80.885 139.765 80.4374 138.755C79.9872 137.739 79.4772 136.833 79.1549 136.355Z" fill="#614D35"/>
<path d="M60.4658 128.84C59.758 125.83 70.4383 122.15 72.2926 124.117C73.8246 125.742 76.6076 130.569 77.8372 132.855C78.5382 134.158 78.3847 134.682 78.399 135.401C79.1128 136.541 79.1839 136.532 79.0133 136.913C78.7588 137.482 76.5104 139.261 73.3133 140.482C69.9466 141.768 66.3662 142.186 65.469 142.073C65.0204 142.016 65.1204 141.01 64.8242 140.383C64.5795 139.865 63.5784 139.207 63.2298 138.144C62.3483 135.457 61.3218 132.479 60.4658 128.84Z" fill="#888F62"/>
<path d="M78.2798 135.272C78.931 136.491 79.1529 136.537 78.9823 136.918C78.7278 137.486 76.4794 139.266 73.2823 140.487C69.9156 141.772 66.3352 142.19 65.4379 142.077C64.9893 142.021 65.0894 141.015 64.7931 140.387C64.7931 140.387 69.629 139.834 72.4916 138.707C74.9414 137.743 78.2798 135.272 78.2798 135.272Z" fill="#7B8157"/>
<path d="M72.8445 123.501C72.7262 123.319 72.4824 123.267 72.2999 123.385C72.1175 123.504 72.0655 123.747 72.1838 123.93C73.0773 125.308 74.0681 126.803 74.8794 128.194C75.488 129.238 75.8909 130.061 76.2323 130.77C76.5718 131.476 76.8597 132.089 77.2289 132.681C77.5781 133.241 77.7829 133.647 77.8942 134.023C78.003 134.39 78.0286 134.749 77.9851 135.223L77.9792 135.287L77.9937 135.349C78.0986 135.796 78.3059 136.129 78.4618 136.365C78.5453 136.492 78.5989 136.568 78.637 136.638C78.646 136.655 78.6518 136.667 78.6558 136.676C78.6481 136.696 78.6305 136.736 78.5896 136.798C78.5266 136.893 78.4285 137.01 78.2933 137.146C78.0235 137.419 77.6356 137.737 77.1676 138.065C76.2317 138.723 75.0167 139.396 73.8803 139.812C70.1552 141.174 66.5683 141.685 65.4474 141.682C65.23 141.682 65.0533 141.858 65.0528 142.075C65.0524 142.293 65.2281 142.469 65.4455 142.47C66.6807 142.473 70.3612 141.937 74.1508 140.551C75.3627 140.108 76.6385 139.4 77.6205 138.71C78.1115 138.365 78.5393 138.017 78.8526 137.701C79.0089 137.543 79.1444 137.386 79.2453 137.234C79.341 137.09 79.4316 136.913 79.4464 136.723C79.4613 136.531 79.3863 136.368 79.3285 136.262C79.2694 136.153 79.1854 136.032 79.119 135.931C78.984 135.727 78.8504 135.506 78.775 135.227C78.8168 134.71 78.7872 134.264 78.6492 133.799C78.5077 133.322 78.2587 132.845 77.8972 132.265C77.5558 131.717 77.2882 131.148 76.9419 130.429C76.5974 129.713 76.1839 128.868 75.5596 127.797C74.7362 126.385 73.7308 124.868 72.8445 123.501Z" fill="#614D35"/>
<path d="M60.2513 129.271C60.2226 129.257 60.19 129.256 60.1605 129.266C60.131 129.277 60.1068 129.299 60.093 129.327C60.0793 129.355 60.0773 129.388 60.0865 129.418C60.1468 129.614 60.2072 129.809 60.268 130.004C60.4756 130.671 60.6865 131.336 60.9006 132L60.9039 132.009C61.4888 133.661 62.2838 135.34 62.616 136.936C62.6627 137.342 62.7283 137.745 62.8301 138.147C63.0269 138.961 63.4932 139.859 64.3067 140.255C64.4989 140.356 64.694 140.431 64.878 140.51C64.9058 140.522 64.9373 140.525 64.9669 140.517C64.9966 140.509 65.0218 140.49 65.0372 140.465C65.0527 140.439 65.0575 140.408 65.0508 140.378C65.044 140.348 65.0261 140.322 65.0024 140.303C64.8357 140.172 64.6681 140.057 64.5194 139.932C63.9141 139.45 63.6486 138.745 63.4546 137.989C63.362 137.623 63.2977 137.245 63.2491 136.86C62.8361 134.997 62.0052 133.481 61.3151 131.842L61.3184 131.851C61.0637 131.202 60.8057 130.553 60.5445 129.906C60.4679 129.716 60.3912 129.526 60.3141 129.337C60.3022 129.308 60.28 129.284 60.2513 129.271Z" fill="#614D35"/>
<path d="M70.9996 145.471C70.9618 145.459 70.9215 145.46 70.8866 145.476C70.8516 145.492 70.8239 145.521 70.8085 145.558C70.7932 145.595 70.7917 145.636 70.7998 145.674C70.8109 145.727 70.82 145.778 70.828 145.83C70.9499 146.555 70.776 147.175 70.3825 147.627C70.2707 147.755 70.1857 147.905 70.0841 148.089C70.0589 148.134 70.0307 148.182 70.0006 148.231C69.9783 148.26 69.9577 148.292 69.9463 148.325C69.9348 148.358 69.9335 148.391 69.944 148.421C69.9546 148.451 69.9764 148.476 70.0061 148.495C70.0359 148.514 70.0715 148.525 70.1075 148.535C70.1782 148.548 70.2522 148.55 70.3223 148.546C70.6069 148.526 70.86 148.389 71.033 148.188C71.67 147.487 71.6606 146.365 71.1924 145.687C71.1609 145.637 71.1282 145.589 71.093 145.541C71.0695 145.51 71.0375 145.484 70.9996 145.471Z" fill="#614D35"/>
<path d="M65.1641 140.627C65.15 140.629 65.137 140.636 65.1206 140.647C65.1045 140.659 65.0844 140.674 65.0635 140.69C65.0414 140.707 65.0218 140.724 65.0046 140.74C64.9356 140.806 64.9046 140.868 64.9114 140.925C64.9353 141.124 65.0108 141.317 65.1379 141.503C65.147 141.517 65.1564 141.53 65.1659 141.543C65.1806 141.563 65.1973 141.582 65.2177 141.595C65.238 141.608 65.2604 141.614 65.2823 141.611C65.3042 141.609 65.3245 141.598 65.3412 141.58C65.3579 141.563 65.3696 141.54 65.3792 141.517C65.3854 141.503 65.3913 141.487 65.397 141.472C65.4762 141.261 65.5039 141.055 65.48 140.856C65.4732 140.8 65.4284 140.747 65.3458 140.699C65.3251 140.687 65.3021 140.676 65.2767 140.664C65.2526 140.654 65.2295 140.644 65.2111 140.637C65.1924 140.629 65.1782 140.626 65.1641 140.627Z" fill="#614D35"/>
<path d="M62.8355 110.713C61.3552 107.999 59.4432 107.885 58.6722 108.168L48.264 108.168C46.4908 108.098 42.9443 107.32 40.6314 112.834C38.3184 118.349 38.7978 122.534 37.41 128.685C36.0223 134.836 32.9987 151.013 34.1552 152.285C35.7568 154.048 47.9014 154.682 54.0245 154.682C57.4939 154.682 72.3185 152.922 72.7811 151.013C73.2437 149.104 70.9308 135.105 69.0804 127.469C67.2301 119.834 64.6858 114.107 62.8355 110.713Z" fill="url(#paint0_linear_5_1313)"/>
<path d="M58.66 108.097C59.4776 107.805 61.4119 107.953 62.8984 110.679C64.7515 114.078 67.298 119.81 69.1499 127.453C70.0756 131.273 71.1168 136.683 71.8687 141.377C72.2447 143.724 72.5486 145.893 72.7295 147.595C72.8199 148.446 72.8796 149.181 72.9023 149.763C72.9248 150.343 72.9111 150.78 72.8507 151.029C72.8169 151.169 72.7198 151.3 72.5794 151.422C72.4384 151.545 72.248 151.665 72.0169 151.782C71.5546 152.016 70.9191 152.243 70.1629 152.46C68.6498 152.895 66.6417 153.294 64.5418 153.634C60.3429 154.313 55.7649 154.754 54.0245 154.754C50.9611 154.754 46.3919 154.595 42.3875 154.216C40.3855 154.027 38.5229 153.782 37.0596 153.473C36.3281 153.319 35.6946 153.149 35.1926 152.961C34.693 152.774 34.3143 152.567 34.1021 152.333C34.0167 152.239 33.9576 152.086 33.9159 151.893C33.8737 151.698 33.8472 151.451 33.8345 151.161C33.809 150.581 33.838 149.817 33.9093 148.92C34.0521 147.126 34.3652 144.79 34.7577 142.303C35.5428 137.33 36.646 131.746 37.3402 128.669C38.0332 125.598 38.2596 123.02 38.6028 120.511C38.9459 118.004 39.4054 115.572 40.5653 112.807C41.7279 110.035 43.206 108.833 44.6266 108.339C46.0405 107.847 47.3901 108.062 48.2668 108.097H58.66ZM62.7727 110.748C61.3062 108.058 59.4286 107.967 58.6969 108.235L58.6849 108.24H48.2626L48.2612 108.24C47.3647 108.204 46.0544 107.994 44.6736 108.474C43.2994 108.952 41.8477 110.119 40.6973 112.862C39.5443 115.611 39.0871 118.029 38.7447 120.531C38.4025 123.032 38.1747 125.621 37.4799 128.701C36.7864 131.775 35.6838 137.355 34.8992 142.326C34.5069 144.811 34.1944 147.143 34.0521 148.932C33.9809 149.826 33.9524 150.583 33.9775 151.155C33.9901 151.441 34.016 151.679 34.0558 151.863C34.0962 152.05 34.149 152.172 34.2081 152.237C34.3963 152.444 34.7476 152.642 35.2426 152.827C35.7353 153.012 36.3612 153.18 37.0891 153.333C38.5447 153.64 40.4013 153.884 42.4011 154.073C46.4001 154.452 50.9647 154.611 54.0245 154.611C55.7535 154.611 60.3226 154.171 64.5189 153.493C66.6167 153.153 68.6183 152.755 70.1233 152.323C70.8762 152.106 71.5018 151.882 71.9523 151.654C72.1776 151.541 72.3565 151.427 72.4852 151.315C72.6145 151.202 72.6876 151.095 72.7116 150.996C72.7667 150.768 72.7818 150.35 72.7592 149.769C72.7367 149.191 72.6772 148.459 72.587 147.61C72.4065 145.912 72.1031 143.746 71.7274 141.4C70.9759 136.708 69.9354 131.302 69.0108 127.486C67.162 119.857 64.6202 114.136 62.7727 110.748Z" fill="#98A06F"/>
<path d="M54.0194 154.677C57.4888 154.677 72.3133 152.916 72.7759 151.007C72.9729 150.194 72.8466 148.85 72.7122 147.953C66.5898 150.867 59.6227 151.539 54.0194 151.539C47.3247 151.539 41.692 151.539 33.8473 148.85C33.6051 151.898 33.9482 152.257 34.15 152.28C35.7516 154.042 47.8962 154.677 54.0194 154.677Z" fill="#888F62"/>
<path d="M72.7829 147.943C72.8504 148.393 72.9159 148.955 72.9398 149.509C72.9636 150.06 72.9463 150.608 72.8454 151.024C72.8116 151.164 72.7145 151.295 72.5742 151.417C72.4332 151.54 72.2429 151.66 72.0118 151.777C71.5495 152.011 70.9139 152.238 70.1577 152.455C68.6445 152.89 66.6364 153.289 64.5366 153.629C60.3377 154.308 55.7598 154.749 54.0194 154.749C50.956 154.749 46.3867 154.59 42.3824 154.211C40.3804 154.021 38.5177 153.776 37.0544 153.468C36.3229 153.314 35.6893 153.144 35.1873 152.956C34.7011 152.774 34.3298 152.572 34.1146 152.347C34.0496 152.332 33.983 152.291 33.9241 152.203C33.8591 152.106 33.8027 151.953 33.7616 151.711C33.6793 151.229 33.6547 150.369 33.7758 148.844L33.7833 148.752L33.8705 148.782C41.7031 151.468 47.3256 151.468 54.0194 151.468C59.6185 151.468 66.5731 150.796 72.6814 147.889L72.7687 147.847L72.7829 147.943ZM72.655 148.059C66.5399 150.944 59.6003 151.611 54.0194 151.611C47.3487 151.611 41.7228 151.611 33.9116 148.947C33.7989 150.412 33.8251 151.232 33.9027 151.687C33.9423 151.92 33.9943 152.051 34.0429 152.123C34.0834 152.184 34.1201 152.201 34.1471 152.207L34.158 152.209L34.1848 152.212L34.203 152.232C34.3912 152.439 34.7425 152.637 35.2375 152.822C35.7302 153.006 36.356 153.175 37.0839 153.328C38.5395 153.635 40.3961 153.879 42.3958 154.068C46.3949 154.447 50.9596 154.606 54.0194 154.606C55.7484 154.606 60.3175 154.166 64.5138 153.487C66.6116 153.148 68.6132 152.75 70.1182 152.317C70.871 152.101 71.4966 151.877 71.9471 151.649C72.1724 151.535 72.3514 151.422 72.4801 151.309C72.6094 151.196 72.6823 151.09 72.7063 150.991C72.8024 150.594 72.8204 150.063 72.7968 149.515C72.7748 149.006 72.7169 148.488 72.655 148.059Z" fill="#888F62"/>
<path d="M63.0334 153.306C63.014 153.306 62.9944 153.306 62.9747 153.306C62.2756 153.327 59.9581 154.031 55.3019 154.309C50.7821 154.578 37.0469 153.227 35.3288 152.877C33.6107 152.527 33.3243 150.872 33.3243 150.872C33.3243 150.872 33.4046 149.568 33.6822 148.868C34.2905 147.335 34.3265 145.002 34.3265 145.002L37.1901 129.611L38.9798 119.66C39.2184 119.994 38.9798 124.743 38.9798 125.888C38.9798 129.188 38.9798 133.476 40.34 139.49C41.7001 145.503 45.2795 148.51 49.0021 150.872C52.3203 152.978 59.6531 153.303 62.9747 153.306C62.9957 153.306 63.0153 153.306 63.0334 153.306Z" fill="#4E5142" fill-opacity="0.23"/>
<path d="M55.5883 114.557C59.8468 113.589 61.3411 110.822 61.4159 108.73C59.6228 106.488 44.6532 108.06 44.717 108.73C45.1653 113.436 50.6573 115.678 55.5883 114.557Z" fill="#888F62"/>
<path d="M52.3683 107.602C54.3484 107.504 56.3877 107.497 58.0446 107.654C58.873 107.733 59.607 107.853 60.1909 108.024C60.7733 108.195 61.2125 108.418 61.4438 108.707L61.4521 108.718L61.4517 108.731C61.3763 110.84 59.8698 113.621 55.5962 114.592C53.1235 115.154 50.5091 114.873 48.4557 113.861C46.4018 112.848 44.907 111.101 44.6814 108.733C44.6777 108.694 44.7019 108.662 44.731 108.637C44.7613 108.611 44.8052 108.586 44.8597 108.562C44.9691 108.513 45.13 108.462 45.3339 108.411C45.7424 108.308 46.3303 108.2 47.042 108.097C48.4657 107.89 50.3881 107.701 52.3683 107.602ZM58.0378 107.726C56.3857 107.568 54.3503 107.576 52.3718 107.674C50.3936 107.772 48.4734 107.961 47.0522 108.167C46.3415 108.271 45.7564 108.378 45.3514 108.48C45.1487 108.531 44.9926 108.581 44.8889 108.627C44.8368 108.651 44.8 108.672 44.7773 108.692C44.7535 108.712 44.7523 108.723 44.7526 108.726C44.9753 111.065 46.4506 112.792 48.4875 113.797C50.5249 114.801 53.1222 115.081 55.5803 114.522C59.8147 113.56 61.2994 110.815 61.3794 108.742C61.1601 108.475 60.7426 108.261 60.1708 108.093C59.593 107.924 58.8639 107.804 58.0378 107.726Z" fill="#888F62"/>
<path d="M46.4989 107.605C46.7119 107.561 46.9201 107.699 46.9639 107.911C47.0078 108.124 46.8707 108.333 46.6577 108.377C44.3517 108.851 42.2884 110.413 41.0628 112.958C39.9908 115.185 39.4343 117.872 38.9616 120.923C38.4915 123.955 38.1039 127.351 37.3608 130.908C36.9045 133.091 36.1203 136.864 35.4503 140.448C34.7766 144.052 34.2293 147.41 34.2293 148.796V148.871L34.2017 148.941C33.5242 150.652 33.6484 151.363 33.9518 151.732C34.1165 151.932 34.3753 152.089 34.752 152.234C35.132 152.38 35.5741 152.494 36.0913 152.641C37.0526 152.916 39.9203 153.355 43.6094 153.665C47.2863 153.975 51.7409 154.152 55.8621 153.915C62.0471 153.56 68.7337 152.21 72.1493 151.216C72.388 151.12 72.5233 150.991 72.6063 150.843C72.6958 150.683 72.7438 150.467 72.7438 150.174C72.7438 149.571 72.546 148.806 72.3251 147.886L72.3193 147.862L72.3167 147.837C71.245 138.192 69.9597 132.124 68.7464 127.199C68.31 125.428 66.538 119.436 64.4032 114.74C62.4591 110.463 60.6711 108.901 59.9997 108.556C59.8064 108.456 59.7304 108.219 59.83 108.025C59.9296 107.832 60.167 107.756 60.3603 107.856C61.2639 108.321 63.1474 110.074 65.1201 114.414C67.2806 119.167 69.0667 125.208 69.5109 127.011C70.7304 131.961 72.021 138.056 73.0963 147.725C73.3035 148.587 73.5313 149.459 73.5313 150.174C73.5313 150.544 73.472 150.909 73.2931 151.228C73.1091 151.556 72.8182 151.801 72.4211 151.955L72.4052 151.961L72.3887 151.966C68.926 152.976 62.1673 154.342 55.9073 154.702C51.7372 154.941 47.2432 154.761 43.5434 154.45C39.8557 154.14 36.9183 153.697 35.875 153.399C35.3901 153.26 34.8925 153.132 34.4694 152.969C34.043 152.805 33.6353 152.587 33.3436 152.232C32.7423 151.501 32.7855 150.406 33.4426 148.72C33.4611 147.204 34.0194 143.816 34.6762 140.303C35.3479 136.71 36.1337 132.931 36.5899 130.747C37.3277 127.216 37.7069 123.876 38.1833 120.802C38.657 117.746 39.2265 114.957 40.3533 112.616C41.6785 109.864 43.937 108.133 46.4989 107.605Z" fill="#614D35"/>
<path d="M53.5086 112.983C57.1155 112.857 59.6616 110.765 60.2981 106.993C60.9988 102.842 54.5695 100.401 50.326 101.669C46.448 102.827 44.8198 105.97 45.8704 108.324C47.3556 111.652 50.5382 113.087 53.5086 112.983Z" fill="#E9D295"/>
<path d="M47.9833 102.311C50.1893 100.598 53.1507 100.648 56.2082 101.527C58.413 102.162 59.6106 103.456 60.1871 104.836C60.7537 106.192 60.7099 107.603 60.4929 108.505C60.1786 110.06 58.4202 113.396 53.8802 113.396C48.5975 113.396 46.3084 110.22 45.6307 108.111C45.2656 106.975 45.5381 105.773 46.0368 104.756C46.5368 103.737 47.2905 102.849 47.9833 102.311ZM55.9905 102.284C53.0173 101.429 50.3724 101.453 48.4661 102.933C47.8703 103.395 47.1923 104.189 46.7438 105.103C46.294 106.02 46.1012 107.002 46.3804 107.87C46.9724 109.712 48.9976 112.608 53.8802 112.608C57.9363 112.608 59.4601 109.654 59.7222 108.343L59.7239 108.335L59.7257 108.328C59.9126 107.558 59.9528 106.318 59.4605 105.14C58.9764 103.981 57.9666 102.853 55.9905 102.284Z" fill="#614D35"/>
<path d="M55.9922 123.886C56.0548 123.699 56.2576 123.598 56.4451 123.66C57.3096 123.948 57.8053 124.261 58.2364 124.603C58.6717 124.947 58.9692 125.254 59.5384 125.616C59.7051 125.722 59.7542 125.943 59.6481 126.11C59.542 126.277 59.3208 126.326 59.154 126.22C58.546 125.833 58.1585 125.454 57.792 125.164C57.4212 124.87 56.9983 124.599 56.2186 124.339C56.0311 124.277 55.9297 124.074 55.9922 123.886Z" fill="#484D2D"/>
<path d="M58.693 122.52C58.1883 124.034 59.3894 124.416 58.145 126.905C57.4142 128.366 59.2411 128.043 60.0631 126.905C63.6254 121.972 59.2411 120.876 58.693 122.52Z" fill="#484D2D"/>
<path d="M59.6308 121.747C60.0831 121.693 60.5928 121.836 60.9688 122.194C61.3466 122.554 61.5835 123.125 61.5002 123.915C61.4171 124.702 61.0159 125.708 60.1212 126.947C59.6999 127.53 59.0199 127.909 58.5279 127.951C58.283 127.972 58.0585 127.91 57.9572 127.714C57.8591 127.524 57.8961 127.242 58.0809 126.873C58.6969 125.641 58.7051 124.937 58.6255 124.357C58.5455 123.772 58.3659 123.275 58.6251 122.498C58.7731 122.054 59.1785 121.801 59.6308 121.747ZM60.87 122.298C60.5267 121.971 60.0603 121.84 59.6477 121.889C59.2352 121.938 58.887 122.165 58.761 122.543C58.5154 123.279 58.6841 123.73 58.7673 124.337C58.8509 124.948 58.8373 125.68 58.209 126.937C58.0284 127.298 58.0198 127.523 58.0844 127.648C58.1457 127.767 58.2924 127.827 58.5156 127.808C58.9599 127.77 59.6043 127.418 60.0051 126.863C60.8915 125.635 61.2782 124.654 61.3577 123.9C61.4371 123.148 61.2114 122.623 60.87 122.298Z" fill="#484D2D"/>
<path d="M61.4797 139.517C58.0728 141.081 55.5952 137.328 54.0465 136.389C51.8785 135.076 51.259 131.072 52.8076 128.883C54.3562 126.694 55.9048 124.817 59.6215 125.13C62.6345 125.384 66.0535 128.961 66.745 132.011C67.4364 135.061 64.8867 137.953 61.4797 139.517Z" fill="#E5E77C"/>
<path d="M55.3615 126.009C56.4219 125.295 57.7549 124.901 59.6275 125.059C61.1575 125.188 62.7804 126.158 64.1043 127.471C65.4289 128.785 66.4653 130.453 66.8148 131.995C67.1663 133.546 66.6925 135.052 65.7065 136.364C64.7209 137.676 63.2213 138.796 61.5096 139.582C59.7734 140.379 58.2744 139.817 57.0254 138.95C56.4016 138.517 55.8368 138.006 55.3339 137.547C54.8282 137.085 54.389 136.681 54.0093 136.451C52.9012 135.779 52.1969 134.427 51.9626 132.976C51.7283 131.524 51.9612 129.956 52.7491 128.842C53.5233 127.747 54.3042 126.721 55.3615 126.009ZM59.6155 125.201C57.7715 125.046 56.4718 125.434 55.4415 126.128C54.4083 126.823 53.6404 127.83 52.866 128.925C52.1054 130 51.8738 131.528 52.104 132.953C52.3343 134.38 53.0237 135.686 54.0836 136.328C54.4782 136.567 54.9296 136.984 55.4305 137.441C55.9341 137.901 56.4921 138.406 57.1071 138.833C58.3358 139.686 59.7792 140.219 61.4499 139.452C63.1451 138.674 64.6238 137.566 65.592 136.278C66.5597 134.991 67.0151 133.526 66.6752 132.026C66.3332 130.518 65.3144 128.873 64.0035 127.572C62.6917 126.271 61.0985 125.326 59.6155 125.201Z" fill="#DADB81"/>
<path d="M36.16 119.143C39.7521 111.831 43.6345 108.841 44.717 110.64C45.6636 112.213 46.0056 116.063 46.0056 119.143C46.0056 124.275 45.6405 131.382 43.8656 133.706C42.7831 135.123 31.9252 134.509 31.4016 131.935C30.6636 128.308 32.2019 127.201 36.16 119.143Z" fill="#989F6F"/>
<path d="M44.6299 110.338C44.6431 110.333 44.6578 110.332 44.6777 110.335C44.6974 110.337 44.7223 110.34 44.7483 110.344C44.7757 110.348 44.8011 110.354 44.8242 110.36C44.9164 110.384 44.9734 110.423 44.995 110.476C45.0704 110.662 45.0977 110.867 45.0768 111.092C45.0754 111.108 45.0737 111.124 45.0716 111.14C45.0684 111.165 45.0629 111.189 45.0514 111.211C45.0399 111.232 45.0232 111.248 45.0028 111.256C44.9823 111.264 44.9592 111.265 44.9361 111.257C44.9131 111.25 44.892 111.236 44.8726 111.221C44.86 111.211 44.8474 111.2 44.8351 111.19C44.6634 111.043 44.5398 110.877 44.4643 110.691C44.4428 110.638 44.4565 110.571 44.5058 110.489C44.518 110.468 44.5325 110.447 44.5493 110.425C44.5653 110.404 44.5807 110.384 44.5932 110.369C44.6061 110.353 44.6167 110.343 44.6299 110.338Z" fill="#614D35"/>
<path d="M35.8421 118.881C35.9351 118.684 36.1698 118.6 36.3663 118.693C36.5629 118.786 36.6468 119.021 36.5538 119.217C35.5775 121.281 34.7334 122.945 34.0368 124.327C33.3382 125.713 32.7935 126.804 32.4066 127.737C32.0204 128.668 31.8017 129.417 31.743 130.116C31.6849 130.807 31.7818 131.47 32.058 132.23C32.1224 132.407 32.2836 132.606 32.5801 132.814C32.8734 133.019 33.2695 133.211 33.7507 133.383C34.7124 133.728 35.958 133.976 37.2559 134.114C38.5517 134.252 39.8811 134.278 41.0049 134.188C41.5668 134.143 42.0708 134.07 42.4899 133.969C42.9145 133.867 43.2272 133.744 43.4248 133.612C43.9423 133.267 44.4789 132.46 44.7592 130.933C45.3527 127.7 45.5363 122.307 45.5363 119.121C45.5363 118.903 45.7126 118.727 45.9301 118.727C46.1475 118.727 46.3238 118.903 46.3238 119.121C46.3238 122.311 46.1413 127.766 45.5338 131.075C45.2354 132.701 44.6326 133.753 43.8616 134.267C43.5529 134.473 43.1378 134.624 42.6735 134.735C42.2037 134.848 41.6574 134.926 41.0678 134.973C39.8886 135.068 38.5097 135.039 37.1727 134.897C35.8376 134.755 34.5254 134.498 33.4849 134.124C32.965 133.938 32.499 133.718 32.1289 133.459C31.7622 133.203 31.459 132.887 31.318 132.499C31.0084 131.648 30.8893 130.87 30.9583 130.05C31.0267 129.236 31.2784 128.401 31.6793 127.435C32.0794 126.471 32.6383 125.352 33.3336 123.972C34.0309 122.589 34.8707 120.934 35.8421 118.881Z" fill="#614D35"/>
<path d="M41.7359 110.283C42.4675 109.819 43.2333 109.57 43.9852 109.677C44.2004 109.708 44.3499 109.907 44.3192 110.123C44.2885 110.338 44.0891 110.487 43.8739 110.457C43.373 110.385 42.7973 110.543 42.1577 110.948C41.5196 111.353 40.8496 111.986 40.1794 112.803C38.8399 114.437 37.5445 116.752 36.5347 119.267C36.4537 119.469 36.2245 119.567 36.0227 119.486C35.8209 119.405 35.723 119.176 35.804 118.974C36.8345 116.407 38.1665 114.016 39.5705 112.304C40.2721 111.448 41.0029 110.748 41.7359 110.283Z" fill="#614D35"/>
<path d="M45.4328 118.548C45.4328 118.39 45.5611 118.262 45.7192 118.262C45.8773 118.262 46.0056 118.39 46.0056 118.548C46.0056 121.244 45.9354 126.032 45.4189 129.401C45.3102 130.11 45.2035 130.75 45.0592 131.304C44.915 131.858 44.7287 132.346 44.4505 132.743C44.0717 133.284 43.5691 133.67 43.135 133.905C42.7377 134.12 42.2255 134.238 41.7114 134.296C41.1928 134.354 40.6495 134.353 40.1754 134.313C39.7078 134.273 39.2825 134.195 39.0106 134.086C38.941 134.058 38.8723 134.025 38.8125 133.984C38.7565 133.946 38.6842 133.885 38.6405 133.794C38.5887 133.685 38.5914 133.561 38.6501 133.454C38.6998 133.363 38.778 133.303 38.8425 133.264C38.9781 133.183 39.154 133.227 39.2354 133.362C39.2746 133.428 39.2845 133.502 39.2693 133.571C39.4706 133.642 39.8084 133.707 40.2234 133.742C40.6655 133.779 41.171 133.78 41.6476 133.727C42.1286 133.673 42.558 133.566 42.8627 133.401C43.235 133.2 43.6633 132.869 43.9812 132.415C44.2041 132.097 44.3689 131.683 44.505 131.16C44.641 130.637 44.7439 130.024 44.8527 129.314C45.3618 125.994 45.4328 121.247 45.4328 118.548Z" fill="#989F6F"/>
<path d="M35.0219 153.228C32.602 153.566 29.619 152.907 27.8963 149.978C26.1736 147.049 27.2224 142.236 31.0227 133.3C31.6978 131.712 32.4092 129.722 33.1041 128.169C36.8391 125.943 45.8233 127.349 44.9024 130.064C43.9523 136.224 40.9693 146.293 40.5564 147.287C39.3872 150.104 38.7101 152.712 35.0219 153.228Z" fill="#FFE5A2"/>
<path d="M37.724 148.574C37.6405 151.159 39.3213 151.416 40.8469 150.781C41.9484 150.322 42.4789 148.439 42.0161 145.641C41.7884 142.759 43.7844 140.717 41.7382 140.635C40.4364 139.748 37.7959 146.349 37.724 148.574Z" fill="#FFE5A2"/>
<path d="M27.9309 140.506C28.0201 140.308 28.2531 140.219 28.4514 140.309C28.6497 140.398 28.7382 140.631 28.649 140.829C28.4348 141.306 28.0999 142.24 27.8376 143.281C27.5737 144.329 27.395 145.441 27.4648 146.288C27.5584 147.427 27.6743 148.299 28.0165 149.124C28.3556 149.942 28.9305 150.743 29.9902 151.7C31.0531 152.66 32.5521 152.997 33.9663 152.977C34.6687 152.967 35.3354 152.868 35.8931 152.723C36.4582 152.576 36.8836 152.388 37.1217 152.216C37.5896 151.879 37.8347 151.654 38.0086 151.446C38.1867 151.233 38.3003 151.028 38.5068 150.681L38.6948 150.365L39.0228 150.531C39.0807 150.561 39.2753 150.618 39.5624 150.626C39.8384 150.633 40.1628 150.592 40.4756 150.464C41.0683 150.22 41.7051 149.625 41.8287 148.169C41.8838 147.52 41.8236 146.874 41.7463 146.277C41.6722 145.705 41.5725 145.125 41.5775 144.698C41.5848 144.064 41.5577 143.551 41.4943 143.146C41.4304 142.737 41.3335 142.462 41.2192 142.284C41.1018 142.101 41.1551 141.857 41.3382 141.74C41.5213 141.623 41.7648 141.676 41.8822 141.859C42.0792 142.167 42.2001 142.562 42.2724 143.024C42.3452 143.49 42.3726 144.05 42.365 144.707C42.3609 145.061 42.4448 145.539 42.5273 146.176C42.6065 146.787 42.6757 147.5 42.6133 148.235C42.468 149.947 41.6743 150.822 40.775 151.192C40.3418 151.37 39.9048 151.422 39.5417 151.413C39.3563 151.408 39.1792 151.386 39.0238 151.353C38.8981 151.563 38.7748 151.757 38.6127 151.951C38.3797 152.23 38.0765 152.498 37.5826 152.855C37.2331 153.107 36.7025 153.326 36.0915 153.485C35.4731 153.646 34.7435 153.753 33.9775 153.764C32.455 153.786 30.7287 153.428 29.4625 152.284C28.3433 151.273 27.6851 150.381 27.289 149.426C26.8958 148.478 26.7741 147.499 26.6798 146.353C26.5992 145.373 26.804 144.16 27.0739 143.089C27.3453 142.011 27.6944 141.032 27.9309 140.506Z" fill="#614D35"/>
<path d="M45.0749 129.93C45.2622 126.845 34.1126 125.029 32.6186 127.282C31.3843 129.143 29.4602 134.372 28.636 136.833C28.1662 138.237 28.4061 138.726 28.514 139.438C28.0039 140.682 27.9324 140.686 28.1651 141.032C28.5123 141.55 31.0299 142.922 34.3877 143.583C37.9236 144.279 41.5231 144.084 42.3882 143.82C42.8207 143.688 42.5515 142.714 42.7371 142.046C42.8904 141.494 43.7655 140.676 43.9288 139.569C44.3418 136.771 44.8484 133.662 45.0749 129.93Z" fill="#989F6F"/>
<path d="M28.6096 139.29C28.1746 140.603 27.9637 140.685 28.1964 141.032C28.5437 141.549 31.0613 142.921 34.419 143.582C37.955 144.278 41.5545 144.083 42.4195 143.82C42.852 143.688 42.5828 142.713 42.7684 142.045C42.7684 142.045 37.9088 142.319 34.8965 141.694C32.3186 141.159 28.6096 139.29 28.6096 139.29Z" fill="#888F62"/>
<path d="M31.9703 126.769C32.0559 126.569 32.2874 126.476 32.4873 126.562C32.6872 126.647 32.7797 126.879 32.6941 127.079C32.0472 128.588 31.3242 130.23 30.7606 131.738C30.3378 132.87 30.0804 133.75 29.8642 134.507C29.6492 135.26 29.4694 135.913 29.206 136.559C28.9569 137.17 28.8238 137.605 28.7778 137.994C28.7328 138.374 28.7686 138.733 28.8919 139.192L28.9085 139.254L28.9047 139.318C28.8772 139.777 28.7293 140.139 28.6157 140.399C28.5548 140.537 28.515 140.622 28.4894 140.698C28.4833 140.715 28.4797 140.729 28.4773 140.738C28.4882 140.757 28.5123 140.793 28.563 140.847C28.6413 140.929 28.7578 141.029 28.9142 141.14C29.2263 141.362 29.6625 141.61 30.1794 141.855C31.2133 142.344 32.5249 142.801 33.7153 143.018C37.6174 143.73 41.2391 143.625 42.3432 143.432C42.5575 143.395 42.7613 143.538 42.7987 143.752C42.836 143.966 42.6928 144.17 42.4786 144.208C41.2618 144.42 37.5438 144.516 33.5741 143.793C32.3046 143.562 30.9272 143.08 29.8424 142.567C29.3 142.31 28.8194 142.04 28.457 141.781C28.2762 141.652 28.1161 141.52 27.9908 141.388C27.8721 141.262 27.7528 141.103 27.7059 140.918C27.6588 140.732 27.705 140.558 27.744 140.444C27.7838 140.327 27.846 140.193 27.8944 140.082C27.9928 139.858 28.087 139.618 28.114 139.33C27.9851 138.827 27.9388 138.384 27.9958 137.901C28.0543 137.407 28.2189 136.895 28.4767 136.262C28.7203 135.664 28.8877 135.058 29.107 134.291C29.3251 133.527 29.5893 132.624 30.023 131.463C30.5951 129.932 31.3286 128.266 31.9703 126.769Z" fill="#614D35"/>
<path d="M45.3594 130.319C45.3854 130.301 45.4173 130.294 45.4482 130.299C45.479 130.305 45.5066 130.322 45.525 130.348C45.5434 130.373 45.5509 130.405 45.5468 130.436C45.5206 130.639 45.4942 130.842 45.4674 131.045C45.3758 131.737 45.2808 132.428 45.1824 133.119L45.1807 133.129C44.8843 134.856 44.3855 136.645 44.3288 138.274C44.3516 138.682 44.3553 139.091 44.3232 139.504C44.2672 140.339 43.9599 141.303 43.2255 141.832C43.0532 141.965 42.8735 142.071 42.7056 142.18C42.6803 142.197 42.6498 142.205 42.6192 142.202C42.5886 142.199 42.5606 142.185 42.541 142.162C42.5214 142.14 42.5115 142.11 42.513 142.079C42.5145 142.049 42.5277 142.02 42.5479 141.997C42.69 141.84 42.8356 141.698 42.9611 141.55C43.4759 140.972 43.6179 140.232 43.6809 139.454C43.7101 139.078 43.7094 138.694 43.6921 138.307C43.783 136.4 44.3449 134.766 44.7472 133.034L44.7454 133.043C44.8862 132.36 45.0305 131.677 45.1782 130.995C45.2215 130.795 45.265 130.595 45.3088 130.395C45.3156 130.364 45.3334 130.337 45.3594 130.319Z" fill="#614D35"/>
<path d="M37.5139 148.107C37.5491 148.089 37.589 148.083 37.6261 148.093C37.6633 148.103 37.6955 148.127 37.7169 148.161C37.7384 148.194 37.7468 148.235 37.7452 148.274C37.7433 148.328 37.743 148.38 37.7437 148.432C37.7467 149.167 38.0232 149.748 38.4876 150.128C38.6196 150.235 38.7287 150.368 38.86 150.532C38.8925 150.572 38.9285 150.615 38.9664 150.657C38.9934 150.683 39.0189 150.71 39.0359 150.741C39.0528 150.772 39.0597 150.805 39.0544 150.836C39.0491 150.867 39.0319 150.895 39.0057 150.919C38.9796 150.943 38.9465 150.96 38.9126 150.975C38.8451 151 38.7725 151.015 38.7027 151.023C38.4189 151.052 38.1462 150.959 37.9418 150.791C37.1951 150.208 37.014 149.1 37.3605 148.353C37.383 148.298 37.4072 148.246 37.4336 148.192C37.4516 148.157 37.4787 148.126 37.5139 148.107Z" fill="#614D35"/>
<path d="M42.4436 142.344C42.4577 142.343 42.4717 142.348 42.4898 142.357C42.5077 142.365 42.53 142.377 42.5534 142.389C42.5779 142.402 42.6001 142.415 42.6199 142.429C42.6991 142.482 42.7401 142.537 42.743 142.594C42.7532 142.795 42.7115 142.998 42.6179 143.203C42.6112 143.218 42.6042 143.233 42.597 143.247C42.5859 143.269 42.5727 143.291 42.5548 143.307C42.537 143.323 42.516 143.333 42.4939 143.334C42.4719 143.335 42.45 143.328 42.4306 143.313C42.4112 143.299 42.3958 143.279 42.3825 143.258C42.3739 143.244 42.3654 143.23 42.3573 143.216C42.2433 143.021 42.1812 142.824 42.171 142.623C42.1681 142.566 42.2033 142.507 42.2767 142.446C42.295 142.431 42.3158 142.415 42.3389 142.4C42.3609 142.385 42.3819 142.372 42.3988 142.361C42.4159 142.351 42.4294 142.345 42.4436 142.344Z" fill="#614D35"/>
<path d="M57.587 19.9196C55.7407 20.2266 49.6887 20.1242 47.432 19.9196C46.4646 19.8318 45.1823 17.5435 44.0787 15.5742C43.778 15.0375 43.4905 14.5246 43.2263 14.0863C42.9629 13.6493 42.6857 13.1797 42.3987 12.6933L42.3981 12.6924C41.3409 10.901 40.1499 8.88317 39.0207 7.43437C37.1215 4.99772 36.3775 4.1749 34.7125 2.62449C33.1738 1.19176 31.0197 0.59055 29.1733 0.88475C27.3269 1.17895 26.0575 2.21514 24.5573 4.05722C23.2239 5.69462 22.6631 6.718 21.7878 8.3554C21.0489 9.73766 20.5738 10.7553 19.608 12.8242C19.4297 13.2061 19.2347 13.6239 19.0182 14.0863C17.9289 16.4134 17.3063 18.1678 16.4882 20.4731L16.4869 20.4768C16.4094 20.6951 16.3302 20.9184 16.2486 21.1476C15.8774 22.1909 15.6995 22.6682 15.3952 23.4755C15.0909 24.2828 14.7269 25.3055 14.0773 27.6401C13.4276 29.9746 12.3489 32.7702 11.2218 35.5308C8.8057 41.4488 4.19305 49.1204 2.6555 55.696C1.11796 62.2716 -0.137197 69.2856 1.3376 79.5874C2.65551 88.7933 9.02534 96.2456 14.2969 99.7526C19.5685 103.26 27.9531 106.295 38.8977 107.205C49.4409 108.082 52.9552 108.739 63.2788 108.082C73.6649 107.42 80.6311 105.145 85.9027 103.04C92.4921 100.41 98.5591 94.8152 102.394 86.8876C105.469 80.5311 106.322 69.5718 104.152 61.2427C101.981 52.9136 99.2277 45.6804 94.2673 37.3513C91.526 32.7484 91.1163 30.7757 90.2244 28.2759C89.9144 27.4069 89.6296 26.5536 89.3069 25.5868C88.8967 24.3575 88.4072 22.8777 87.7446 21.0157C87.6626 20.7853 87.5829 20.5608 87.505 20.3413C86.687 18.036 86.0644 16.2815 84.975 13.9544C84.7593 13.4935 84.5648 13.077 84.387 12.6961L84.3852 12.6921L84.3848 12.6913C83.4193 10.623 82.9443 9.60552 82.2055 8.22349C81.3301 6.58608 80.7694 5.56271 79.4359 3.92531C77.9357 2.08323 76.6663 1.04704 74.8199 0.752837C72.9736 0.458637 70.8194 1.05985 69.2808 2.49258C67.7421 3.92531 66.3061 5.59226 64.6648 8.22349C63.9531 9.36465 63.216 10.76 62.3995 12.306L62.3987 12.3074C62.0114 13.0407 61.6062 13.808 61.1772 14.598C60.8702 15.1635 60.5795 15.7448 60.2988 16.306C59.3605 18.1821 58.5346 19.8336 57.587 19.9196Z" fill="#FFE5A2"/>
<path d="M60.2988 16.306C59.3605 18.1821 59.8221 20.3668 54.2382 20.3668C57.8176 35.2572 54.8825 32.7965 51.7225 41.1274C49.8612 46.0346 48.431 51.293 51.7225 56.8053C54.5824 61.5948 58.2292 62.7365 62.3176 67.1856C64.7516 69.8343 69.2808 73.3422 71.9104 84.5815C73.9293 93.2107 94.2673 103.266 103.348 84.5815C105.209 77.0648 105.639 69.4048 104.152 61.2427C102.664 53.0806 99.2276 45.6804 94.2673 37.3513C91.526 32.7484 91.1163 30.7757 90.2244 28.2759C89.9143 27.4069 89.6295 26.5536 89.3069 25.5868C88.8966 24.3575 88.4072 22.8777 87.7446 21.0157C87.6655 20.7936 87.5887 20.577 87.5135 20.3651L87.505 20.3413L87.5049 20.341C86.6869 18.0358 86.0643 16.2814 84.975 13.9544C84.7585 13.4919 84.5635 13.0741 84.3852 12.6921L84.385 12.6917C83.4193 10.6232 82.9443 9.60562 82.2055 8.22349C81.3301 6.58608 80.7694 5.56271 79.4359 3.92531C77.9357 2.08323 76.6663 1.04704 74.8199 0.752837C72.9735 0.458637 70.8194 1.05985 69.2808 2.49258C67.7421 3.92531 66.306 5.59226 64.6648 8.22349C63.953 9.36464 63.216 10.76 62.3995 12.306L62.3994 12.306L62.3984 12.308C62.0111 13.0412 61.606 13.8082 61.1772 14.598C60.8702 15.1634 60.5795 15.7446 60.2989 16.3058L60.2988 16.306Z" fill="#A5835E"/>
<path d="M15.3952 23.4756C15.0909 24.2828 14.7269 25.3056 14.0773 27.6401C12.3658 32.6652 11.6432 33.7539 10.9989 36.3311C9.03022 44.2058 21.7878 38.9798 29.1107 44.2058C41.4276 52.9955 42.3552 38.3799 47.432 32.3937C49.7998 29.6018 48.5212 22.097 47.432 19.9196C46.4646 19.8319 45.1823 17.5436 44.0787 15.5742L44.0787 15.5742C43.778 15.0376 43.4905 14.5246 43.2263 14.0864C42.9628 13.6491 42.6854 13.1791 42.3981 12.6924C41.3409 10.9011 40.1499 8.88322 39.0207 7.43441C37.1215 4.99777 36.3775 4.17495 34.7125 2.62454C33.1738 1.19181 31.0197 0.590595 29.1733 0.884795C27.3269 1.17899 26.0575 2.21519 24.5574 4.05726C23.2239 5.69467 22.6631 6.71804 21.7878 8.35545C21.0489 9.73766 20.5738 10.7552 19.6081 12.8241L19.608 12.8242L19.607 12.8263C19.429 13.2077 19.2343 13.6247 19.0182 14.0864C17.9289 16.4135 17.3063 18.1679 16.4882 20.4731L16.4875 20.4753C16.4098 20.6941 16.3304 20.9179 16.2486 21.1477C15.8774 22.1909 15.6995 22.6683 15.3952 23.4756Z" fill="#A5835E"/>
<path d="M2.6555 55.696C4.19305 49.1204 8.8057 41.4489 11.2218 35.5308C11.3828 38.16 8.2875 44.1907 7.26618 49.2169C6.22248 54.3533 5.19012 60.6711 5.19012 67.472C5.19012 74.2728 7.26618 82.6657 11.2218 88.8769C15.1775 95.088 21.534 99.8712 37.0469 104.483C44.6809 106.753 55.4483 108.4 59.5566 108.235C59.711 108.226 59.8677 108.216 60.0267 108.206C59.8816 108.219 59.7247 108.228 59.5566 108.235C49.6927 108.839 49.2784 108.068 38.8977 107.205C27.9531 106.295 19.5685 103.26 14.2969 99.7526C9.02534 96.2456 2.65551 88.7933 1.3376 79.5874C-0.137197 69.2856 1.11796 62.2716 2.6555 55.696Z" fill="#E9D295"/>
<path d="M89.9779 27.5683C90.3317 27.4421 90.7208 27.6266 90.8471 27.9804C91.7466 30.5016 92.1337 32.4028 94.8336 36.9363C99.8314 45.3283 102.608 52.6226 104.792 61.0043C105.899 65.2531 106.231 70.1511 105.9 74.7863C105.57 79.4162 104.575 83.8367 102.989 87.1168C99.0885 95.1783 92.9204 100.971 86.1548 103.672C80.8353 105.795 73.7976 108.093 63.3221 108.761C62.5706 108.808 61.9462 108.797 61.3689 108.78C60.7873 108.762 60.2722 108.741 59.6941 108.761C59.3188 108.775 59.0035 108.482 58.99 108.106C58.9765 107.731 59.27 107.416 59.6453 107.402C60.2791 107.379 60.849 107.403 61.4092 107.42C61.9737 107.437 62.5479 107.447 63.2355 107.403C73.5322 106.747 80.4269 104.494 85.6506 102.409C92.0639 99.8489 97.9938 94.3179 101.764 86.5244C103.252 83.448 104.221 79.2106 104.544 74.6895C104.866 70.1736 104.538 65.4275 103.475 61.3472C101.319 53.0707 98.5879 45.8986 93.665 37.6324C90.8824 32.96 90.4501 30.9159 89.5659 28.4375C89.4397 28.0837 89.6242 27.6946 89.9779 27.5683ZM13.4221 27.4577C13.5228 27.0959 13.8978 26.8842 14.2596 26.9849C14.6215 27.0856 14.8332 27.4606 14.7325 27.8224C14.0713 30.1986 12.9789 33.0263 11.8515 35.7879C10.6343 38.7691 8.85531 42.2118 7.22382 45.6578C5.57827 49.1336 4.06877 52.6392 3.31779 55.8509C1.79037 62.3832 0.552664 69.3052 2.01088 79.4911C3.29501 88.4609 9.52176 95.7591 14.6736 99.1864C19.8295 102.616 28.0973 105.624 38.9541 106.527C40.7323 106.675 42.2568 106.779 43.6508 106.871C45.0432 106.963 46.3105 107.044 47.5644 107.146C47.9387 107.177 48.2173 107.505 48.1867 107.879C48.1561 108.254 47.8279 108.532 47.4535 108.502C46.2129 108.4 44.9587 108.32 43.5612 108.228C42.1653 108.136 40.6314 108.032 38.8414 107.883C27.809 106.965 19.3076 103.903 13.9203 100.319C8.52896 96.7322 2.01611 89.1257 0.664406 79.6838C-0.826972 69.2662 0.445588 62.1601 1.99326 55.5412C2.77983 52.1773 4.34533 48.5593 5.99452 45.0759C7.65777 41.5627 9.39327 38.2105 10.5922 35.2737C11.7189 32.5141 12.784 29.7506 13.4221 27.4577ZM68.8173 1.99483C70.5095 0.419082 72.8742 -0.24581 74.9269 0.0812401C77.0202 0.414785 78.4253 1.60744 79.9633 3.49595C81.3381 5.1841 81.9231 6.25281 82.8053 7.90296C82.9823 8.23419 82.8573 8.64619 82.526 8.82326C82.1948 9.0003 81.7828 8.87539 81.6057 8.54418C80.7372 6.91955 80.2007 5.94146 78.9086 4.35486C77.4462 2.55924 76.3124 1.67936 74.713 1.4245C73.0729 1.16317 71.1293 1.70067 69.7443 2.99035C68.2518 4.38007 66.8533 6.00006 65.2419 8.58347C64.5458 9.69956 63.821 11.0711 63.0009 12.6237C62.6136 13.357 62.2063 14.1281 61.7749 14.9225C61.4743 15.4763 61.1886 16.0473 60.9071 16.6102C60.4446 17.5349 59.9826 18.4613 59.5108 19.1634C59.2737 19.5164 59.014 19.844 58.7252 20.0955C58.4442 20.3402 58.0966 20.5458 57.6836 20.5927C56.6874 20.7555 54.6633 20.8042 52.659 20.7915C50.6261 20.7787 48.527 20.7018 47.3706 20.5969C46.8957 20.5538 46.4934 20.2625 46.1888 19.9757C45.8663 19.6719 45.55 19.273 45.2489 18.8421C44.6462 17.9796 44.0325 16.883 43.4854 15.9067C43.1832 15.3675 42.9014 14.8647 42.6439 14.4375C42.3784 13.997 42.0993 13.5241 41.8124 13.038C40.7481 11.2347 39.5808 9.25933 38.4843 7.85248C36.601 5.43631 35.8811 4.642 34.249 3.1222C32.8639 1.83254 30.9204 1.29502 29.2803 1.55635C27.6809 1.81121 26.547 2.69108 25.0847 4.48672C23.7925 6.07333 23.256 7.0514 22.3875 8.67603C21.6587 10.0395 21.1911 11.0407 20.2242 13.112C20.046 13.4939 19.8508 13.9119 19.6342 14.3747C18.5603 16.6689 17.9472 18.3955 17.1292 20.7006C17.0513 20.9201 16.9715 21.1449 16.8894 21.3757C16.7634 21.7295 16.3745 21.9143 16.0207 21.7884C15.6668 21.6625 15.482 21.2734 15.6079 20.9196C15.6898 20.6894 15.7694 20.4652 15.8473 20.2456C16.6654 17.9403 17.2975 16.1581 18.4022 13.7981C18.6185 13.336 18.8134 12.9185 18.9917 12.5366C19.9565 10.47 20.439 9.43586 21.188 8.03481C22.0702 6.38465 22.6552 5.31598 24.03 3.6278C25.568 1.73929 26.973 0.546776 29.0664 0.213231C31.119 -0.113824 33.4837 0.551066 35.176 2.12682C36.8739 3.70782 37.642 4.55926 39.5571 7.01636C40.7191 8.50711 41.9337 10.5675 42.9838 12.3467C43.2715 12.834 43.5471 13.3012 43.8088 13.7353C44.0797 14.1847 44.3727 14.7078 44.6719 15.2417C45.2284 16.2348 45.8077 17.267 46.3639 18.0629C46.6422 18.4612 46.8969 18.7741 47.1214 18.9856C47.2327 19.0904 47.3242 19.1584 47.3951 19.1992C47.4582 19.2356 47.4896 19.2416 47.4934 19.2423C48.5936 19.3421 50.6489 19.4187 52.6677 19.4315C54.705 19.4443 56.6199 19.391 57.4754 19.2487L57.5005 19.2445L57.5256 19.2423C57.5709 19.2382 57.6703 19.2106 57.832 19.0698C57.9938 18.9288 58.1768 18.7101 58.3819 18.4049C58.7945 17.7908 59.2148 16.9532 59.6906 16.0018C59.9704 15.4423 60.2662 14.8507 60.5796 14.2735C61.0067 13.4869 61.4104 12.7226 61.7981 11.9884C62.6112 10.4491 63.3604 9.02987 64.0879 7.86367C65.7589 5.18463 67.2324 3.47057 68.8173 1.99483ZM84.0973 12.0761C84.4376 11.9171 84.8423 12.064 85.0013 12.4042L85.5912 13.6665L85.5999 13.685L88.1373 20.0909C88.2756 20.4401 88.1047 20.8352 87.7555 20.9736C87.4063 21.1119 87.0111 20.9409 86.8728 20.5917L84.3494 14.2222L83.769 12.9801C83.61 12.6399 83.7571 12.2351 84.0973 12.0761Z" fill="#614D35"/>
<path d="M15.5092 23.1193C15.5426 23.1292 15.5713 23.1512 15.6049 23.1853C15.638 23.2192 15.6775 23.2637 15.7189 23.3101C15.7632 23.3599 15.8019 23.409 15.8351 23.4566C15.9686 23.6454 16.0148 23.8096 15.9742 23.9473C15.832 24.43 15.5713 24.8781 15.1923 25.291C15.1652 25.3205 15.1373 25.3504 15.1093 25.3786C15.0679 25.4207 15.0215 25.4592 14.9685 25.482C14.9155 25.5048 14.8601 25.5101 14.8091 25.4951C14.7582 25.4801 14.7145 25.4456 14.6823 25.3977C14.6501 25.3497 14.632 25.2923 14.62 25.2344C14.6118 25.1955 14.6046 25.1553 14.5979 25.1158C14.5033 24.5634 14.5273 24.0455 14.6695 23.5628C14.7101 23.4251 14.8379 23.3122 15.0524 23.2259C15.1062 23.204 15.1653 23.1837 15.2296 23.1659C15.2895 23.1494 15.3468 23.1334 15.393 23.1228C15.4398 23.1124 15.4758 23.1094 15.5092 23.1193Z" fill="#614D35"/>
<path d="M88.1482 22.2434C88.173 22.2333 88.1996 22.2295 88.2416 22.2248C88.2828 22.2203 88.341 22.2133 88.4074 22.2038C88.4651 22.1954 88.5178 22.1897 88.5652 22.186C88.7548 22.1707 88.8605 22.1898 88.882 22.2428C88.9574 22.4286 88.9186 22.6609 88.7653 22.9394C88.7543 22.9593 88.7428 22.9797 88.7306 22.9997C88.6989 23.0518 88.6688 23.1018 88.6399 23.1413C88.6106 23.181 88.5816 23.2084 88.546 23.2229C88.5103 23.2373 88.4704 23.2379 88.4217 23.2299C88.3735 23.2217 88.3171 23.2069 88.258 23.1916C88.2353 23.1858 88.2129 23.1792 88.1911 23.1726C87.887 23.0798 87.6972 22.9403 87.6218 22.7546C87.6003 22.7016 87.6627 22.6142 87.8092 22.493C87.8458 22.4626 87.8876 22.43 87.9348 22.3957C87.989 22.3563 88.0356 22.3207 88.0683 22.2952C88.1017 22.2693 88.1234 22.2535 88.1482 22.2434Z" fill="#614D35"/>
<path d="M88.8521 24.3427C88.8817 24.3328 88.9142 24.3343 88.9606 24.3406C89.0062 24.3472 89.0664 24.3567 89.1289 24.3667C89.192 24.3769 89.25 24.3897 89.3026 24.4042C89.5127 24.4611 89.6371 24.5474 89.6753 24.6617C89.8089 25.0627 89.8256 25.503 89.7251 25.9819C89.7179 26.0161 89.7102 26.051 89.7016 26.0849C89.6874 26.142 89.669 26.1985 89.6385 26.2457C89.6079 26.2929 89.5672 26.3272 89.5189 26.3433C89.4706 26.3594 89.4175 26.3564 89.3647 26.3369C89.312 26.3175 89.2634 26.2834 89.2177 26.2462C89.1905 26.2243 89.1634 26.2009 89.1372 26.1778C88.7694 25.855 88.5186 25.4928 88.3849 25.0918C88.3468 24.9775 88.3945 24.8338 88.5285 24.6622C88.5619 24.619 88.6006 24.574 88.645 24.528C88.689 24.4825 88.7314 24.4388 88.764 24.4061C88.7973 24.3732 88.8224 24.3526 88.8521 24.3427Z" fill="#614D35"/>
<path d="M82.842 9.48384C82.8676 9.4728 82.8959 9.46977 82.9396 9.46721C82.9826 9.46497 83.0422 9.46132 83.1078 9.45609C83.1674 9.45134 83.2221 9.44936 83.2715 9.44961C83.4691 9.44979 83.5837 9.48639 83.6147 9.55842C83.7235 9.811 83.7191 10.1125 83.6012 10.4627C83.5928 10.4877 83.584 10.5134 83.5742 10.5384C83.5528 10.594 83.5312 10.6477 83.5041 10.6921C83.4768 10.7366 83.4441 10.769 83.4034 10.7865C83.3627 10.804 83.3167 10.8056 83.2656 10.7949C83.2147 10.7841 83.1608 10.7628 83.1058 10.7403C83.0808 10.7302 83.0561 10.719 83.0321 10.7079C82.6967 10.5531 82.4744 10.3493 82.3656 10.0967C82.3345 10.0247 82.3866 9.91628 82.5222 9.77256C82.5559 9.73643 82.5949 9.69805 82.6393 9.65796C82.6881 9.61391 82.7318 9.57306 82.7629 9.54335C82.7948 9.51332 82.8164 9.49488 82.842 9.48384Z" fill="#614D35"/>
<path d="M29.417 104.487C29.4941 104.221 29.772 104.068 30.0378 104.145C37.4927 106.308 45.4062 107.06 48.5828 107.06C48.8595 107.06 49.0839 107.285 49.0839 107.561C49.0839 107.838 48.8595 108.063 48.5828 108.063C45.3164 108.063 37.3087 107.298 29.7587 105.108C29.4929 105.03 29.3399 104.753 29.417 104.487Z" fill="#E9D295"/>
<path d="M75.6715 104.64C75.9409 104.576 76.2108 104.743 76.2741 105.013C76.3375 105.282 76.1705 105.552 75.9011 105.615C72.2605 106.472 65.3309 108.206 58.2472 108.206C57.9704 108.206 57.7461 107.981 57.7461 107.705C57.7461 107.428 57.9704 107.203 58.2472 107.203C65.1947 107.203 72.0101 105.501 75.6715 104.64Z" fill="#FFE5A2"/>
<path d="M40.7934 80.4417C40.7934 82.1037 40.0113 83.9764 37.8784 84.462C35.9283 84.9059 33.897 83.6867 33.897 81.6181C33.897 79.5495 35.8759 76.2773 37.8784 76.2773C39.8809 76.2773 40.7934 78.3731 40.7934 80.4417Z" fill="#F4EFEC"/>
<path d="M40.075 80.4417C40.075 79.4966 39.8642 78.5941 39.4728 77.9539C39.0962 77.338 38.5783 76.9907 37.8784 76.9907C37.5769 76.9907 37.2236 77.1151 36.8355 77.3969C36.4495 77.6771 36.068 78.086 35.7289 78.5761C35.0389 79.5732 34.6154 80.7694 34.6154 81.6181C34.6154 83.117 36.1016 84.1345 37.7178 83.7666C39.3966 83.3844 40.075 81.9215 40.075 80.4417ZM40.7928 80.5197C40.7686 82.1619 39.9779 83.9841 37.8784 84.462L37.787 84.4816C35.8653 84.8676 33.897 83.6545 33.897 81.6181C33.897 79.5496 35.8758 76.2773 37.8784 76.2773C39.8809 76.2773 40.7934 78.3731 40.7934 80.4417L40.7928 80.5197Z" fill="#614D35"/>
<path d="M89.1691 80.0679C89.1691 81.7351 88.7619 83.5022 86.7078 83.9892C84.8297 84.4346 82.8736 83.2115 82.8736 81.1364C82.8736 79.0612 84.2658 75.8478 86.1943 75.8478C88.1228 75.8478 89.1691 77.9927 89.1691 80.0679Z" fill="#F4EFEC"/>
<path d="M88.4532 80.0679C88.4532 79.1373 88.2163 78.2214 87.7997 77.562C87.3913 76.9156 86.851 76.5637 86.1943 76.5637C85.6434 76.5637 84.9976 77.0495 84.4369 78.061C83.9011 79.0276 83.5894 80.2313 83.5894 81.1364C83.5894 82.6657 85.0291 83.6516 86.5426 83.2927C87.3603 83.0988 87.8043 82.6749 88.0696 82.1488C88.3536 81.5855 88.4532 80.8593 88.4532 80.0679ZM89.1679 80.2245C89.142 81.8444 88.6977 83.5174 86.7079 83.9893L86.6198 84.0089C84.7691 84.3962 82.8736 83.1792 82.8736 81.1364C82.8736 79.0612 84.2658 75.8478 86.1943 75.8478L86.2841 75.8493C88.1552 75.9148 89.1691 78.0251 89.1691 80.0679L89.1679 80.2245Z" fill="#614D35"/>
<path d="M63.0121 85.9709C63.2647 85.8225 63.515 85.7383 63.7859 85.7861C64.035 85.83 64.2411 85.9787 64.42 86.1179C64.6171 86.2711 64.8155 86.4427 65.1113 86.6515C65.2728 86.7655 65.3113 86.9889 65.1973 87.1504C65.0833 87.3119 64.86 87.3504 64.6985 87.2364C64.3859 87.0157 64.1457 86.8115 63.9804 86.6829C63.7969 86.5402 63.7166 86.5009 63.6615 86.4912C63.6281 86.4853 63.5563 86.4816 63.3748 86.5882C63.1883 86.6978 62.9369 86.8932 62.5607 87.2157C62.4106 87.3444 62.1846 87.3271 62.0559 87.177C61.9273 87.0269 61.9447 86.8009 62.0948 86.6722C62.4701 86.3505 62.7646 86.1163 63.0121 85.9709Z" fill="#614D35"/>
<path d="M63.6118 86.418C63.5019 86.5183 63.392 86.6187 63.2821 86.719C61.3041 88.525 59.3259 90.3309 57.3479 92.1368C57.238 92.2371 57.1282 92.3375 57.0183 92.4379C56.8428 92.5984 56.6146 92.6777 56.3785 92.6519C56.1427 92.6265 55.9182 92.498 55.7601 92.3013C55.6019 92.1045 55.5246 91.8577 55.5503 91.622C55.5758 91.3859 55.7023 91.18 55.8967 91.043C56.0182 90.9572 56.1399 90.8715 56.2615 90.7857C58.4498 89.2413 60.6382 87.6969 62.8266 86.1525C62.9482 86.0667 63.0697 85.9809 63.1913 85.8951C63.3314 86.0694 63.4717 86.2437 63.6118 86.418Z" fill="#614D35"/>
<path d="M63.6208 86.418C63.7307 86.5183 63.8406 86.6187 63.9505 86.719C65.9286 88.525 67.9067 90.3309 69.8848 92.1368C69.9947 92.2371 70.1045 92.3375 70.2143 92.4379C70.3898 92.5984 70.6181 92.6777 70.8542 92.6519C71.0899 92.6265 71.3144 92.498 71.4726 92.3013C71.6308 92.1045 71.7081 91.8577 71.6823 91.622C71.6569 91.3859 71.5304 91.18 71.336 91.043C71.2144 90.9572 71.0927 90.8715 70.9712 90.7857C68.7828 89.2413 66.5944 87.6969 64.406 86.1525C64.2845 86.0667 64.1629 85.9809 64.0414 85.8951C63.9012 86.0694 63.761 86.2437 63.6208 86.418Z" fill="#614D35"/>
<path d="M63.5447 85.727C63.8479 85.727 64.1766 85.8829 64.4719 86.0619C64.7826 86.2502 65.1219 86.5062 65.4618 86.7826C65.8029 87.0601 66.1543 87.3661 66.4881 87.6575C66.8242 87.9509 67.141 88.2281 67.4214 88.4559C67.5748 88.5805 67.5982 88.8059 67.4735 88.9594C67.3489 89.1128 67.1235 89.1361 66.9701 89.0115C66.6777 88.774 66.3502 88.4874 66.0175 88.1969C65.6824 87.9044 65.3401 87.6064 65.0102 87.338C64.679 87.0686 64.3695 86.8369 64.1008 86.674C63.8167 86.5018 63.6353 86.4429 63.5447 86.4429C63.5151 86.4429 63.4475 86.4543 63.3323 86.5029C63.2218 86.5495 63.0891 86.621 62.9364 86.7169C62.6306 86.9088 62.2725 87.1798 61.8915 87.49C61.5118 87.7991 61.1176 88.1402 60.7394 88.4692C60.3633 88.7962 60.0006 89.1135 59.6917 89.3679C59.5391 89.4936 59.3136 89.4717 59.1879 89.3191C59.0623 89.1665 59.0841 88.941 59.2367 88.8154C59.5362 88.5687 59.8894 88.2595 60.2696 87.9289C60.6475 87.6002 61.0497 87.2522 61.4396 86.9349C61.8281 86.6187 62.2128 86.3259 62.5558 86.1107C62.7273 86.003 62.8956 85.91 63.0541 85.8432C63.2079 85.7783 63.3775 85.727 63.5447 85.727Z" fill="#614D35"/>
<path d="M34.6129 87.8747C34.6129 89.6934 32.1129 91.1677 29.029 91.1677C25.9451 91.1677 23.4451 89.6934 23.4451 87.8747C23.4451 86.056 25.9451 84.5816 29.029 84.5816C32.1129 84.5816 34.6129 86.056 34.6129 87.8747Z" fill="#FFAC83"/>
<path d="M97.4674 87.8747C97.4674 89.6934 95.1597 91.1677 92.3131 91.1677C89.4664 91.1677 87.1587 89.6934 87.1587 87.8747C87.1587 86.056 89.4664 84.5816 92.3131 84.5816C95.1597 84.5816 97.4674 86.056 97.4674 87.8747Z" fill="#FFAC83"/>
<defs>
<linearGradient id="paint0_linear_5_1313" x1="47.7851" y1="128.68" x2="14.5682" y2="139.776" gradientUnits="userSpaceOnUse">
<stop stop-color="#98A06F"/>
</linearGradient>
</defs>
</svg>
