<svg width="107" height="109" viewBox="0 0 107 109" fill="none" xmlns="http://www.w3.org/2000/svg">
<path d="M57.587 19.9196C55.7407 20.2266 49.6887 20.1242 47.432 19.9196C46.4646 19.8318 45.1823 17.5435 44.0787 15.5742C43.778 15.0375 43.4905 14.5246 43.2263 14.0863C42.9629 13.6493 42.6857 13.1797 42.3987 12.6933L42.3981 12.6924C41.3409 10.901 40.1499 8.88317 39.0207 7.43437C37.1215 4.99772 36.3775 4.1749 34.7125 2.62449C33.1738 1.19176 31.0197 0.59055 29.1733 0.88475C27.3269 1.17895 26.0575 2.21514 24.5573 4.05722C23.2239 5.69462 22.6631 6.718 21.7878 8.3554C21.0489 9.73766 20.5738 10.7553 19.608 12.8242C19.4297 13.2061 19.2347 13.6239 19.0182 14.0863C17.9289 16.4134 17.3063 18.1678 16.4882 20.4731L16.4869 20.4768C16.4094 20.6951 16.3302 20.9184 16.2486 21.1476C15.8774 22.1909 15.6995 22.6682 15.3952 23.4755C15.0909 24.2828 14.7269 25.3055 14.0773 27.6401C13.4276 29.9746 12.3489 32.7702 11.2218 35.5308C8.8057 41.4488 4.19305 49.1204 2.6555 55.696C1.11796 62.2716 -0.137197 69.2856 1.3376 79.5874C2.65551 88.7933 9.02534 96.2456 14.2969 99.7526C19.5685 103.26 27.9531 106.295 38.8977 107.205C49.4409 108.082 52.9552 108.739 63.2788 108.082C73.6649 107.42 80.6311 105.145 85.9027 103.04C92.4921 100.41 98.5591 94.8152 102.394 86.8876C105.469 80.5311 106.322 69.5718 104.152 61.2427C101.981 52.9136 99.2277 45.6804 94.2673 37.3513C91.526 32.7484 91.1163 30.7757 90.2244 28.2759C89.9144 27.4069 89.6296 26.5536 89.3069 25.5868C88.8967 24.3575 88.4072 22.8777 87.7446 21.0157C87.6626 20.7853 87.5829 20.5608 87.505 20.3413C86.687 18.036 86.0644 16.2815 84.975 13.9544C84.7593 13.4935 84.5648 13.077 84.387 12.6961L84.3852 12.6921L84.3848 12.6913C83.4193 10.623 82.9443 9.60552 82.2055 8.22349C81.3301 6.58608 80.7694 5.56271 79.4359 3.92531C77.9357 2.08323 76.6663 1.04704 74.8199 0.752837C72.9736 0.458637 70.8194 1.05985 69.2808 2.49258C67.7421 3.92531 66.3061 5.59226 64.6648 8.22349C63.9531 9.36465 63.216 10.76 62.3995 12.306L62.3987 12.3074C62.0114 13.0407 61.6062 13.808 61.1772 14.598C60.8702 15.1635 60.5795 15.7448 60.2988 16.306C59.3605 18.1821 58.5346 19.8336 57.587 19.9196Z" fill="#FFE5A2"/>
<path d="M60.2988 16.306C59.3605 18.1821 59.8221 20.3668 54.2382 20.3668C57.8176 35.2572 54.8825 32.7965 51.7225 41.1274C49.8612 46.0346 48.431 51.293 51.7225 56.8053C54.5824 61.5948 58.2292 62.7365 62.3176 67.1856C64.7516 69.8343 69.2808 73.3422 71.9104 84.5815C73.9293 93.2107 94.2673 103.266 103.348 84.5815C105.209 77.0648 105.639 69.4048 104.152 61.2427C102.664 53.0806 99.2276 45.6804 94.2673 37.3513C91.526 32.7484 91.1163 30.7757 90.2244 28.2759C89.9143 27.4069 89.6295 26.5536 89.3069 25.5868C88.8966 24.3575 88.4072 22.8777 87.7446 21.0157C87.6655 20.7936 87.5887 20.577 87.5135 20.3651L87.505 20.3413L87.5049 20.341C86.6869 18.0358 86.0643 16.2814 84.975 13.9544C84.7585 13.4919 84.5635 13.0741 84.3852 12.6921L84.385 12.6917C83.4193 10.6232 82.9443 9.60562 82.2055 8.22349C81.3301 6.58608 80.7694 5.56271 79.4359 3.92531C77.9357 2.08323 76.6663 1.04704 74.8199 0.752837C72.9735 0.458637 70.8194 1.05985 69.2808 2.49258C67.7421 3.92531 66.306 5.59226 64.6648 8.22349C63.953 9.36464 63.216 10.76 62.3995 12.306L62.3994 12.306L62.3984 12.308C62.0111 13.0412 61.606 13.8082 61.1772 14.598C60.8702 15.1634 60.5795 15.7446 60.2989 16.3058L60.2988 16.306Z" fill="#A5835E"/>
<path d="M15.3952 23.4756C15.0909 24.2828 14.7269 25.3056 14.0773 27.6401C12.3658 32.6652 11.6432 33.7539 10.9989 36.3311C9.03022 44.2058 21.7878 38.9798 29.1107 44.2058C41.4276 52.9955 42.3552 38.3799 47.432 32.3937C49.7998 29.6018 48.5212 22.097 47.432 19.9196C46.4646 19.8319 45.1823 17.5436 44.0787 15.5742L44.0787 15.5742C43.778 15.0376 43.4905 14.5246 43.2263 14.0864C42.9628 13.6491 42.6854 13.1791 42.3981 12.6924C41.3409 10.9011 40.1499 8.88322 39.0207 7.43441C37.1215 4.99777 36.3775 4.17495 34.7125 2.62454C33.1738 1.19181 31.0197 0.590595 29.1733 0.884795C27.3269 1.17899 26.0575 2.21519 24.5574 4.05726C23.2239 5.69467 22.6631 6.71804 21.7878 8.35545C21.0489 9.73766 20.5738 10.7552 19.6081 12.8241L19.608 12.8242L19.607 12.8263C19.429 13.2077 19.2343 13.6247 19.0182 14.0864C17.9289 16.4135 17.3063 18.1679 16.4882 20.4731L16.4875 20.4753C16.4098 20.6941 16.3304 20.9179 16.2486 21.1477C15.8774 22.1909 15.6995 22.6683 15.3952 23.4756Z" fill="#A5835E"/>
<path d="M2.6555 55.696C4.19305 49.1204 8.8057 41.4489 11.2218 35.5308C11.3828 38.16 8.2875 44.1907 7.26618 49.2169C6.22248 54.3533 5.19012 60.6711 5.19012 67.472C5.19012 74.2728 7.26618 82.6657 11.2218 88.8769C15.1775 95.088 21.534 99.8712 37.0469 104.483C44.6809 106.753 55.4483 108.4 59.5566 108.235C59.711 108.226 59.8677 108.216 60.0267 108.206C59.8816 108.219 59.7247 108.228 59.5566 108.235C49.6927 108.839 49.2784 108.068 38.8977 107.205C27.9531 106.295 19.5685 103.26 14.2969 99.7526C9.02534 96.2456 2.65551 88.7933 1.3376 79.5874C-0.137197 69.2856 1.11796 62.2716 2.6555 55.696Z" fill="#E9D295"/>
<path d="M89.9779 27.5683C90.3317 27.4421 90.7208 27.6266 90.8471 27.9804C91.7466 30.5016 92.1337 32.4028 94.8336 36.9363C99.8314 45.3283 102.608 52.6226 104.792 61.0043C105.899 65.2531 106.231 70.1511 105.9 74.7863C105.57 79.4162 104.575 83.8367 102.989 87.1168C99.0885 95.1783 92.9204 100.971 86.1548 103.672C80.8353 105.795 73.7976 108.093 63.3221 108.761C62.5706 108.808 61.9462 108.797 61.3689 108.78C60.7873 108.762 60.2722 108.741 59.6941 108.761C59.3188 108.775 59.0035 108.482 58.99 108.106C58.9765 107.731 59.27 107.416 59.6453 107.402C60.2791 107.379 60.849 107.403 61.4092 107.42C61.9737 107.437 62.5479 107.447 63.2355 107.403C73.5322 106.747 80.4269 104.494 85.6506 102.409C92.0639 99.8489 97.9938 94.3179 101.764 86.5244C103.252 83.448 104.221 79.2106 104.544 74.6895C104.866 70.1736 104.538 65.4275 103.475 61.3472C101.319 53.0707 98.5879 45.8986 93.665 37.6324C90.8824 32.96 90.4501 30.9159 89.5659 28.4375C89.4397 28.0837 89.6242 27.6946 89.9779 27.5683ZM13.4221 27.4577C13.5228 27.0959 13.8978 26.8842 14.2596 26.9849C14.6215 27.0856 14.8332 27.4606 14.7325 27.8224C14.0713 30.1986 12.9789 33.0263 11.8515 35.7879C10.6343 38.7691 8.85531 42.2118 7.22382 45.6578C5.57827 49.1336 4.06877 52.6392 3.31779 55.8509C1.79037 62.3832 0.552664 69.3052 2.01088 79.4911C3.29501 88.4609 9.52176 95.7591 14.6736 99.1864C19.8295 102.616 28.0973 105.624 38.9541 106.527C40.7323 106.675 42.2568 106.779 43.6508 106.871C45.0432 106.963 46.3105 107.044 47.5644 107.146C47.9387 107.177 48.2173 107.505 48.1867 107.879C48.1561 108.254 47.8279 108.532 47.4535 108.502C46.2129 108.4 44.9587 108.32 43.5612 108.228C42.1653 108.136 40.6314 108.032 38.8414 107.883C27.809 106.965 19.3076 103.903 13.9203 100.319C8.52896 96.7322 2.01611 89.1257 0.664406 79.6838C-0.826972 69.2662 0.445588 62.1601 1.99326 55.5412C2.77983 52.1773 4.34533 48.5593 5.99452 45.0759C7.65777 41.5627 9.39327 38.2105 10.5922 35.2737C11.7189 32.5141 12.784 29.7506 13.4221 27.4577ZM68.8173 1.99483C70.5095 0.419082 72.8742 -0.24581 74.9269 0.0812401C77.0202 0.414785 78.4253 1.60744 79.9633 3.49595C81.3381 5.1841 81.9231 6.25281 82.8053 7.90296C82.9823 8.23419 82.8573 8.64619 82.526 8.82326C82.1948 9.0003 81.7828 8.87539 81.6057 8.54418C80.7372 6.91955 80.2007 5.94146 78.9086 4.35486C77.4462 2.55924 76.3124 1.67936 74.713 1.4245C73.0729 1.16317 71.1293 1.70067 69.7443 2.99035C68.2518 4.38007 66.8533 6.00006 65.2419 8.58347C64.5458 9.69956 63.821 11.0711 63.0009 12.6237C62.6136 13.357 62.2063 14.1281 61.7749 14.9225C61.4743 15.4763 61.1886 16.0473 60.9071 16.6102C60.4446 17.5349 59.9826 18.4613 59.5108 19.1634C59.2737 19.5164 59.014 19.844 58.7252 20.0955C58.4442 20.3402 58.0966 20.5458 57.6836 20.5927C56.6874 20.7555 54.6633 20.8042 52.659 20.7915C50.6261 20.7787 48.527 20.7018 47.3706 20.5969C46.8957 20.5538 46.4934 20.2625 46.1888 19.9757C45.8663 19.6719 45.55 19.273 45.2489 18.8421C44.6462 17.9796 44.0325 16.883 43.4854 15.9067C43.1832 15.3675 42.9014 14.8647 42.6439 14.4375C42.3784 13.997 42.0993 13.5241 41.8124 13.038C40.7481 11.2347 39.5808 9.25933 38.4843 7.85248C36.601 5.43631 35.8811 4.642 34.249 3.1222C32.8639 1.83254 30.9204 1.29502 29.2803 1.55635C27.6809 1.81121 26.547 2.69108 25.0847 4.48672C23.7925 6.07333 23.256 7.0514 22.3875 8.67603C21.6587 10.0395 21.1911 11.0407 20.2242 13.112C20.046 13.4939 19.8508 13.9119 19.6342 14.3747C18.5603 16.6689 17.9472 18.3955 17.1292 20.7006C17.0513 20.9201 16.9715 21.1449 16.8894 21.3757C16.7634 21.7295 16.3745 21.9143 16.0207 21.7884C15.6668 21.6625 15.482 21.2734 15.6079 20.9196C15.6898 20.6894 15.7694 20.4652 15.8473 20.2456C16.6654 17.9403 17.2975 16.1581 18.4022 13.7981C18.6185 13.336 18.8134 12.9185 18.9917 12.5366C19.9565 10.47 20.439 9.43586 21.188 8.03481C22.0702 6.38465 22.6552 5.31598 24.03 3.6278C25.568 1.73929 26.973 0.546776 29.0664 0.213231C31.119 -0.113824 33.4837 0.551066 35.176 2.12682C36.8739 3.70782 37.642 4.55926 39.5571 7.01636C40.7191 8.50711 41.9337 10.5675 42.9838 12.3467C43.2715 12.834 43.5471 13.3012 43.8088 13.7353C44.0797 14.1847 44.3727 14.7078 44.6719 15.2417C45.2284 16.2348 45.8077 17.267 46.3639 18.0629C46.6422 18.4612 46.8969 18.7741 47.1214 18.9856C47.2327 19.0904 47.3242 19.1584 47.3951 19.1992C47.4582 19.2356 47.4896 19.2416 47.4934 19.2423C48.5936 19.3421 50.6489 19.4187 52.6677 19.4315C54.705 19.4443 56.6199 19.391 57.4754 19.2487L57.5005 19.2445L57.5256 19.2423C57.5709 19.2382 57.6703 19.2106 57.832 19.0698C57.9938 18.9288 58.1768 18.7101 58.3819 18.4049C58.7945 17.7908 59.2148 16.9532 59.6906 16.0018C59.9704 15.4423 60.2662 14.8507 60.5796 14.2735C61.0067 13.4869 61.4104 12.7226 61.7981 11.9884C62.6112 10.4491 63.3604 9.02987 64.0879 7.86367C65.7589 5.18463 67.2324 3.47057 68.8173 1.99483ZM84.0973 12.0761C84.4376 11.9171 84.8423 12.064 85.0013 12.4042L85.5912 13.6665L85.5999 13.685L88.1373 20.0909C88.2756 20.4401 88.1047 20.8352 87.7555 20.9736C87.4063 21.1119 87.0111 20.9409 86.8728 20.5917L84.3494 14.2222L83.769 12.9801C83.61 12.6399 83.7571 12.2351 84.0973 12.0761Z" fill="#614D35"/>
<path d="M15.5092 23.1193C15.5426 23.1292 15.5713 23.1512 15.6049 23.1853C15.638 23.2192 15.6775 23.2637 15.7189 23.3101C15.7632 23.3599 15.8019 23.409 15.8351 23.4566C15.9686 23.6454 16.0148 23.8096 15.9742 23.9473C15.832 24.43 15.5713 24.8781 15.1923 25.291C15.1652 25.3205 15.1373 25.3504 15.1093 25.3786C15.0679 25.4207 15.0215 25.4592 14.9685 25.482C14.9155 25.5048 14.8601 25.5101 14.8091 25.4951C14.7582 25.4801 14.7145 25.4456 14.6823 25.3977C14.6501 25.3497 14.632 25.2923 14.62 25.2344C14.6118 25.1955 14.6046 25.1553 14.5979 25.1158C14.5033 24.5634 14.5273 24.0455 14.6695 23.5628C14.7101 23.4251 14.8379 23.3122 15.0524 23.2259C15.1062 23.204 15.1653 23.1837 15.2296 23.1659C15.2895 23.1494 15.3468 23.1334 15.393 23.1228C15.4398 23.1124 15.4758 23.1094 15.5092 23.1193Z" fill="#614D35"/>
<path d="M88.1482 22.2434C88.173 22.2333 88.1996 22.2295 88.2416 22.2248C88.2828 22.2203 88.341 22.2133 88.4074 22.2038C88.4651 22.1954 88.5178 22.1897 88.5652 22.186C88.7548 22.1707 88.8605 22.1898 88.882 22.2428C88.9574 22.4286 88.9186 22.6609 88.7653 22.9394C88.7543 22.9593 88.7428 22.9797 88.7306 22.9997C88.6989 23.0518 88.6688 23.1018 88.6399 23.1413C88.6106 23.181 88.5816 23.2084 88.546 23.2229C88.5103 23.2373 88.4704 23.2379 88.4217 23.2299C88.3735 23.2217 88.3171 23.2069 88.258 23.1916C88.2353 23.1858 88.2129 23.1792 88.1911 23.1726C87.887 23.0798 87.6972 22.9403 87.6218 22.7546C87.6003 22.7016 87.6627 22.6142 87.8092 22.493C87.8458 22.4626 87.8876 22.43 87.9348 22.3957C87.989 22.3563 88.0356 22.3207 88.0683 22.2952C88.1017 22.2693 88.1234 22.2535 88.1482 22.2434Z" fill="#614D35"/>
<path d="M88.8521 24.3427C88.8817 24.3328 88.9142 24.3343 88.9606 24.3406C89.0062 24.3472 89.0664 24.3567 89.1289 24.3667C89.192 24.3769 89.25 24.3897 89.3026 24.4042C89.5127 24.4611 89.6371 24.5474 89.6753 24.6617C89.8089 25.0627 89.8256 25.503 89.7251 25.9819C89.7179 26.0161 89.7102 26.051 89.7016 26.0849C89.6874 26.142 89.669 26.1985 89.6385 26.2457C89.6079 26.2929 89.5672 26.3272 89.5189 26.3433C89.4706 26.3594 89.4175 26.3564 89.3647 26.3369C89.312 26.3175 89.2634 26.2834 89.2177 26.2462C89.1905 26.2243 89.1634 26.2009 89.1372 26.1778C88.7694 25.855 88.5186 25.4928 88.3849 25.0918C88.3468 24.9775 88.3945 24.8338 88.5285 24.6622C88.5619 24.619 88.6006 24.574 88.645 24.528C88.689 24.4825 88.7314 24.4388 88.764 24.4061C88.7973 24.3732 88.8224 24.3526 88.8521 24.3427Z" fill="#614D35"/>
<path d="M82.842 9.48384C82.8676 9.4728 82.8959 9.46977 82.9396 9.46721C82.9826 9.46497 83.0422 9.46132 83.1078 9.45609C83.1674 9.45134 83.2221 9.44936 83.2715 9.44961C83.4691 9.44979 83.5837 9.48639 83.6147 9.55842C83.7235 9.811 83.7191 10.1125 83.6012 10.4627C83.5928 10.4877 83.584 10.5134 83.5742 10.5384C83.5528 10.594 83.5312 10.6477 83.5041 10.6921C83.4768 10.7366 83.4441 10.769 83.4034 10.7865C83.3627 10.804 83.3167 10.8056 83.2656 10.7949C83.2147 10.7841 83.1608 10.7628 83.1058 10.7403C83.0808 10.7302 83.0561 10.719 83.0321 10.7079C82.6967 10.5531 82.4744 10.3493 82.3656 10.0967C82.3345 10.0247 82.3866 9.91628 82.5222 9.77256C82.5559 9.73643 82.5949 9.69805 82.6393 9.65796C82.6881 9.61391 82.7318 9.57306 82.7629 9.54335C82.7948 9.51332 82.8164 9.49488 82.842 9.48384Z" fill="#614D35"/>
<path d="M29.417 104.487C29.4941 104.221 29.772 104.068 30.0378 104.145C37.4927 106.308 45.4062 107.06 48.5828 107.06C48.8595 107.06 49.0839 107.285 49.0839 107.561C49.0839 107.838 48.8595 108.063 48.5828 108.063C45.3164 108.063 37.3087 107.298 29.7587 105.108C29.4929 105.03 29.3399 104.753 29.417 104.487Z" fill="#E9D295"/>
<path d="M75.6715 104.64C75.9409 104.576 76.2108 104.743 76.2741 105.013C76.3375 105.282 76.1705 105.552 75.9011 105.615C72.2605 106.472 65.3309 108.206 58.2472 108.206C57.9704 108.206 57.7461 107.981 57.7461 107.705C57.7461 107.428 57.9704 107.203 58.2472 107.203C65.1947 107.203 72.0101 105.501 75.6715 104.64Z" fill="#FFE5A2"/>
<path d="M40.7934 80.4417C40.7934 82.1037 40.0113 83.9764 37.8784 84.462C35.9283 84.9059 33.897 83.6867 33.897 81.6181C33.897 79.5495 35.8759 76.2773 37.8784 76.2773C39.8809 76.2773 40.7934 78.3731 40.7934 80.4417Z" fill="#F4EFEC"/>
<path d="M40.075 80.4417C40.075 79.4966 39.8642 78.5941 39.4728 77.9539C39.0962 77.338 38.5783 76.9907 37.8784 76.9907C37.5769 76.9907 37.2236 77.1151 36.8355 77.3969C36.4495 77.6771 36.068 78.086 35.7289 78.5761C35.0389 79.5732 34.6154 80.7694 34.6154 81.6181C34.6154 83.117 36.1016 84.1345 37.7178 83.7666C39.3966 83.3844 40.075 81.9215 40.075 80.4417ZM40.7928 80.5197C40.7686 82.1619 39.9779 83.9841 37.8784 84.462L37.787 84.4816C35.8653 84.8676 33.897 83.6545 33.897 81.6181C33.897 79.5496 35.8758 76.2773 37.8784 76.2773C39.8809 76.2773 40.7934 78.3731 40.7934 80.4417L40.7928 80.5197Z" fill="#614D35"/>
<path d="M89.1691 80.0679C89.1691 81.7351 88.7619 83.5022 86.7078 83.9892C84.8297 84.4346 82.8736 83.2115 82.8736 81.1364C82.8736 79.0612 84.2658 75.8478 86.1943 75.8478C88.1228 75.8478 89.1691 77.9927 89.1691 80.0679Z" fill="#F4EFEC"/>
<path d="M88.4532 80.0679C88.4532 79.1373 88.2163 78.2214 87.7997 77.562C87.3913 76.9156 86.851 76.5637 86.1943 76.5637C85.6434 76.5637 84.9976 77.0495 84.4369 78.061C83.9011 79.0276 83.5894 80.2313 83.5894 81.1364C83.5894 82.6657 85.0291 83.6516 86.5426 83.2927C87.3603 83.0988 87.8043 82.6749 88.0696 82.1488C88.3536 81.5855 88.4532 80.8593 88.4532 80.0679ZM89.1679 80.2245C89.142 81.8444 88.6977 83.5174 86.7079 83.9893L86.6198 84.0089C84.7691 84.3962 82.8736 83.1792 82.8736 81.1364C82.8736 79.0612 84.2658 75.8478 86.1943 75.8478L86.2841 75.8493C88.1552 75.9148 89.1691 78.0251 89.1691 80.0679L89.1679 80.2245Z" fill="#614D35"/>
<path d="M63.0121 85.9709C63.2647 85.8225 63.515 85.7383 63.7859 85.7861C64.035 85.83 64.2411 85.9787 64.42 86.1179C64.6171 86.2711 64.8155 86.4427 65.1113 86.6515C65.2728 86.7655 65.3113 86.9889 65.1973 87.1504C65.0833 87.3119 64.86 87.3504 64.6985 87.2364C64.3859 87.0157 64.1457 86.8115 63.9804 86.6829C63.7969 86.5402 63.7166 86.5009 63.6615 86.4912C63.6281 86.4853 63.5563 86.4816 63.3748 86.5882C63.1883 86.6978 62.9369 86.8932 62.5607 87.2157C62.4106 87.3444 62.1846 87.3271 62.0559 87.177C61.9273 87.0269 61.9447 86.8009 62.0948 86.6722C62.4701 86.3505 62.7646 86.1163 63.0121 85.9709Z" fill="#614D35"/>
<path d="M63.6118 86.418C63.5019 86.5183 63.392 86.6187 63.2821 86.719C61.3041 88.525 59.3259 90.3309 57.3479 92.1368C57.238 92.2371 57.1282 92.3375 57.0183 92.4379C56.8428 92.5984 56.6146 92.6777 56.3785 92.6519C56.1427 92.6265 55.9182 92.498 55.7601 92.3013C55.6019 92.1045 55.5246 91.8577 55.5503 91.622C55.5758 91.3859 55.7023 91.18 55.8967 91.043C56.0182 90.9572 56.1399 90.8715 56.2615 90.7857C58.4498 89.2413 60.6382 87.6969 62.8266 86.1525C62.9482 86.0667 63.0697 85.9809 63.1913 85.8951C63.3314 86.0694 63.4717 86.2437 63.6118 86.418Z" fill="#614D35"/>
<path d="M63.6208 86.418C63.7307 86.5183 63.8406 86.6187 63.9505 86.719C65.9286 88.525 67.9067 90.3309 69.8848 92.1368C69.9947 92.2371 70.1045 92.3375 70.2143 92.4379C70.3898 92.5984 70.6181 92.6777 70.8542 92.6519C71.0899 92.6265 71.3144 92.498 71.4726 92.3013C71.6308 92.1045 71.7081 91.8577 71.6823 91.622C71.6569 91.3859 71.5304 91.18 71.336 91.043C71.2144 90.9572 71.0927 90.8715 70.9712 90.7857C68.7828 89.2413 66.5944 87.6969 64.406 86.1525C64.2845 86.0667 64.1629 85.9809 64.0414 85.8951C63.9012 86.0694 63.761 86.2437 63.6208 86.418Z" fill="#614D35"/>
<path d="M63.5447 85.727C63.8479 85.727 64.1766 85.8829 64.4719 86.0619C64.7826 86.2502 65.1219 86.5062 65.4618 86.7826C65.8029 87.0601 66.1543 87.3661 66.4881 87.6575C66.8242 87.9509 67.141 88.2281 67.4214 88.4559C67.5748 88.5805 67.5982 88.8059 67.4735 88.9594C67.3489 89.1128 67.1235 89.1361 66.9701 89.0115C66.6777 88.774 66.3502 88.4874 66.0175 88.1969C65.6824 87.9044 65.3401 87.6064 65.0102 87.338C64.679 87.0686 64.3695 86.8369 64.1008 86.674C63.8167 86.5018 63.6353 86.4429 63.5447 86.4429C63.5151 86.4429 63.4475 86.4543 63.3323 86.5029C63.2218 86.5495 63.0891 86.621 62.9364 86.7169C62.6306 86.9088 62.2725 87.1798 61.8915 87.49C61.5118 87.7991 61.1176 88.1402 60.7394 88.4692C60.3633 88.7962 60.0006 89.1135 59.6917 89.3679C59.5391 89.4936 59.3136 89.4717 59.1879 89.3191C59.0623 89.1665 59.0841 88.941 59.2367 88.8154C59.5362 88.5687 59.8894 88.2595 60.2696 87.9289C60.6475 87.6002 61.0497 87.2522 61.4396 86.9349C61.8281 86.6187 62.2128 86.3259 62.5558 86.1107C62.7273 86.003 62.8956 85.91 63.0541 85.8432C63.2079 85.7783 63.3775 85.727 63.5447 85.727Z" fill="#614D35"/>
<path d="M34.6129 87.8747C34.6129 89.6934 32.1129 91.1677 29.029 91.1677C25.9451 91.1677 23.4451 89.6934 23.4451 87.8747C23.4451 86.056 25.9451 84.5816 29.029 84.5816C32.1129 84.5816 34.6129 86.056 34.6129 87.8747Z" fill="#FFAC83"/>
<path d="M97.4674 87.8747C97.4674 89.6934 95.1597 91.1677 92.3131 91.1677C89.4664 91.1677 87.1587 89.6934 87.1587 87.8747C87.1587 86.056 89.4664 84.5816 92.3131 84.5816C95.1597 84.5816 97.4674 86.056 97.4674 87.8747Z" fill="#FFAC83"/>
</svg>
