<svg width="27" height="32" viewBox="0 0 27 32" fill="none" xmlns="http://www.w3.org/2000/svg">
<path d="M12.0219 29.2276C9.60195 29.5658 6.61897 28.9074 4.89626 25.978C3.17355 23.0486 4.22238 18.2365 8.02273 9.29951C8.69783 7.71193 9.40923 5.7221 10.1041 4.16942C13.8391 1.94258 22.8233 3.34916 21.9024 6.06407C20.9523 12.2238 17.9693 22.2928 17.5564 23.2874C16.3872 26.1039 15.7101 28.7122 12.0219 29.2276Z" fill="#FFE5A2"/>
<path d="M14.724 24.5742C14.6405 27.159 16.3213 27.4164 17.8469 26.7808C18.9484 26.3219 19.4789 24.4387 19.0161 21.6413C18.7884 18.7592 20.7844 16.7168 18.7382 16.6351C17.4364 15.7476 14.7959 22.3493 14.724 24.5742Z" fill="#FFE5A2"/>
<path d="M4.93087 16.5062C5.02005 16.3079 5.25311 16.2194 5.45142 16.3086C5.64972 16.3978 5.73815 16.6308 5.64899 16.8291C5.43477 17.3057 5.09987 18.2396 4.83756 19.281C4.57368 20.3287 4.39501 21.4406 4.46475 22.2884C4.55843 23.4271 4.67426 24.2992 5.01645 25.1241C5.35564 25.9417 5.9305 26.7426 6.99021 27.6997C8.05313 28.6596 9.55207 28.9972 10.9663 28.977C11.6687 28.967 12.3354 28.8685 12.8931 28.7233C13.4582 28.5761 13.8836 28.3882 14.1217 28.2164C14.5896 27.8788 14.8347 27.6538 15.0086 27.4458C15.1867 27.2328 15.3003 27.0279 15.5068 26.6812L15.6948 26.3655L16.0228 26.5313C16.0807 26.5606 16.2753 26.618 16.5624 26.6255C16.8384 26.6328 17.1628 26.5925 17.4756 26.4638C18.0683 26.2201 18.7051 25.6246 18.8287 24.1688C18.8838 23.5197 18.8236 22.8737 18.7463 22.2767C18.6722 21.7049 18.5725 21.1253 18.5775 20.6978C18.5848 20.0635 18.5577 19.5514 18.4943 19.1459C18.4304 18.7373 18.3335 18.4625 18.2192 18.2841C18.1018 18.101 18.1551 17.8575 18.3382 17.7401C18.5213 17.6228 18.7648 17.6761 18.8822 17.8592C19.0792 18.1667 19.2001 18.5618 19.2724 19.0243C19.3452 19.49 19.3726 20.0503 19.365 20.707C19.3609 21.0608 19.4448 21.539 19.5273 22.1756C19.6065 22.7871 19.6757 23.5003 19.6133 24.2353C19.468 25.9471 18.6743 26.8222 17.775 27.192C17.3418 27.3702 16.9048 27.4224 16.5417 27.4128C16.3563 27.408 16.1792 27.3865 16.0238 27.3527C15.8981 27.5627 15.7748 27.7571 15.6127 27.951C15.3797 28.2296 15.0765 28.4985 14.5826 28.8549C14.2331 29.1072 13.7025 29.3263 13.0915 29.4854C12.4731 29.6465 11.7435 29.7534 10.9775 29.7644C9.45498 29.7861 7.72869 29.4276 6.46246 28.284C5.34333 27.2732 4.68509 26.3806 4.28895 25.4257C3.89584 24.4781 3.77406 23.4985 3.67983 22.353C3.59925 21.3735 3.80404 20.16 4.07387 19.0887C4.34527 18.0111 4.69436 17.0322 4.93087 16.5062Z" fill="#614D35"/>
<path d="M22.0749 5.93048C22.2622 2.84471 11.1126 1.02911 9.61857 3.28171C8.38425 5.14274 6.46017 10.3718 5.63599 12.8335C5.16616 14.2368 5.40613 14.7263 5.51401 15.4376C5.00393 16.6822 4.93239 16.6858 5.16508 17.0324C5.51232 17.5496 8.02993 18.9221 11.3877 19.583C14.9236 20.279 18.5231 20.0839 19.3882 19.8203C19.8207 19.6885 19.5515 18.7139 19.7371 18.0456C19.8904 17.4938 20.7655 16.6756 20.9288 15.5692C21.3418 12.7711 21.8484 9.66211 22.0749 5.93048Z" fill="#989F6F"/>
<path d="M5.60962 15.2902C5.17463 16.6026 4.96373 16.685 5.19642 17.0316C5.54366 17.5488 8.06127 18.9213 11.419 19.5822C14.955 20.2782 18.5545 20.0831 19.4195 19.8195C19.852 19.6877 19.5828 18.7131 19.7684 18.0448C19.7684 18.0448 14.9088 18.3192 11.8965 17.6942C9.31863 17.1593 5.60962 15.2902 5.60962 15.2902Z" fill="#888F62"/>
<path d="M8.97029 2.76874C9.05594 2.56888 9.28743 2.47621 9.48729 2.56183C9.68715 2.64748 9.7797 2.87896 9.69406 3.07883C9.04716 4.58826 8.32419 6.22964 7.76057 7.73834C7.33776 8.87011 7.08035 9.74978 6.86417 10.5067C6.64915 11.2595 6.46939 11.9126 6.20601 12.559C5.95694 13.1704 5.82384 13.6051 5.77782 13.994C5.73284 14.3742 5.76859 14.7327 5.89187 15.1925L5.90845 15.2542L5.90469 15.318C5.87719 15.7766 5.72927 16.1394 5.61569 16.3985C5.55481 16.5374 5.515 16.6222 5.48937 16.6975C5.4833 16.7154 5.47965 16.7288 5.4773 16.7382C5.48824 16.7568 5.51232 16.793 5.56304 16.8467C5.64129 16.9295 5.75785 17.0285 5.91425 17.14C6.22626 17.3625 6.66248 17.6101 7.17942 17.8549C8.21335 18.3445 9.52486 18.8015 10.7153 19.0184C14.6174 19.7295 18.2391 19.6246 19.3432 19.432C19.5575 19.3946 19.7613 19.538 19.7987 19.7523C19.836 19.9664 19.6928 20.1703 19.4786 20.2077C18.2618 20.42 14.5438 20.5165 10.5741 19.7931C9.30461 19.5618 7.92721 19.0804 6.8424 18.5667C6.29999 18.3099 5.81942 18.0397 5.45701 17.7813C5.27622 17.6523 5.11606 17.5202 4.9908 17.3876C4.87208 17.262 4.75284 17.1031 4.70594 16.918C4.65881 16.7321 4.70504 16.5582 4.74397 16.4438C4.78381 16.3268 4.84602 16.1928 4.89442 16.0824C4.99277 15.858 5.08697 15.6177 5.11401 15.3299C4.98506 14.8273 4.93879 14.3836 4.99582 13.9015C5.05433 13.407 5.21887 12.8947 5.47674 12.2618C5.72033 11.6639 5.88768 11.0583 6.10696 10.2906C6.32507 9.52689 6.5893 8.62379 7.02302 7.46282C7.59507 5.93158 8.3286 4.266 8.97029 2.76874Z" fill="#614D35"/>
<path d="M22.3594 6.3188C22.3854 6.30082 22.4173 6.29379 22.4482 6.29916C22.479 6.30454 22.5066 6.32193 22.525 6.34762C22.5434 6.37331 22.5509 6.40513 22.5468 6.43624C22.5206 6.63914 22.4942 6.84202 22.4674 7.04482C22.3758 7.73684 22.2808 8.42833 22.1824 9.11916L22.1807 9.12863C21.8843 10.8555 21.3855 12.6448 21.3288 14.2745C21.3516 14.6819 21.3553 15.0908 21.3232 15.5044C21.2672 16.3393 20.9599 17.3032 20.2255 17.8321C20.0532 17.9645 19.8735 18.0709 19.7056 18.18C19.6803 18.1966 19.6498 18.2053 19.6192 18.2023C19.5886 18.1993 19.5606 18.1852 19.541 18.1624C19.5214 18.1397 19.5115 18.11 19.513 18.0793C19.5145 18.0486 19.5277 18.0196 19.5479 17.997C19.69 17.8397 19.8356 17.6978 19.9611 17.55C20.4759 16.9721 20.6179 16.2319 20.6809 15.4541C20.7101 15.0778 20.7094 14.6943 20.6921 14.3069C20.783 12.4003 21.3449 10.7657 21.7472 9.03379L21.7454 9.04312C21.8862 8.35967 22.0305 7.67683 22.1782 6.99457C22.2215 6.79463 22.265 6.59471 22.3088 6.39487C22.3156 6.36424 22.3334 6.33677 22.3594 6.3188Z" fill="#614D35"/>
<path d="M14.5139 24.1075C14.5491 24.0887 14.589 24.0835 14.6261 24.0932C14.6633 24.103 14.6955 24.1272 14.7169 24.1608C14.7384 24.1945 14.7468 24.2346 14.7452 24.2738C14.7433 24.3279 14.743 24.3798 14.7437 24.4315C14.7467 25.1672 15.0232 25.7484 15.4876 26.1276C15.6196 26.2351 15.7287 26.3682 15.86 26.5319C15.8925 26.5723 15.9285 26.6148 15.9664 26.6575C15.9934 26.683 16.0189 26.7103 16.0359 26.7412C16.0528 26.7721 16.0597 26.8046 16.0544 26.8358C16.0491 26.8671 16.0319 26.8954 16.0057 26.919C15.9796 26.9425 15.9465 26.96 15.9126 26.9752C15.8451 27.0001 15.7725 27.0149 15.7027 27.0226C15.4189 27.0515 15.1462 26.9593 14.9418 26.791C14.1951 26.2079 14.014 25.0999 14.3605 24.3526C14.383 24.2982 14.4072 24.2455 14.4336 24.1919C14.4516 24.1571 14.4787 24.1262 14.5139 24.1075Z" fill="#614D35"/>
<path d="M19.4436 18.3442C19.4577 18.3434 19.4717 18.3481 19.4898 18.3566C19.5077 18.3652 19.53 18.3768 19.5534 18.389C19.5779 18.4018 19.6001 18.4151 19.6199 18.4286C19.6991 18.4817 19.7401 18.5373 19.743 18.5944C19.7532 18.7946 19.7115 18.9976 19.6179 19.203C19.6112 19.2177 19.6042 19.2326 19.597 19.2469C19.5859 19.2691 19.5727 19.2906 19.5548 19.3069C19.537 19.3231 19.516 19.3328 19.4939 19.3339C19.4719 19.335 19.45 19.3275 19.4306 19.3132C19.4112 19.2989 19.3958 19.2788 19.3825 19.2578C19.3739 19.2443 19.3654 19.2302 19.3573 19.2163C19.2433 19.0214 19.1812 18.8237 19.171 18.6235C19.1681 18.5664 19.2033 18.5069 19.2767 18.446C19.295 18.4306 19.3158 18.4151 19.3389 18.3999C19.3609 18.3854 19.3819 18.3716 19.3988 18.3613C19.4159 18.351 19.4294 18.3449 19.4436 18.3442Z" fill="#614D35"/>
</svg>
