<svg width="32" height="36" viewBox="0 0 32 36" fill="none" xmlns="http://www.w3.org/2000/svg">
<path d="M19.3238 31.0946C21.766 31.0175 24.5942 29.8628 25.7952 26.6837C26.9962 23.5047 25.1466 18.94 19.8858 10.7769C18.9513 9.32683 17.9128 7.48644 16.9647 6.07408C12.9061 4.51284 4.2906 7.42251 5.65849 9.94195C7.63932 15.8514 12.2866 25.2688 12.8621 26.1789C14.492 28.7563 15.6016 31.212 19.3238 31.0946Z" fill="#E9D295"/>
<path d="M15.8717 26.9668C16.3923 29.4999 14.7795 30.0386 13.1682 29.6709C12.0049 29.4054 11.1627 27.6395 11.1444 24.8042C10.8801 21.9252 8.56666 20.2508 10.5694 19.8233C11.7019 18.7279 15.4236 24.7863 15.8717 26.9668Z" fill="#E9D295"/>
<path d="M24.1549 17.355C24.0334 17.1747 23.7887 17.127 23.6084 17.2485C23.4281 17.3701 23.3805 17.6147 23.502 17.7951C23.7939 18.2283 24.2823 19.0919 24.7174 20.0738C25.1551 21.0616 25.5198 22.1271 25.5948 22.9745C25.6956 24.1126 25.7293 24.9917 25.5319 25.8626C25.3363 26.7259 24.9056 27.6126 24.0235 28.7356C23.1388 29.8619 21.7188 30.4487 20.3216 30.6687C19.6277 30.7779 18.9539 30.7939 18.3797 30.7453C17.7978 30.6961 17.3467 30.5831 17.0829 30.4541C16.5646 30.2007 16.2848 30.0205 16.0782 29.8451C15.8665 29.6654 15.7198 29.4827 15.4576 29.176L15.2187 28.8968L14.9237 29.1158C14.8715 29.1545 14.6894 29.2441 14.4078 29.3002C14.137 29.3541 13.8105 29.3694 13.4804 29.2957C12.855 29.156 12.1264 28.6771 11.7577 27.2633C11.5933 26.633 11.5431 25.9861 11.5181 25.3846C11.4941 24.8086 11.4941 24.2205 11.4167 23.8C11.3019 23.1761 11.2418 22.6668 11.2355 22.2565C11.2292 21.8429 11.2781 21.5557 11.3606 21.3604C11.4451 21.1601 11.3513 20.9292 11.151 20.8446C10.9507 20.76 10.7197 20.8538 10.6351 21.0541C10.493 21.3906 10.4409 21.8005 10.4481 22.2685C10.4553 22.7398 10.5233 23.2967 10.6421 23.9426C10.7062 24.2906 10.7046 24.7761 10.7313 25.4175C10.7569 26.0335 10.8096 26.7481 10.9958 27.4619C11.4292 29.1243 12.3598 29.8521 13.3088 30.0641C13.7659 30.1662 14.2054 30.1435 14.5617 30.0726C14.7436 30.0363 14.9145 29.9851 15.0619 29.9255C15.2214 30.1111 15.3759 30.2818 15.5685 30.4454C15.8454 30.6804 16.1898 30.894 16.7369 31.1615C17.1242 31.3509 17.6843 31.4769 18.3134 31.5301C18.9501 31.5839 19.6873 31.5656 20.444 31.4465C21.9482 31.2097 23.5887 30.5637 24.6427 29.222C25.5742 28.0361 26.0716 27.0448 26.3001 26.0365C26.5268 25.0359 26.4807 24.0499 26.3793 22.905C26.2926 21.926 25.885 20.7649 25.4374 19.7548C24.9872 18.7389 24.4772 17.8333 24.1549 17.355Z" fill="#614D35"/>
<path d="M5.46581 9.83958C4.75799 6.83027 15.4383 3.15031 17.2926 5.11694C18.8246 6.74171 21.6076 11.5688 22.8372 13.8551C23.5382 15.1584 23.3847 15.6815 23.399 16.4008C24.1128 17.5408 24.1839 17.5323 24.0133 17.9133C23.7588 18.4819 21.5104 20.2614 18.3133 21.4821C14.9466 22.7676 11.3662 23.1858 10.469 23.0727C10.0204 23.0161 10.1204 22.01 9.82416 21.3828C9.57955 20.865 8.57837 20.207 8.2298 19.1444C7.34829 16.4568 6.32179 13.4788 5.46581 9.83958Z" fill="#888F62"/>
<path d="M23.2798 16.2717C23.931 17.4914 24.1529 17.5368 23.9823 17.9178C23.7278 18.4864 21.4794 20.2659 18.2823 21.4866C14.9156 22.7722 11.3352 23.1903 10.4379 23.0772C9.98932 23.0206 10.0894 22.0145 9.79313 21.3874C9.79313 21.3874 14.629 20.8337 17.4916 19.707C19.9414 18.7427 23.2798 16.2717 23.2798 16.2717Z" fill="#7B8157"/>
<path d="M17.8445 4.50145C17.7262 4.31901 17.4824 4.26693 17.2999 4.3852C17.1175 4.50351 17.0655 4.74733 17.1838 4.92978C18.0773 6.30766 19.0681 7.80267 19.8794 9.19394C20.488 10.2376 20.8909 11.0609 21.2323 11.7702C21.5718 12.4757 21.8597 13.0888 22.2289 13.6812C22.5781 14.2415 22.7829 14.6473 22.8942 15.0228C23.003 15.3898 23.0286 15.7492 22.9851 16.2233L22.9792 16.2869L22.9937 16.3491C23.0986 16.7964 23.3059 17.1289 23.4618 17.365C23.5453 17.4916 23.5989 17.5684 23.637 17.6383C23.646 17.6548 23.6518 17.6674 23.6558 17.6763C23.6481 17.6964 23.6305 17.7362 23.5896 17.7977C23.5266 17.8926 23.4285 18.01 23.2933 18.1464C23.0235 18.4186 22.6356 18.7366 22.1676 19.0654C21.2317 19.7232 20.0167 20.3961 18.8803 20.8117C15.1552 22.1742 11.5683 22.6849 10.4474 22.6823C10.23 22.6818 10.0533 22.8577 10.0528 23.0752C10.0524 23.2926 10.2281 23.4693 10.4455 23.4698C11.6807 23.4726 15.3612 22.9373 19.1508 21.5512C20.3627 21.108 21.6385 20.4 22.6205 19.7098C23.1115 19.3647 23.5393 19.0169 23.8526 18.7008C24.0089 18.5431 24.1444 18.3857 24.2453 18.2338C24.341 18.0899 24.4316 17.913 24.4464 17.7227C24.4613 17.5315 24.3863 17.368 24.3285 17.2619C24.2694 17.1533 24.1854 17.0318 24.119 16.9312C23.984 16.7267 23.8504 16.5059 23.775 16.2268C23.8168 15.7096 23.7872 15.2644 23.6492 14.799C23.5077 14.3216 23.2587 13.8447 22.8972 13.2646C22.5558 12.7167 22.2882 12.1483 21.9419 11.4288C21.5974 10.7132 21.1839 9.86797 20.5596 8.79735C19.7362 7.38529 18.7308 5.86822 17.8445 4.50145Z" fill="#614D35"/>
<path d="M5.2513 10.2705C5.22264 10.2572 5.19003 10.2557 5.16051 10.2662C5.13101 10.2767 5.10679 10.2986 5.09303 10.327C5.07927 10.3554 5.07728 10.3881 5.08651 10.418C5.14677 10.6136 5.20723 10.809 5.26805 11.0043C5.47559 11.6708 5.68649 12.3362 5.90058 13.0003L5.90392 13.0094C6.48883 14.661 7.28381 16.3398 7.61603 17.9362C7.66272 18.3416 7.72833 18.7452 7.83011 19.1474C8.02689 19.9607 8.49316 20.8586 9.30666 21.2552C9.49892 21.3565 9.69404 21.4309 9.87803 21.5099C9.90579 21.522 9.93729 21.5254 9.96693 21.5172C9.99655 21.5091 10.0218 21.4904 10.0372 21.4647C10.0527 21.439 10.0575 21.408 10.0508 21.378C10.044 21.348 10.0261 21.3217 10.0024 21.3029C9.83565 21.1719 9.66811 21.0567 9.5194 20.9324C8.9141 20.4502 8.64863 19.7448 8.45464 18.9889C8.36199 18.623 8.2977 18.2449 8.24906 17.8602C7.83612 15.9967 7.00516 14.481 6.31507 12.8424L6.31839 12.8513C6.0637 12.2016 5.80571 11.5531 5.54448 10.9058C5.46792 10.7161 5.39117 10.5264 5.31405 10.3369C5.30222 10.3079 5.27995 10.2838 5.2513 10.2705Z" fill="#614D35"/>
<path d="M15.9996 26.4712C15.9618 26.4587 15.9215 26.4603 15.8866 26.4762C15.8516 26.4921 15.8239 26.5215 15.8085 26.5582C15.7932 26.595 15.7917 26.636 15.7998 26.6743C15.8109 26.7274 15.82 26.7784 15.828 26.8295C15.9499 27.5551 15.776 28.1747 15.3825 28.6272C15.2707 28.7555 15.1857 28.9052 15.0841 29.0887C15.0589 29.1342 15.0307 29.1821 15.0006 29.2306C14.9783 29.2603 14.9577 29.2916 14.9463 29.3248C14.9348 29.3582 14.9335 29.3914 14.944 29.4213C14.9546 29.4512 14.9764 29.4761 15.0061 29.495C15.0359 29.5137 15.0715 29.5254 15.1075 29.5346C15.1782 29.5477 15.2522 29.55 15.3223 29.5457C15.6069 29.5261 15.86 29.3889 16.033 29.1884C16.67 28.4871 16.6606 27.3645 16.1924 26.6868C16.1609 26.637 16.1282 26.5892 16.093 26.5408C16.0695 26.5095 16.0375 26.4837 15.9996 26.4712Z" fill="#614D35"/>
<path d="M10.1641 21.6273C10.15 21.629 10.137 21.636 10.1206 21.6474C10.1045 21.6589 10.0844 21.6741 10.0635 21.6901C10.0414 21.7068 10.0218 21.7238 10.0046 21.7404C9.9356 21.8062 9.90457 21.8679 9.91139 21.9247C9.93531 22.1237 10.0108 22.3167 10.1379 22.5033C10.147 22.5166 10.1564 22.5301 10.1659 22.543C10.1806 22.563 10.1973 22.582 10.2177 22.595C10.238 22.6079 10.2604 22.6139 10.2823 22.6113C10.3042 22.6086 10.3245 22.5975 10.3412 22.5801C10.3579 22.5627 10.3696 22.5403 10.3792 22.5174C10.3854 22.5026 10.3913 22.4873 10.397 22.4722C10.4762 22.2608 10.5039 22.0554 10.48 21.8563C10.4732 21.7996 10.4284 21.747 10.3458 21.6994C10.3251 21.6873 10.3021 21.6755 10.2767 21.6645C10.2526 21.6539 10.2295 21.6439 10.2111 21.6366C10.1924 21.6293 10.1782 21.6256 10.1641 21.6273Z" fill="#614D35"/>
</svg>
