<svg width="16" height="26" viewBox="0 0 16 26" fill="none" xmlns="http://www.w3.org/2000/svg">
<path d="M12.8003 22.5365C12.9585 21.7737 13.3151 17.2663 13.1381 15.3083C11.6416 8.31044 2.65261 9.93598 1.83153 14.6551C1.74415 16.8738 1.99837 21.3857 2.77817 22.4651C3.99392 24.148 5.41005 24.8463 7.91408 25.0789C10.9079 25.357 12.5038 23.9662 12.8003 22.5365Z" fill="#FFE5A2"/>
<path d="M13.3716 14.1289C13.5889 14.1361 13.7592 14.3182 13.752 14.5355C13.6894 16.41 13.6498 18.8399 13.4174 21.0754C13.3807 21.4278 13.1862 22.7546 12.8869 23.9875C12.8355 24.1988 12.6227 24.3285 12.4113 24.2772C12.2 24.2259 12.0704 24.013 12.1217 23.8017C12.4123 22.6047 12.6009 21.313 12.6341 20.994C12.8628 18.7942 12.9017 16.4042 12.965 14.5092C12.9722 14.2919 13.1543 14.1216 13.3716 14.1289Z" fill="#614D35"/>
<path d="M2.16866 22.604C2.17634 21.5254 1.99473 19.9955 1.8076 18.4639C1.62322 16.9548 1.43219 15.436 1.4393 14.4375C1.44085 14.2201 1.61838 14.0451 1.83583 14.0466C2.05327 14.0482 2.2283 14.2257 2.22675 14.4432C2.2201 15.3775 2.40165 16.8324 2.58934 18.3685C2.77427 19.8821 2.96423 21.469 2.95611 22.6096C2.95456 22.8271 2.77703 23.0021 2.55958 23.0005C2.34213 22.999 2.16711 22.8215 2.16866 22.604Z" fill="#614D35"/>
<path d="M14.2206 4.73018C14.9365 6.61165 14.5786 11.9288 14.5786 13.8103C14.5786 15.6918 10.542 16.1104 7.77771 16.1826C5.45407 16.2432 0.762045 15.8554 0.762047 13.8103C0.762069 9.72015 0.260921 6.28444 1.47792 3.99396C2.69492 1.70348 5.34128 0.967257 8.49358 0.967255C10.9276 0.967253 13.5048 2.84872 14.2206 4.73018Z" fill="#5E6152"/>
<path d="M14.2564 13.8104C14.2564 13.3341 14.2791 12.6419 14.3013 11.8533C14.3237 11.0613 14.3459 10.1652 14.3459 9.27024C14.3459 8.37458 14.3236 7.48492 14.2576 6.70537C14.1909 5.91884 14.0817 5.2711 13.9195 4.84477C13.5915 3.98263 12.8208 3.08969 11.8203 2.40965C10.8222 1.73122 9.6314 1.28941 8.49358 1.28941C5.36376 1.28941 2.88946 2.02408 1.76247 4.14511C1.1915 5.2197 1.01243 6.58649 0.985763 8.23249C0.972482 9.05213 0.996779 9.92931 1.02477 10.8634C1.0527 11.7952 1.0842 12.7821 1.0842 13.8104C1.08422 14.1769 1.28768 14.4976 1.71227 14.7856C2.14132 15.0766 2.75674 15.3038 3.47248 15.4726C4.89948 15.809 6.62339 15.8905 7.76931 15.8606C9.14562 15.8246 10.8161 15.7024 12.1344 15.3629C12.7954 15.1927 13.3417 14.9742 13.7159 14.7035C14.0834 14.4377 14.2564 14.1455 14.2564 13.8104ZM14.9007 13.8104C14.9007 14.4159 14.5691 14.8816 14.0934 15.2256C13.6244 15.5648 12.9888 15.8083 12.2952 15.987C10.9041 16.3452 9.1741 16.4683 7.78609 16.5046C6.60839 16.5353 4.82445 16.4533 3.32455 16.0997C2.57686 15.9234 1.87401 15.6738 1.3507 15.3189C0.822992 14.9609 0.439927 14.4663 0.439902 13.8104C0.439908 12.7936 0.408758 11.8169 0.380758 10.8827C0.352825 9.95062 0.327909 9.05884 0.341468 8.222C0.368481 6.55501 0.547373 5.05869 1.1934 3.84281C2.50042 1.38291 5.31881 0.645113 8.49358 0.645111C9.7898 0.645113 11.1046 1.14413 12.1825 1.87679C13.258 2.60784 14.1339 3.59631 14.5217 4.6156C14.7174 5.13001 14.8319 5.85257 14.8995 6.65098C14.9677 7.45632 14.9902 8.36628 14.9902 9.27024C14.9902 10.1749 14.9677 11.0786 14.9453 11.8715C14.9229 12.6678 14.9007 13.3459 14.9007 13.8104Z" fill="#614D35"/>
<path d="M0.94619 13.0727C2.66431 5.39842 10.7299 5.96158 14.548 7.20244C14.6911 5.2457 12.6151 1.33222 9.32202 1.04587C4.23925 0.603889 2.7359 2.26286 1.59049 4.19574C0.674156 5.74205 0.779151 10.9012 0.94619 13.0727Z" fill="#4E5142"/>
<path d="M14.2564 13.7065C14.2564 13.2302 14.2791 12.538 14.3013 11.7494C14.3237 10.9574 14.3459 10.0614 14.3459 9.16636C14.3459 8.2707 14.3236 7.38104 14.2576 6.60149C14.1909 5.81496 14.0817 5.16722 13.9195 4.74089C13.5915 3.87874 12.8208 2.98581 11.8203 2.30577C10.8222 1.62734 9.6314 1.18553 8.49358 1.18552C5.36376 1.18553 2.88946 1.9202 1.76247 4.04123C1.1915 5.11582 1.01243 6.48261 0.985763 8.12861C0.972482 8.94825 0.996779 9.82543 1.02477 10.7595C1.0527 11.6913 1.0842 12.6782 1.0842 13.7065C1.08422 14.073 1.28768 14.3937 1.71227 14.6817C2.14132 14.9728 2.75674 15.1999 3.47248 15.3687C4.89948 15.7051 6.62339 15.7866 7.76931 15.7567C9.14562 15.7207 10.8161 15.5985 12.1344 15.2591C12.7954 15.0888 13.3417 14.8703 13.7159 14.5997C14.0834 14.3338 14.2564 14.0416 14.2564 13.7065ZM14.9007 13.7065C14.9007 14.3121 14.5691 14.7777 14.0934 15.1217C13.6244 15.461 12.9888 15.7045 12.2952 15.8831C10.9041 16.2413 9.1741 16.3645 7.78609 16.4007C6.60839 16.4314 4.82445 16.3494 3.32455 15.9958C2.57686 15.8195 1.87401 15.57 1.3507 15.215C0.822993 14.8571 0.439927 14.3624 0.439902 13.7065C0.439908 12.6897 0.408758 11.7131 0.380758 10.7788C0.352825 9.84674 0.327909 8.95495 0.341468 8.11812C0.368481 6.45113 0.547373 4.95481 1.1934 3.73893C2.50042 1.27903 5.31881 0.541232 8.49358 0.541229C9.7898 0.541231 11.1046 1.04025 12.1825 1.77291C13.258 2.50396 14.1339 3.49242 14.5217 4.51172C14.7174 5.02613 14.8319 5.74869 14.8995 6.54709C14.9677 7.35244 14.9902 8.2624 14.9902 9.16636C14.9902 10.071 14.9677 10.9747 14.9453 11.7676C14.9229 12.5639 14.9007 13.2421 14.9007 13.7065Z" fill="#614D35"/>
</svg>
