<svg width="779" height="1117" viewBox="0 0 779 1117" fill="none" xmlns="http://www.w3.org/2000/svg">
<g clip-path="url(#clip0_6_2)">
<path d="M487.569 606.436H336.802V731.456H487.569V606.436Z" fill="#000080"/>
<path d="M484.11 486.391H368.308V607.572H484.11V486.391Z" fill="#000080"/>
<path d="M457.598 574.868H426.581V606.027H457.598V574.868Z" fill="black"/>
<path d="M456.729 605.56H425.712V636.719H456.729V605.56Z" fill="black"/>
<path d="M514.361 605.672H483.344V736.652H514.361V605.672Z" fill="black"/>
<path d="M426.901 608.534H395.884V700.142H426.901V608.534Z" fill="black"/>
<path d="M396.827 607.959H365.81V639.119H396.827V607.959Z" fill="black"/>
<path d="M369.011 480.282H337.867V576.786H369.011V480.282Z" fill="#000080"/>
<path d="M368.741 576.071H336.173V608.788H368.741V576.071Z" fill="black"/>
<path d="M398.574 427.343H276.631V518.118H398.574V427.343Z" fill="#000080"/>
<path d="M397.489 546.742H366.472V577.901H397.489V546.742Z" fill="black"/>
<path d="M427.878 516.154H396.861V547.313H427.878V516.154Z" fill="black"/>
<path d="M396.487 333.748H365.47V397.957H396.487V333.748Z" fill="black"/>
<path d="M368.962 304.806H337.945V334.754H368.962V304.806Z" fill="black"/>
<path d="M397.937 333.59H331.209V440.283H397.937V333.59Z" fill="#000080"/>
<path d="M427.631 423.941H396.614V455.982H427.631V423.941Z" fill="black"/>
<path d="M457.49 485.161H426.473V516.321H457.49V485.161Z" fill="black"/>
<path d="M427.602 454.598H331.538V509.681H427.602V454.598Z" fill="#000080"/>
<path d="M486.112 516.228H455.095V606.435H486.112V516.228Z" fill="black"/>
<path d="M426.602 334.974H396.206V424.401H426.602V334.974Z" fill="#FFAAAA"/>
<path d="M455.448 365.198H424.121V393.553H455.448V365.198Z" fill="#FFAAAA"/>
<path d="M486.155 153.627H367.05V184.105H486.155V153.627Z" fill="black"/>
<path d="M485.865 302.867H426.648V365.21H485.865V302.867Z" fill="#000080"/>
<path d="M427.525 246.232H366.115V304.839H427.525V246.232Z" fill="#000080"/>
<path d="M515.693 183.444H366.992V274.875H515.693V183.444Z" fill="#000080"/>
<path d="M515.311 182.917H485.535V214.699H515.311V182.917Z" fill="black"/>
<path d="M544.467 214.076H514.07V275.148H544.467V214.076Z" fill="black"/>
<path d="M515.931 245.858H484.914V273.902H515.931V245.858Z" fill="black"/>
<path d="M455.138 274.213H425.982V303.815H455.138V274.213Z" fill="black"/>
<path d="M426.602 245.235H395.586V276.394H426.602V245.235Z" fill="black"/>
<path d="M366.477 244.659H335.46V275.818H366.477V244.659Z" fill="black"/>
<path d="M396.175 274.67H365.159V305.83H396.175V274.67Z" fill="black"/>
<path d="M426.994 303.508H395.977V334.668H426.994V303.508Z" fill="black"/>
<path d="M457.191 334.216H426.174V365.375H457.191V334.216Z" fill="black"/>
<path d="M516.799 335.637H485.782V366.796H516.799V335.637Z" fill="black"/>
<path d="M516.623 303.023H485.606V336.052H516.623V303.023Z" fill="black"/>
<path d="M394.965 216.569H365.809V246.482H394.965V216.569Z" fill="black"/>
<path d="M368.109 182.067H334.792V217.192H368.109V182.067Z" fill="black"/>
<path d="M515.621 274.369H454.518V303.503H515.621V274.369Z" fill="#FFAAAA"/>
<path d="M395.896 305.684H368.291V334.351H395.896V305.684Z" fill="#FFAAAA"/>
<path d="M349.227 454.663H308.213V577.167H349.227V454.663Z" fill="#000080"/>
<path d="M336.34 334.31H305.581V441.003H336.34V334.31Z" fill="#000080"/>
<path d="M343.433 304.824H305.71V343.822H343.433V304.824Z" fill="#000080"/>
<path d="M277.066 485.349H182.884V577.209H277.066V485.349Z" fill="black"/>
<path d="M339.05 546.724L308.343 546.113L307.775 579.102L338.482 579.713L339.05 546.724Z" fill="black"/>
<path d="M309.791 517.34H276.913V548.5H309.791V517.34Z" fill="black"/>
<path d="M337.458 455.149H216.958V486.308H337.458V455.149Z" fill="black"/>
<path d="M306.346 426.601H275.329V457.76H306.346V426.601Z" fill="black"/>
<path d="M245.061 335.038H214.044V366.198H245.061V335.038Z" fill="black"/>
<path d="M306.628 304.964H244.467V336.123H306.628V304.964Z" fill="black"/>
<path d="M336.503 364.264H305.486V429.354H336.503V364.264Z" fill="black"/>
<path d="M246.079 576.079H215.062V666.727H246.079V576.079Z" fill="black"/>
<path d="M186.019 427.907H153.761V550.723H186.019V427.907Z" fill="black"/>
<path d="M215.922 364.2H184.905V430.172H215.922V364.2Z" fill="black"/>
<path d="M336.855 606.609H305.838V637.224H336.855V606.609Z" fill="black"/>
<path d="M306.203 335.597H243.913V426.932H306.203V335.597Z" fill="#FFAAAA"/>
<path d="M275.24 365.822H215.997V455.249H275.24V365.822Z" fill="#FFAAAA"/>
<path d="M217.548 430.01H184.98V485.785H217.548V430.01Z" fill="#FFAAAA"/>
<path d="M336.653 578.016H306.257V606.683H336.653V578.016Z" fill="#FFAAAA"/>
<path d="M308.118 548.415H277.411V603.879H308.118V548.415Z" fill="#FFAAAA"/>
<path d="M281.133 576.77H245.463V636.284H281.133V576.77Z" fill="#FFAAAA"/>
<path d="M307.808 602.944H280.513V636.284H307.808V602.944Z" fill="#FFAAAA"/>
<path d="M216.959 664.945H185.942V697.426H216.959V664.945Z" fill="black"/>
<path d="M187.402 694.806H156.385V727.287H187.402V694.806Z" fill="black"/>
<path d="M157.277 725.514H126.26V757.995H157.277V725.514Z" fill="black"/>
<path d="M187.05 757.094H156.033V789.576H187.05V757.094Z" fill="#000080"/>
<path d="M245.97 696.598H216.504V729.079H245.97V696.598Z" fill="#000080"/>
<path d="M307.693 635.221H244.655V697.462H307.693V635.221Z" fill="#000080"/>
<path d="M217.975 696.497H186.958V758.997H217.975V696.497Z" fill="#000080"/>
<path d="M127.95 755.598H96.9332V821.108H127.95V755.598Z" fill="black"/>
<path d="M217.692 757.834H186.675V788.994H217.692V757.834Z" fill="black"/>
<path d="M186.658 786.587H155.641V817.746H186.658V786.587Z" fill="black"/>
<path d="M158.757 816.331H127.74V847.491H158.757V816.331Z" fill="black"/>
<path d="M244.843 666.509H216.463V696.266H244.843V666.509Z" fill="white"/>
<path d="M187.147 727.211H157.319V757.176H187.147V727.211Z" fill="white"/>
<path d="M156.222 757.837H127.93V816.224H156.222V757.837Z" fill="white"/>
<path d="M573.282 728.669H444.758V852.053H573.282V728.669Z" fill="#000080"/>
<path d="M539.945 669.62H482.482V732.194H539.945V669.62Z" fill="#000080"/>
<path d="M468.884 728.228H390.366V792.564H468.884V728.228Z" fill="#000080"/>
<path d="M510.26 638.204H479.243V670.61H510.26V638.204Z" fill="black"/>
<path d="M541.158 669.535H510.142V700.694H541.158V669.535Z" fill="black"/>
<path d="M570.604 699.44H539.587V730.599H570.604V699.44Z" fill="black"/>
<path d="M483.188 698.459H391.378V729.618H483.188V698.459Z" fill="black"/>
<path d="M481.993 790.439H392.044V821.599H481.993V790.439Z" fill="black"/>
<path d="M455.526 820.879H424.509V852.038H455.526V820.879Z" fill="black"/>
<path d="M570.232 1061H539.215V1092.16H570.232V1061Z" fill="black"/>
<path d="M540.342 1033.44H482.129V1064.6H540.342V1033.44Z" fill="black"/>
<path d="M570.431 1091.59H421.393V1122.75H570.431V1091.59Z" fill="black"/>
<path d="M424.007 1030.21H392.99V1092.22H424.007V1030.21Z" fill="black"/>
<path d="M601.465 727.871H570.448V852.508H601.465V727.871Z" fill="black"/>
<path d="M571.778 819.931H540.761V881.003H571.778V819.931Z" fill="black"/>
<path d="M542.035 849.769H453.326V963.189H542.035V849.769Z" fill="black"/>
<path d="M511.839 958.435H423.131V1035.71H511.839V958.435Z" fill="black"/>
<path d="M424.624 729.499H363.211V760.658H424.624V729.499Z" fill="black"/>
<path d="M482.644 1034.88H423.091V1092.52H482.644V1034.88Z" fill="#000080"/>
<path d="M539.405 1063.86H477.681V1092.21H539.405V1063.86Z" fill="#000080"/>
<path d="M367.105 694.312H245.138V934.344H367.105V694.312Z" fill="#000080"/>
<path d="M397.296 753.917H366.279V905.974H397.296V753.917Z" fill="black"/>
<path d="M368.2 904.458H337.183V935.618H368.2V904.458Z" fill="black"/>
<path d="M340.306 933.24H273.32V965.646H340.306V933.24Z" fill="black"/>
<path d="M245.841 726.983H214.824V911.051H245.841V726.983Z" fill="black"/>
<path d="M277.063 843.916H246.046V875.075H277.063V843.916Z" fill="black"/>
<path d="M275.92 695.429H244.903V727.91H275.92V695.429Z" fill="black"/>
<path d="M312.813 664.819H274.339V695.979H312.813V664.819Z" fill="black"/>
<path d="M275.058 907.748H184.899V996.246H275.058V907.748Z" fill="black"/>
<path d="M245.512 992.338H214.495V1023.5H245.512V992.338Z" fill="black"/>
<path d="M245.872 986.846H214.856V1054.58H245.872V986.846Z" fill="black"/>
<path d="M275.74 1053.4H244.723V1117.59H275.74V1053.4Z" fill="black"/>
<path d="M245.072 1086.16H154.813V1117.32H245.072V1086.16Z" fill="black"/>
<path d="M155.396 1025.44H124.379V1087.44H155.396V1025.44Z" fill="black"/>
<path d="M186.294 966.263H155.277V1028.27H186.294V966.263Z" fill="black"/>
<path d="M367 694.755H335.983V725.914H367V694.755Z" fill="black"/>
<path d="M336.907 634.414H307.206V696.315H336.907V634.414Z" fill="black"/>
<path d="M215.324 995.043H183.687V1086.65H215.324V995.043Z" fill="#000080"/>
<path d="M244.79 1054.25H154.841V1086.65H244.79V1054.25Z" fill="#000080"/>
<path d="M191.441 1028.07H155.151V1057.98H191.441V1028.07Z" fill="#000080"/>
<path d="M486.577 364.42H455.561V395.579H486.577V364.42Z" fill="black"/>
<path d="M547.402 366.383H515.765V397.542H547.402V366.383Z" fill="black"/>
<path d="M575.224 366.64H544.207V397.799H575.224V366.64Z" fill="black"/>
<path d="M605.218 395.797H574.201V426.957H605.218V395.797Z" fill="black"/>
<path d="M636.227 426.134H605.21V457.293H636.227V426.134Z" fill="black"/>
<path d="M636.147 456.198H605.13V487.357H636.147V456.198Z" fill="black"/>
<path d="M636.075 484.241H605.058V515.4H636.075V484.241Z" fill="black"/>
<path d="M605.368 514.504H574.351V545.664H605.368V514.504Z" fill="black"/>
<path d="M605.541 456.197H543.295V545.524H605.541V456.197Z" fill="black"/>
<path d="M544.306 485.937H513.289V517.096H544.306V485.937Z" fill="black"/>
<path d="M544.326 455.169H513.309V486.329H544.326V455.169Z" fill="black"/>
<path d="M544.445 426.092H513.428V457.252H544.445V426.092Z" fill="black"/>
<path d="M516.16 395.073H485.143V426.233H516.16V395.073Z" fill="black"/>
<path d="M457.02 393.284H426.003V425.325H457.02V393.284Z" fill="black"/>
<path d="M514.483 485.492H483.466V547.497H514.483V485.492Z" fill="black"/>
<path d="M485.125 456.078H426.912V487.237H485.125V456.078Z" fill="black"/>
<path d="M485.865 395.174H456.476V456.426H485.865V395.174Z" fill="#FFAAAA"/>
<path d="M513.45 426.271H485.069V485.941H513.45V426.271Z" fill="#FFAAAA"/>
<path d="M465.994 425.336H427.223V456.495H465.994V425.336Z" fill="#FFAAAA"/>
<path d="M574.553 396.981H515.931V426.271H574.553V396.981Z" fill="#FFAAAA"/>
<path d="M604.95 425.803H544.467V456.495H604.95V425.803Z" fill="#FFAAAA"/>
<path d="M516.862 366.756H486.31V395.111H516.862V366.756Z" fill="#FFAAAA"/>
</g>
<defs>
<clipPath id="clip0_6_2">
<rect width="793.701" height="1122.52" fill="white" transform="translate(-15)"/>
</clipPath>
</defs>
</svg>
