<svg width="617" height="904" viewBox="0 0 617 904" fill="none" xmlns="http://www.w3.org/2000/svg">
<path d="M501.824 876.052H421.192V903.709H501.824V876.052Z" fill="black"/>
<path d="M562.029 847.071H500.666V876.496H562.029V847.071Z" fill="black"/>
<path d="M362.604 410.496H307.428V438.153H362.604V410.496Z" fill="black"/>
<path d="M309.897 437.983H248.116V466.347H309.897V437.983Z" fill="black"/>
<path d="M251.765 464.149H194.821V493.044H251.765V464.149Z" fill="black"/>
<path d="M196.768 491.209H146.789V518.866H196.768V491.209Z" fill="black"/>
<path d="M323.435 616.063H274.517V643.719H323.435V616.063Z" fill="black"/>
<path d="M276.048 588.718H227.13V616.375H276.048V588.718Z" fill="black"/>
<path d="M228.402 556H195.747V590.021H228.402V556Z" fill="black"/>
<path d="M196.706 558.184L196.475 509.266L168.819 509.397L169.05 558.315L196.706 558.184Z" fill="black"/>
<path d="M587.935 820.707H559.276V849.071H587.935V820.707Z" fill="black"/>
<path d="M394.302 702.148H366.349V730.866H394.302V702.148Z" fill="black"/>
<path d="M367.578 674.187H339.626V703.789H367.578V674.187Z" fill="black"/>
<path d="M340.608 615.968H308.413V676.874H340.608V615.968Z" fill="black"/>
<path d="M367.051 587.325H339.099V615.866H367.051V587.325Z" fill="black"/>
<path d="M444.162 499.734H416.209V561.332H444.162V499.734Z" fill="black"/>
<path d="M390.052 471.825H335.112V502.045H390.052V471.825Z" fill="black"/>
<path d="M389.948 410.487H362.349V473.853H389.948V410.487Z" fill="black"/>
<path d="M417.103 499.841H389.151V527.498H417.103V499.841Z" fill="black"/>
<path d="M471.722 560.85H442.769V673.007H471.722V560.85Z" fill="black"/>
<path d="M452.153 792.122H420.842V878.468H452.153V792.122Z" fill="black"/>
<path d="M616.015 794H586.472V821.657H616.015V794Z" fill="black"/>
<path d="M589.699 766.242H526.038V795.314H589.699V766.242Z" fill="black"/>
<path d="M501.8 764.406H394.298V792.063H501.8V764.406Z" fill="black"/>
<path d="M471.789 672.995H393.456V764.652H471.789V672.995Z" fill="black"/>
<path d="M527.568 792.104H423.248V821.175H527.568V792.104Z" fill="black"/>
<path d="M367.599 689.459V675.959H353.849H340.099V645.959V615.959H353.599H367.099V601.959V587.959H353.099H339.099V601.959V615.959H307.599H276.099V602.209V588.459H252.349H228.599V572.209V555.959H212.928H197.256L196.959 542.454C196.795 535.026 196.795 520.851 196.959 510.954L197.258 492.959H224.178H251.099V479.459V465.959H280.099H309.099V452.209V438.459H335.599H362.099V455.459V472.459H349.099H336.099V486.459V500.459H362.599H389.099V514.209V527.959H402.599H416.099V544.709V561.459H429.849H443.599V617.209V672.959H418.849H394.099V687.959V702.959H380.849H367.599V689.459Z" fill="#000080"/>
<path d="M449.093 848.121V820.19H488.338H527.582V807.108V794.027H557.634H587.686V807.462V820.897H573.544H559.402V834.686V848.474H530.057H500.712V862.263V876.051H474.903H449.093V848.121Z" fill="#000080"/>
<path d="M113.013 759.56H85.0604V788.808H113.013V759.56Z" fill="black"/>
<path d="M141.052 695.398H112.039V762.116H141.052V695.398Z" fill="black"/>
<path d="M169.052 670.209H140.392V697.866H169.052V670.209Z" fill="black"/>
<path d="M336.088 617.019H308.135V672.607H336.088V617.019Z" fill="black"/>
<path d="M308.2 617.002H273.498V644.659H308.2V617.002Z" fill="black"/>
<path d="M279.052 605.459H250.599V644.116H279.052V605.459Z" fill="black"/>
<path d="M113.862 611.709H84.8492V670.28H113.862V611.709Z" fill="black"/>
<path d="M279.052 584.459H112.349V612.116H279.052V584.459Z" fill="black"/>
<path d="M254.299 606.759H167.834V672.6H254.299V606.759Z" fill="black"/>
<path d="M308.725 623.899H232.336V699.64H308.725V623.899Z" fill="black"/>
<path d="M86.4658 668.209H57.0993V762.366H86.4658V668.209Z" fill="black"/>
<path d="M448.115 436.873H420.163V561.404H448.115V436.873Z" fill="black"/>
<path d="M421.103 410.01H362.401V437.667H421.103V410.01Z" fill="black"/>
<path d="M390.052 437.459H362.099V502.242H390.052V437.459Z" fill="black"/>
<path d="M421.99 500.288H389.265V527.945H421.99V500.288Z" fill="black"/>
<path d="M389.112 468.502V436.971H404.761H420.41V468.502V500.032H404.761H389.112V468.502Z" fill="#000080"/>
<path d="M85.3492 714.709V669.209H99.3492H113.349V640.709V612.209H140.849H168.349V641.209V670.209H154.349H140.349V683.209V696.209H126.349H112.349V728.209V760.209H98.8492H85.3492V714.709Z" fill="#000080"/>
<path d="M276.234 380.135H243.307V413.121H276.234V380.135Z" fill="#FFAAAA"/>
<path d="M252.526 348.959H197.849V437.944H252.526V348.959Z" fill="#FFAAAA"/>
<path d="M310.619 203.487H142.281V236.472H310.619V203.487Z" fill="#FFAAAA"/>
<path d="M287.031 234.7H223.698V267.686H287.031V234.7Z" fill="#FFAAAA"/>
<path d="M310.776 176.209H197.349V209.194H310.776V176.209Z" fill="#FFAAAA"/>
<path d="M309.776 148.959H256.849V181.944H309.776V148.959Z" fill="#FFAAAA"/>
<path d="M150.659 516.867H89.4728V545.584H150.659V516.867Z" fill="black"/>
<path d="M448.337 177.193H391.04V266.014H448.337V177.193Z" fill="#FFAAAA"/>
<path d="M560.594 207.941H477.134V333.179H560.594V207.941Z" fill="#FFAAAA"/>
<path d="M91.2452 545.376H25.8163V573.033H91.2452V545.376Z" fill="black"/>
<path d="M29.1897 519.778H0V547.435H29.1897V519.778Z" fill="black"/>
<path d="M55.682 494.253H27.0226V522.794H55.682V494.253Z" fill="black"/>
<path d="M201.671 235.504H170.219V442.413H201.671V235.504Z" fill="black"/>
<path d="M184.103 235.525H142.401V355.106H184.103V235.525Z" fill="black"/>
<path d="M227.304 235.509H198.114V379.131H227.304V235.509Z" fill="black"/>
<path d="M143.441 204.613H114.239V294.496H143.441V204.613Z" fill="black"/>
<path d="M198.052 177.209H139.849V204.866H198.052V177.209Z" fill="black"/>
<path d="M256.802 149.459H196.349V177.116H256.802V149.459Z" fill="black"/>
<path d="M364.302 120.209H255.349V150.75H364.302V120.209Z" fill="black"/>
<path d="M389.302 89.1129H336.849V121.366H389.302V89.1129Z" fill="black"/>
<path d="M283.302 92.709H162.873V120.366H283.302V92.709Z" fill="black"/>
<path d="M189.053 65.4805H131.506V93.1374H189.053V65.4805Z" fill="black"/>
<path d="M339.392 175.209H309.849V240.603H339.392V175.209Z" fill="black"/>
<path d="M312.039 236.709H282.849V267.927H312.039V236.709Z" fill="black"/>
<path d="M310.216 290.057H257.474V321.25H310.216V290.057Z" fill="black"/>
<path d="M255.834 322.239H225.938V351.487H255.834V322.239Z" fill="black"/>
<path d="M422.264 264.489H390.777V295.858H422.264V264.489Z" fill="black"/>
<path d="M477.956 265.709H447.529V296.194H477.956V265.709Z" fill="black"/>
<path d="M505.772 206.069H475.345V266.607H505.772V206.069Z" fill="black"/>
<path d="M478.295 178.232H447.868V238.062H478.295V178.232Z" fill="black"/>
<path d="M448.396 147.546H417.969V209.144H448.396V147.546Z" fill="black"/>
<path d="M478.247 117.161H447.82V147.646H478.247V117.161Z" fill="black"/>
<path d="M535.026 117.834H477.849V148.319H535.026V117.834Z" fill="#FFAAAA"/>
<path d="M449.253 323.598H364.076V356.583H449.253V323.598Z" fill="#FFAAAA"/>
<path d="M450.776 353.959H417.849V386.944H450.776V353.959Z" fill="#FFAAAA"/>
<path d="M424.777 296.209H391.849V329.194H424.777V296.209Z" fill="#FFAAAA"/>
<path d="M448.992 87.3033H418.565V117.789H448.992V87.3033Z" fill="black"/>
<path d="M419.931 117.529H389.504V148.014H419.931V117.529Z" fill="black"/>
<path d="M391.699 147.387H359.858V238.506H391.699V147.387Z" fill="black"/>
<path d="M535.276 147.209H504.849V208.694H535.276V147.209Z" fill="black"/>
<path d="M561.276 178.209H530.849V268.694H561.276V178.209Z" fill="black"/>
<path d="M561.276 324.709H530.849V355.194H561.276V324.709Z" fill="black"/>
<path d="M555.561 89.4662H501.092V119.952H555.561V89.4662Z" fill="black"/>
<path d="M556.459 60.3708H526.032V90.8561H556.459V60.3708Z" fill="black"/>
<path d="M530.026 30.3339H499.599V60.8192H530.026V30.3339Z" fill="black"/>
<path d="M502.063 0H385.722V30.4853H502.063V0Z" fill="black"/>
<path d="M389.377 29.9829H358.95V60.4682H389.377V29.9829Z" fill="black"/>
<path d="M418.843 58.2705H388.416V89.9933H418.843V58.2705Z" fill="black"/>
<path d="M449.429 237.657H420.062V267.081H449.429V237.657Z" fill="black"/>
<path d="M281.66 351.273H252.116V382.995H281.66V351.273Z" fill="black"/>
<path d="M277.366 410.172H248.414V438.579H277.366V410.172Z" fill="black"/>
<path d="M396.826 355.029H330.336V383.393H396.826V355.029Z" fill="black"/>
<path d="M453.946 382.648H393.466V410.305H453.946V382.648Z" fill="black"/>
<path d="M532.271 295.785H448.104V383.192H532.271V295.785Z" fill="black"/>
<path d="M479.044 295.778H418.565V323.435H479.044V295.778Z" fill="black"/>
<path d="M331.801 381.722H275.349V410.616H331.801V381.722Z" fill="black"/>
<path d="M285.302 265.209H220.849V293.927H285.302V265.209Z" fill="black"/>
<path d="M114.84 467.667H53.4766V496.738H114.84V467.667Z" fill="black"/>
<path d="M173.502 440.839H111.962V469.733H173.502V440.839Z" fill="black"/>
<path d="M28.3492 533.709V522.209H41.8492H55.3492V509.209V496.209H84.8492H114.349V482.709V469.209H143.849H173.349V455.709V442.209H185.849C197.683 442.209 198.349 442.102 198.349 440.209C198.349 438.262 199.016 438.209 223.349 438.209H248.349V451.209V464.209H221.849H195.349V477.709V491.209H171.349H147.349V504.209V517.209H118.349H89.3492V531.209V545.209H58.8492H28.3492V533.709Z" fill="#000080"/>
<path d="M281.349 366.709V351.209H267.849H254.349V337.209V323.209H240.349H226.349V308.209V293.209H241.849H257.349V307.209V321.209H283.349H309.349V306.709V292.209H297.349H285.349V280.316C285.349 270.394 285.611 268.322 286.931 267.816C287.801 267.482 293.651 267.209 299.931 267.209H311.349V253.709V240.209H324.849H338.349V207.709V175.209H324.349H310.349V162.709V150.209H335.349H360.349V194.209V238.209H375.19H390.031L390.69 259.37C391.053 271.009 391.349 290.134 391.349 301.87V323.209H377.349H363.349V339.209V355.209H346.849H330.349V368.709V382.209H305.849H281.349V366.709Z" fill="#000080"/>
<path d="M332.349 397.369V384.209H362.849H393.349V396.709V409.209H385.511C381.2 409.209 367.475 409.506 355.011 409.869L332.349 410.528V397.369Z" fill="#000080"/>
<path d="M276.935 424.297V410.148H292.142H307.349V424.297V438.446H292.142H276.935V424.297Z" fill="#000080"/>
<path d="M394.698 369.179V355.264H406.642H418.587V369.179V383.093H406.642H394.698V369.179Z" fill="#000080"/>
<path d="M335.061 410.461C336.224 410.418 359.15 409.762 362.65 409.671C364.278 409.629 365.867 409.588 366.18 409.58L366.749 409.566V409.779V409.991H364.572H362.396V410.235V410.478L348.635 410.474C341.066 410.472 334.958 410.465 335.061 410.461Z" fill="#000080"/>
<path d="M366.763 409.779V409.56L366.845 409.56C366.89 409.56 367.335 409.55 367.834 409.537C370.985 409.456 378.175 409.307 380.806 409.267L381.529 409.257V409.628V409.999H374.146H366.763L366.763 409.779Z" fill="#000080"/>
<path d="M331.802 396.943V383.412H345.162H358.521V383.803V384.193H345.427H332.334V397.334V410.475H332.068H331.802V396.943Z" fill="#000080"/>
<path d="M381.543 409.626V409.25H387.465H393.387V396.721V384.192H375.974H358.562V383.795V383.397H375.996H393.431V396.699V410.002H387.487H381.543V409.626Z" fill="#000080"/>
<path d="M449.224 251.918V237.752H462.515H475.806V251.918V266.084H462.515H449.224V251.918Z" fill="#000080"/>
<path d="M421.539 280.84V265.868H435.026H448.513V280.84V295.813H435.026H421.539V280.84Z" fill="#000080"/>
<path d="M478.214 192.91V178.27H462.788H447.362V162.584V146.898H455.248C459.585 146.898 472.543 147.055 484.043 147.244L504.953 147.591V177.57V207.549H491.583H478.214V192.91Z" fill="#000080"/>
<path d="M391.215 162.09V147.221H404.761H418.306V162.09V176.959H404.761H391.215V162.09Z" fill="#000080"/>
<path d="M419.392 132.621V117.605H434.026H448.66V132.621V147.636H434.026H419.392V132.621Z" fill="#000080"/>
<path d="M363.362 134.297V120.929H376.761H390.16V134.297V147.666H376.761H363.362V134.297Z" fill="#000080"/>
<path d="M283.224 105.14V89.334H310.686H338.147V105.14V120.946H310.686H283.224V105.14Z" fill="#000080"/>
<path d="M131.571 53.3565V41.0502H160.408H189.244V53.3565V65.6627H160.408H131.571V53.3565Z" fill="#000080"/>
<path d="M188.879 78.8865V64.9516H241.7H294.522V78.8865V92.8213H241.7H188.879V78.8865Z" fill="#000080"/>
<path d="M389.474 104.741V89.3982H404.317H419.16V104.741V120.084H404.317H389.474V104.741Z" fill="#000080"/>
<path d="M464.142 118.716L448.861 118.501V102.967V87.4323H433.761H418.66V72.9939V58.5555H403.56H388.459V43.7467V28.9381H444.187H499.916V44.8574V60.7768H513.219H526.522V75.2152V89.6537H513.938H501.354V104.462V119.271L490.388 119.102C484.357 119.009 472.546 118.835 464.142 118.716Z" fill="#000080"/>
<path d="M90.0589 495.55H54.3214V523.75H90.0589V495.55Z" fill="white"/>
<path d="M90.3088 521.3H27.0714V547.379H90.3088V521.3Z" fill="white"/>
<path d="M139.363 469.422H114.309V495.5H139.363V469.422Z" fill="white"/>
</svg>
