<svg width="516" height="821" viewBox="0 0 516 821" fill="none" xmlns="http://www.w3.org/2000/svg">
<path d="M290.943 657.152H205.668V691.743H290.943V657.152Z" fill="black"/>
<path d="M310.655 673.401H220.415V728.818H310.655V673.401Z" fill="black"/>
<path d="M327.81 728.652H237.726V784.097H327.81V728.652Z" fill="black"/>
<path d="M308.896 779.598H257.282V800.98H308.896V779.598Z" fill="black"/>
<path d="M187.459 796.877H135.321V815.173H187.459V796.877Z" fill="black"/>
<path d="M207.861 680.359H187.459V800.226H207.861V680.359Z" fill="black"/>
<path d="M153.002 643.183H135.321V809.118H153.002V643.183Z" fill="black"/>
<path d="M177.712 627.062H152.13V644.535H177.712V627.062Z" fill="black"/>
<path d="M221.216 660.243H203.424V695.668H221.216V660.243Z" fill="black"/>
<path d="M190.28 695.026H152.771V714.083H190.28V695.026Z" fill="#550000"/>
<path d="M189.771 734.058H152.263V753.115H189.771V734.058Z" fill="#550000"/>
<path d="M204.225 661.686H170.564V679.318H204.225V661.686Z" fill="#550000"/>
<path d="M170.884 644.053H152.29V662.166H170.884V644.053Z" fill="#550000"/>
<path d="M222.498 643.893H203.905V662.006H222.498V643.893Z" fill="#550000"/>
<path d="M153.229 723.884V714.136H170.231H187.232V723.884V733.631H170.231H153.229V723.884Z" fill="#1A1A1A"/>
<path d="M153.229 678.546V662.451H161.843H170.457V671.066V679.68L186.892 679.782C195.931 679.838 199.706 679.945 195.28 680.019L187.232 680.153V687.397V694.641H170.231H153.229V678.546Z" fill="#1A1A1A"/>
<path d="M153.229 774.888V753.126H170.231H187.232V774.888V796.651H170.231H153.229V774.888Z" fill="#333333"/>
<path d="M154.434 694.826V694.645H170.844H187.254V687.417V680.188L188.026 680.162C188.45 680.147 190.546 680.11 192.684 680.077C196.579 680.016 197.214 679.995 197.102 679.932C196.962 679.854 190.759 679.776 180.041 679.718C177.848 679.708 174.796 679.688 173.259 679.672L170.464 679.647V671.617C170.464 666.291 170.479 663.587 170.505 663.587C170.53 663.587 170.546 666.239 170.546 671.462V679.336H186.976H203.406V679.837V680.338H195.431H187.457V687.671V695.005H170.946H154.436L154.434 694.826Z" fill="#1A1A1A"/>
<path d="M158.457 733.843V733.645H172.851H187.246V723.883V714.121L172.844 714.116L158.443 714.111L172.944 714.106L187.445 714.101V724.075V734.049H172.951H158.457V733.843Z" fill="#1A1A1A"/>
<path d="M153.031 724.082C153.031 715.254 153.041 714.108 153.116 714.108C153.191 714.108 153.201 715.232 153.201 723.884V733.66H155.808H158.415V733.858V734.057H155.723H153.031L153.031 724.082Z" fill="#1A1A1A"/>
<path d="M153.032 780.161C153.032 763.478 153.032 763.451 153.112 763.451C153.192 763.451 153.192 763.477 153.192 780.061V796.672H170.223H187.254V780.061V763.451H187.354H187.454V780.161V796.872H170.243H153.031L153.032 780.161Z" fill="#1A1A1A"/>
<path d="M153.292 774.892V753.172H170.243H187.194V774.892V796.612H170.243H153.292V774.892Z" fill="#1A1A1A"/>
<path d="M187.472 758.302C187.472 755.458 187.482 754.295 187.493 755.717C187.503 757.138 187.503 759.465 187.493 760.886C187.482 762.308 187.472 761.145 187.472 758.302Z" fill="#333333"/>
<path d="M187.254 758.302V753.153H187.354H187.454V758.302V763.451H187.354H187.254V758.302Z" fill="#333333"/>
<path d="M153.037 758.392C153.032 753.177 153.032 753.153 153.112 753.153C153.192 753.153 153.192 753.178 153.187 758.392C153.184 761.274 153.171 763.591 153.166 763.542C153.156 763.49 153.136 763.451 153.114 763.451C153.094 763.451 153.073 763.492 153.063 763.542C153.052 763.593 153.042 761.274 153.042 758.392H153.037Z" fill="#333333"/>
<path d="M153.072 758.342C153.072 754.962 153.087 753.232 153.113 753.232C153.138 753.232 153.154 754.962 153.154 758.342C153.154 761.721 153.138 763.451 153.113 763.451C153.087 763.451 153.072 761.721 153.072 758.342Z" fill="#333333"/>
<path d="M153.031 678.603V662.196H161.786H170.542L170.532 662.89L170.522 663.585L170.501 663.004L170.481 662.423H161.84H153.2V678.546V694.669H153.795H154.39V694.839V695.009H153.71H153.03L153.031 678.603Z" fill="#333333"/>
<path d="M444.824 769.562H427.352V786.232H444.824V769.562Z" fill="#1A1A1A"/>
<path d="M461.655 786.072H444.183V819.734H461.655V786.072Z" fill="#1A1A1A"/>
<path d="M515.834 803.704H444.824V820.375H515.834V803.704Z" fill="#1A1A1A"/>
<path d="M515.794 764.332H498.322V803.785H515.794V764.332Z" fill="#1A1A1A"/>
<path d="M499.163 698.873H481.691V765.255H499.163V698.873Z" fill="#1A1A1A"/>
<path d="M482.594 630.91H464.279V700.497H482.594V630.91Z" fill="#1A1A1A"/>
<path d="M428.634 734.458H411.163V771.325H428.634V734.458Z" fill="#1A1A1A"/>
<path d="M395.775 684.767H377.822V702.239H395.775V684.767Z" fill="#1A1A1A"/>
<path d="M412.445 702.118H394.492V736.222H412.445V702.118Z" fill="#1A1A1A"/>
<path d="M449.808 618.701H376.97V635.476H449.808V618.701Z" fill="#1A1A1A"/>
<path d="M397.825 634.115H377.423V684.893H397.825V634.115Z" fill="#1A1A1A"/>
<path d="M461.978 794.61V785.77H453.59H445.203V777.609V769.448H437.042H428.881V751.766V734.085H420.721H412.56V717.99V701.895H404.172H395.785V693.507V685.12H396.918H398.052V660.411V635.702H424.121C449.888 635.702 450.19 635.692 450.19 634.795C450.19 633.928 450.492 633.889 457.217 633.889H464.245V667.212V700.535H472.859H481.473V732.951V765.368H489.86H498.248V784.409V803.451H480.113H461.978V794.61Z" fill="#1A1A1A"/>
<path d="M397.898 684.914C397.832 684.848 397.78 673.68 397.783 660.096C397.786 644.013 397.843 635.491 397.944 635.665C398.129 635.982 398.085 685.1 397.898 684.914Z" fill="#1A1A1A"/>
<path d="M423.185 635.477L397.698 635.396L423.545 635.355C437.761 635.334 449.392 635.344 449.392 635.375C449.392 635.539 446.945 635.552 423.185 635.477Z" fill="#1A1A1A"/>
<path d="M405.124 635.518C409.12 635.492 415.611 635.492 419.55 635.518C423.489 635.543 420.219 635.559 412.285 635.559C404.35 635.559 401.128 635.538 405.124 635.518Z" fill="#1A1A1A"/>
<path d="M449.886 634.556L449.875 633.875L450.476 633.89C450.974 633.905 451.011 633.926 450.69 634.014C450.441 634.084 450.23 634.321 450.101 634.68L449.9 635.236L449.886 634.556Z" fill="#1A1A1A"/>
<path d="M481.69 732.855C481.69 715.047 481.71 707.786 481.731 716.719C481.751 725.652 481.751 740.223 481.731 749.098C481.71 757.973 481.69 750.664 481.69 732.855Z" fill="black"/>
<path d="M444.744 819.735C444.435 819.384 444.343 815.519 444.343 802.756V786.233H435.848H427.352V778.699V771.165H419.338H411.323V753.693V736.222H402.988H394.653V719.231V702.24H386.317H377.982V693.584V684.928H386.798H395.614V693.584V702.24H403.95H412.285V718.429V734.619H420.46H428.635V752.091V769.562H436.649H444.664V777.898V786.233H453.159H461.655V795.049V803.865H488.744H515.834V812.04V820.215L480.489 820.205C450.372 820.194 445.085 820.123 444.744 819.735Z" fill="black"/>
<path d="M498.522 784.309V765.074H490.187H481.852V732.695V700.316H473.196H464.54V665.693V631.069H473.516H482.493V665.051V699.033H490.828H499.163V731.733V764.433H507.338H515.513V783.988V803.544H507.018H498.522V784.309Z" fill="black"/>
<path d="M307.293 644.053H222.338V661.525H307.293V644.053Z" fill="black"/>
<path d="M307.614 645.015H289.661V680.76H307.614V645.015Z" fill="black"/>
<path d="M343.199 678.677H325.246V712.499H343.199V678.677Z" fill="black"/>
<path d="M380.707 667.456H341.275V684.928H380.707V667.456Z" fill="black"/>
<path d="M466.303 466.216H448.35V633.795H466.303V466.216Z" fill="black"/>
<path d="M449.579 432.395H427.093V467.755H449.579V432.395Z" fill="black"/>
<path d="M429.293 400.543H406.806V435.903H429.293V400.543Z" fill="black"/>
<path d="M412.175 366.736H394.223V402.096H412.175V366.736Z" fill="black"/>
<path d="M411.522 280.448H393.569V301.98H411.522V280.448Z" fill="black"/>
<path d="M394.436 266.611H376.483V283.836H394.436V266.611Z" fill="black"/>
<path d="M379.359 250.685H361.406V267.91H379.359V250.685Z" fill="black"/>
<path d="M412.229 349.961H394.276V370.153H412.229V349.961Z" fill="black"/>
<path d="M429.511 300.96H411.558V355.156H429.511V300.96Z" fill="black"/>
<path d="M171.178 200.606H138.879V219.04H171.178V200.606Z" fill="black"/>
<path d="M138.826 217.916H120.873V270.011H138.826V217.916Z" fill="black"/>
<path d="M155.015 268.328H137.062V393.196H155.015V268.328Z" fill="black"/>
<path d="M171.045 388.547H153.092V474.624H171.045V388.547Z" fill="black"/>
<path d="M188.036 440.802H170.083V492.898H188.036V440.802Z" fill="black"/>
<path d="M204.706 473.182H186.753V525.277H204.706V473.182Z" fill="black"/>
<path d="M188.036 592.439H170.083V644.534H188.036V592.439Z" fill="black"/>
<path d="M205.668 520.628H187.715V610.232H205.668V520.628Z" fill="black"/>
<path d="M257.455 183.373H169.442V201.865H257.455V183.373Z" fill="black"/>
<path d="M325.246 678.997H307.293V696.469H325.246V678.997Z" fill="black"/>
<path d="M258.186 517.144H218.515V535.733H258.186V517.144Z" fill="#800000"/>
<path d="M324.566 498.791H255.012V520.293H324.566V498.791Z" fill="#550000"/>
<path d="M394.777 481.938H320.185V503.77H394.777V481.938Z" fill="#550000"/>
<path d="M448.671 465.808H389.078V487.534H448.671V465.808Z" fill="#550000"/>
<path d="M448.351 549.801H406.859V576.284H448.351V549.801Z" fill="#550000"/>
<path d="M412.257 530.705H357.473V552.684H412.257V530.705Z" fill="#550000"/>
<path d="M360.671 514.376H319.956V536.898H360.671V514.376Z" fill="#550000"/>
<path d="M258.965 515.979H218.17V537.058H258.965V515.979Z" fill="#550000"/>
<path d="M275.074 548.519H235.803V572.883H275.074V548.519Z" fill="#550000"/>
<path d="M347.366 563.747H269.625V587.31H347.366V563.747Z" fill="#550000"/>
<path d="M413.888 580.417H335.169V607.154H413.888V580.417Z" fill="#550000"/>
<path d="M448.351 599.171H406.765V619.576H448.351V599.171Z" fill="#550000"/>
<path d="M206.309 264.801H185.471V418.682H206.309V264.801Z" fill="#F2F2F2"/>
<path d="M274.594 335.971H154.374V388.868H274.594V335.971Z" fill="#F2F2F2"/>
<path d="M242.214 386.303H220.415V403.294H242.214V386.303Z" fill="#F2F2F2"/>
<path d="M293.829 317.377H256.641V336.933H293.829V317.377Z" fill="#F2F2F2"/>
<path d="M293.508 283.395H256.32V302.951H293.508V283.395Z" fill="#F2F2F2"/>
<path d="M276.197 300.707H256.32V320.262H276.197V300.707Z" fill="#F2F2F2"/>
<path d="M257.282 284.357H206.63V336.292H257.282V284.357Z" fill="#808080"/>
<path d="M185.471 284.357H154.695V336.292H185.471V284.357Z" fill="#808080"/>
<path d="M276.197 264.801H155.015V284.357H276.197V264.801Z" fill="#F2F2F2"/>
<path d="M311.23 677.638C311.23 677.14 310.618 676.731 309.87 676.731C308.715 676.731 308.51 674.42 308.51 661.376C308.51 652.93 308.262 645.375 307.96 644.585C307.467 643.3 301.986 643.148 255.368 643.148H203.327V652.225V661.301H187.459H171.591V653.132V644.964H180.205H188.819V627.719V610.474H197.433H206.047L205.481 577.041C205.169 558.656 205.777 527.613 205.444 508.063L204.843 472.517H196.829H188.816V456.18V439.843H180.203H171.589V414.43V389.017H178.389H185.19V403.992V418.968H196.071H206.952V403.992V389.017H213.261H219.57L219.835 396.051L220.099 403.085L231.207 403.339L242.315 403.593V396.304V389.015H258.636H274.958V363.148V337.281H284.479H294V326.844V316.406H285.386H276.771V309.599V302.792H285.386H294V292.808V282.824H285.417H276.835L276.576 273.521L276.318 264.218L215.709 263.984C155.693 263.753 155.096 263.768 154.624 265.571C154.195 267.212 153.395 267.394 146.547 267.394H138.945V242.888V218.383H154.813H170.681V209.76V201.138H229.167H287.652V209.76V218.383H306.694H325.736V227.005V235.627H334.35H342.964V244.249V252.872H352.032H361.099V300.975V349.079H352.032H342.964V368.139V387.199H351.125H359.286V396.729V406.259H367.9H376.514V413.973V421.688H385.128H393.742V443.471C393.742 464.648 393.692 465.253 391.929 465.253C390.242 465.253 390.115 465.858 390.115 473.876V482.498H355.205H320.295V491.12V499.743H287.652H255.009V507.892V516.042L236.647 516.288L218.286 516.534V526.518V536.502L238.461 536.746L258.636 536.99V528.351V519.711H289.919H321.202V528.333V536.956H339.337H357.472V544.67V552.385H383.315H409.157V562.822V573.26H428.652H448.147V585.966V598.673H430.466H412.784V591.412V584.151H378.781H344.778V575.075V565.999H308.961H273.144V558.285V550.57H255.009H236.874V561.007V571.445H254.102H271.331V579.159V586.874H304.427H337.524V595.497V604.119H372.887H408.25V611.38V618.641H392.364H376.479L377.094 642.692L377.71 666.744H359.43H341.151V672.644V678.543H326.189C316.82 678.543 311.23 678.206 311.23 677.638Z" fill="#1A1A1A"/>
<path d="M411.88 540.267V530.746H386.037H360.195V523.038V515.331H342.06H323.925V509.437V503.543H359.288H394.651V495.382V487.222H421.401H448.15V518.505V549.788H430.015H411.88V540.267Z" fill="#1A1A1A"/>
<path d="M408.358 611.354V604.06H373.013H337.669V595.485V586.909H304.568C275.252 586.909 271.468 586.883 271.468 586.668C271.468 586.455 275.27 586.428 304.728 586.428H337.989V594.923V603.419H373.414H408.838V611.033C408.838 617.694 408.808 618.647 408.598 618.647C408.388 618.647 408.358 617.73 408.358 611.354Z" fill="#1A1A1A"/>
<path d="M409.159 573.124C409.159 573.018 415.784 572.964 428.715 572.964C441.645 572.964 448.27 573.018 448.27 573.124C448.27 573.23 441.645 573.284 428.715 573.284C415.784 573.284 409.159 573.229 409.159 573.124Z" fill="#1A1A1A"/>
<path d="M357.459 544.832C357.459 540.601 357.479 538.893 357.505 541.036C357.531 543.18 357.531 546.643 357.505 548.731C357.479 550.818 357.459 549.064 357.459 544.832Z" fill="#1A1A1A"/>
<path d="M357.545 544.752V537.058H339.432H321.319V528.402V519.747H289.902H258.484V528.402V537.058L257.963 537.054C257.677 537.052 249.364 536.946 239.49 536.817C229.616 536.689 220.834 536.583 219.974 536.581C218.415 536.577 218.411 536.576 218.411 536.177C218.411 535.956 218.483 535.776 218.571 535.776C218.659 535.776 218.731 535.92 218.731 536.097C218.731 536.416 218.838 536.417 238.367 536.417C257.896 536.417 258.003 536.416 258.003 536.097C258.003 535.92 258.075 535.776 258.163 535.776C258.268 535.776 258.323 532.944 258.323 527.601V519.426H289.981H321.638V527.922V536.417H339.912H358.185V544.432C358.185 552.34 358.181 552.447 357.865 552.447C357.549 552.447 357.545 552.34 357.545 544.752Z" fill="#1A1A1A"/>
<path d="M359.949 523.433V516.06H341.996C324.151 516.06 324.044 516.058 324.044 515.739C324.044 515.421 324.15 515.419 342.077 515.419H360.11V523.113C360.11 527.344 360.074 530.807 360.029 530.807C359.983 530.807 359.949 527.489 359.949 523.433Z" fill="#1A1A1A"/>
<path d="M344.561 575.528V566.712H308.495H272.43V558.778C272.43 550.95 272.434 550.843 272.75 550.843C273.066 550.843 273.071 550.95 273.071 558.537V566.231H308.896H344.722V575.288C344.722 580.269 344.686 584.344 344.642 584.344C344.595 584.344 344.561 580.377 344.561 575.528Z" fill="#1A1A1A"/>
<path d="M237.005 561.182C237.005 554.396 237.06 550.843 237.165 550.843C237.27 550.843 237.325 554.316 237.325 560.942V571.04H254.316C269.312 571.04 271.307 571.071 271.307 571.281C271.307 571.493 269.294 571.521 254.156 571.521H237.004L237.005 561.182Z" fill="#1A1A1A"/>
<path d="M220.97 643.126C230.673 643.095 246.485 643.095 256.106 643.126C265.728 643.157 257.789 643.186 238.463 643.186C219.138 643.186 211.266 643.16 220.97 643.126Z" fill="#1A1A1A"/>
<path d="M203.44 651.665V643.26L252.575 643.385C280.442 643.457 302.495 643.602 303.523 643.721C304.671 643.855 286.713 643.913 254.615 643.882L203.894 643.83V651.95C203.894 657.212 203.814 660.07 203.667 660.07C203.52 660.07 203.44 657.118 203.44 651.665Z" fill="#1A1A1A"/>
<path d="M188.813 627.768C188.813 618.292 188.839 614.449 188.875 619.227C188.911 624.005 188.911 631.758 188.875 636.455C188.839 641.153 188.813 637.243 188.813 627.768Z" fill="#1A1A1A"/>
<path d="M171.024 653.157V644.656H179.638H188.252V627.541C188.252 616.282 188.33 610.426 188.479 610.426C188.628 610.426 188.706 616.32 188.706 627.655V644.883H180.091H171.477V653.155V661.428L187.402 661.488L203.327 661.548L187.175 661.603L171.024 661.658V653.157Z" fill="#1A1A1A"/>
<path d="M341.266 667.098C341.266 666.949 347.425 666.871 359.288 666.871C371.151 666.871 377.31 666.949 377.31 667.098C377.31 667.247 371.151 667.325 359.288 667.325C347.425 667.325 341.266 667.247 341.266 667.098Z" fill="#1A1A1A"/>
<path d="M310.664 678.093V677.299H309.19H307.717V661.223C307.717 652.381 307.651 644.96 307.57 644.731C307.459 644.416 307.489 644.376 307.696 644.566C308.094 644.932 308.378 652.097 308.392 662.111C308.408 674.281 308.689 676.846 310 676.846C310.252 676.846 310.703 677.109 311.002 677.432C311.705 678.19 313.157 678.382 320.071 678.63L325.285 678.816L317.975 678.852L310.664 678.888L310.664 678.093Z" fill="#1A1A1A"/>
<path d="M421.685 598.771C426.59 598.72 434.525 598.72 439.317 598.771C444.109 598.822 440.096 598.862 430.398 598.862C420.7 598.862 416.779 598.821 421.685 598.771Z" fill="#1A1A1A"/>
<path d="M412.485 591.758V584.385H378.583H344.681L344.697 583.603L344.712 582.822L344.738 583.563L344.763 584.304H378.742H412.721V591.544V598.785L417.831 598.838C420.641 598.869 426.312 598.891 430.434 598.891C434.555 598.891 440.227 598.866 443.037 598.838L448.146 598.785V586.054V573.324L445.401 573.309C443.891 573.299 442.8 573.283 442.977 573.273C443.153 573.258 444.424 573.237 445.802 573.227L448.306 573.206V586.17V599.134H430.394H412.481L412.485 591.758Z" fill="#1A1A1A"/>
<path d="M421.442 598.756L412.806 598.73V591.478V584.225H378.824H344.842V575.128V566.031H334.383H323.924V551.565V537.099H340.674H357.425V544.833V552.567H383.272H409.119V562.986V573.405H428.595H448.07V586.068V598.731L439.835 598.731C435.306 598.732 431.257 598.742 430.839 598.757C430.42 598.772 426.191 598.772 421.442 598.756Z" fill="#1A1A1A"/>
<path d="M341.636 503.437C351.356 503.416 367.261 503.416 376.98 503.437C386.7 503.457 378.748 503.478 359.308 503.478C339.869 503.478 331.916 503.457 341.636 503.437Z" fill="#1A1A1A"/>
<path d="M342.838 503.44C343.168 503.404 343.71 503.404 344.04 503.44C344.371 503.476 344.1 503.503 343.439 503.503C342.778 503.503 342.507 503.473 342.838 503.44Z" fill="#1A1A1A"/>
<path d="M341.568 503.116C351.251 503.096 367.048 503.096 376.673 503.116C386.297 503.137 378.375 503.157 359.068 503.157C339.76 503.157 331.886 503.137 341.568 503.116Z" fill="#1A1A1A"/>
<path d="M411.884 540.184V530.646H386.077H360.27V522.952V515.258H342.157H324.044V509.408V503.557H359.388H394.733V495.462V487.367H421.421H448.79L448.677 518.544V549.835L429.997 549.721H411.884L411.884 540.184Z" fill="#1A1A1A"/>
<path d="M323.953 503.317V503.12L345.559 503.156C357.443 503.177 373.254 503.172 380.696 503.146L394.226 503.1V495.031V486.962H400.262C406.26 486.962 406.297 486.963 406.297 487.076C406.297 487.189 406.262 487.189 400.46 487.189H394.623V495.35V503.511L387.497 503.5C383.577 503.495 380.549 503.475 380.767 503.454C380.985 503.434 371.332 503.418 359.316 503.418C347.301 503.418 337.635 503.434 337.838 503.454C338.04 503.475 334.999 503.495 331.08 503.5L323.953 503.511V503.317Z" fill="#1A1A1A"/>
<path d="M408.045 487.207C415.411 487.197 427.448 487.197 434.794 487.207C442.14 487.218 436.113 487.223 421.401 487.223C406.689 487.223 400.678 487.218 408.045 487.207Z" fill="#1A1A1A"/>
<path d="M433.883 487.207C434.295 487.197 434.971 487.197 435.384 487.207C435.797 487.218 435.459 487.223 434.633 487.223C433.807 487.223 433.47 487.213 433.883 487.207Z" fill="#1A1A1A"/>
<path d="M391.086 465.655C391.196 465.597 391.568 465.529 391.913 465.504C392.293 465.479 392.619 465.407 392.742 465.326C393.174 465.043 393.406 464.133 393.569 462.081C393.719 460.188 393.804 450.938 393.807 435.974L393.811 421.928H385.195H376.58V418.081V414.234H376.78H376.981V418.041V421.848H385.596H394.212V443.808V465.768L392.549 465.765C391.12 465.762 390.914 465.744 391.086 465.655Z" fill="#1A1A1A"/>
<path d="M359.286 397C359.286 391.763 359.301 389.638 359.316 392.276C359.332 394.915 359.332 399.199 359.316 401.797C359.301 404.395 359.286 402.236 359.286 397Z" fill="#1A1A1A"/>
<path d="M376.573 410.318V406.464H367.959H359.345V396.944V387.424L351.156 387.393L342.967 387.362L351.383 387.336L359.798 387.311V396.662V406.013H368.412H377.027V410.093C377.027 414.098 377.022 414.173 376.8 414.173C376.578 414.173 376.573 414.096 376.573 410.318Z" fill="#1A1A1A"/>
<path d="M204.759 496.941L204.775 473.28L205.087 490.962C205.258 500.687 205.437 511.334 205.484 514.623L205.569 520.601H205.156H204.743L204.759 496.941Z" fill="#1A1A1A"/>
<path d="M188.082 456.902V440.694H179.581H171.081V414.795V388.896H178.278H185.475V403.8V418.705H195.903H206.331V403.8V388.896H213.358H220.385V396.093C220.385 400.061 220.339 403.29 220.287 403.29C220.162 403.29 220.088 401.919 219.872 395.583C219.776 392.747 219.67 390.158 219.636 389.831L219.576 389.236H213.237H206.898V404.197V419.158H196.073H185.249V404.197V389.236H178.392H171.534V414.681V440.127H180.148H188.763V456.449V472.77H196.753C203.781 472.77 204.744 472.791 204.744 472.94C204.744 473.09 203.743 473.11 196.413 473.11H188.083L188.082 456.902Z" fill="#1A1A1A"/>
<path d="M377.669 684.856C377.494 684.821 377.48 684.134 377.48 675.761L377.82 667.495L359.175 667.381L341.362 668.056L341.408 672.607L341.099 678.513L340.603 678.279C342.176 679.021 340.519 679.53 338.147 679.228C336.886 679.067 311.457 679.114 311.032 679.207C310.138 679.405 307.851 679.238 307.279 679.238C307.012 679.238 307.635 676.902 307.463 676.618C306.87 675.643 307.629 673.839 307.509 661.657C307.414 651.894 307.535 648.256 307.315 645.816C307.195 644.466 307.844 644.989 305.338 644.716C301.147 644.261 289.865 645.594 243.141 644.262L203.272 644.145L203.952 652.192L204.292 661.827L187.234 661.94L170.629 661.827L171.083 653.042L170.629 644.372H180.49L187.857 644.598L187.517 627.823L187.857 610.028L197.265 609.802L205.539 609.915L205.312 594.5L205.199 578.179L238.692 578.406H271.278V582.713V587.02H304.375H337.471V595.634V604.248H362.52H387.569V611.445V618.643H382.015H376.462V619.405C376.462 620.089 377.317 653.982 377.4 656.613C377.421 657.205 370.079 650.525 370.091 644.4C370.117 633.332 377.479 635.418 377.255 635.418C377.031 635.418 368.579 634.241 372.495 626.973C373.982 624.212 366.145 612.709 377.028 618.756H382.299H387.57V651.793V684.831L382.715 684.862C380.045 684.877 377.773 684.877 377.669 684.856Z" fill="#1A1A1A"/>
<path d="M264.335 241.078H138.666V268.648H264.335V241.078Z" fill="#800000"/>
<path d="M379.237 200.688H360.195V252.826H379.237V200.688Z" fill="black"/>
<path d="M360.19 167.344H343.68V202.608H360.19V167.344Z" fill="black"/>
<path d="M344.161 150.994H326.208V170.229H344.161V150.994Z" fill="black"/>
<path d="M327.65 136.567H277.479V154.199H327.65V136.567Z" fill="black"/>
<path d="M278.28 115.89H255.679V138.01H278.28V115.89Z" fill="black"/>
<path d="M258.564 97.937H223.3V117.172H258.564V97.937Z" fill="black"/>
<path d="M225.544 80.946H190.28V100.181H225.544V80.946Z" fill="black"/>
<path d="M191.081 62.5122H155.817V81.7473H191.081V62.5122Z" fill="black"/>
<path d="M158.031 47.6929H122.767V66.928H158.031V47.6929Z" fill="black"/>
<path d="M124.108 31.9937H88.8438V51.2287H124.108V31.9937Z" fill="black"/>
<path d="M91.3493 15.8411H56.085V35.0762H91.3493V15.8411Z" fill="black"/>
<path d="M56.493 0H14.428V19.2351H56.493V0Z" fill="black"/>
<path d="M16.2226 14.6768H0V52.5003H16.2226V14.6768Z" fill="black"/>
<path d="M36.3401 51.0625H14.2236V72.1111H36.3401V51.0625Z" fill="black"/>
<path d="M66.0939 67.6416H32.6431V88.6902H66.0939V67.6416Z" fill="black"/>
<path d="M104.293 83.6252H64.4949V104.674H104.293V83.6252Z" fill="black"/>
<path d="M142.465 100.373H102.667V121.422H142.465V100.373Z" fill="black"/>
<path d="M174.49 116.584H134.692V137.632H174.49V116.584Z" fill="black"/>
<path d="M205.378 135.257H165.58V156.305H205.378V135.257Z" fill="black"/>
<path d="M170.856 151.071H152.378V185.052H170.856V151.071Z" fill="black"/>
<path d="M186.798 153.559H170.083V183.533H186.798V153.559Z" fill="#1A1A1A"/>
<path d="M225.589 153.238H185.471V167.503H225.589V153.238Z" fill="#1A1A1A"/>
<path d="M308.264 167.133H223.242V184.533H308.264V167.133Z" fill="#1A1A1A"/>
<path d="M344.228 184.014H257.282V201.414H344.228V184.014Z" fill="#1A1A1A"/>
<path d="M326.271 153.953H277.608V169.806H326.271V153.953Z" fill="#1A1A1A"/>
<path d="M342.923 184.014H308.255V201.164H342.923V184.014Z" fill="#1A1A1A"/>
<path d="M361.837 200.911H281.535V269.129H361.837V200.911Z" fill="#1A1A1A"/>
<path d="M411.1 460.779C409.268 459.218 406.121 453.351 406.497 452.197C407.001 450.648 408.705 448.83 410.679 447.733C412.364 446.796 412.521 446.816 413.993 448.142C415.467 449.471 420.824 451.479 422.892 451.479C425.156 451.479 426.132 452.673 426.132 455.442C426.132 459.914 425.958 460.078 421.163 460.078C418.821 460.078 415.865 460.461 414.594 460.931C412.545 461.689 412.15 461.675 411.1 460.779ZM419.64 454.274C421.034 453.371 420.092 452.83 416.401 452.417C411.929 451.915 410.916 452.436 411.926 454.77C412.559 456.226 412.629 456.237 415.789 455.47C417.559 455.039 419.292 454.501 419.64 454.274Z" fill="#1A1A1A"/>
<path d="M422.166 448.543H409.159V457.072H422.166V448.543Z" fill="#1A1A1A"/>
<path d="M275.98 176.206H275.754V176.659H275.98V176.206Z" fill="#1A1A1A"/>
<path d="M393.518 443.527L388.134 426.639L380.824 426.469L372.549 422.332L371.699 419.669L365.012 420.745L364.219 408.504L355.831 406.747L354.924 396.32L355.378 390.596L351.864 393.033L340.813 387.479L338.716 368.097L340.927 347.128L352.544 347.638L358.211 346.222L353.634 306.734L360.086 267.974L368.729 267.814L376.57 267.855V275.95V283.683H384.864L393.558 283.843L393.718 292.951V301.938L402.278 301.818L411.64 301.898L411.599 325.7V350.064L402.504 350.105L394.411 349.985L394.291 375.96L394.332 402.015L406.931 401.935L406.905 402.456V419.217L406.778 435.199L416.752 435.312H427.066V450.954L427.633 465.915L410.915 466.029L390.456 465.915L393.518 443.527ZM420.04 459.168L424.121 458.659L424.259 456.242C424.336 454.898 424.17 453.55 423.884 453.206C423.602 452.866 422.254 452.356 420.888 452.072C419.522 451.789 417.261 450.956 415.864 450.221L413.324 448.885L411.564 450.05C408.987 451.755 408.547 453.022 409.704 455.405C410.218 456.462 411.207 458.003 411.901 458.828C413.002 460.136 413.344 460.287 414.562 460.003C415.331 459.823 417.796 459.447 420.04 459.168Z" fill="#1A1A1A"/>
<path d="M413.922 455.716C413.682 455.58 413.213 454.626 413.148 454.144C413.038 453.327 413.836 453.044 415.844 453.191C417.968 453.346 419.529 453.669 419.7 453.99C419.926 454.412 418.851 454.856 416.03 455.508C414.693 455.817 414.188 455.867 413.922 455.716Z" fill="#1A1A1A"/>
<path d="M409.13 453.005C409.13 452.897 409.194 452.615 409.257 452.448C409.503 451.797 410.008 451.206 410.882 450.547C411.161 450.337 411.412 450.166 412.432 449.491C413.246 448.952 413.324 448.904 413.369 448.925C413.395 448.935 413.943 449.223 414.584 449.561C416.359 450.496 416.733 450.676 417.675 451.052C418.891 451.538 419.901 451.861 420.939 452.095C421.236 452.162 421.606 452.253 421.761 452.297C422.12 452.398 422.72 452.595 422.708 452.607C422.703 452.612 422.623 452.602 422.531 452.587C422.438 452.571 422.174 452.545 421.942 452.535C421.349 452.51 420.883 452.437 420.179 452.262C418.639 451.877 416.696 451.131 415.621 450.511C415.299 450.325 415.134 450.208 414.795 449.924C414.34 449.543 414.115 449.395 413.88 449.319C413.703 449.262 413.438 449.283 413.187 449.378C412.784 449.528 411.926 450.001 411.486 450.316C410.879 450.749 410.278 451.305 409.877 451.804C409.592 452.159 409.318 452.61 409.187 452.943C409.131 453.083 409.13 453.083 409.13 453.005Z" fill="#1A1A1A"/>
<path d="M223.62 167.344H186.433V183.373H223.62V167.344Z" fill="#FFCCAA"/>
<path d="M344 168.786H306.812V184.815H344V168.786Z" fill="#FFCCAA"/>
<path d="M225.769 159.884V152.857H215.795H205.821V144.016V135.175H190.188H174.556L174.434 125.768L174.311 116.36L158.556 116.241L142.801 116.122V108.194V100.266H123.76H104.718V91.8783V83.4908H85.4493H66.1809V75.5568V67.6226H51.4462H36.7115V59.2353V50.8478H26.5105H16.3096V35.2065V19.5649H36.0314H55.7533V27.4989V35.4331H72.0748H88.3963V43.3671V51.3011H105.398H122.399V59.2353V67.1693H138.948H155.496V74.65V82.1307H172.724H189.952V91.1983V100.266H206.501H223.049V108.88V117.494H239.135H255.221L255.344 127.808L255.466 138.123L266.46 138.244L277.454 138.366V152.639V166.912H251.612H225.77L225.769 159.884Z" fill="#F9F9F9"/>
<path d="M321.733 281.792H301.215V408.744H321.733V281.792Z" fill="black"/>
<path d="M302.405 225.492H281.435V282.17H302.405V225.492Z" fill="black"/>
<path d="M337.542 406.001H322.012V461.32H337.542V406.001Z" fill="black"/>
<path d="M429.258 460.358H337.589V472.398H429.258V460.358Z" fill="black"/>
<path d="M281.326 200.043H256.32V225.369H281.326V200.043Z" fill="black"/>
</svg>
