<svg width="466" height="817" viewBox="0 0 466 817" fill="none" xmlns="http://www.w3.org/2000/svg">
<path d="M332.943 654.152H247.668V688.744H332.943V654.152Z" fill="black"/>
<path d="M352.655 670.401H262.415V725.817H352.655V670.401Z" fill="black"/>
<path d="M369.81 725.652H279.726V781.098H369.81V725.652Z" fill="black"/>
<path d="M350.896 776.598H299.282V797.98H350.896V776.598Z" fill="black"/>
<path d="M222.343 797.778H170.205V816.475H222.343V797.778Z" fill="black"/>
<path d="M242.745 678.705H222.343V801.201H242.745V678.705Z" fill="black"/>
<path d="M187.886 641.789H170.028V810.287H187.886V641.789Z" fill="black"/>
<path d="M212.596 624.239H187.014V642.094H212.596V624.239Z" fill="black"/>
<path d="M256.1 658.147H238.308V694.349H256.1V658.147Z" fill="black"/>
<path d="M225.164 693.694H187.655V713.168H225.164V693.694Z" fill="#550000"/>
<path d="M224.655 733.582H187.147V753.056H224.655V733.582Z" fill="#550000"/>
<path d="M239.109 659.622H205.448V677.64H239.109V659.622Z" fill="#550000"/>
<path d="M205.768 641.603H187.174V660.113H205.768V641.603Z" fill="#550000"/>
<path d="M257.382 641.439H238.789V659.949H257.382V641.439Z" fill="#550000"/>
<path d="M188.113 723.184V713.222H205.114H222.116V723.184V733.145H205.114H188.113V723.184Z" fill="#1A1A1A"/>
<path d="M188.113 676.852V660.404H196.727H205.341V669.207V678.01L221.776 678.115C230.815 678.172 234.589 678.281 230.163 678.357L222.116 678.494V685.897V693.3H205.114H188.113V676.852Z" fill="#1A1A1A"/>
<path d="M188.113 775.307V753.068H205.114H222.116V775.307V797.546H205.114H188.113V775.307Z" fill="#333333"/>
<path d="M189.318 693.489V693.304H205.728H222.138V685.917V678.529L222.91 678.503C223.334 678.488 225.43 678.45 227.568 678.416C231.463 678.354 232.098 678.332 231.986 678.268C231.846 678.188 225.643 678.109 214.925 678.05C212.732 678.039 209.68 678.019 208.143 678.003L205.348 677.977V669.771C205.348 664.328 205.363 661.565 205.389 661.565C205.414 661.565 205.43 664.275 205.43 669.612V677.659H221.86H238.29V678.171V678.683H230.315H222.341V686.177V693.671H205.83H189.32L189.318 693.489Z" fill="#1A1A1A"/>
<path d="M193.341 733.362V733.159H207.736H222.13V723.183V713.208L207.728 713.202L193.327 713.197L207.828 713.192L222.329 713.187V723.38V733.573H207.835H193.341V733.362Z" fill="#1A1A1A"/>
<path d="M187.915 723.386C187.915 714.365 187.925 713.194 188 713.194C188.075 713.194 188.085 714.342 188.085 723.184V733.174H190.692H193.299V733.377V733.58H190.607H187.915L187.915 723.386Z" fill="#1A1A1A"/>
<path d="M187.916 780.696C187.916 763.646 187.916 763.619 187.996 763.619C188.076 763.619 188.076 763.645 188.076 780.593V797.568H205.107H222.138V780.593V763.619H222.238H222.338V780.696V797.773H205.126H187.915L187.916 780.696Z" fill="#1A1A1A"/>
<path d="M188.176 775.311V753.115H205.127H222.078V775.311V797.507H205.127H188.176V775.311Z" fill="#1A1A1A"/>
<path d="M222.356 758.356C222.356 755.451 222.367 754.262 222.377 755.715C222.387 757.168 222.387 759.545 222.377 760.998C222.367 762.451 222.356 761.262 222.356 758.356Z" fill="#333333"/>
<path d="M222.138 758.357V753.094H222.238H222.338V758.357V763.619H222.238H222.138V758.357Z" fill="#333333"/>
<path d="M187.921 758.449C187.916 753.12 187.916 753.094 187.996 753.094C188.076 753.094 188.076 753.121 188.071 758.449C188.068 761.394 188.056 763.762 188.051 763.711C188.04 763.659 188.02 763.619 187.999 763.619C187.978 763.619 187.958 763.661 187.947 763.711C187.937 763.764 187.926 761.394 187.926 758.449H187.921Z" fill="#333333"/>
<path d="M187.956 758.397C187.956 754.944 187.971 753.176 187.997 753.176C188.022 753.176 188.038 754.944 188.038 758.397C188.038 761.851 188.022 763.619 187.997 763.619C187.971 763.619 187.956 761.851 187.956 758.397Z" fill="#333333"/>
<path d="M187.915 676.91V660.144H196.67H205.426L205.416 660.853L205.406 661.562L205.385 660.969L205.365 660.375H196.724H188.084V676.852V693.329H188.679H189.274V693.502V693.676H188.594H187.914L187.915 676.91Z" fill="#333333"/>
<path d="M380.289 765.169H362.817V782.005H380.289V765.169Z" fill="#1A1A1A"/>
<path d="M397.119 781.843H379.647V815.839H397.119V781.843Z" fill="#1A1A1A"/>
<path d="M451.298 799.65H380.289V816.486H451.298V799.65Z" fill="#1A1A1A"/>
<path d="M451.258 759.887H433.786V799.731H451.258V759.887Z" fill="#1A1A1A"/>
<path d="M434.628 693.78H417.156V760.819H434.628V693.78Z" fill="#1A1A1A"/>
<path d="M418.059 625.142H399.743V695.42H418.059V625.142Z" fill="#1A1A1A"/>
<path d="M364.099 729.717H346.627V766.95H364.099V729.717Z" fill="#1A1A1A"/>
<path d="M331.239 679.534H313.286V697.179H331.239V679.534Z" fill="#1A1A1A"/>
<path d="M347.91 697.056H329.957V731.498H347.91V697.056Z" fill="#1A1A1A"/>
<path d="M385.272 612.812H312.434V629.753H385.272V612.812Z" fill="#1A1A1A"/>
<path d="M333.29 628.379H312.888V679.661H333.29V628.379Z" fill="#1A1A1A"/>
<path d="M397.442 790.466V781.537H389.055H380.667V773.295V765.054H372.507H364.346V747.197V729.34H356.185H348.024V713.085V696.831H339.637H331.25V688.36V679.89H332.383H333.516V654.936V629.982H359.586C385.352 629.982 385.655 629.971 385.655 629.066C385.655 628.19 385.957 628.15 392.682 628.15H399.709V661.804V695.457H408.323H416.938V728.195V760.933H425.325H433.712V780.163V799.394H415.577H397.442V790.466Z" fill="#1A1A1A"/>
<path d="M333.363 679.682C333.297 679.615 333.245 668.336 333.248 654.618C333.251 638.375 333.307 629.768 333.409 629.944C333.594 630.265 333.549 679.869 333.363 679.682Z" fill="#1A1A1A"/>
<path d="M358.649 629.753L333.163 629.672L359.01 629.631C373.226 629.61 384.857 629.621 384.857 629.651C384.857 629.815 382.41 629.828 358.649 629.753Z" fill="#1A1A1A"/>
<path d="M340.589 629.795C344.584 629.77 351.076 629.77 355.015 629.795C358.953 629.821 355.684 629.837 347.749 629.837C339.815 629.836 336.593 629.816 340.589 629.795Z" fill="#1A1A1A"/>
<path d="M385.35 628.817L385.34 628.136L385.941 628.152C386.438 628.167 386.475 628.187 386.154 628.276C385.905 628.345 385.695 628.583 385.565 628.941L385.364 629.498L385.35 628.817Z" fill="#1A1A1A"/>
<path d="M417.154 728.099C417.154 710.114 417.175 702.78 417.195 711.802C417.216 720.824 417.216 735.539 417.195 744.502C417.175 753.466 417.154 746.084 417.154 728.099Z" fill="black"/>
<path d="M380.209 815.84C379.899 815.485 379.808 811.582 379.808 798.693V782.005H371.312H362.817V774.397V766.788H354.802H346.788V749.143V731.498H338.452H330.117V714.339V697.179H321.782H313.447V688.437V679.696H322.263H331.079V688.437V697.179H339.414H347.749V713.529V729.879H355.924H364.099V747.524V765.17H372.114H380.129V773.587V782.005H388.624H397.12V790.909V799.812H424.209H451.298V808.068V816.324L415.954 816.314C385.837 816.304 380.55 816.232 380.209 815.84Z" fill="black"/>
<path d="M433.987 780.062V760.637H425.652H417.316V727.936V695.236H408.661H400.005V660.27V625.303H408.981H417.958V659.622V693.941H426.293H434.628V726.965V759.989H442.803H450.978V779.739V799.488H442.482H433.987V780.062Z" fill="black"/>
<path d="M307.293 644.053H222.338V661.525H307.293V644.053Z" fill="black"/>
<path d="M307.614 645.015H289.661V680.76H307.614V645.015Z" fill="black"/>
<path d="M343.199 678.677H325.246V712.499H343.199V678.677Z" fill="black"/>
<path d="M433.269 625.102H399.848V642.574H433.269V625.102Z" fill="black"/>
<path d="M465.95 466.216H448.35V626.017H465.95V466.216Z" fill="black"/>
<path d="M449.579 432.395H427.093V467.755H449.579V432.395Z" fill="black"/>
<path d="M429.293 400.543H406.806V435.903H429.293V400.543Z" fill="black"/>
<path d="M412.175 366.736H394.223V402.096H412.175V366.736Z" fill="black"/>
<path d="M411.522 280.448H393.569V301.98H411.522V280.448Z" fill="black"/>
<path d="M394.436 266.611H376.483V283.836H394.436V266.611Z" fill="black"/>
<path d="M379.359 250.685H361.406V267.91H379.359V250.685Z" fill="black"/>
<path d="M412.229 349.961H394.276V370.153H412.229V349.961Z" fill="black"/>
<path d="M429.511 300.96H411.558V355.156H429.511V300.96Z" fill="black"/>
<path d="M171.178 200.606H138.879V219.04H171.178V200.606Z" fill="black"/>
<path d="M138.826 217.916H120.873V270.011H138.826V217.916Z" fill="black"/>
<path d="M155.015 268.328H137.062V393.196H155.015V268.328Z" fill="black"/>
<path d="M171.045 388.547H153.092V474.624H171.045V388.547Z" fill="black"/>
<path d="M188.036 440.802H170.083V492.898H188.036V440.802Z" fill="black"/>
<path d="M204.706 473.182H186.753V525.277H204.706V473.182Z" fill="black"/>
<path d="M188.058 592.439H170.083V646.744H188.058V592.439Z" fill="black"/>
<path d="M205.668 520.628H187.715V610.232H205.668V520.628Z" fill="black"/>
<path d="M257.455 183.373H169.442V201.865H257.455V183.373Z" fill="black"/>
<path d="M325.246 678.997H307.293V696.469H325.246V678.997Z" fill="black"/>
<path d="M258.186 517.144H218.515V535.733H258.186V517.144Z" fill="#800000"/>
<path d="M324.566 499.916H255.012V520.293H324.566V499.916Z" fill="#550000"/>
<path d="M394.652 482.688H320.185V503.77H394.652V482.688Z" fill="#550000"/>
<path d="M448.671 465.808H389.078V487.534H448.671V465.808Z" fill="#550000"/>
<path d="M448.351 549.801H406.859V576.284H448.351V549.801Z" fill="#550000"/>
<path d="M412.257 530.705H357.473V552.684H412.257V530.705Z" fill="#550000"/>
<path d="M360.671 514.376H319.956V536.898H360.671V514.376Z" fill="#550000"/>
<path d="M258.965 515.979H218.17V537.058H258.965V515.979Z" fill="#550000"/>
<path d="M275.074 548.519H235.803V572.883H275.074V548.519Z" fill="#550000"/>
<path d="M347.366 563.747H269.625V587.31H347.366V563.747Z" fill="#550000"/>
<path d="M413.888 580.417H335.169V607.154H413.888V580.417Z" fill="#550000"/>
<path d="M448.351 599.171H406.765V619.576H448.351V599.171Z" fill="#550000"/>
<path d="M206.309 264.801H185.471V418.682H206.309V264.801Z" fill="#F2F2F2"/>
<path d="M274.594 335.971H154.374V388.868H274.594V335.971Z" fill="#F2F2F2"/>
<path d="M242.214 386.303H220.415V403.294H242.214V386.303Z" fill="#F2F2F2"/>
<path d="M293.829 317.377H256.641V336.933H293.829V317.377Z" fill="#F2F2F2"/>
<path d="M293.508 283.395H256.32V302.951H293.508V283.395Z" fill="#F2F2F2"/>
<path d="M276.197 300.707H256.32V320.262H276.197V300.707Z" fill="#F2F2F2"/>
<path d="M257.282 284.357H206.63V336.292H257.282V284.357Z" fill="#808080"/>
<path d="M185.471 284.357H154.695V336.292H185.471V284.357Z" fill="#808080"/>
<path d="M276.197 264.801H155.015V284.357H276.197V264.801Z" fill="#F2F2F2"/>
<path d="M311.23 677.638C311.23 677.14 310.618 676.731 309.87 676.731C308.715 676.731 308.51 674.42 308.51 661.376C308.51 652.93 308.262 645.375 307.96 644.585C307.467 643.3 301.986 643.149 255.368 643.149H203.327V652.225V661.301H187.459L187.323 661.919L187.765 661.977L187.676 661.233L187.717 661.407L188.818 644.967V627.723V610.478H197.432H206.046L205.479 577.045C205.168 558.659 204.683 527.091 204.661 507.941L204.622 473.427L197.265 473.369L188.064 473.272L188.814 456.185V439.848H180.203H171.589V414.435V389.022H178.389H185.19V403.997V418.973H196.071H206.952V403.997V389.022H213.261H219.57L219.835 396.055L220.099 403.089L231.207 403.343L242.315 403.597V396.309V389.02H258.636H274.958V363.153V337.286H284.479H294V326.848V316.411H285.386H276.771V309.604V302.797H285.386H294V292.813V282.829H285.417H276.835L276.576 273.526L276.318 264.223L215.709 263.988C155.693 263.758 155.096 263.773 154.624 265.576C154.195 267.216 153.395 267.398 146.547 267.398H138.945V242.893V218.387H154.813H170.681V209.765V201.143H229.167H287.652V209.765V218.387H306.694H325.736V227.01V235.632H334.35H342.964V244.254V252.877H352.032H361.099V300.98V349.084H352.032H342.964V368.143V387.203H351.125H359.286V396.733V406.263H367.9H376.514V413.978V421.693H385.128H393.742V443.475C393.742 464.653 393.692 465.258 391.929 465.258C390.242 465.258 390.115 465.863 390.115 473.88V482.503H355.205H320.295V491.125V499.747H287.652H255.009V507.897V516.047L236.647 516.293L218.286 516.539V526.523V536.507L238.461 536.751L258.636 536.995V528.355V519.716H289.919H321.202V528.338V536.96H339.337H357.472V544.675V552.39H383.315H409.157V562.827V573.265H428.652H448.147V585.971L448.236 598.987L430.599 599.162L412.785 599.065V591.406V584.145H378.782H344.778V575.069V565.993H308.962H273.145V558.279V550.564H255.01H236.875V561.001V571.439H254.103H271.332V579.153V586.868H304.428H337.524V595.491V604.113H372.888H408.251V611.374V618.635L448.669 619.342L448.692 625.706L399.867 625.33L399.937 629.44L377.094 642.687L377.709 666.738H359.429H341.15V672.638V678.538H326.189C316.82 678.538 311.23 678.206 311.23 677.638Z" fill="#1A1A1A"/>
<path d="M411.88 540.267V530.746H386.037H360.195V523.038V515.331H342.06H323.925V509.437V503.543H359.288H394.651V495.382V487.222H421.401H448.15V518.505V549.788H430.015H411.88V540.267Z" fill="#1A1A1A"/>
<path d="M408.358 611.354V604.06H373.013H337.669V595.485V586.909H304.568C275.252 586.909 271.468 586.883 271.468 586.668C271.468 586.455 275.27 586.428 304.728 586.428H337.989V594.923V603.419H373.414H408.838V611.033C408.838 617.694 408.808 618.647 408.598 618.647C408.388 618.647 408.358 617.73 408.358 611.354Z" fill="#1A1A1A"/>
<path d="M409.159 573.124C409.159 573.018 415.784 572.964 428.715 572.964C441.645 572.964 448.27 573.018 448.27 573.124C448.27 573.23 441.645 573.284 428.715 573.284C415.784 573.284 409.159 573.229 409.159 573.124Z" fill="#1A1A1A"/>
<path d="M357.459 544.832C357.459 540.601 357.479 538.893 357.505 541.036C357.531 543.18 357.531 546.643 357.505 548.731C357.479 550.818 357.459 549.064 357.459 544.832Z" fill="#1A1A1A"/>
<path d="M357.545 544.752V537.058H339.432H321.319V528.402V519.747H289.902H258.484V528.402V537.058L257.963 537.054C257.677 537.052 249.364 536.946 239.49 536.817C229.616 536.689 220.834 536.583 219.974 536.581C218.415 536.577 218.411 536.576 218.411 536.177C218.411 535.956 218.483 535.776 218.571 535.776C218.659 535.776 218.731 535.92 218.731 536.097C218.731 536.416 218.838 536.417 238.367 536.417C257.896 536.417 258.003 536.416 258.003 536.097C258.003 535.92 258.075 535.776 258.163 535.776C258.268 535.776 258.323 532.944 258.323 527.601V519.426H289.981H321.638V527.922V536.417H339.912H358.185V544.432C358.185 552.34 358.181 552.447 357.865 552.447C357.549 552.447 357.545 552.34 357.545 544.752Z" fill="#1A1A1A"/>
<path d="M359.949 523.433V516.06H341.996C324.151 516.06 324.044 516.058 324.044 515.739C324.044 515.421 324.15 515.419 342.077 515.419H360.11V523.113C360.11 527.344 360.074 530.807 360.029 530.807C359.983 530.807 359.949 527.489 359.949 523.433Z" fill="#1A1A1A"/>
<path d="M344.561 575.528V566.712H308.495H272.43V558.778C272.43 550.95 272.434 550.843 272.75 550.843C273.066 550.843 273.071 550.95 273.071 558.537V566.231H308.896H344.722V575.288C344.722 580.269 344.686 584.344 344.642 584.344C344.595 584.344 344.561 580.377 344.561 575.528Z" fill="#1A1A1A"/>
<path d="M237.005 561.182C237.005 554.396 237.06 550.843 237.165 550.843C237.27 550.843 237.325 554.316 237.325 560.942V571.04H254.316C269.312 571.04 271.307 571.071 271.307 571.281C271.307 571.493 269.294 571.521 254.156 571.521H237.004L237.005 561.182Z" fill="#1A1A1A"/>
<path d="M220.97 643.126C230.673 643.095 246.485 643.095 256.106 643.126C265.728 643.157 257.789 643.186 238.463 643.186C219.138 643.186 211.266 643.16 220.97 643.126Z" fill="#1A1A1A"/>
<path d="M203.44 651.665V643.26L252.575 643.385C280.442 643.457 302.495 643.602 303.523 643.721C304.671 643.855 286.713 643.913 254.615 643.882L203.894 643.83V651.95C203.894 657.212 203.814 660.07 203.667 660.07C203.52 660.07 203.44 657.118 203.44 651.665Z" fill="#1A1A1A"/>
<path d="M188.813 627.768C188.813 618.292 188.839 614.449 188.875 619.227C188.911 624.005 188.911 631.758 188.875 636.455C188.839 641.153 188.813 637.243 188.813 627.768Z" fill="#1A1A1A"/>
<path d="M171.024 653.157L170.969 644.684L179.638 644.658L187.075 644.84L188.252 627.543C189.016 616.31 188.329 610.428 188.479 610.428C188.628 610.428 188.705 616.322 188.705 627.656V644.885L180.042 644.653L170.974 644.673L171.03 653.369L170.952 661.614L187.402 661.488L203.327 661.548L187.176 661.603L171.024 661.659L171.024 653.157Z" fill="#1A1A1A"/>
<path d="M341.266 667.098C341.266 666.949 347.425 666.871 359.288 666.871C371.151 666.871 377.31 666.949 377.31 667.098C377.31 667.247 371.151 667.325 359.288 667.325C347.425 667.325 341.266 667.247 341.266 667.098Z" fill="#1A1A1A"/>
<path d="M310.664 678.093V677.299H309.19H307.717V661.223C307.717 652.381 307.651 644.96 307.57 644.731C307.459 644.416 307.489 644.376 307.696 644.566C308.094 644.932 308.378 652.097 308.392 662.111C308.408 674.281 308.689 676.846 310 676.846C310.252 676.846 310.703 677.109 311.002 677.432C311.705 678.19 313.157 678.382 320.071 678.63L325.285 678.816L317.975 678.852L310.885 677.43L310.664 678.093Z" fill="#1A1A1A"/>
<path d="M421.685 598.771C426.59 598.72 434.525 598.72 439.317 598.771C444.109 598.822 440.096 598.862 430.398 598.862C420.7 598.862 416.779 598.821 421.685 598.771Z" fill="#1A1A1A"/>
<path d="M412.485 591.758V584.385H378.583H344.681L344.697 583.603L344.712 582.822L344.738 583.563L344.763 584.304H378.742H412.721V591.544V598.785L417.831 598.838C420.641 598.869 426.312 598.891 430.434 598.891C434.555 598.891 440.227 598.866 443.037 598.838L448.146 598.785V586.054V573.324L445.401 573.309C443.891 573.299 442.8 573.283 442.977 573.273C443.153 573.258 444.424 573.237 445.802 573.227L448.306 573.206V586.17V599.134H430.394H412.481L412.485 591.758Z" fill="#1A1A1A"/>
<path d="M421.442 598.756L412.806 598.73V591.478V584.225H378.824H344.842V575.128V566.031H334.383H323.924V551.565V537.099H340.674H357.425V544.833V552.567H383.272H409.119V562.986V573.405H428.595H448.07V586.068V598.731L439.835 598.731C435.306 598.732 431.257 598.742 430.839 598.757C430.42 598.772 426.191 598.772 421.442 598.756Z" fill="#1A1A1A"/>
<path d="M341.636 503.437C351.356 503.416 367.261 503.416 376.98 503.437C386.7 503.457 378.748 503.478 359.308 503.478C339.869 503.478 331.916 503.457 341.636 503.437Z" fill="#1A1A1A"/>
<path d="M342.838 503.44C343.168 503.404 343.71 503.404 344.04 503.44C344.371 503.476 344.1 503.503 343.439 503.503C342.778 503.503 342.507 503.473 342.838 503.44Z" fill="#1A1A1A"/>
<path d="M341.568 503.116C351.251 503.096 367.048 503.096 376.673 503.116C386.297 503.137 378.375 503.157 359.068 503.157C339.76 503.157 331.886 503.137 341.568 503.116Z" fill="#1A1A1A"/>
<path d="M411.884 540.184V530.646H386.077H360.27V522.952V515.258H342.157H324.044V509.408V503.557H359.388H394.733V495.462V487.367H421.421H448.79L448.677 518.544V549.835L429.997 549.721H411.884L411.884 540.184Z" fill="#1A1A1A"/>
<path d="M323.953 503.317V503.12L345.559 503.156C357.443 503.177 373.254 503.172 380.696 503.146L394.226 503.1V495.031V486.962H400.262C406.26 486.962 406.297 486.963 406.297 487.076C406.297 487.189 406.262 487.189 400.46 487.189H394.623V495.35V503.511L387.497 503.5C383.577 503.495 380.549 503.475 380.767 503.454C380.985 503.434 371.332 503.418 359.316 503.418C347.301 503.418 337.635 503.434 337.838 503.454C338.04 503.475 334.999 503.495 331.08 503.5L323.953 503.511V503.317Z" fill="#1A1A1A"/>
<path d="M408.045 487.207C415.411 487.197 427.448 487.197 434.794 487.207C442.14 487.218 436.113 487.223 421.401 487.223C406.689 487.223 400.678 487.218 408.045 487.207Z" fill="#1A1A1A"/>
<path d="M433.883 487.207C434.295 487.197 434.971 487.197 435.384 487.207C435.797 487.218 435.459 487.223 434.633 487.223C433.807 487.223 433.47 487.213 433.883 487.207Z" fill="#1A1A1A"/>
<path d="M391.086 465.655C391.196 465.597 391.568 465.529 391.913 465.504C392.293 465.479 392.619 465.407 392.742 465.326C393.174 465.043 393.406 464.133 393.569 462.081C393.719 460.188 393.804 450.938 393.807 435.974L393.811 421.928H385.195H376.58V418.081V414.234H376.78H376.981V418.041V421.848H385.596H394.212V443.808V465.768L392.549 465.765C391.12 465.762 390.914 465.744 391.086 465.655Z" fill="#1A1A1A"/>
<path d="M359.286 397C359.286 391.763 359.301 389.638 359.316 392.276C359.332 394.915 359.332 399.199 359.316 401.797C359.301 404.395 359.286 402.236 359.286 397Z" fill="#1A1A1A"/>
<path d="M376.573 410.318V406.464H367.959H359.345V396.944V387.424L351.156 387.393L342.967 387.362L351.383 387.336L359.798 387.311V396.662V406.013H368.412H377.027V410.093C377.027 414.098 377.022 414.173 376.8 414.173C376.578 414.173 376.573 414.096 376.573 410.318Z" fill="#1A1A1A"/>
<path d="M204.759 496.941L204.775 473.28L205.087 490.962C205.258 500.687 205.437 511.334 205.484 514.623L205.569 520.601H205.156H204.743L204.759 496.941Z" fill="#1A1A1A"/>
<path d="M188.082 456.902V440.694H179.581H171.081V414.795V388.896H178.278H185.475V403.8V418.705H195.903H206.331V403.8V388.896H213.358H220.385V396.093C220.385 400.061 220.339 403.29 220.287 403.29C220.162 403.29 220.088 401.919 219.872 395.583C219.776 392.747 219.67 390.158 219.636 389.831L219.576 389.236H213.237H206.898V404.197V419.158H196.073H185.249V404.197V389.236H178.392H171.534V414.681V440.127H180.148H188.763V456.449V472.77H196.753C203.781 472.77 204.744 472.791 204.744 472.94C204.744 473.09 203.743 473.11 196.413 473.11H188.083L188.082 456.902Z" fill="#1A1A1A"/>
<path d="M377.669 684.856C377.494 684.82 377.48 684.133 377.48 675.761L377.82 667.495L359.175 667.381L341.097 667.835V672.607V678.512L329.111 678.455C317.786 678.402 315.282 678.337 312.91 678.034C311.649 677.874 311.36 677.758 311.207 677.351C311.064 676.974 310.5 676.676 309.929 676.676C309.661 676.676 309.534 676.594 309.361 676.31C308.768 675.335 308.687 673.84 308.568 661.658C308.473 651.895 308.371 647.947 308.153 645.508C308.033 644.157 307.842 644.99 305.337 644.718C301.145 644.262 289.864 645.596 243.139 644.263L203.271 644.146L222.851 642.002L222.916 661.703L187.232 661.941L187.156 662.093L187.079 653.221L187.069 644.108H187.384L187.045 644.892L187.517 627.825L187.857 610.03L197.264 609.803L205.538 609.916L205.312 594.502L205.198 578.18L238.691 578.407H271.278V582.714V587.021H304.374H337.471V595.635V604.249H362.52H387.569V611.447V618.644H382.015H376.461V619.407C376.461 620.09 377.316 653.983 377.4 656.614C377.42 657.206 370.078 650.526 370.09 644.401C370.116 633.333 377.478 635.419 377.254 635.419C377.03 635.419 368.579 634.243 372.494 626.975C373.982 624.213 366.145 612.71 377.028 618.757H382.298H387.569V651.795V684.832L382.714 684.863C380.044 684.878 377.773 684.877 377.669 684.856Z" fill="#1A1A1A"/>
<path d="M264.335 241.078H138.666V268.648H264.335V241.078Z" fill="#800000"/>
<path d="M379.237 200.688H360.195V252.826H379.237V200.688Z" fill="black"/>
<path d="M360.19 167.344H343.68V202.608H360.19V167.344Z" fill="black"/>
<path d="M344.161 150.994H326.208V170.229H344.161V150.994Z" fill="black"/>
<path d="M327.65 136.567H277.479V154.199H327.65V136.567Z" fill="black"/>
<path d="M278.28 115.89H255.679V138.01H278.28V115.89Z" fill="black"/>
<path d="M258.564 97.937H223.3V117.172H258.564V97.937Z" fill="black"/>
<path d="M225.544 80.946H190.28V100.181H225.544V80.946Z" fill="black"/>
<path d="M191.081 62.5122H155.817V81.7473H191.081V62.5122Z" fill="black"/>
<path d="M158.031 47.6929H122.767V66.928H158.031V47.6929Z" fill="black"/>
<path d="M124.108 31.9937H88.8438V51.2287H124.108V31.9937Z" fill="black"/>
<path d="M91.3493 15.8411H56.085V35.0762H91.3493V15.8411Z" fill="black"/>
<path d="M56.493 0H14.428V19.2351H56.493V0Z" fill="black"/>
<path d="M16.2226 14.6768H0V52.5003H16.2226V14.6768Z" fill="black"/>
<path d="M36.3401 51.0625H14.2236V72.1111H36.3401V51.0625Z" fill="black"/>
<path d="M66.0939 67.6416H32.6431V88.6902H66.0939V67.6416Z" fill="black"/>
<path d="M104.293 83.6252H64.4949V104.674H104.293V83.6252Z" fill="black"/>
<path d="M142.465 100.373H102.667V121.422H142.465V100.373Z" fill="black"/>
<path d="M174.49 116.584H134.692V137.632H174.49V116.584Z" fill="black"/>
<path d="M205.378 135.257H165.58V156.305H205.378V135.257Z" fill="black"/>
<path d="M170.856 151.071H152.378V185.052H170.856V151.071Z" fill="black"/>
<path d="M186.798 153.559H170.083V183.533H186.798V153.559Z" fill="#1A1A1A"/>
<path d="M225.589 153.238H185.471V167.503H225.589V153.238Z" fill="#1A1A1A"/>
<path d="M308.264 167.133H223.242V184.533H308.264V167.133Z" fill="#1A1A1A"/>
<path d="M344.228 184.014H257.282V201.414H344.228V184.014Z" fill="#1A1A1A"/>
<path d="M326.271 153.953H277.608V169.806H326.271V153.953Z" fill="#1A1A1A"/>
<path d="M342.923 184.014H308.255V201.164H342.923V184.014Z" fill="#1A1A1A"/>
<path d="M361.837 200.911H281.535V269.129H361.837V200.911Z" fill="#1A1A1A"/>
<path d="M411.1 460.779C409.268 459.218 406.121 453.351 406.497 452.197C407.001 450.648 408.705 448.83 410.679 447.733C412.364 446.796 412.521 446.816 413.993 448.142C415.467 449.471 420.824 451.479 422.892 451.479C425.156 451.479 426.132 452.673 426.132 455.442C426.132 459.914 425.958 460.078 421.163 460.078C418.821 460.078 415.865 460.461 414.594 460.931C412.545 461.689 412.15 461.675 411.1 460.779ZM419.64 454.274C421.034 453.371 420.092 452.83 416.401 452.417C411.929 451.915 410.916 452.436 411.926 454.77C412.559 456.226 412.629 456.237 415.789 455.47C417.559 455.039 419.292 454.501 419.64 454.274Z" fill="#1A1A1A"/>
<path d="M422.166 448.543H409.159V457.072H422.166V448.543Z" fill="#1A1A1A"/>
<path d="M275.98 176.206H275.754V176.659H275.98V176.206Z" fill="#1A1A1A"/>
<path d="M393.518 443.527L388.134 426.639L380.824 426.469L372.549 422.332L371.699 419.669L365.012 420.745L364.219 408.504L355.831 406.747L354.924 396.32L355.378 390.596L351.864 393.033L340.813 387.479L338.716 368.097L340.927 347.128L352.544 347.638L358.211 346.222L353.634 306.734L360.086 267.974L368.729 267.814L376.57 267.855V275.95V283.683H384.864L393.558 283.843L393.718 292.951V301.938L402.278 301.818L411.64 301.898L411.599 325.7V350.064L402.504 350.105L394.411 349.985L394.291 375.96L394.332 402.015L406.931 401.935L406.905 402.456V419.217L406.778 435.199L416.752 435.312H427.066V450.954L427.633 465.915L410.915 466.029L390.456 465.915L393.518 443.527ZM420.04 459.168L424.121 458.659L424.259 456.242C424.336 454.898 424.17 453.55 423.884 453.206C423.602 452.866 422.254 452.356 420.888 452.072C419.522 451.789 417.261 450.956 415.864 450.221L413.324 448.885L411.564 450.05C408.987 451.755 408.547 453.022 409.704 455.405C410.218 456.462 411.207 458.003 411.901 458.828C413.002 460.136 413.344 460.287 414.562 460.003C415.331 459.823 417.796 459.447 420.04 459.168Z" fill="#1A1A1A"/>
<path d="M413.922 455.716C413.682 455.58 413.213 454.626 413.148 454.144C413.038 453.327 413.836 453.044 415.844 453.191C417.968 453.346 419.529 453.669 419.7 453.99C419.926 454.412 418.851 454.856 416.03 455.508C414.693 455.817 414.188 455.867 413.922 455.716Z" fill="#1A1A1A"/>
<path d="M409.13 453.005C409.13 452.897 409.194 452.615 409.257 452.448C409.503 451.797 410.008 451.206 410.882 450.547C411.161 450.337 411.412 450.166 412.432 449.491C413.246 448.952 413.324 448.904 413.369 448.925C413.395 448.935 413.943 449.223 414.584 449.561C416.359 450.496 416.733 450.676 417.675 451.052C418.891 451.538 419.901 451.861 420.939 452.095C421.236 452.162 421.606 452.253 421.761 452.297C422.12 452.398 422.72 452.595 422.708 452.607C422.703 452.612 422.623 452.602 422.531 452.587C422.438 452.571 422.174 452.545 421.942 452.535C421.349 452.51 420.883 452.437 420.179 452.262C418.639 451.877 416.696 451.131 415.621 450.511C415.299 450.325 415.134 450.208 414.795 449.924C414.34 449.543 414.115 449.395 413.88 449.319C413.703 449.262 413.438 449.283 413.187 449.378C412.784 449.528 411.926 450.001 411.486 450.316C410.879 450.749 410.278 451.305 409.877 451.804C409.592 452.159 409.318 452.61 409.187 452.943C409.131 453.083 409.13 453.083 409.13 453.005Z" fill="#1A1A1A"/>
<path d="M223.62 167.344H186.433V183.373H223.62V167.344Z" fill="#FFCCAA"/>
<path d="M344 168.786H306.812V184.815H344V168.786Z" fill="#FFCCAA"/>
<path d="M225.769 159.884V152.857H215.795H205.821V144.016V135.175H190.188H174.556L174.434 125.768L174.311 116.36L158.556 116.241L142.801 116.122V108.194V100.266H123.76H104.718V91.8783V83.4908H85.4493H66.1809V75.5568V67.6226H51.4462H36.7115V59.2353V50.8478H26.5105H16.3096V35.2065V19.5649H36.0314H55.7533V27.4989V35.4331H72.0748H88.3963V43.3671V51.3011H105.398H122.399V59.2353V67.1693H138.948H155.496V74.65V82.1307H172.724H189.952V91.1983V100.266H206.501H223.049V108.88V117.494H239.135H255.221L255.344 127.808L255.466 138.123L266.46 138.244L277.454 138.366V152.639V166.912H251.612H225.77L225.769 159.884Z" fill="#F9F9F9"/>
<path d="M321.733 281.792H301.215V408.744H321.733V281.792Z" fill="black"/>
<path d="M302.405 225.492H281.435V282.17H302.405V225.492Z" fill="black"/>
<path d="M337.542 406.001H322.012V461.32H337.542V406.001Z" fill="black"/>
<path d="M429.258 460.358H337.589V472.398H429.258V460.358Z" fill="black"/>
<path d="M281.326 200.043H256.32V225.369H281.326V200.043Z" fill="black"/>
<path d="M449.373 625.219H429.623V642.469H449.373V625.219Z" fill="black"/>
</svg>
