<svg width="610" height="687" viewBox="0 0 610 687" fill="none" xmlns="http://www.w3.org/2000/svg">
<path d="M75.7867 648.922H58.2742V686.536H75.7867V648.922Z" fill="black"/>
<path d="M90.2779 573.693H72.7654V649.512H90.2779V573.693Z" fill="black"/>
<path d="M35.0543 543.365H17.5417V686.93H35.0543V543.365Z" fill="black"/>
<path d="M52.1403 525.542H34.6278V543.464H52.1403V525.542Z" fill="black"/>
<path d="M125.778 508.729H51.5767V526.569H125.778V508.729Z" fill="black"/>
<path d="M125.576 523.672H107.378V541.512H125.576V523.672Z" fill="black"/>
<path d="M107.69 556.258H90.1776V574.098H107.69V556.258Z" fill="black"/>
<path d="M124.804 538.769H107.291V556.609H124.804V538.769Z" fill="black"/>
<path d="M125.74 538.141H108.228V555.982H125.74V538.141Z" fill="black"/>
<path d="M75.7653 669.067H33.3335V686.907H75.7653V669.067Z" fill="black"/>
<path d="M34.7421 606.178L35.019 543.375L43.4658 542.957L52.0511 543.305L51.9126 535.02L51.8433 526.386C51.8433 526.386 71.2821 526.303 81.0015 526.317C90.0715 526.333 108.211 526.456 108.211 526.456L107.232 541.564L107.624 556.638L98.7447 556.735L90.7469 556.538L90.0615 564.68L90.2693 573.871H81.3378H73.0987L72.8218 610.912L72.9603 648.51L73.0296 648.998L58.4208 648.928L58.5593 658.607L58.2131 669.329H46.5814L35.1575 669.26L34.7421 606.178Z" fill="#1A1A1A"/>
<path d="M159.322 541.996H122.951V559.229H159.322V541.996Z" fill="black"/>
<path d="M159.014 558.445H141.501V576.186H159.014V558.445Z" fill="black"/>
<path d="M176.247 575.55H158.596V594.398H176.247V575.55Z" fill="black"/>
<path d="M193.088 593.499H175.575V653.146H193.088V593.499Z" fill="black"/>
<path d="M176.638 650.681H123.723V668.421H176.638V650.681Z" fill="black"/>
<path d="M124.744 552.57H107.231V651.188H124.744V552.57Z" fill="black"/>
<path d="M124.082 605.053L123.805 559.424L132.861 558.732L141.501 559.424V567.845V576.266H149.922H158.343V585.47V594.674H166.959H175.575V622.677V650.681H150.314L123.805 650.543L124.082 605.053Z" fill="black"/>
<path d="M162.834 594.368C165.17 594.368 168.993 594.368 171.328 594.368C173.664 594.368 171.753 594.383 167.081 594.383C162.41 594.383 160.498 594.383 162.834 594.368Z" fill="black"/>
<path d="M158.367 585.446V576.242L149.934 576.226L141.501 576.211L150.032 576.195L158.563 576.179V585.285V594.391H167.057H175.551V594.513V594.636H166.959H158.367V585.446Z" fill="black"/>
<path d="M418.652 224.841H307.597V264.167H418.652V224.841Z" fill="#1A1A1A"/>
<path d="M468.778 275.798H416.159V397.931H468.778V275.798Z" fill="#1A1A1A"/>
<path d="M486.78 362.482H433.884V418.702H486.78V362.482Z" fill="#1A1A1A"/>
<path d="M523.89 382.422H450.5V433.103H523.89V382.422Z" fill="#1A1A1A"/>
<path d="M505.889 426.179H469.055V452.765H505.889V426.179Z" fill="#1A1A1A"/>
<path d="M539.122 360.543H521.121V415.932H539.122V360.543Z" fill="#1A1A1A"/>
<path d="M556.016 329.249H536.907V400.977H556.016V329.249Z" fill="#1A1A1A"/>
<path d="M574.017 311.524H555.185V381.868H574.017V311.524Z" fill="#1A1A1A"/>
<path d="M591.741 292.692H573.186V364.697H591.741V292.692Z" fill="#1A1A1A"/>
<path d="M609.466 309.863H586.48V329.249H609.466V309.863Z" fill="#1A1A1A"/>
<path d="M433.053 241.734H363.263V282.445H433.053V241.734Z" fill="#1A1A1A"/>
<path d="M448.562 256.966H400.096V307.924H448.562V256.966Z" fill="#1A1A1A"/>
<path d="M411.728 279.122H379.88V297.954H411.728V279.122Z" fill="#1A1A1A"/>
<path d="M467.482 442.677V432.885H458.287H449.092L448.985 425.738L448.878 418.59L440.556 418.484L432.233 418.378V408.007V397.636H423.421H414.609V352.791V307.946H406.579H398.551V302.855V297.763H388.367H378.184V290.126V282.488H369.96H361.735V273.284V264.081H333.927H306.119V244.498V224.915H361.539H416.958V233.335V241.756H424.008H431.058V249.393V257.031H438.891H446.724V266.43V275.83H456.907H467.091V319.304V362.778H476.099H485.107V372.519V382.26L488.338 382.448C490.115 382.551 497.87 382.548 505.571 382.443L519.573 382.25V371.535V360.82H527.406H535.239V345.154V329.487H544.471H553.702L553.642 327.235C553.607 325.997 553.595 322.031 553.613 318.423L553.642 311.863H562.651H571.659V302.463V293.063H580.863H590.067V301.484V309.905H598.879H607.691V319.5V329.096H598.879H590.067V346.713V364.33L581.156 364.436L572.246 364.541L572.141 373.052L572.035 381.563L563.133 381.669L554.23 381.774L554.125 391.272L554.021 400.77H545.607H537.193V408.211V415.653H529.556H521.918V424.269V432.886H512.91H503.902V442.677V452.468H485.69H467.478L467.482 442.677Z" fill="black"/>
<path d="M544.942 316.641H524.309V342.119H544.942V316.641Z" fill="#1A1A1A"/>
<path d="M543.28 350.428H488.03V394.323H543.28V350.428Z" fill="#1A1A1A"/>
<path d="M558.235 330.349H504.785V350.428H558.235V330.349Z" fill="#1A1A1A"/>
<path d="M466.577 443.886H399.408V460.727H466.577V443.886Z" fill="#1A1A1A"/>
<path d="M458.352 453.481H417.816V478.743H458.352V453.481Z" fill="#1A1A1A"/>
<path d="M448.757 427.24H383.154V446.04H448.757V427.24Z" fill="#1A1A1A"/>
<path d="M431.328 408.049H365.627V429.394H431.328V408.049Z" fill="#1A1A1A"/>
<path d="M414.501 318.359H365.53V411.966H414.501V318.359Z" fill="#1A1A1A"/>
<path d="M397.645 308.568H353.192V339.117H397.645V308.568Z" fill="#1A1A1A"/>
<path d="M377.36 292.706H332.63V321.101H377.36V292.706Z" fill="#1A1A1A"/>
<path d="M360.913 274.822H316.048V304.109H360.913V274.822Z" fill="#1A1A1A"/>
<path d="M322.833 274.822H303.585V287.008H322.833V274.822Z" fill="#1A1A1A"/>
<path d="M510.443 211.633H455.807V249.624H510.443V211.633Z" fill="#1A1A1A"/>
<path d="M474.41 196.75H437.007V230.432H474.41V196.75Z" fill="#1A1A1A"/>
<path d="M454.827 177.363H421.732V211.045H454.827V177.363Z" fill="#1A1A1A"/>
<path d="M441.511 158.171H350.451V192.441H441.511V158.171Z" fill="#1A1A1A"/>
<path d="M368.663 177.167H280.148V214.374H368.663V177.167Z" fill="#1A1A1A"/>
<path d="M334.784 200.079H280.148V236.111H334.784V200.079Z" fill="#1A1A1A"/>
<path d="M159.126 533.575V524.959H167.155H175.184V533.575V542.192H167.155H159.126V533.575Z" fill="black"/>
<path d="M89.8026 473.064H70.6113V510.076H89.8026V473.064Z" fill="black"/>
<path d="M105.469 419.995H88.2358V477.96H105.469V419.995Z" fill="black"/>
<path d="M118.589 388.074H104.294V424.107H118.589V388.074Z" fill="black"/>
<path d="M107.231 350.279H90.39V388.27H107.231V350.279Z" fill="black"/>
<path d="M91.5649 301.322H71.0029V352.238H91.5649V301.322Z" fill="black"/>
<path d="M175.184 533.38L174.303 525.057L167.155 525.154L159.42 525.35L159.126 533.379L159.224 542.289L142.681 542.485H125.55L125.263 538.862C125.134 537.23 124.536 529.812 125.284 522.412L125.396 509.292L108.529 508.704H89.5087L89.8024 493.43L89.5087 477.861L98.2231 477.665L104.979 477.372L105.175 451.131L105.273 424.204L112.323 424.106H118.589V406.09V388.074H113.106H107.035L106.742 368.98L106.84 350.573L99.7897 350.377L90.9774 350.866L91.0753 325.409L91.3691 301.615H83.0463L73.3528 301.518L73.157 283.502V265.877H169.113H264.286V256.478V247.078H272.902H281.519V241.595V236.111L293.822 234.173L305.018 236.111L305.849 255.303C306.38 267.563 305.705 274.494 305.204 274.494C304.747 274.494 303.452 277.105 303.452 280.76L317.16 287.858H288.315L273.115 287.556L272.902 294.468V301.91L273.245 302.253L256.746 302.399L256.453 310.526V319.877H248.277L240.737 319.681L240.591 327.857L240.835 336.963H232.513L225.659 337.11L225.708 373.583L242.034 391.654L256.779 397.132L260.482 410.48L241.031 431.549L240.591 452.453L231.692 452.306L223.967 452.551L253.579 500.657L279.456 547.199L205.556 549.712L174.988 543.074L175.184 533.38Z" fill="#1A1A1A"/>
<path d="M240.463 470.788C240.444 452.329 240.443 452.257 240.248 452.257C240.053 452.257 240.052 452.192 240.052 431.5V410.742H232.611H225.169L225.193 392.309L225.218 373.877L225.243 392.016L225.268 410.154H232.954H240.64L240.626 430.3C240.618 441.38 240.583 459.192 240.548 469.882L240.484 489.318L240.463 470.788Z" fill="#1A1A1A"/>
<path d="M72.7179 239.546V233.454H73.341H73.9642V239.546V245.639H73.341H72.7179V239.546Z" fill="#1A1A1A"/>
<path d="M73.7446 265.094H57.0991V301.91H73.7446V265.094Z" fill="black"/>
<path d="M226.52 542.779H173.813V560.088H226.52V542.779Z" fill="black"/>
<path d="M263.715 246.958H57.7153V266.207H263.715V246.958Z" fill="black"/>
<path d="M282.215 176.708H257.465V266.458H282.215V176.708Z" fill="black"/>
<path d="M193.639 19.0647H52.6742V55.0674H193.639V19.0647Z" fill="#1A1A1A"/>
<path d="M264.699 245.707H70.6113V266.116H264.699V245.707Z" fill="black"/>
<path d="M282.122 137.596H261.767V247.82H282.122V137.596Z" fill="black"/>
<path d="M264.675 89.1313H244.042V138.843H264.675V89.1313Z" fill="black"/>
<path d="M249.027 69.8837H229.226V89.5466H249.027V69.8837Z" fill="black"/>
<path d="M230.919 51.6825H211.81V70.7916H230.919V51.6825Z" fill="black"/>
<path d="M212.888 33.2631H193.779V52.3722H212.888V33.2631Z" fill="black"/>
<path d="M195.093 15.4764H152.444V34.5856H195.093V15.4764Z" fill="black"/>
<path d="M159.017 0H103.767V19.1091H159.017V0Z" fill="black"/>
<path d="M106.202 18.1128H50.952V37.2219H106.202V18.1128Z" fill="black"/>
<path d="M52.7875 36.8878H16.231V55.9969H52.7875V36.8878Z" fill="black"/>
<path d="M19.1091 55.3209H0V112.233H19.1091V55.3209Z" fill="black"/>
<path d="M35.4759 110.389H16.3668V236.029H35.4759V110.389Z" fill="black"/>
<path d="M72.6834 232.391H34.7747V251.5H72.6834V232.391Z" fill="black"/>
<path d="M122.741 54.2365H18.887V73.6225H122.741V54.2365Z" fill="#1A1A1A"/>
<path d="M212.055 51.8824H146.004V170.553H212.055V51.8824Z" fill="#1A1A1A"/>
<path d="M262.044 138.441H200.285V245.882H262.044V138.441Z" fill="#1A1A1A"/>
<path d="M229.82 70.6359H205.733V146.226H229.82V70.6359Z" fill="#1A1A1A"/>
<path d="M244.116 88.6521H221.204V156.8H244.116V88.6521Z" fill="#1A1A1A"/>
<path d="M204.993 146.459H73.9988V245.882H204.993V146.459Z" fill="#1A1A1A"/>
<path d="M98.9238 146.459H34.9498V233.419H98.9238V146.459Z" fill="#1A1A1A"/>
<path d="M157.755 106.766H35.2643V122.139H157.755V106.766Z" fill="#1A1A1A"/>
<path d="M106.678 119.318H54.3358V153.936H106.678V119.318Z" fill="#1A1A1A"/>
<path d="M146.835 53.9596H121.91V107.41H146.835V53.9596Z" fill="#800000"/>
<path d="M146.558 73.3456H18.3331V110.456H146.558V73.3456Z" fill="#800000"/>
<path d="M146.004 122.054H105.57V147.013H146.004V122.054Z" fill="#800000"/>
<path d="M54.6128 121.811H34.3959V147.566H54.6128V121.811Z" fill="#800000"/>
<path d="M121.356 122.503H105.501V147.012H121.356V122.503Z" fill="#550000"/>
<path d="M349.191 308.079H328.558V478.261H349.191V308.079Z" fill="#1A1A1A"/>
<path d="M259.727 513.721H220.337V531.03H259.727V513.721Z" fill="#1A1A1A"/>
<path d="M171.408 511.958H154.93V529.267H171.408V511.958Z" fill="#1A1A1A"/>
<path d="M236.384 439.338H219.906V516.467H236.384V439.338Z" fill="#1A1A1A"/>
<path d="M253.174 396.819H236.696V441.822H253.174V396.819Z" fill="#1A1A1A"/>
<path d="M237.794 323.767H221.316V397.083H237.794V323.767Z" fill="#1A1A1A"/>
<path d="M253.069 306.534H236.591V323.843H253.069V306.534Z" fill="#1A1A1A"/>
<path d="M269.127 289.105H252.649V306.414H269.127V289.105Z" fill="#1A1A1A"/>
<path d="M312.405 274.222H268.902V291.531H312.405V274.222Z" fill="#1A1A1A"/>
<path d="M328.854 290.868H312.376V308.177H328.854V290.868Z" fill="#1A1A1A"/>
<path d="M365.755 531.234H237.668V548.543H365.755V531.234Z" fill="#1A1A1A"/>
<path d="M364.285 476.226H328.421V532.307H364.285V476.226Z" fill="#1A1A1A"/>
<path d="M221.764 563.137H205.839V601.77H221.764V563.137Z" fill="#1A1A1A"/>
<path d="M237.827 601.355H221.348V618.664H237.827V601.355Z" fill="#1A1A1A"/>
<path d="M254.135 618.29H237.657V635.598H254.135V618.29Z" fill="#1A1A1A"/>
<path d="M348.41 635.408H253.696V652.717H348.41V635.408Z" fill="#1A1A1A"/>
<path d="M401.203 652.633H327.813V669.942H401.203V652.633Z" fill="#1A1A1A"/>
<path d="M456.565 669.589H399.93V686.898H456.565V669.589Z" fill="#1A1A1A"/>
<path d="M470.227 634.124H453.749V671.096H470.227V634.124Z" fill="#1A1A1A"/>
<path d="M455.965 618.091H415.669V635.4H455.965V618.091Z" fill="#1A1A1A"/>
<path d="M416.853 601.534H364.372V618.844H416.853V601.534Z" fill="#1A1A1A"/>
<path d="M382.573 548.723H328.154V601.481H382.573V548.723Z" fill="#1A1A1A"/>
<path d="M329.233 546.971H312.755V564.28H329.233V546.971Z" fill="#1A1A1A"/>
<path d="M259.748 564.315H237.454V602.672H259.748V564.315Z" fill="#1A1A1A"/>
<path d="M237.807 548.008H221.328V565.317H237.807V548.008Z" fill="#1A1A1A"/>
<path d="M328.826 476.122H259.111V532.129H328.826V476.122Z" fill="#1A1A1A"/>
<path d="M263.859 476.315H236.442V514.533H263.859V476.315Z" fill="#1A1A1A"/>
<path d="M236.719 419.264V397.109H244.75H252.781V419.264V441.42H244.75H236.719V419.264Z" fill="black"/>
<path d="M328.664 582.384V563.829H320.91H313.155V556.075V548.32H275.491H237.826V540.012V531.704L237.846 531.422C237.857 531.262 237.87 529.031 237.87 528.681C237.87 528.322 238.209 530.186 238.067 530.19L220.831 530.596L220.467 519.706C220.266 513.716 220.102 493.278 220.102 474.287V439.758H228.133H236.165L236.296 477.007C236.368 497.494 236.496 505.719 236.58 495.285L236.733 476.315H282.699H328.664V392.401V308.487H338.911H349.158V392.401V476.315H356.635H364.113V504.009C364.113 522.103 364.305 531.704 364.667 531.704C365.011 531.704 365.221 534.84 365.221 540.004V548.305L347.081 548.458C332.06 548.585 333.536 548.635 355.666 548.743L382.391 548.873V574.906V600.938H355.528H328.664L328.664 582.384Z" fill="black"/>
<path d="M221.764 360.275V323.996H229.518H237.273V360.275V396.555H229.518H221.764V360.275Z" fill="black"/>
<path d="M236.719 315.133V306.825H244.75H252.781V315.133V323.442H244.75H236.719V315.133Z" fill="black"/>
<path d="M252.39 298.739V290.619H260.862H269.334V298.739V306.859H260.862H252.39V298.739Z" fill="black"/>
<path d="M269.398 283.008V274.7H290.723H312.047V283.008V291.317H290.723H269.398V283.008Z" fill="black"/>
<path d="M312.601 299.625V291.316H320.633H328.664V299.625V307.933H320.633H312.601V299.625Z" fill="black"/>
<path d="M221.902 583.354V565.352H229.657H237.411V583.354V601.355H229.657H221.902V583.354Z" fill="black"/>
<path d="M364.528 600.939H311.217V634.727H364.528V600.939Z" fill="#E6E6E6"/>
<path d="M415.347 618.941H347.496V652.174H415.347V618.941Z" fill="#E6E6E6"/>
<path d="M454.119 634.173H400.808V669.76H454.119V634.173Z" fill="#E6E6E6"/>
<path d="M327.847 563.853H259.307V603.41H327.847V563.853Z" fill="#FFCCAA"/>
<path d="M312.572 548.187H237.961V564.637H312.572V548.187Z" fill="#FFCCAA"/>
<path d="M311.201 603.411H237.766V619.077H311.201V603.411Z" fill="#FFCCAA"/>
<path d="M311.005 617.706H254.019V635.135H311.005V617.706Z" fill="#FFCCAA"/>
<path d="M221.348 610.079V601.632H213.594H205.839V582.384V563.137H213.594H221.348V555.482V547.828L222.802 548.002C223.602 548.098 227.278 548.178 230.972 548.179H237.688V556.05C237.688 560.378 237.764 564.117 237.856 564.358C238.005 564.747 239.217 564.796 248.657 564.796H259.29V583.614V602.432L250.302 602.515C243.575 602.578 241.228 602.686 240.969 602.945C240.779 603.135 240.43 603.289 240.194 603.286C239.816 603.286 239.814 603.25 240.18 603.014C240.478 602.822 240.182 602.744 239.142 602.741H237.688V610.634V618.527H229.518H221.348L221.348 610.079ZM237.411 583.792C237.411 574.132 237.481 566.047 237.566 565.826C237.799 565.218 237.145 565.177 229.056 565.302L221.67 565.417L221.65 583.386L221.63 601.355H229.521H237.411L237.411 583.792Z" fill="black"/>
<path d="M399.977 678.276L399.977 669.898L370.967 669.995C355.012 670.049 338.81 670.011 334.964 669.895L327.972 669.697L327.968 662.458C327.967 658.477 327.891 654.945 327.801 654.609C327.521 653.567 325.69 653.083 321.966 653.066C306.217 652.995 271.986 653.188 270.197 653.359C268.373 653.532 267.694 653.482 266.597 653.092C265.485 652.697 264.225 652.61 259.498 652.6L253.751 652.585V643.973V635.361L249.666 635.456C247.42 635.51 243.806 635.521 241.635 635.483L237.689 635.414V627.244V619.074H245.716H253.743L253.816 627.175L253.89 635.275L300.624 635.346L347.358 635.417V643.862C347.358 651.703 347.393 652.312 347.843 652.356C348.11 652.383 347.518 652.486 346.528 652.585C345.537 652.686 357.346 652.788 372.768 652.815L400.809 652.863V661.31V669.757H427.534H454.259V651.894V634.031H435.011H415.763V626.415V618.799H390.146H364.529V610.214V601.628L365.706 601.586L366.883 601.545L365.637 601.352C364.951 601.245 368.503 601.167 373.53 601.179L382.669 601.2L374.914 601.351L367.16 601.503L376.161 601.557L385.161 601.61L384.053 600.928C383.444 600.552 382.852 600.245 382.738 600.244C382.624 600.243 382.53 600.061 382.53 599.839C382.53 599.552 383.029 599.733 384.254 600.462L385.978 601.489L400.247 601.542C408.096 601.572 415.055 601.603 415.712 601.611L416.906 601.627L416.85 609.866L416.794 618.105L436.357 618.175L455.92 618.246V626.275V634.305H462.982H470.044V652.583V670.861L468.729 670.891C468.005 670.908 465.061 670.957 462.186 671.001C458.157 671.062 456.904 671.166 456.72 671.455C456.59 671.662 456.481 675.164 456.478 679.238L456.474 686.647H428.225H399.977L399.977 678.276ZM327.834 653.141C328.067 652.765 327.259 652.482 326.656 652.728C326.211 652.91 326.217 652.944 326.725 653.154C327.484 653.466 327.635 653.464 327.834 653.138V653.141ZM315.786 652.866C316.075 652.679 315.655 652.608 314.401 652.63C312.891 652.657 312.757 652.696 313.571 652.866C314.988 653.165 315.324 653.165 315.786 652.866ZM268.631 652.699C268.539 652.607 268.3 652.597 268.1 652.677C267.879 652.765 267.945 652.831 268.267 652.845C268.559 652.86 268.723 652.791 268.631 652.699ZM338.842 652.662C337.89 652.608 336.332 652.608 335.38 652.662C334.428 652.715 335.207 652.76 337.111 652.76C339.015 652.76 339.794 652.716 338.842 652.662Z" fill="black"/>
<path d="M235.405 459.83V441.306L243.786 441.722L252.236 441.583L252.305 419.581V396.747H244.559H236.814V359.905V323.063H244.559H252.305V314.378V305.693H260.473H268.641V298.129L268.244 289.97L290.769 290.069L312.698 289.97V299.266L312.926 307.164L320.808 306.978L328.847 306.744L328.918 392.125V476.875L299.273 476.875C282.968 476.875 261.928 476.959 252.517 477.061L235.406 477.247L235.405 459.83Z" fill="#1A1A1A"/>
</svg>
