<svg width="566" height="688" viewBox="0 0 566 688" fill="none" xmlns="http://www.w3.org/2000/svg">
<path d="M112.636 649.086H95.1235V686.7H112.636V649.086Z" fill="black"/>
<path d="M127.127 573.857H109.615V649.677H127.127V573.857Z" fill="black"/>
<path d="M71.9036 543.529H54.3911V687.094H71.9036V543.529Z" fill="black"/>
<path d="M88.9896 525.707H71.4771V543.628H88.9896V525.707Z" fill="black"/>
<path d="M162.627 508.893H88.426V526.733H162.627V508.893Z" fill="black"/>
<path d="M162.425 523.836H144.228V541.676H162.425V523.836Z" fill="black"/>
<path d="M144.54 556.422H127.027V574.262H144.54V556.422Z" fill="black"/>
<path d="M161.653 538.933H144.14V556.773H161.653V538.933Z" fill="black"/>
<path d="M162.59 538.305H145.077V556.146H162.59V538.305Z" fill="black"/>
<path d="M112.615 669.231H70.1829V687.072H112.615V669.231Z" fill="black"/>
<path d="M71.5913 606.342L71.8683 543.539L80.3151 543.122L88.9003 543.47L88.7618 535.184L88.6926 526.55C88.6926 526.55 108.131 526.467 117.851 526.481C126.921 526.497 145.06 526.62 145.06 526.62L144.081 541.728L144.473 556.802L135.594 556.899L127.596 556.702L126.911 564.844L127.119 574.035H118.187H109.948L109.671 611.076L109.81 648.674L109.879 649.162L95.27 649.092L95.4085 658.771L95.0623 669.493H83.4307L72.0068 669.424L71.5913 606.342Z" fill="#1A1A1A"/>
<path d="M186.821 537.996H150.45V555.229H186.821V537.996Z" fill="black"/>
<path d="M185.139 554.946H166.501V576.186H185.139V554.946Z" fill="black"/>
<path d="M203.746 571.55H186.095V590.398H203.746V571.55Z" fill="black"/>
<path d="M220.588 589.499H203.075V649.146H220.588V589.499Z" fill="black"/>
<path d="M204.138 646.681H151.222V664.421H204.138V646.681Z" fill="black"/>
<path d="M152.243 548.57H134.731V647.188H152.243V548.57Z" fill="black"/>
<path d="M151.582 601.053L151.305 555.424L160.361 554.732L169.001 555.424V563.845V572.266H177.422H185.842V581.47V590.674H194.459H203.075V618.677V646.681H177.813L151.305 646.543L151.582 601.053Z" fill="black"/>
<path d="M190.334 590.368C192.67 590.368 196.492 590.368 198.828 590.368C201.164 590.368 199.253 590.383 194.581 590.383C189.909 590.383 187.998 590.383 190.334 590.368Z" fill="black"/>
<path d="M185.867 581.446V572.242L177.434 572.226L169.001 572.211L177.532 572.195L186.063 572.179V581.285V590.391H194.557H203.051V590.513V590.636H194.459H185.867V581.446Z" fill="black"/>
<path d="M402.388 224.841H307.384V264.167H402.388V224.841Z" fill="#1A1A1A"/>
<path d="M445.271 275.798H400.256V397.931H445.271V275.798Z" fill="#1A1A1A"/>
<path d="M460.67 362.482H415.419V418.702H460.67V362.482Z" fill="#1A1A1A"/>
<path d="M492.417 382.422H429.634V433.103H492.417V382.422Z" fill="#1A1A1A"/>
<path d="M477.017 426.179H445.507V452.765H477.017V426.179Z" fill="#1A1A1A"/>
<path d="M505.448 360.543H490.048V415.932H505.448V360.543Z" fill="#1A1A1A"/>
<path d="M519.9 329.249H503.553V400.977H519.9V329.249Z" fill="#1A1A1A"/>
<path d="M535.3 311.524H519.189V381.868H535.3V311.524Z" fill="#1A1A1A"/>
<path d="M550.462 292.692H534.589V364.697H550.462V292.692Z" fill="#1A1A1A"/>
<path d="M565.625 309.863H545.961V329.249H565.625V309.863Z" fill="#1A1A1A"/>
<path d="M414.708 241.734H355.004V282.445H414.708V241.734Z" fill="#1A1A1A"/>
<path d="M427.975 256.966H386.515V307.924H427.975V256.966Z" fill="#1A1A1A"/>
<path d="M396.465 279.122H369.219V297.954H396.465V279.122Z" fill="#1A1A1A"/>
<path d="M444.161 442.677V432.885H436.295H428.429L428.338 425.738L428.246 418.59L421.127 418.484L414.007 418.378V408.007V397.636H406.468H398.929V352.791V307.946H392.061H385.192V302.855V297.763H376.481H367.769V290.126V282.488H360.733H353.697V273.284V264.081H329.908H306.119L304.705 244.409L304.528 224.915H353.529H400.94V233.335V241.756H406.971H413.002V249.393V257.031H419.703H426.404V266.43V275.83H435.115H443.826V319.304V362.778H451.533H459.239V372.519V382.26L462.003 382.448C463.523 382.551 470.158 382.548 476.746 382.443L488.724 382.25V371.535V360.82H495.425H502.126V345.154V329.487H510.023H517.921L517.87 327.235C517.839 325.997 517.829 322.031 517.844 318.423L517.87 311.863H525.576H533.282V302.463V293.063H541.156H549.03V301.484V309.905H556.568H564.107V319.5V329.096H556.568H549.03V346.713V364.33L541.407 364.436L533.785 364.541L533.695 373.052L533.604 381.563L525.988 381.669L518.372 381.774L518.283 391.272L518.193 400.77H510.995H503.798V408.211V415.653H497.264H490.73V424.269V432.886H483.024H475.318V442.677V452.468H459.738H444.158L444.161 442.677Z" fill="black"/>
<path d="M505.979 316.641H487.43V342.119H505.979V316.641Z" fill="#1A1A1A"/>
<path d="M504.485 350.428H454.814V394.323H504.485V350.428Z" fill="#1A1A1A"/>
<path d="M517.93 330.349H469.877V351.312H517.93V330.349Z" fill="#1A1A1A"/>
<path d="M435.528 443.886H375.142V460.727H435.528V443.886Z" fill="#1A1A1A"/>
<path d="M428.134 453.481H391.691V478.743H428.134V453.481Z" fill="#1A1A1A"/>
<path d="M419.508 427.24H360.53V446.04H419.508V427.24Z" fill="#1A1A1A"/>
<path d="M403.839 408.049H344.773V429.394H403.839V408.049Z" fill="#1A1A1A"/>
<path d="M388.711 318.359H344.685V411.966H388.711V318.359Z" fill="#1A1A1A"/>
<path d="M373.558 308.568H333.594V339.117H373.558V308.568Z" fill="#1A1A1A"/>
<path d="M355.321 292.706H315.108V321.101H355.321V292.706Z" fill="#1A1A1A"/>
<path d="M340.535 274.822H300.2V304.109H340.535V274.822Z" fill="#1A1A1A"/>
<path d="M306.3 274.822H288.997V287.008H306.3V274.822Z" fill="#1A1A1A"/>
<path d="M474.964 211.633H425.845V249.624H474.964V211.633Z" fill="#1A1A1A"/>
<path d="M442.57 196.75H408.944V230.432H442.57V196.75Z" fill="#1A1A1A"/>
<path d="M424.965 177.363H395.212V211.045H424.965V177.363Z" fill="#1A1A1A"/>
<path d="M412.994 158.171H331.129V192.441H412.994V158.171Z" fill="#1A1A1A"/>
<path d="M347.502 177.167H267.927V214.374H347.502V177.167Z" fill="#1A1A1A"/>
<path d="M317.045 200.079H267.927V236.111H317.045V200.079Z" fill="#1A1A1A"/>
<path d="M159.126 533.575V524.959H166.344H173.562V533.575V542.192H166.344H159.126V533.575Z" fill="black"/>
<path d="M105.469 419.995H88.2358V477.96H105.469V419.995Z" fill="black"/>
<path d="M118.589 388.074H104.294V424.107H118.589V388.074Z" fill="black"/>
<path d="M107.231 350.279H90.3901V388.27H107.231V350.279Z" fill="black"/>
<path d="M91.5649 301.322H71.0029V352.238H91.5649V301.322Z" fill="black"/>
<path d="M172.934 533.504L173.178 525.057L167.155 525.154L159.42 525.35L159.126 533.379L159.224 542.289L142.681 542.485H125.55L125.263 538.862C125.134 537.23 124.536 529.812 125.284 522.412L125.396 509.292L108.529 508.704H89.5087L89.8024 493.43L89.5087 477.861L98.2231 477.665L104.979 477.372L105.175 451.131L105.273 424.204L112.323 424.106H118.589V406.09V388.074H113.106H107.035L106.742 368.98L106.84 350.573L99.7897 350.377L90.9774 350.866L91.0753 325.409L91.3691 301.615H83.0463L73.3528 301.518L73.157 283.502V265.877H169.113H264.286V256.478V247.078H272.902H281.519V241.595V236.111L293.822 234.173L305.018 236.111L305.849 255.303C306.38 267.563 305.705 274.494 305.204 274.494C304.747 274.494 303.452 277.105 303.452 280.76L317.16 287.858H288.315L273.115 287.556L272.902 294.468V301.91L273.245 302.253L256.746 302.399L256.453 310.526V319.877H248.277L240.737 319.681L240.591 327.857L240.835 336.963H232.513L225.659 337.11L225.708 373.583L242.034 391.654L256.779 397.132L260.482 410.48L241.031 431.549L240.591 452.453L231.692 452.306L223.967 452.551L253.579 500.657L279.456 547.199L205.556 549.712L173.113 542.824L172.934 533.504Z" fill="#1A1A1A"/>
<path d="M240.464 470.788C240.444 452.329 240.443 452.257 240.248 452.257C240.053 452.257 240.052 452.192 240.052 431.5V410.742H232.611H225.169L225.193 392.309L225.218 373.877L225.243 392.016L225.268 410.154H232.954H240.64L240.626 430.3C240.618 441.38 240.583 459.192 240.548 469.882L240.484 489.318L240.464 470.788Z" fill="#1A1A1A"/>
<path d="M72.7178 239.546V233.454H73.3409H73.964V239.546V245.639H73.3409H72.7178V239.546Z" fill="#1A1A1A"/>
<path d="M73.7446 265.094H57.0991V301.91H73.7446V265.094Z" fill="black"/>
<path d="M226.519 542.779H173.813V560.088H226.519V542.779Z" fill="black"/>
<path d="M263.715 246.958H57.7153V266.207H263.715V246.958Z" fill="black"/>
<path d="M282.215 176.708H257.465V266.458H282.215V176.708Z" fill="black"/>
<path d="M104.929 473.241H88.1123V510.252H104.929V473.241Z" fill="black"/>
<path d="M193.639 19.0647H52.6743V55.0674H193.639V19.0647Z" fill="#1A1A1A"/>
<path d="M264.699 245.707H70.6113V266.116H264.699V245.707Z" fill="black"/>
<path d="M282.122 137.596H261.767V247.82H282.122V137.596Z" fill="black"/>
<path d="M264.675 89.1313H244.042V138.843H264.675V89.1313Z" fill="black"/>
<path d="M249.027 69.8837H229.226V89.5466H249.027V69.8837Z" fill="black"/>
<path d="M230.919 51.6825H211.81V70.7916H230.919V51.6825Z" fill="black"/>
<path d="M212.888 33.2631H193.779V52.3722H212.888V33.2631Z" fill="black"/>
<path d="M195.093 15.4764H152.444V34.5856H195.093V15.4764Z" fill="black"/>
<path d="M159.017 0H103.767V19.1091H159.017V0Z" fill="black"/>
<path d="M106.202 18.1128H50.9521V37.2219H106.202V18.1128Z" fill="black"/>
<path d="M52.7875 36.8878H16.231V55.9969H52.7875V36.8878Z" fill="black"/>
<path d="M19.1091 55.3209H0V112.233H19.1091V55.3209Z" fill="black"/>
<path d="M35.4758 110.389H16.3667V236.029H35.4758V110.389Z" fill="black"/>
<path d="M72.6834 232.391H34.7747V251.5H72.6834V232.391Z" fill="black"/>
<path d="M122.741 54.2365H18.887V73.6225H122.741V54.2365Z" fill="#1A1A1A"/>
<path d="M212.055 51.8824H146.004V170.553H212.055V51.8824Z" fill="#1A1A1A"/>
<path d="M262.044 138.441H200.285V245.882H262.044V138.441Z" fill="#1A1A1A"/>
<path d="M229.82 70.6359H205.733V146.226H229.82V70.6359Z" fill="#1A1A1A"/>
<path d="M244.116 88.6521H221.204V156.8H244.116V88.6521Z" fill="#1A1A1A"/>
<path d="M204.993 146.459H73.9988V245.882H204.993V146.459Z" fill="#1A1A1A"/>
<path d="M98.9237 146.459H34.9497V233.419H98.9237V146.459Z" fill="#1A1A1A"/>
<path d="M157.755 106.766H35.2642V122.139H157.755V106.766Z" fill="#1A1A1A"/>
<path d="M106.678 119.318H54.3359V153.936H106.678V119.318Z" fill="#1A1A1A"/>
<path d="M146.835 53.9596H121.91V107.41H146.835V53.9596Z" fill="#800000"/>
<path d="M146.558 73.3456H18.333V110.456H146.558V73.3456Z" fill="#800000"/>
<path d="M146.004 122.054H105.57V147.013H146.004V122.054Z" fill="#800000"/>
<path d="M54.6129 121.811H34.396V147.566H54.6129V121.811Z" fill="#800000"/>
<path d="M121.356 122.503H105.501V147.012H121.356V122.503Z" fill="#550000"/>
<path d="M320.191 308.079H299.559V478.261H320.191V308.079Z" fill="#1A1A1A"/>
<path d="M230.727 513.721H191.337V531.03H230.727V513.721Z" fill="#1A1A1A"/>
<path d="M142.408 511.958H125.93V529.267H142.408V511.958Z" fill="#1A1A1A"/>
<path d="M207.384 439.338H190.906V516.467H207.384V439.338Z" fill="#1A1A1A"/>
<path d="M224.174 396.819H207.696V441.822H224.174V396.819Z" fill="#1A1A1A"/>
<path d="M208.794 323.767H192.316V397.083H208.794V323.767Z" fill="#1A1A1A"/>
<path d="M224.069 306.534H207.591V323.843H224.069V306.534Z" fill="#1A1A1A"/>
<path d="M240.127 289.105H223.649V306.414H240.127V289.105Z" fill="#1A1A1A"/>
<path d="M283.405 274.222H239.903V291.531H283.405V274.222Z" fill="#1A1A1A"/>
<path d="M299.855 290.868H283.376V308.177H299.855V290.868Z" fill="#1A1A1A"/>
<path d="M336.755 531.234H208.668V548.543H336.755V531.234Z" fill="#1A1A1A"/>
<path d="M335.286 476.226H299.422V532.307H335.286V476.226Z" fill="#1A1A1A"/>
<path d="M192.764 563.137H176.84V601.77H192.764V563.137Z" fill="#1A1A1A"/>
<path d="M208.827 601.355H192.349V618.664H208.827V601.355Z" fill="#1A1A1A"/>
<path d="M225.136 618.29H208.658V635.598H225.136V618.29Z" fill="#1A1A1A"/>
<path d="M319.411 635.408H224.696V652.717H319.411V635.408Z" fill="#1A1A1A"/>
<path d="M372.204 652.633H298.813V669.942H372.204V652.633Z" fill="#1A1A1A"/>
<path d="M427.565 669.589H370.93V686.898H427.565V669.589Z" fill="#1A1A1A"/>
<path d="M441.228 634.124H424.75V671.096H441.228V634.124Z" fill="#1A1A1A"/>
<path d="M426.965 618.091H386.67V635.4H426.965V618.091Z" fill="#1A1A1A"/>
<path d="M387.853 601.534H335.373V618.844H387.853V601.534Z" fill="#1A1A1A"/>
<path d="M353.573 548.723H299.154V601.481H353.573V548.723Z" fill="#1A1A1A"/>
<path d="M300.234 546.971H283.755V564.28H300.234V546.971Z" fill="#1A1A1A"/>
<path d="M230.748 564.315H208.454V602.672H230.748V564.315Z" fill="#1A1A1A"/>
<path d="M208.807 548.008H192.329V565.317H208.807V548.008Z" fill="#1A1A1A"/>
<path d="M299.826 476.122H230.111V532.129H299.826V476.122Z" fill="#1A1A1A"/>
<path d="M234.86 476.315H207.442V514.533H234.86V476.315Z" fill="#1A1A1A"/>
<path d="M207.719 419.264V397.109H215.75H223.782V419.264V441.42H215.75H207.719V419.264Z" fill="black"/>
<path d="M299.664 582.384V563.829H291.91H284.155V556.075V548.32H246.491H208.827V540.012V531.704L208.846 531.422C208.857 531.262 208.87 529.031 208.87 528.681C208.87 528.322 209.209 530.186 209.067 530.19L191.832 530.596L191.467 519.706C191.266 513.716 191.102 493.278 191.102 474.287V439.758H199.134H207.165L207.296 477.007C207.368 497.494 207.496 505.719 207.58 495.285L207.733 476.315H253.699H299.664V392.401V308.487H309.911H320.158V392.401V476.315H327.635H335.113V504.009C335.113 522.103 335.305 531.704 335.667 531.704C336.011 531.704 336.221 534.84 336.221 540.004V548.305L318.081 548.458C303.06 548.585 304.536 548.635 326.666 548.743L353.391 548.873V574.906V600.938H326.528H299.664L299.664 582.384Z" fill="black"/>
<path d="M192.764 360.275V323.996H200.519H208.273V360.275V396.555H200.519H192.764V360.275Z" fill="black"/>
<path d="M207.719 315.133V306.825H215.75H223.782V315.133V323.442H215.75H207.719V315.133Z" fill="black"/>
<path d="M223.39 298.739V290.619H231.862H240.334V298.739V306.859H231.862H223.39V298.739Z" fill="black"/>
<path d="M240.398 283.008V274.7H261.723H283.048V283.008V291.317H261.723H240.398V283.008Z" fill="black"/>
<path d="M283.602 299.625V291.316H291.633H299.664V299.625V307.933H291.633H283.602V299.625Z" fill="black"/>
<path d="M192.903 583.354V565.352H200.657H208.411V583.354V601.355H200.657H192.903V583.354Z" fill="black"/>
<path d="M335.528 600.939H282.217V634.727H335.528V600.939Z" fill="#E6E6E6"/>
<path d="M386.348 618.941H318.497V652.174H386.348V618.941Z" fill="#E6E6E6"/>
<path d="M425.12 634.173H371.808V669.76H425.12V634.173Z" fill="#E6E6E6"/>
<path d="M298.847 563.853H230.307V603.41H298.847V563.853Z" fill="#FFCCAA"/>
<path d="M283.572 548.187H208.962V564.637H283.572V548.187Z" fill="#FFCCAA"/>
<path d="M282.202 603.411H208.766V619.077H282.202V603.411Z" fill="#FFCCAA"/>
<path d="M282.006 617.706H225.02V635.135H282.006V617.706Z" fill="#FFCCAA"/>
<path d="M192.349 610.079V601.632H184.594H176.84V582.384V563.137H184.594H192.349V555.482V547.828L193.803 548.002C194.602 548.098 198.279 548.178 201.972 548.179H208.688V556.05C208.688 560.378 208.764 564.117 208.857 564.358C209.006 564.747 210.217 564.796 219.657 564.796H230.29V583.614V602.432L221.303 602.515C214.575 602.578 212.229 602.686 211.97 602.945C211.78 603.135 211.431 603.289 211.195 603.286C210.816 603.286 210.815 603.25 211.181 603.014C211.478 602.822 211.182 602.744 210.142 602.741H208.688V610.634V618.527H200.518H192.348L192.349 610.079ZM208.411 583.792C208.411 574.132 208.481 566.047 208.566 565.826C208.799 565.218 208.145 565.177 200.056 565.302L192.67 565.417L192.65 583.386L192.63 601.355H200.521H208.411L208.411 583.792Z" fill="black"/>
<path d="M370.977 678.276L370.977 669.898L341.968 669.995C326.012 670.049 309.811 670.011 305.965 669.895L298.972 669.697L298.969 662.458C298.967 658.477 298.891 654.945 298.801 654.609C298.522 653.567 296.69 653.083 292.966 653.066C277.218 652.995 242.987 653.188 241.197 653.359C239.373 653.532 238.694 653.482 237.597 653.092C236.485 652.697 235.225 652.61 230.498 652.6L224.752 652.585V643.973V635.361L220.667 635.456C218.42 635.51 214.806 635.521 212.635 635.483L208.689 635.414V627.244V619.074H216.716H224.743L224.817 627.175L224.89 635.275L271.625 635.346L318.359 635.417V643.862C318.359 651.703 318.394 652.312 318.843 652.356C319.11 652.383 318.518 652.486 317.528 652.585C316.538 652.686 328.346 652.788 343.768 652.815L371.809 652.863V661.31V669.757H398.534H425.259V651.894V634.031H406.011H386.764V626.415V618.799H361.147H335.529V610.214V601.628L336.706 601.586L337.883 601.545L336.637 601.352C335.952 601.245 339.503 601.167 344.53 601.179L353.669 601.2L345.915 601.351L338.16 601.503L347.161 601.557L356.162 601.61L355.054 600.928C354.445 600.552 353.853 600.245 353.738 600.244C353.624 600.243 353.531 600.061 353.531 599.839C353.531 599.552 354.03 599.733 355.254 600.462L356.978 601.489L371.248 601.542C379.096 601.572 386.055 601.603 386.712 601.611L387.907 601.627L387.85 609.866L387.794 618.105L407.357 618.175L426.921 618.246V626.275V634.305H433.983H441.045V652.583V670.861L439.729 670.891C439.006 670.908 436.061 670.957 433.186 671.001C429.158 671.062 427.904 671.166 427.721 671.455C427.59 671.662 427.481 675.164 427.479 679.238L427.474 686.647H399.226H370.978L370.977 678.276ZM298.835 653.141C299.067 652.765 298.26 652.482 297.656 652.728C297.212 652.91 297.217 652.944 297.726 653.154C298.484 653.466 298.635 653.464 298.835 653.138V653.141ZM286.786 652.866C287.076 652.679 286.655 652.608 285.402 652.63C283.891 652.657 283.758 652.696 284.571 652.866C285.988 653.165 286.325 653.165 286.786 652.866ZM239.631 652.699C239.539 652.607 239.3 652.597 239.1 652.677C238.879 652.765 238.945 652.831 239.268 652.845C239.559 652.86 239.723 652.791 239.631 652.699ZM309.842 652.662C308.89 652.608 307.332 652.608 306.38 652.662C305.428 652.715 306.207 652.76 308.111 652.76C310.015 652.76 310.794 652.716 309.842 652.662Z" fill="black"/>
<path d="M206.406 459.83V441.306L214.786 441.722L223.236 441.583L223.305 419.581V396.747H215.56H207.814V359.905V323.063H215.56H223.305V314.378V305.693H231.474H239.642V298.129L239.244 289.97L261.77 290.069L283.698 289.97V299.266L283.927 307.164L291.808 306.978L299.848 306.744L299.918 392.125V476.875L270.273 476.875C253.968 476.875 232.928 476.959 223.517 477.061L206.406 477.247L206.406 459.83Z" fill="#1A1A1A"/>
</svg>
