<svg width="515" height="483" viewBox="0 0 515 483" fill="none" xmlns="http://www.w3.org/2000/svg">
<path d="M402.039 399.648H144.72V450H402.039V399.648Z" fill="#1A1A1A"/>
<path d="M451.497 321.109H64.2395V385.94H451.497V321.109Z" fill="#1A1A1A"/>
<path d="M451.309 272.902H64.3174V337.401H451.309V272.902Z" fill="#1A1A1A"/>
<path d="M225.02 435.761H160.785V466.177H225.02V435.761Z" fill="#1A1A1A"/>
<path d="M145.887 417.137H128.731V433.893H145.887V417.137Z" fill="#1A1A1A"/>
<path d="M152.935 400.846H96.2827V418.001H152.935V400.846Z" fill="#1A1A1A"/>
<path d="M450.73 384.621H80.3906V401.71H450.73V384.621Z" fill="#1A1A1A"/>
<path d="M434.567 400.824H400.338V417.938H434.567V400.824Z" fill="#1A1A1A"/>
<path d="M418.252 412.907H397.423V433.924H418.252V412.907Z" fill="#1A1A1A"/>
<path d="M482.572 273.17H449.942V321.128H482.572V273.17Z" fill="#1A1A1A"/>
<path d="M498.652 272.982H475.99V305.424H498.652V272.982Z" fill="#1A1A1A"/>
<path d="M498.841 207.157H48.2207V274.674H498.841V207.157Z" fill="#1A1A1A"/>
<path d="M80.5103 201.597H16.0605V224.836H80.5103V201.597Z" fill="#1A1A1A"/>
<path d="M467.05 160.797H16.0605V208.214H467.05V160.797Z" fill="#1A1A1A"/>
<path d="M450.506 144.341H32.0464V161.267H450.506V144.341Z" fill="#1A1A1A"/>
<path d="M434.202 128.422H32.1831V144.646H434.202V128.422Z" fill="#1A1A1A"/>
<path d="M418.111 109.996H32.0503V128.821H418.111V109.996Z" fill="#1A1A1A"/>
<path d="M418.534 96.0068H47.6567V111.429H418.534V96.0068Z" fill="#1A1A1A"/>
<path d="M418.158 79.832H63.4546V114.437H418.158V79.832Z" fill="#1A1A1A"/>
<path d="M418.158 63.47H112.635V82.0893H418.158V63.47Z" fill="#1A1A1A"/>
<path d="M418.111 48.0984H127.667V73.8977H418.111V48.0984Z" fill="#1A1A1A"/>
<path d="M402.152 30.8616H144.76V49.1621H402.152V30.8616Z" fill="#1A1A1A"/>
<path d="M225.102 16.1699H159.465V35.165H225.102V16.1699Z" fill="#1A1A1A"/>
<path d="M386.092 16.1699H305.409V32.0619H386.092V16.1699Z" fill="#1A1A1A"/>
<path d="M357.635 449.852H225.113V465.976H357.635V449.852Z" fill="black"/>
<path d="M32.1259 112.44H16.0012V160.814H32.1259V112.44Z" fill="black"/>
<path d="M48.1838 96.1621H32.0591V112.287H48.1838V96.1621Z" fill="black"/>
<path d="M64.2658 80.0801H48.1411V96.2046H64.2658V80.0801Z" fill="black"/>
<path d="M112.597 64.3743H64.2231V80.4988H112.597V64.3743Z" fill="black"/>
<path d="M128.946 47.9399H112.821V64.0645H128.946V47.9399Z" fill="black"/>
<path d="M144.84 32.2344H128.715V48.3589H144.84V32.2344Z" fill="black"/>
<path d="M160.734 16.1523H144.609V32.2769H160.734V16.1523Z" fill="black"/>
<path d="M225.072 0H160.573V16.1246H225.072V0Z" fill="black"/>
<path d="M241.138 15.1179H225.014V31.2425H241.138V15.1179Z" fill="black"/>
<path d="M256.964 31.0764H240.839V47.201H256.964V31.0764Z" fill="black"/>
<path d="M305.437 15.384H257.063V31.5086H305.437V15.384Z" fill="black"/>
<path d="M386.061 0.090332H305.205V16.2149H386.061V0.090332Z" fill="black"/>
<path d="M402.217 15.7439H386.093V31.8685H402.217V15.7439Z" fill="black"/>
<path d="M418.403 31.7188H402.145V48.6412H418.403V31.7188Z" fill="black"/>
<path d="M434.313 47.8459H418.188V128.469H434.313V47.8459Z" fill="black"/>
<path d="M225.446 465.943H160.947V482.068H225.446V465.943Z" fill="black"/>
<path d="M160.947 449.852H144.823V465.976H160.947V449.852Z" fill="black"/>
<path d="M144.789 433.827H128.665V449.951H144.789V433.827Z" fill="black"/>
<path d="M128.698 417.802H96.4487V433.926H128.698V417.802Z" fill="black"/>
<path d="M402.252 449.984H353.878V466.109H402.252V449.984Z" fill="black"/>
<path d="M418.231 433.857H402.106V449.982H418.231V433.857Z" fill="black"/>
<path d="M434.313 417.893H418.188V434.018H434.313V417.893Z" fill="black"/>
<path d="M450.583 401.811H434.458V417.936H450.583V401.811Z" fill="black"/>
<path d="M466.547 337.167H450.422V401.666H466.547V337.167Z" fill="black"/>
<path d="M482.602 321.144H450.353V337.268H482.602V321.144Z" fill="black"/>
<path d="M498.617 305.155H482.492V321.28H498.617V305.155Z" fill="black"/>
<path d="M514.699 208.544H498.574V305.292H514.699V208.544Z" fill="black"/>
<path d="M498.805 192.724H466.556V208.848H498.805V192.724Z" fill="black"/>
<path d="M482.817 144.393H466.692V192.767H482.817V144.393Z" fill="black"/>
<path d="M466.571 128.447H450.446V160.697H466.571V128.447Z" fill="black"/>
<path d="M450.326 128.29H434.202V144.415H450.326V128.29Z" fill="black"/>
<path d="M96.7118 401.717H80.5872V417.842H96.7118V401.717Z" fill="black"/>
<path d="M80.5358 385.729H64.4111V401.854H80.5358V385.729Z" fill="black"/>
<path d="M64.454 272.993H48.3293V385.866H64.454V272.993Z" fill="black"/>
<path d="M48.8393 224.605H32.0498V289.104H48.8393V224.605Z" fill="black"/>
<path d="M32.0832 224.439H15.9585V241.096H32.0832V224.439Z" fill="black"/>
<path d="M16.1247 160.373H0V224.871H16.1247V160.373Z" fill="black"/>
<path d="M192.683 157.178H128.998V227.08H192.683V157.178Z" fill="#800000"/>
<path d="M209.853 273.112H144.69V289.602H209.853V273.112Z" fill="black"/>
<path d="M225.253 256.887H112.507V273.378H225.253V256.887Z" fill="black"/>
<path d="M257.17 225.502H96.2827V257.153H257.17V225.502Z" fill="black"/>
<path d="M144.929 208.746H80.3242V225.707H144.929V208.746Z" fill="black"/>
<path d="M128.771 144.517H80.3906V209.544H128.771V144.517Z" fill="black"/>
<path d="M273.556 209.063H176.935V225.554H273.556V209.063Z" fill="black"/>
<path d="M273.394 160.657H192.947V209.308H273.394V160.657Z" fill="black"/>
<path d="M193.203 160.371H177.099V176.862H193.203V160.371Z" fill="black"/>
<path d="M144.894 160.651H128.791V177.142H144.894V160.651Z" fill="black"/>
<path d="M273.366 144.314H128.532V160.805H273.366V144.314Z" fill="black"/>
<path d="M257.474 128.156H96.6814V144.646H257.474V128.156Z" fill="black"/>
<path d="M241.383 112.198H112.64V128.688H241.383V112.198Z" fill="black"/>
<path d="M209.067 96.1064H144.823V112.597H209.067V96.1064Z" fill="black"/>
<path d="M209.721 289.203H144.69V305.428H209.721V289.203Z" fill="#550000"/>
<path d="M208.834 64.2222H192.66V96.5705H208.834V64.2222Z" fill="#550000"/>
<path d="M194.353 47.2964H176.862V64.7872H194.353V47.2964Z" fill="#550000"/>
<path d="M339.168 96.3828H257.356V112.745H339.168V96.3828Z" fill="#550000"/>
<path d="M338.227 63.2822H321.113V160.892H338.227V63.2822Z" fill="#550000"/>
<path d="M386.593 160.206H369.57V193.054H386.593V160.206Z" fill="#550000"/>
<path d="M401.886 128.156H386.194V160.605H401.886V128.156Z" fill="#550000"/>
<path d="M418.376 112.464H402.418V128.422H418.376V112.464Z" fill="#550000"/>
<path d="M386.327 79.8823H368.906V95.9738H386.327V79.8823Z" fill="#550000"/>
<path d="M144.822 273.112H128.598V289.204H144.822V273.112Z" fill="#550000"/>
<path d="M177.238 337.114H160.124V370.027H177.238V337.114Z" fill="#550000"/>
<path d="M161.064 321.316H112.541V337.491H161.064V321.316Z" fill="#550000"/>
<path d="M225.384 353.477H208.082V386.202H225.384V353.477Z" fill="#550000"/>
<path d="M258.109 321.881H225.196V336.927H258.109V321.881Z" fill="#550000"/>
<path d="M273.907 304.954H251.714V321.692H273.907V304.954Z" fill="#550000"/>
<path d="M305.879 281.257H272.966V305.706H305.879V281.257Z" fill="#550000"/>
<path d="M370.2 272.794H343.681V305.894H370.2V272.794Z" fill="#550000"/>
<path d="M354.401 254.363H316.787V273.359H354.401V254.363Z" fill="#550000"/>
<path d="M321.865 272.982H305.126V290.097H321.865V272.982Z" fill="#550000"/>
<path d="M385.928 305.162H369.836V321.653H385.928V305.162Z" fill="#550000"/>
<path d="M402.418 288.539H385.928V305.162H402.418V288.539Z" fill="#550000"/>
<path d="M242.122 272.982H209.586V288.592H242.122V272.982Z" fill="#550000"/>
<path d="M257.733 256.808H225.384V273.546H257.733V256.808Z" fill="#550000"/>
<path d="M273.719 225.024H256.98V256.62H273.719V225.024Z" fill="#550000"/>
<path d="M289.517 176.501H273.343V224.647H289.517V176.501Z" fill="#550000"/>
<path d="M306.067 192.864H288.764V209.226H306.067V192.864Z" fill="#550000"/>
<path d="M321.865 175.749H304.938V192.864H321.865V175.749Z" fill="#550000"/>
<path d="M354.213 208.474H337.287V224.836H354.213V208.474Z" fill="#550000"/>
<path d="M338.039 192.487H321.489V209.414H338.039V192.487Z" fill="#550000"/>
<path d="M80.8561 109.938H63.9668V160.605H80.8561V109.938Z" fill="#550000"/>
<path d="M113.039 111.4H96.1494V128.29H113.039V111.4Z" fill="#550000"/>
<path d="M145.355 95.1758H111.044V112.331H145.355V95.1758Z" fill="#550000"/>
<path d="M273.719 127.979H257.356V144.341H273.719V127.979Z" fill="#550000"/>
<path d="M257.356 112.557H241.182V128.731H257.356V112.557Z" fill="#550000"/>
<path d="M242.123 95.8184H209.022V112.369H242.123V95.8184Z" fill="#550000"/>
<path d="M112.44 256.888H96.2161V273.046H112.44V256.888Z" fill="#550000"/>
</svg>
