<svg width="543" height="683" viewBox="0 0 543 683" fill="none" xmlns="http://www.w3.org/2000/svg">
<path d="M402.039 508.639H144.72V558.991H402.039V508.639Z" fill="#1A1A1A"/>
<path d="M451.497 430.1H64.2393V494.931H451.497V430.1Z" fill="#1A1A1A"/>
<path d="M451.309 381.894H64.3174V446.392H451.309V381.894Z" fill="#1A1A1A"/>
<path d="M225.02 544.752H160.785V575.168H225.02V544.752Z" fill="#1A1A1A"/>
<path d="M145.887 526.128H128.731V542.884H145.887V526.128Z" fill="#1A1A1A"/>
<path d="M152.935 509.837H96.2825V526.992H152.935V509.837Z" fill="#1A1A1A"/>
<path d="M450.73 493.612H80.3906V510.701H450.73V493.612Z" fill="#1A1A1A"/>
<path d="M434.567 509.815H400.338V526.93H434.567V509.815Z" fill="#1A1A1A"/>
<path d="M418.252 521.898H397.423V542.915H418.252V521.898Z" fill="#1A1A1A"/>
<path d="M482.572 382.161H449.942V430.12H482.572V382.161Z" fill="#1A1A1A"/>
<path d="M498.652 381.973H475.99V414.416H498.652V381.973Z" fill="#1A1A1A"/>
<path d="M498.84 316.148H48.2202V383.666H498.84V316.148Z" fill="#1A1A1A"/>
<path d="M80.5101 310.588H16.0603V333.827H80.5101V310.588Z" fill="#1A1A1A"/>
<path d="M467.05 269.788H16.0603V317.205H467.05V269.788Z" fill="#1A1A1A"/>
<path d="M450.506 253.332H32.0464V270.259H450.506V253.332Z" fill="#1A1A1A"/>
<path d="M434.202 237.413H32.1829V253.638H434.202V237.413Z" fill="#1A1A1A"/>
<path d="M418.11 218.987H32.0498V237.812H418.11V218.987Z" fill="#1A1A1A"/>
<path d="M418.534 204.998H47.6562V220.42H418.534V204.998Z" fill="#1A1A1A"/>
<path d="M418.158 188.823H63.4543V223.428H418.158V188.823Z" fill="#1A1A1A"/>
<path d="M418.157 172.461H112.635V191.08H418.157V172.461Z" fill="#1A1A1A"/>
<path d="M418.11 157.09H127.667V182.889H418.11V157.09Z" fill="#1A1A1A"/>
<path d="M402.152 139.853H144.76V158.153H402.152V139.853Z" fill="#1A1A1A"/>
<path d="M225.102 125.161H159.465V144.156H225.102V125.161Z" fill="#1A1A1A"/>
<path d="M386.091 125.161H305.409V141.053H386.091V125.161Z" fill="#1A1A1A"/>
<path d="M357.635 558.843H225.113V574.967H357.635V558.843Z" fill="black"/>
<path d="M32.1259 221.432H16.0012V269.806H32.1259V221.432Z" fill="black"/>
<path d="M48.1838 205.153H32.0591V221.278H48.1838V205.153Z" fill="black"/>
<path d="M64.2658 189.071H48.1411V205.196H64.2658V189.071Z" fill="black"/>
<path d="M112.597 173.365H64.2231V189.49H112.597V173.365Z" fill="black"/>
<path d="M128.946 156.931H112.821V173.056H128.946V156.931Z" fill="black"/>
<path d="M144.84 141.226H128.715V157.35H144.84V141.226Z" fill="black"/>
<path d="M160.734 125.144H144.609V141.268H160.734V125.144Z" fill="black"/>
<path d="M225.072 108.991H160.573V125.116H225.072V108.991Z" fill="black"/>
<path d="M241.138 124.109H225.014V140.234H241.138V124.109Z" fill="black"/>
<path d="M256.964 140.068H240.839V156.192H256.964V140.068Z" fill="black"/>
<path d="M305.437 124.375H257.063V140.5H305.437V124.375Z" fill="black"/>
<path d="M386.061 109.082H305.205V125.206H386.061V109.082Z" fill="black"/>
<path d="M402.217 124.735H386.093V140.86H402.217V124.735Z" fill="black"/>
<path d="M418.403 140.71H402.145V157.632H418.403V140.71Z" fill="black"/>
<path d="M434.313 156.837H418.188V237.46H434.313V156.837Z" fill="black"/>
<path d="M225.446 574.934H160.947V591.059H225.446V574.934Z" fill="black"/>
<path d="M160.947 558.843H144.823V574.967H160.947V558.843Z" fill="black"/>
<path d="M144.789 542.818H128.665V558.943H144.789V542.818Z" fill="black"/>
<path d="M128.698 526.793H96.4487V542.918H128.698V526.793Z" fill="black"/>
<path d="M402.252 558.976H353.878V575.1H402.252V558.976Z" fill="black"/>
<path d="M418.231 542.849H402.106V558.973H418.231V542.849Z" fill="black"/>
<path d="M434.313 526.884H418.188V543.009H434.313V526.884Z" fill="black"/>
<path d="M450.583 510.802H434.458V526.927H450.583V510.802Z" fill="black"/>
<path d="M466.547 446.158H450.422V510.657H466.547V446.158Z" fill="black"/>
<path d="M482.602 430.135H450.353V446.259H482.602V430.135Z" fill="black"/>
<path d="M498.617 414.146H482.492V430.271H498.617V414.146Z" fill="black"/>
<path d="M514.699 317.535H498.574V414.283H514.699V317.535Z" fill="black"/>
<path d="M498.805 301.715H466.556V317.839H498.805V301.715Z" fill="black"/>
<path d="M482.817 253.384H466.692V301.758H482.817V253.384Z" fill="black"/>
<path d="M466.571 237.438H450.446V269.688H466.571V237.438Z" fill="black"/>
<path d="M450.326 237.281H434.202V253.406H450.326V237.281Z" fill="black"/>
<path d="M96.7118 510.708H80.5872V526.833H96.7118V510.708Z" fill="black"/>
<path d="M80.5358 494.721H64.4111V510.845H80.5358V494.721Z" fill="black"/>
<path d="M64.454 381.984H48.3293V494.857H64.454V381.984Z" fill="black"/>
<path d="M48.8393 333.597H32.0498V398.095H48.8393V333.597Z" fill="black"/>
<path d="M32.0832 333.431H15.9585V350.087H32.0832V333.431Z" fill="black"/>
<path d="M16.1247 269.364H0V333.862H16.1247V269.364Z" fill="black"/>
<path d="M192.683 266.169H128.998V336.072H192.683V266.169Z" fill="#800000"/>
<path d="M209.853 382.103H144.69V398.593H209.853V382.103Z" fill="black"/>
<path d="M225.253 365.878H112.507V382.369H225.253V365.878Z" fill="black"/>
<path d="M257.17 334.494H96.2827V366.144H257.17V334.494Z" fill="black"/>
<path d="M144.929 317.737H80.3242V334.698H144.929V317.737Z" fill="black"/>
<path d="M128.771 253.508H80.3906V318.535H128.771V253.508Z" fill="black"/>
<path d="M273.556 318.055H176.935V334.545H273.556V318.055Z" fill="black"/>
<path d="M273.394 269.648H192.947V318.299H273.394V269.648Z" fill="black"/>
<path d="M193.203 269.362H177.099V285.853H193.203V269.362Z" fill="black"/>
<path d="M144.894 269.643H128.791V286.133H144.894V269.643Z" fill="black"/>
<path d="M273.366 253.306H128.532V269.796H273.366V253.306Z" fill="black"/>
<path d="M257.474 237.147H96.6814V253.638H257.474V237.147Z" fill="black"/>
<path d="M241.383 221.189H112.64V237.679H241.383V221.189Z" fill="black"/>
<path d="M209.067 205.098H144.823V221.588H209.067V205.098Z" fill="black"/>
<path d="M209.721 398.194H144.69V414.419H209.721V398.194Z" fill="#550000"/>
<path d="M208.834 173.213H192.66V205.562H208.834V173.213Z" fill="#550000"/>
<path d="M194.353 156.288H176.862V173.778H194.353V156.288Z" fill="#550000"/>
<path d="M339.168 205.374H257.356V221.736H339.168V205.374Z" fill="#550000"/>
<path d="M338.227 172.273H321.113V269.883H338.227V172.273Z" fill="#550000"/>
<path d="M386.593 269.197H369.57V302.045H386.593V269.197Z" fill="#550000"/>
<path d="M401.886 237.147H386.194V269.596H401.886V237.147Z" fill="#550000"/>
<path d="M418.376 221.455H402.418V237.413H418.376V221.455Z" fill="#550000"/>
<path d="M386.327 188.874H368.906V204.965H386.327V188.874Z" fill="#550000"/>
<path d="M144.822 382.104H128.598V398.195H144.822V382.104Z" fill="#550000"/>
<path d="M177.238 446.105H160.124V479.018H177.238V446.105Z" fill="#550000"/>
<path d="M161.064 430.308H112.541V446.482H161.064V430.308Z" fill="#550000"/>
<path d="M225.384 462.468H208.082V495.193H225.384V462.468Z" fill="#550000"/>
<path d="M258.109 430.872H225.196V445.918H258.109V430.872Z" fill="#550000"/>
<path d="M273.907 413.945H251.714V430.684H273.907V413.945Z" fill="#550000"/>
<path d="M305.879 390.249H272.966V414.698H305.879V390.249Z" fill="#550000"/>
<path d="M370.2 381.785H343.681V414.886H370.2V381.785Z" fill="#550000"/>
<path d="M354.401 363.354H316.787V382.35H354.401V363.354Z" fill="#550000"/>
<path d="M321.865 381.974H305.126V399.088H321.865V381.974Z" fill="#550000"/>
<path d="M385.928 414.153H369.836V430.644H385.928V414.153Z" fill="#550000"/>
<path d="M402.418 397.53H385.928V414.153H402.418V397.53Z" fill="#550000"/>
<path d="M242.122 381.974H209.586V397.584H242.122V381.974Z" fill="#550000"/>
<path d="M257.733 365.799H225.384V382.537H257.733V365.799Z" fill="#550000"/>
<path d="M273.719 334.015H256.98V365.611H273.719V334.015Z" fill="#550000"/>
<path d="M289.517 285.492H273.343V333.639H289.517V285.492Z" fill="#550000"/>
<path d="M306.067 301.855H288.764V318.217H306.067V301.855Z" fill="#550000"/>
<path d="M321.865 284.74H304.938V301.855H321.865V284.74Z" fill="#550000"/>
<path d="M354.213 317.465H337.287V333.827H354.213V317.465Z" fill="#550000"/>
<path d="M338.039 301.479H321.489V318.405H338.039V301.479Z" fill="#550000"/>
<path d="M80.8561 218.929H63.9668V269.597H80.8561V218.929Z" fill="#550000"/>
<path d="M113.039 220.392H96.1494V237.281H113.039V220.392Z" fill="#550000"/>
<path d="M145.355 204.167H111.044V221.322H145.355V204.167Z" fill="#550000"/>
<path d="M273.719 236.97H257.356V253.333H273.719V236.97Z" fill="#550000"/>
<path d="M257.356 221.548H241.182V237.722H257.356V221.548Z" fill="#550000"/>
<path d="M242.123 204.81H209.022V221.36H242.123V204.81Z" fill="#550000"/>
<path d="M112.44 365.879H96.2161V382.037H112.44V365.879Z" fill="#550000"/>
<path d="M274.094 666.13H241.645V682.354H274.094V666.13Z" fill="black"/>
<path d="M289.786 649.905H273.628V666.063H289.786V649.905Z" fill="black"/>
<path d="M305.701 617.46H289.543V649.776H305.701V617.46Z" fill="black"/>
<path d="M241.579 649.905H225.421V666.063H241.579V649.905Z" fill="black"/>
<path d="M241.281 602.286H225.123V618.444H241.281V602.286Z" fill="black"/>
<path d="M273.236 586.694H240.921V602.852H273.236V586.694Z" fill="black"/>
<path d="M290.537 601.364H273.251V618.463H290.537V601.364Z" fill="black"/>
<path d="M225.488 618.188H209.33V650.504H225.488V618.188Z" fill="black"/>
<path d="M289.92 618.405H225.288V650.056H289.92V618.405Z" fill="#1A1A1A"/>
<path d="M273.961 602.181H241.379V666.147H273.961V602.181Z" fill="#1A1A1A"/>
<path d="M348.602 530.181H311.439V547.932H348.602V530.181Z" fill="black"/>
<path d="M366.574 512.43H348.069V530.108H366.574V512.43Z" fill="black"/>
<path d="M384.8 476.933H366.294V512.289H384.8V476.933Z" fill="black"/>
<path d="M311.363 512.43H292.858V530.108H311.363V512.43Z" fill="black"/>
<path d="M311.021 460.33H292.516V478.008H311.021V460.33Z" fill="black"/>
<path d="M347.619 443.271H310.609V460.95H347.619V443.271Z" fill="black"/>
<path d="M367.433 459.321H347.636V478.028H367.433V459.321Z" fill="black"/>
<path d="M292.934 477.729H274.429V513.085H292.934V477.729Z" fill="black"/>
<path d="M366.726 477.966H292.706V512.595H366.726V477.966Z" fill="#1A1A1A"/>
<path d="M348.449 460.215H311.134V530.2H348.449V460.215Z" fill="#1A1A1A"/>
<path d="M502.878 582.614H465.715V600.365H502.878V582.614Z" fill="black"/>
<path d="M520.85 564.864H502.345V582.542H520.85V564.864Z" fill="black"/>
<path d="M539.076 529.366H520.571V564.722H539.076V529.366Z" fill="black"/>
<path d="M465.639 564.864H447.134V582.542H465.639V564.864Z" fill="black"/>
<path d="M465.297 512.764H446.792V530.442H465.297V512.764Z" fill="black"/>
<path d="M501.896 495.706H464.885V513.384H501.896V495.706Z" fill="black"/>
<path d="M521.709 511.755H501.912V530.462H521.709V511.755Z" fill="black"/>
<path d="M447.21 530.162H428.705V565.518H447.21V530.162Z" fill="black"/>
<path d="M521.002 530.4H446.981V565.029H521.002V530.4Z" fill="#1A1A1A"/>
<path d="M502.726 512.649H465.411V582.634H502.726V512.649Z" fill="#1A1A1A"/>
<path d="M434.061 183.788H393.132V204.253H434.061V183.788Z" fill="black"/>
<path d="M453.855 163.323H433.474V183.704H453.855V163.323Z" fill="black"/>
<path d="M473.928 122.4H453.547V163.161H473.928V122.4Z" fill="black"/>
<path d="M393.049 163.324H372.668V183.704H393.049V163.324Z" fill="black"/>
<path d="M392.672 103.259H372.292V123.64H392.672V103.259Z" fill="black"/>
<path d="M432.98 83.5928H392.218V103.973H432.98V83.5928Z" fill="black"/>
<path d="M454.801 102.096H432.998V123.663H454.801V102.096Z" fill="black"/>
<path d="M372.752 123.317H352.371V164.078H372.752V123.317Z" fill="black"/>
<path d="M454.023 123.591H372.5V163.514H454.023V123.591Z" fill="#1A1A1A"/>
<path d="M433.894 103.127H392.797V183.811H433.894V103.127Z" fill="#1A1A1A"/>
<path d="M506.708 343.391H470.387V361.552H506.708V343.391Z" fill="black"/>
<path d="M524.273 325.23H506.187V343.317H524.273V325.23Z" fill="black"/>
<path d="M542.086 288.914H524V325.086H542.086V288.914Z" fill="black"/>
<path d="M470.313 325.231H452.227V343.317H470.313V325.231Z" fill="black"/>
<path d="M469.979 271.929H451.893V290.015H469.979V271.929Z" fill="black"/>
<path d="M505.748 254.477H469.576V272.563H505.748V254.477Z" fill="black"/>
<path d="M525.113 270.896H505.764V290.035H525.113V270.896Z" fill="black"/>
<path d="M452.301 289.729H434.215V325.9H452.301V289.729Z" fill="black"/>
<path d="M524.422 289.972H452.078V325.4H524.422V289.972Z" fill="#1A1A1A"/>
<path d="M506.559 271.812H470.09V343.411H506.559V271.812Z" fill="#1A1A1A"/>
<path d="M194.054 92.5542H156.246V111.458H194.054V92.5542Z" fill="black"/>
<path d="M212.338 73.6501H193.511V92.4765H212.338V73.6501Z" fill="black"/>
<path d="M230.88 35.8477H212.053V73.5005H230.88V35.8477Z" fill="black"/>
<path d="M156.169 73.6509H137.342V92.4773H156.169V73.6509Z" fill="black"/>
<path d="M155.821 18.167H136.995V36.9934H155.821V18.167Z" fill="black"/>
<path d="M193.054 0H155.402V18.8264H193.054V0Z" fill="black"/>
<path d="M213.212 17.0925H193.071V37.0147H213.212V17.0925Z" fill="black"/>
<path d="M137.42 36.6956H118.593V74.3481H137.42V36.6956Z" fill="black"/>
<path d="M212.492 36.948H137.187V73.8261H212.492V36.948Z" fill="#1A1A1A"/>
<path d="M193.899 18.0447H155.936V92.575H193.899V18.0447Z" fill="#1A1A1A"/>
</svg>
