<svg width="382" height="137" viewBox="0 0 382 137" fill="none" xmlns="http://www.w3.org/2000/svg">
<rect y="53" width="382" height="42" fill="#2E344B"/>
<rect width="382" height="47" fill="#8F999F"/>
<rect x="6" y="24" width="84" height="23" fill="#697283"/>
<rect x="292" y="24" width="84" height="23" fill="#697283"/>
<rect x="196" y="24" width="84" height="23" fill="#697283"/>
<rect x="101" y="24" width="84" height="23" fill="#697283"/>
<rect x="90" y="18" width="6" height="6" fill="#687181"/>
<rect x="90" y="24" width="6" height="23" fill="#445064"/>
<rect x="382" y="47" width="6" height="382" transform="rotate(90 382 47)" fill="#445064"/>
<rect x="96" y="12" width="6" height="6" fill="#687181"/>
<rect x="185" y="18" width="6" height="6" fill="#687181"/>
<rect x="185" y="24" width="6" height="23" fill="#445064"/>
<rect x="191" y="12" width="6" height="6" fill="#687181"/>
<rect x="280" y="18" width="6" height="6" fill="#687181"/>
<rect x="280" y="24" width="6" height="23" fill="#445064"/>
<rect x="286" y="12" width="6" height="6" fill="#687181"/>
<rect x="376" y="18" width="6" height="6" fill="#687181"/>
<rect x="376" y="24" width="6" height="23" fill="#445064"/>
<rect x="102" y="6" width="5" height="6" fill="#687181"/>
<rect x="292" y="6" width="6" height="6" fill="#687181"/>
<rect y="12" width="6" height="6" fill="#687181"/>
<rect x="6" y="6" width="6" height="6" fill="#687181"/>
<rect x="24" y="59" width="18" height="18" fill="#435164"/>
<rect x="119" y="59" width="18" height="18" fill="#435164"/>
<rect x="215" y="59" width="18" height="18" fill="#435164"/>
<rect x="310" y="59" width="18" height="18" fill="#435164"/>
<rect x="262" y="83" width="12" height="12" fill="#435164"/>
<rect x="358" y="83" width="12" height="12" fill="#435164"/>
<rect x="167" y="83" width="12" height="12" fill="#435164"/>
<rect x="72" y="83" width="12" height="12" fill="#435164"/>
<rect width="382" height="42" transform="matrix(-1 0 0 1 382 95)" fill="#2E344B"/>
<rect width="18" height="18" transform="matrix(-1 0 0 1 358 101)" fill="#435164"/>
<rect width="18" height="18" transform="matrix(-1 0 0 1 263 101)" fill="#435164"/>
<rect width="18" height="18" transform="matrix(-1 0 0 1 167 101)" fill="#435164"/>
<rect width="18" height="18" transform="matrix(-1 0 0 1 72 101)" fill="#435164"/>
<rect width="12" height="12" transform="matrix(-1 0 0 1 120 125)" fill="#435164"/>
<rect width="12" height="12" transform="matrix(-1 0 0 1 24 125)" fill="#435164"/>
<rect width="12" height="12" transform="matrix(-1 0 0 1 215 125)" fill="#435164"/>
<rect width="12" height="12" transform="matrix(-1 0 0 1 310 125)" fill="#435164"/>
</svg>
