<svg width="620" height="480" viewBox="0 0 620 480" fill="none" xmlns="http://www.w3.org/2000/svg">
<rect x="200" y="360" width="220" height="100" fill="#994602"/>
<rect x="80" y="360" width="100" height="100" fill="#994602"/>
<rect x="180" y="360" width="20" height="100" fill="#380A14"/>
<rect width="100" height="100" transform="matrix(-1 0 0 1 540 360)" fill="#994602"/>
<rect width="20" height="100" transform="matrix(-1 0 0 1 440 360)" fill="#380A14"/>
<rect x="60" y="340" width="20" height="120" fill="#380A14"/>
<rect x="540" y="340" width="20" height="460" transform="rotate(90 540 340)" fill="#380A14"/>
<rect x="540" y="460" width="20" height="460" transform="rotate(90 540 460)" fill="#380A14"/>
<rect x="540" y="340" width="20" height="120" fill="#380A14"/>
<rect x="320" y="360" width="20" height="20" fill="#999CA8"/>
<rect x="300" y="360" width="20" height="20" fill="black"/>
<rect x="280" y="360" width="20" height="20" fill="#999CA8"/>
<rect x="280" y="380" width="60" height="20" fill="#999CA8"/>
<rect x="540" y="60" width="260" height="20" transform="rotate(90 540 60)" fill="#B05900"/>
<rect x="440" y="60" width="260" height="20" transform="rotate(90 440 60)" fill="#B05900"/>
<rect x="200" y="60" width="260" height="20" transform="rotate(90 200 60)" fill="#B05900"/>
<rect x="100" y="60" width="260" height="20" transform="rotate(90 100 60)" fill="#B05900"/>
<rect x="420" y="120" width="220" height="20" transform="rotate(180 420 120)" fill="#B05900"/>
<rect x="420" y="320" width="220" height="20" transform="rotate(180 420 320)" fill="#B05900"/>
<rect x="340" y="280" width="60" height="20" transform="rotate(180 340 280)" fill="#B05900"/>
<rect x="80" y="120" width="20" height="20" transform="rotate(180 80 120)" fill="#B05900"/>
<rect x="80" y="280" width="20" height="20" transform="rotate(180 80 280)" fill="#B05900"/>
<rect x="280" y="300" width="20" height="40" transform="rotate(180 280 300)" fill="#B05900"/>
<rect x="360" y="300" width="20" height="40" transform="rotate(180 360 300)" fill="#B05900"/>
<rect x="420" y="300" width="220" height="120" transform="rotate(180 420 300)" fill="#EE8800"/>
<rect x="80" y="80" width="20" height="20" transform="rotate(180 80 80)" fill="#EE8800"/>
<rect x="420" y="100" width="220" height="40" transform="rotate(180 420 100)" fill="#EE9F06"/>
<rect x="580" y="300" width="40" height="20" transform="rotate(180 580 300)" fill="#EE9F06"/>
<rect x="80" y="300" width="40" height="20" transform="rotate(180 80 300)" fill="#EE9F06"/>
<rect x="60" y="320" width="20" height="20" transform="rotate(180 60 320)" fill="#EE9F06"/>
<rect x="580" y="320" width="20" height="20" transform="rotate(180 580 320)" fill="#EE9F06"/>
<rect x="420" y="180" width="220" height="60" transform="rotate(180 420 180)" fill="#EE9F06"/>
<rect x="560" y="100" width="20" height="20" transform="rotate(180 560 100)" fill="#FBD17D"/>
<rect x="80" y="100" width="20" height="20" transform="rotate(180 80 100)" fill="#FBD17D"/>
<rect x="80" y="140" width="20" height="20" transform="rotate(180 80 140)" fill="#FBD17D"/>
<rect x="560" y="140" width="20" height="20" transform="rotate(180 560 140)" fill="#FBD17D"/>
<rect x="380" y="140" width="180" height="20" transform="rotate(180 380 140)" fill="#FBD17D"/>
<rect x="300" y="100" width="100" height="20" transform="rotate(180 300 100)" fill="#FBD17D"/>
<rect x="560" y="260" width="20" height="120" transform="rotate(180 560 260)" fill="#EE8800"/>
<rect x="80" y="260" width="20" height="120" transform="rotate(180 80 260)" fill="#EE8800"/>
<rect x="560" y="80" width="20" height="20" transform="rotate(180 560 80)" fill="#EE8800"/>
<rect x="80" y="320" width="20" height="20" transform="rotate(180 80 320)" fill="#B05900"/>
<rect x="560" y="320" width="20" height="20" transform="rotate(180 560 320)" fill="#B05900"/>
<rect x="560" y="280" width="20" height="20" transform="rotate(180 560 280)" fill="#B05900"/>
<rect x="560" y="120" width="20" height="20" transform="rotate(180 560 120)" fill="#B05900"/>
<rect x="20" y="120" width="20" height="20" fill="#380A14"/>
<rect x="60" y="40" width="20" height="20" fill="#380A14"/>
<rect x="100" y="20" width="20" height="20" fill="#380A14"/>
<rect x="120" width="40" height="20" fill="#380A14"/>
<rect x="160" y="20" width="40" height="20" fill="#380A14"/>
<rect x="180" y="40" width="260" height="20" fill="#380A14"/>
<rect x="80" y="20" width="20" height="40" fill="#380A14"/>
<rect width="20" height="20" transform="matrix(-1 0 0 1 560 40)" fill="#380A14"/>
<rect width="20" height="20" transform="matrix(-1 0 0 1 520 20)" fill="#380A14"/>
<rect width="40" height="20" transform="matrix(-1 0 0 1 500 0)" fill="#380A14"/>
<rect width="40" height="20" transform="matrix(-1 0 0 1 460 20)" fill="#380A14"/>
<rect width="20" height="40" transform="matrix(-1 0 0 1 540 20)" fill="#380A14"/>
<rect x="40" y="240" width="20" height="40" fill="#380A14"/>
<rect x="20" y="220" width="580" height="20" fill="#380A14"/>
<rect x="20" y="320" width="580" height="20" fill="#380A14"/>
<rect x="20" y="280" width="20" height="40" fill="#380A14"/>
<rect x="40" y="60" width="20" height="160" fill="#380A14"/>
<rect y="140" width="20" height="80" fill="#380A14"/>
<rect width="20" height="20" transform="matrix(-1 0 0 1 600 120)" fill="#380A14"/>
<rect width="20" height="40" transform="matrix(-1 0 0 1 580 240)" fill="#380A14"/>
<rect width="20" height="40" transform="matrix(-1 0 0 1 600 280)" fill="#380A14"/>
<rect width="20" height="160" transform="matrix(-1 0 0 1 580 60)" fill="#380A14"/>
<rect width="20" height="80" transform="matrix(-1 0 0 1 620 140)" fill="#380A14"/>
<rect x="120" y="40" width="20" height="80" fill="#999CA8"/>
<rect x="120" y="200" width="20" height="100" fill="#999CA8"/>
<rect x="140" y="180" width="20" height="80" fill="#999CA8"/>
<rect x="160" y="220" width="20" height="80" fill="#999CA8"/>
<rect x="100" y="180" width="20" height="100" fill="#999CA8"/>
<rect x="100" y="80" width="20" height="20" transform="rotate(-90 100 80)" fill="#999CA8"/>
<rect x="140" y="100" width="20" height="20" transform="rotate(-90 140 100)" fill="#999CA8"/>
<rect x="160" y="60" width="20" height="60" fill="#999CA8"/>
<rect x="120" y="180" width="20" height="100" transform="rotate(180 120 180)" fill="#F4F9F3"/>
<rect x="180" y="220" width="20" height="100" transform="rotate(180 180 220)" fill="#F4F9F3"/>
<rect x="140" y="200" width="20" height="80" transform="rotate(180 140 200)" fill="#F4F9F3"/>
<rect x="160" y="180" width="20" height="80" transform="rotate(180 160 180)" fill="#F4F9F3"/>
<rect width="40" height="20" transform="matrix(-1 0 0 1 160 20)" fill="#6B6D7C"/>
<rect width="20" height="40" transform="matrix(-1 0 0 1 160 40)" fill="#6B6D7C"/>
<rect width="20" height="40" transform="matrix(-1 0 0 1 140 300)" fill="#6B6D7C"/>
<rect width="20" height="40" transform="matrix(-1 0 0 1 180 300)" fill="#6B6D7C"/>
<rect width="20" height="80" transform="matrix(-1 0 0 1 160 260)" fill="#6B6D7C"/>
<rect width="20" height="60" transform="matrix(-1 0 0 1 120 280)" fill="#6B6D7C"/>
<rect width="20" height="20" transform="matrix(-1 0 0 1 180 40)" fill="#6B6D7C"/>
<rect width="20" height="20" transform="matrix(-1 0 0 1 120 40)" fill="#6B6D7C"/>
<rect x="460" y="40" width="20" height="80" fill="#999CA8"/>
<rect x="460" y="200" width="20" height="100" fill="#999CA8"/>
<rect x="480" y="180" width="20" height="80" fill="#999CA8"/>
<rect x="500" y="220" width="20" height="60" fill="#999CA8"/>
<rect x="440" y="180" width="20" height="100" fill="#999CA8"/>
<rect x="440" y="80" width="20" height="20" transform="rotate(-90 440 80)" fill="#999CA8"/>
<rect x="480" y="100" width="20" height="20" transform="rotate(-90 480 100)" fill="#999CA8"/>
<rect x="500" y="60" width="20" height="60" fill="#999CA8"/>
<rect x="460" y="180" width="20" height="100" transform="rotate(180 460 180)" fill="#F4F9F3"/>
<rect x="520" y="220" width="20" height="100" transform="rotate(180 520 220)" fill="#F4F9F3"/>
<rect x="480" y="200" width="20" height="80" transform="rotate(180 480 200)" fill="#F4F9F3"/>
<rect x="500" y="180" width="20" height="80" transform="rotate(180 500 180)" fill="#F4F9F3"/>
<rect width="40" height="20" transform="matrix(-1 0 0 1 500 20)" fill="#6B6D7C"/>
<rect width="20" height="40" transform="matrix(-1 0 0 1 500 40)" fill="#6B6D7C"/>
<rect width="20" height="40" transform="matrix(-1 0 0 1 480 300)" fill="#6B6D7C"/>
<rect width="20" height="60" transform="matrix(-1 0 0 1 520 280)" fill="#6B6D7C"/>
<rect width="20" height="80" transform="matrix(-1 0 0 1 500 260)" fill="#6B6D7C"/>
<rect width="20" height="60" transform="matrix(-1 0 0 1 460 280)" fill="#6B6D7C"/>
<rect width="20" height="20" transform="matrix(-1 0 0 1 520 40)" fill="#6B6D7C"/>
<rect width="20" height="20" transform="matrix(-1 0 0 1 460 40)" fill="#6B6D7C"/>
<rect x="280" y="300" width="20" height="40" transform="rotate(-90 280 300)" fill="#F4F9F3"/>
<rect x="300" y="300" width="20" height="60" fill="black"/>
<rect x="280" y="300" width="20" height="60" fill="#999CA8"/>
<rect x="320" y="280" width="20" height="80" fill="#999CA8"/>
<rect x="580" y="180" width="20" height="20" transform="rotate(-90 580 180)" fill="#F4F9F3"/>
<rect x="580" y="180" width="20" height="40" fill="#999CA8"/>
<rect x="580" y="140" width="20" height="20" fill="#999CA8"/>
<rect x="20" y="180" width="20" height="20" transform="rotate(-90 20 180)" fill="#F4F9F3"/>
<rect x="20" y="180" width="20" height="40" fill="#999CA8"/>
<rect x="20" y="140" width="20" height="20" fill="#999CA8"/>
</svg>
