<svg width="500" height="340" viewBox="0 0 500 340" fill="none" xmlns="http://www.w3.org/2000/svg">
<rect x="20" y="180" width="460" height="20" fill="#EE8800"/>
<rect x="40" y="40" width="140" height="20" transform="rotate(90 40 40)" fill="#EE8800"/>
<rect x="480" y="40" width="140" height="20" transform="rotate(90 480 40)" fill="#EE8800"/>
<rect x="60" y="40" width="380" height="80" fill="#380A14"/>
<rect x="20" y="20" width="460" height="20" fill="#B35A06"/>
<rect x="60" y="40" width="140" height="20" transform="rotate(90 60 40)" fill="#B35A06"/>
<rect x="460" y="40" width="140" height="20" transform="rotate(90 460 40)" fill="#B35A06"/>
<rect x="140" y="220" width="220" height="100" fill="#994602"/>
<rect x="80" y="120" width="340" height="60" fill="#994602"/>
<rect x="20" y="220" width="100" height="100" fill="#994602"/>
<rect x="120" y="220" width="20" height="100" fill="#380A14"/>
<rect width="100" height="100" transform="matrix(-1 0 0 1 480 220)" fill="#994602"/>
<rect width="20" height="100" transform="matrix(-1 0 0 1 380 220)" fill="#380A14"/>
<rect width="20" height="60" transform="matrix(-1 0 0 1 440 120)" fill="#380A14"/>
<rect width="20" height="60" transform="matrix(-1 0 0 1 80 120)" fill="#380A14"/>
<rect y="20" width="20" height="300" fill="#380A14"/>
<rect x="480" y="200" width="20" height="460" transform="rotate(90 480 200)" fill="#380A14"/>
<rect x="480" y="320" width="20" height="460" transform="rotate(90 480 320)" fill="#380A14"/>
<rect x="480" y="20" width="20" height="300" fill="#380A14"/>
<rect width="500" height="20" fill="#380A14"/>
<rect x="260" y="220" width="20" height="20" fill="#999CA8"/>
<rect x="240" y="220" width="20" height="20" fill="black"/>
<rect x="220" y="220" width="20" height="20" fill="#999CA8"/>
<rect x="220" y="240" width="60" height="20" fill="#999CA8"/>
<rect x="60" y="140" width="20" height="40" fill="#ED9C15"/>
<rect x="200" y="160" width="20" height="80" transform="rotate(90 200 160)" fill="#ED9C15"/>
<rect x="440" y="180" width="20" height="80" transform="rotate(180 440 180)" fill="#ED9C15"/>
<rect x="360" y="160" width="20" height="80" transform="rotate(90 360 160)" fill="#ED9C15"/>
<rect x="100" y="80" width="20" height="40" fill="#ED9C15"/>
<rect x="120" y="100" width="20" height="40" fill="#ED9C15"/>
<rect x="180" y="100" width="20" height="40" fill="#ED9C15"/>
<rect x="360" y="80" width="20" height="40" fill="#ED9C15"/>
<rect x="220" y="20" width="20" height="40" fill="#ED9C15"/>
<rect x="240" y="80" width="20" height="40" fill="#ED9C15"/>
<rect x="300" y="80" width="20" height="60" fill="#ED9C15"/>
<rect x="220" y="60" width="20" height="60" transform="rotate(90 220 60)" fill="#ED9C15"/>
<rect x="260" y="100" width="20" height="60" fill="#ED9C15"/>
<rect x="80" y="120" width="20" height="20" fill="#ED9C15"/>
<rect x="400" y="100" width="20" height="20" fill="#ED9C15"/>
<rect x="340" y="60" width="20" height="20" fill="#ED9C15"/>
<rect x="140" y="40" width="20" height="20" fill="#ED9C15"/>
<rect x="320" y="100" width="20" height="20" fill="#ED9C15"/>
<rect x="220" y="140" width="20" height="20" fill="#ED9C15"/>
<rect x="380" y="120" width="20" height="20" fill="#ED9C15"/>
<rect x="160" y="120" width="20" height="20" fill="#ED9C15"/>
<rect x="100" y="140" width="20" height="20" fill="#ED9C15"/>
<rect x="160" y="100" width="20" height="20" fill="#F9FB6E"/>
<rect x="180" y="40" width="20" height="20" fill="#F9FB6E"/>
<rect x="120" y="80" width="20" height="20" fill="#68FEE3"/>
<rect x="140" y="100" width="20" height="20" fill="#68FEE3"/>
<rect x="320" y="60" width="20" height="20" fill="#68FEE3"/>
<rect x="160" y="80" width="40" height="20" fill="#F9FB6E"/>
<rect x="360" y="120" width="40" height="20" transform="rotate(90 360 120)" fill="#F9FB6E"/>
<rect x="220" y="20" width="40" height="20" transform="rotate(90 220 20)" fill="#F9FB6E"/>
<rect x="360" y="100" width="40" height="20" transform="rotate(180 360 100)" fill="#F9FB6E"/>
<rect x="360" y="60" width="40" height="20" transform="rotate(180 360 60)" fill="#F9FB6E"/>
<rect x="400" y="80" width="40" height="20" transform="rotate(180 400 80)" fill="#F9FB6E"/>
<rect x="440" y="100" width="40" height="20" transform="rotate(180 440 100)" fill="#F9FB6E"/>
<rect x="320" y="80" width="40" height="20" transform="rotate(180 320 80)" fill="#F9FB6E"/>
<rect x="280" y="40" width="40" height="20" transform="rotate(180 280 40)" fill="#F9FB6E"/>
<rect x="280" y="160" width="80" height="20" transform="rotate(-90 280 160)" fill="#F9FB6E"/>
<rect x="260" y="80" width="20" height="20" fill="#F9FB6E"/>
<rect x="180" y="140" width="20" height="20" fill="#F9FB6E"/>
<rect x="100" y="120" width="20" height="20" fill="#F9FB6E"/>
<rect x="380" y="140" width="20" height="20" fill="#F9FB6E"/>
<rect x="300" y="140" width="20" height="20" fill="#F9FB6E"/>
<rect x="220" y="120" width="40" height="20" fill="#F9FB6E"/>
<rect x="220" y="100" width="40" height="20" transform="rotate(90 220 100)" fill="#F9FB6E"/>
<rect x="400" y="80" width="40" height="20" transform="rotate(90 400 80)" fill="#F9FB6E"/>
<rect x="160" y="40" width="20" height="20" fill="#FF0000"/>
<rect x="320" y="120" width="20" height="20" fill="#FF0000"/>
<rect x="340" y="100" width="20" height="20" fill="#FF0000"/>
<rect x="260" y="60" width="20" height="20" fill="#38DB56"/>
<rect x="240" y="40" width="20" height="20" fill="#38DB56"/>
<rect x="240" y="140" width="20" height="20" fill="#38DB56"/>
<rect x="60" y="120" width="20" height="20" fill="#FBCF14"/>
<rect x="160" y="140" width="20" height="20" fill="#FBCF14"/>
<rect x="240" y="60" width="20" height="20" fill="#FBCF14"/>
<rect x="320" y="140" width="20" height="20" fill="#FBCF14"/>
<rect x="280" y="20" width="20" height="20" fill="#FBCF14"/>
<rect x="200" y="140" width="20" height="20" fill="#FBCF14"/>
<rect x="80" y="80" width="20" height="40" fill="#FBCF14"/>
<rect x="140" y="120" width="20" height="40" fill="#FBCF14"/>
<rect x="220" y="60" width="20" height="40" fill="#FBCF14"/>
<rect x="100" y="160" width="20" height="20" fill="#FBCF14"/>
<rect x="80" y="140" width="20" height="40" fill="#FBCF14"/>
<rect x="140" y="60" width="20" height="40" fill="#FBCF14"/>
<rect x="360" y="120" width="20" height="40" fill="#FBCF14"/>
<rect x="400" y="120" width="20" height="40" fill="#FBCF14"/>
<rect x="140" y="60" width="20" height="40" transform="rotate(90 140 60)" fill="#FBCF14"/>
<rect x="280" y="160" width="20" height="80" transform="rotate(90 280 160)" fill="#FBCF14"/>
<rect x="420" y="160" width="20" height="60" transform="rotate(90 420 160)" fill="#FBCF14"/>
<rect x="320" y="40" width="20" height="60" transform="rotate(90 320 40)" fill="#FBCF14"/>
<rect x="120" y="140" width="20" height="20" fill="#E412D5"/>
<rect x="200" y="80" width="20" height="20" fill="#E412D5"/>
<rect x="220" y="100" width="20" height="20" fill="#E412D5"/>
</svg>
