<svg width="500" height="140" viewBox="0 0 500 140" fill="none" xmlns="http://www.w3.org/2000/svg">
<rect x="140" y="20" width="220" height="100" fill="#994602"/>
<rect x="20" y="20" width="100" height="100" fill="#994602"/>
<rect x="120" y="20" width="20" height="100" fill="#380A14"/>
<rect width="100" height="100" transform="matrix(-1 0 0 1 480 20)" fill="#994602"/>
<rect width="20" height="100" transform="matrix(-1 0 0 1 380 20)" fill="#380A14"/>
<rect width="20" height="120" fill="#380A14"/>
<rect x="480" width="20" height="460" transform="rotate(90 480 0)" fill="#380A14"/>
<rect x="480" y="120" width="20" height="460" transform="rotate(90 480 120)" fill="#380A14"/>
<rect x="480" width="20" height="120" fill="#380A14"/>
<rect x="260" y="20" width="20" height="20" fill="#999CA8"/>
<rect x="240" y="20" width="20" height="20" fill="black"/>
<rect x="220" y="20" width="20" height="20" fill="#999CA8"/>
<rect x="220" y="40" width="60" height="20" fill="#999CA8"/>
</svg>
