<svg width="500" height="340" viewBox="0 0 500 340" fill="none" xmlns="http://www.w3.org/2000/svg">
<rect x="20" y="180" width="460" height="20" fill="#EE8800"/>
<rect x="40" y="40" width="140" height="20" transform="rotate(90 40 40)" fill="#EE8800"/>
<rect x="480" y="40" width="140" height="20" transform="rotate(90 480 40)" fill="#EE8800"/>
<rect x="60" y="40" width="380" height="80" fill="#380A14"/>
<rect x="20" y="20" width="460" height="20" fill="#B35A06"/>
<rect x="60" y="40" width="140" height="20" transform="rotate(90 60 40)" fill="#B35A06"/>
<rect x="460" y="40" width="140" height="20" transform="rotate(90 460 40)" fill="#B35A06"/>
<rect x="140" y="220" width="220" height="100" fill="#994602"/>
<rect x="80" y="120" width="340" height="60" fill="#994602"/>
<rect x="20" y="220" width="100" height="100" fill="#994602"/>
<rect x="120" y="220" width="20" height="100" fill="#380A14"/>
<rect width="100" height="100" transform="matrix(-1 0 0 1 480 220)" fill="#994602"/>
<rect width="20" height="100" transform="matrix(-1 0 0 1 380 220)" fill="#380A14"/>
<rect width="20" height="60" transform="matrix(-1 0 0 1 440 120)" fill="#380A14"/>
<rect width="20" height="60" transform="matrix(-1 0 0 1 80 120)" fill="#380A14"/>
<rect y="20" width="20" height="300" fill="#380A14"/>
<rect x="480" y="200" width="20" height="460" transform="rotate(90 480 200)" fill="#380A14"/>
<rect x="480" y="320" width="20" height="460" transform="rotate(90 480 320)" fill="#380A14"/>
<rect x="480" y="20" width="20" height="300" fill="#380A14"/>
<rect width="500" height="20" fill="#380A14"/>
<rect x="260" y="220" width="20" height="20" fill="#999CA8"/>
<rect x="240" y="220" width="20" height="20" fill="black"/>
<rect x="220" y="220" width="20" height="20" fill="#999CA8"/>
<rect x="220" y="240" width="60" height="20" fill="#999CA8"/>
</svg>
