<svg width="95" height="191" viewBox="0 0 95 191" fill="none" xmlns="http://www.w3.org/2000/svg">
<path d="M6.00004 0H94.5V48H0L4.12464e-05 6H6.00004V0Z" fill="#8F999F"/>
<rect y="24" width="89" height="24" fill="#697283"/>
<rect x="95" y="48" width="6" height="95" transform="rotate(90 95 48)" fill="#445064"/>
<rect x="29" y="18" width="6" height="6" fill="#687181"/>
<rect x="29" y="24" width="6" height="24" fill="#445064"/>
<rect x="35" y="12" width="6" height="6" fill="#687181"/>
<rect x="89" y="18" width="6" height="6" fill="#687181"/>
<rect x="89" y="24" width="6" height="24" fill="#445064"/>
<rect x="41" y="6" width="6" height="6" fill="#687181"/>
<rect y="179" width="18" height="6" transform="rotate(-90 0 179)" fill="#9198A1"/>
<rect x="6" y="185" width="12" height="6" transform="rotate(-90 6 185)" fill="#9198A1"/>
<rect x="12" y="191" width="12" height="6" transform="rotate(-90 12 191)" fill="#9198A1"/>
<rect x="18" y="185" width="41" height="6" fill="#9198A1"/>
<rect x="27" y="54" width="68" height="107" fill="#2E344B"/>
<rect y="72" width="29" height="24" fill="#677283"/>
<rect y="60" width="27" height="12" fill="#677283"/>
<rect y="102" width="24" height="30" fill="#677283"/>
<rect x="65" y="161" width="24" height="30" fill="#677283"/>
<rect y="138" width="24" height="23" fill="#677283"/>
<rect x="18" y="167" width="24" height="18" fill="#677283"/>
<rect x="42" y="167" width="17" height="18" fill="#677283"/>
<rect x="6" y="161" width="12" height="12" fill="#677283"/>
<rect x="12" y="167" width="12" height="12" fill="#677283"/>
<rect x="12" y="158" width="12" height="12" fill="#677283"/>
<rect x="24" y="155" width="5" height="12" fill="#677283"/>
<rect x="29" y="161" width="6" height="12" fill="#677283"/>
<path d="M0 72H29V78H4.97143V84H0V72Z" fill="#8F98A2"/>
<path d="M0 102H24V108H6.26087V114H0V102Z" fill="#8F98A2"/>
<path d="M65 191H89V185H71.2609V179H65V191Z" fill="#8F98A2"/>
<path d="M0 138H24V144H6.26087V150H0V138Z" fill="#8F98A2"/>
<rect x="77" y="60" width="12" height="12" fill="#455063"/>
<rect y="60" width="6" height="6" fill="#455063"/>
<rect x="53" y="60" width="18" height="12" fill="#455063"/>
<rect x="29" y="72" width="18" height="24" fill="#455063"/>
<rect x="24" y="102" width="17" height="30" fill="#455063"/>
<rect x="89" y="144" width="17" height="30" transform="rotate(90 89 144)" fill="#455063"/>
<rect x="95" y="185" width="6" height="30" transform="rotate(180 95 185)" fill="#455063"/>
<rect x="53" y="78" width="18" height="18" fill="#455063"/>
<rect x="9" y="54" width="62" height="6" fill="#455063"/>
<rect x="47" y="120" width="18" height="18" fill="#455063"/>
<rect x="59" y="102" width="12" height="12" fill="#455063"/>
<rect x="35" y="155" width="12" height="12" fill="#455063"/>
<rect x="24" y="144" width="11" height="11" fill="#455063"/>
<rect x="29" y="155" width="6" height="6" fill="#455063"/>
<rect x="35" y="150" width="6" height="5" fill="#455063"/>
<rect x="24" y="132" width="5" height="12" fill="#455063"/>
<rect x="24" y="132" width="6" height="24" transform="rotate(90 24 132)" fill="#455063"/>
<rect x="29" y="96" width="6" height="24" transform="rotate(90 29 96)" fill="#455063"/>
<rect x="47" y="161" width="18" height="6" fill="#455063"/>
<rect x="65" y="167" width="18" height="6" transform="rotate(90 65 167)" fill="#455063"/>
</svg>
