<svg width="95" height="191" viewBox="0 0 95 191" fill="none" xmlns="http://www.w3.org/2000/svg">
<path d="M89 0H0.499962V48H95L95 6H89V0Z" fill="#8F999F"/>
<rect width="89" height="24" transform="matrix(-1 0 0 1 95 24)" fill="#697283"/>
<rect width="6" height="95" transform="matrix(0 1 1 0 0 48)" fill="#445064"/>
<rect width="6" height="6" transform="matrix(-1 0 0 1 66 18)" fill="#687181"/>
<rect width="6" height="24" transform="matrix(-1 0 0 1 66 24)" fill="#445064"/>
<rect width="6" height="6" transform="matrix(-1 0 0 1 60 12)" fill="#687181"/>
<rect width="6" height="6" transform="matrix(-1 0 0 1 6 18)" fill="#687181"/>
<rect width="6" height="24" transform="matrix(-1 0 0 1 6 24)" fill="#445064"/>
<rect width="6" height="6" transform="matrix(-1 0 0 1 54 6)" fill="#687181"/>
<rect width="18" height="6" transform="matrix(0 -1 -1 0 95 179)" fill="#9198A1"/>
<rect width="12" height="6" transform="matrix(0 -1 -1 0 89 185)" fill="#9198A1"/>
<rect width="12" height="6" transform="matrix(0 -1 -1 0 83 191)" fill="#9198A1"/>
<rect width="41" height="6" transform="matrix(-1 0 0 1 77 185)" fill="#9198A1"/>
<rect width="68" height="107" transform="matrix(-1 0 0 1 68 54)" fill="#2E344B"/>
<rect width="29" height="24" transform="matrix(-1 0 0 1 95 72)" fill="#677283"/>
<rect width="27" height="12" transform="matrix(-1 0 0 1 95 60)" fill="#677283"/>
<rect width="24" height="30" transform="matrix(-1 0 0 1 95 102)" fill="#677283"/>
<rect width="24" height="30" transform="matrix(-1 0 0 1 30 161)" fill="#677283"/>
<rect width="24" height="23" transform="matrix(-1 0 0 1 95 138)" fill="#677283"/>
<rect width="24" height="18" transform="matrix(-1 0 0 1 77 167)" fill="#677283"/>
<rect width="17" height="18" transform="matrix(-1 0 0 1 53 167)" fill="#677283"/>
<rect width="12" height="12" transform="matrix(-1 0 0 1 89 161)" fill="#677283"/>
<rect width="12" height="12" transform="matrix(-1 0 0 1 83 167)" fill="#677283"/>
<rect width="12" height="12" transform="matrix(-1 0 0 1 83 158)" fill="#677283"/>
<rect width="5" height="12" transform="matrix(-1 0 0 1 71 155)" fill="#677283"/>
<rect width="6" height="12" transform="matrix(-1 0 0 1 66 161)" fill="#677283"/>
<path d="M95 72H66V78H90.0286V84H95V72Z" fill="#8F98A2"/>
<path d="M95 102H71V108H88.7391V114H95V102Z" fill="#8F98A2"/>
<path d="M30 191H6V185H23.7391V179H30V191Z" fill="#8F98A2"/>
<path d="M95 138H71V144H88.7391V150H95V138Z" fill="#8F98A2"/>
<rect width="12" height="12" transform="matrix(-1 0 0 1 18 60)" fill="#455063"/>
<rect width="6" height="6" transform="matrix(-1 0 0 1 95 60)" fill="#455063"/>
<rect width="18" height="12" transform="matrix(-1 0 0 1 42 60)" fill="#455063"/>
<rect width="18" height="24" transform="matrix(-1 0 0 1 66 72)" fill="#455063"/>
<rect width="17" height="30" transform="matrix(-1 0 0 1 71 102)" fill="#455063"/>
<rect width="17" height="30" transform="matrix(0 1 1 0 6 144)" fill="#455063"/>
<rect width="6" height="30" transform="matrix(1 0 0 -1 0 185)" fill="#455063"/>
<rect width="18" height="18" transform="matrix(-1 0 0 1 42 78)" fill="#455063"/>
<rect width="62" height="6" transform="matrix(-1 0 0 1 86 54)" fill="#455063"/>
<rect width="18" height="18" transform="matrix(-1 0 0 1 48 120)" fill="#455063"/>
<rect width="12" height="12" transform="matrix(-1 0 0 1 36 102)" fill="#455063"/>
<rect width="12" height="12" transform="matrix(-1 0 0 1 60 155)" fill="#455063"/>
<rect width="11" height="11" transform="matrix(-1 0 0 1 71 144)" fill="#455063"/>
<rect width="6" height="6" transform="matrix(-1 0 0 1 66 155)" fill="#455063"/>
<rect width="6" height="5" transform="matrix(-1 0 0 1 60 150)" fill="#455063"/>
<rect width="5" height="12" transform="matrix(-1 0 0 1 71 132)" fill="#455063"/>
<rect width="6" height="24" transform="matrix(0 1 1 0 71 132)" fill="#455063"/>
<rect width="6" height="24" transform="matrix(0 1 1 0 66 96)" fill="#455063"/>
<rect width="18" height="6" transform="matrix(-1 0 0 1 48 161)" fill="#455063"/>
<rect width="18" height="6" transform="matrix(0 1 1 0 30 167)" fill="#455063"/>
</svg>
