<svg width="382" height="95" viewBox="0 0 382 95" fill="none" xmlns="http://www.w3.org/2000/svg">
<rect width="382" height="65" fill="#2E3249"/>
<rect x="6" y="18" width="12" height="12" fill="#455063"/>
<rect x="36" y="35" width="18" height="18" fill="#455063"/>
<rect x="131" y="35" width="18" height="18" fill="#455063"/>
<rect x="227" y="35" width="18" height="18" fill="#455063"/>
<rect x="322" y="35" width="18" height="18" fill="#455063"/>
<rect x="102" y="18" width="11" height="12" fill="#455063"/>
<rect x="197" y="18" width="12" height="12" fill="#455063"/>
<rect x="292" y="18" width="12" height="12" fill="#455063"/>
<g opacity="0.8">
<rect y="65" width="30" height="30" fill="#677281"/>
<rect x="96" y="65" width="30" height="30" fill="#677281"/>
<rect x="191" y="65" width="30" height="30" fill="#677281"/>
<rect x="286" y="65" width="30" height="30" fill="#677281"/>
<rect x="346" y="71" width="30" height="24" fill="#677281"/>
<rect x="251" y="71" width="30" height="24" fill="#677281"/>
<rect x="155" y="71" width="30" height="24" fill="#677281"/>
<rect x="60" y="71" width="30" height="24" fill="#677281"/>
<rect x="36" y="71" width="18" height="24" fill="#677281"/>
<rect x="131" y="71" width="18" height="24" fill="#677281"/>
<rect x="227" y="71" width="18" height="24" fill="#677281"/>
<rect x="322" y="71" width="18" height="24" fill="#677281"/>
</g>
<rect y="89" width="30" height="6" fill="#9198A1"/>
<rect x="60" y="89" width="30" height="6" fill="#9198A1"/>
<rect x="155" y="89" width="30" height="6" fill="#9198A1"/>
<rect x="191" y="89" width="30" height="6" fill="#9198A1"/>
<rect x="286" y="89" width="30" height="6" fill="#9198A1"/>
<rect x="346" y="89" width="30" height="6" fill="#9198A1"/>
<rect x="251" y="89" width="29" height="6" fill="#9198A1"/>
<rect x="96" y="89" width="29" height="6" fill="#9198A1"/>
<rect x="36" y="89" width="18" height="6" fill="#9198A1"/>
<rect x="131" y="89" width="18" height="6" fill="#9198A1"/>
<rect x="227" y="89" width="18" height="6" fill="#9198A1"/>
<rect x="322" y="89" width="18" height="6" fill="#9198A1"/>
<rect x="322" y="83" width="6" height="6" fill="#9198A1"/>
<rect x="346" y="83" width="6" height="6" fill="#9198A1"/>
<rect x="286" y="83" width="6" height="6" fill="#9198A1"/>
<rect x="251" y="83" width="6" height="6" fill="#9198A1"/>
<rect x="227" y="83" width="6" height="6" fill="#9198A1"/>
<rect x="191" y="83" width="6" height="6" fill="#9198A1"/>
<rect x="155" y="83" width="6" height="6" fill="#9198A1"/>
<rect x="131" y="83" width="6" height="6" fill="#9198A1"/>
<rect x="96" y="83" width="6" height="6" fill="#9198A1"/>
<rect x="60" y="83" width="6" height="6" fill="#9198A1"/>
<rect x="36" y="83" width="6" height="6" fill="#9198A1"/>
<rect y="83" width="6" height="6" fill="#9198A1"/>
<rect y="41" width="30" height="24" fill="#455063"/>
<rect x="96" y="41" width="29" height="24" fill="#455063"/>
<rect x="155" y="47" width="30" height="24" fill="#455063"/>
<rect x="191" y="41" width="30" height="24" fill="#455063"/>
<rect x="251" y="47" width="29" height="24" fill="#455063"/>
<rect x="286" y="41" width="30" height="24" fill="#455063"/>
<rect x="346" y="47" width="30" height="24" fill="#455063"/>
<rect x="30" y="59" width="6" height="30" fill="#455063"/>
<rect x="54" y="65" width="6" height="24" fill="#455063"/>
<rect x="90" y="65" width="6" height="24" fill="#455063"/>
<rect x="125" y="59" width="6" height="30" fill="#455063"/>
<rect x="149" y="65" width="6" height="24" fill="#455063"/>
<rect x="185" y="65" width="6" height="24" fill="#455063"/>
<rect x="245" y="65" width="6" height="24" fill="#455063"/>
<rect x="280" y="65" width="6" height="24" fill="#455063"/>
<rect x="340" y="65" width="6" height="24" fill="#455063"/>
<rect x="376" y="65" width="6" height="24" fill="#455063"/>
<rect x="316" y="59" width="6" height="30" fill="#455063"/>
<rect x="221" y="59" width="6" height="30" fill="#455063"/>
<rect x="60" y="47" width="30" height="24" fill="#455063"/>
<rect x="322" y="59" width="18" height="12" fill="#455063"/>
<rect x="227" y="59" width="18" height="12" fill="#455063"/>
<rect x="131" y="59" width="18" height="12" fill="#455063"/>
<rect x="36" y="59" width="18" height="12" fill="#455063"/>
</svg>
