<svg width="200" height="200" viewBox="0 0 200 200" fill="none" xmlns="http://www.w3.org/2000/svg">
<rect x="25" y="150" width="25" height="25" fill="#222035"/>
<rect x="150" y="150" width="25" height="25" fill="#222035"/>
<rect x="25" y="25" width="25" height="25" fill="#222035"/>
<rect x="150" y="25" width="25" height="25" fill="#222035"/>
<rect x="125" y="50" width="25" height="25" fill="#7D7D7D"/>
<rect x="50" y="125" width="25" height="25" fill="#7D7D7D"/>
<rect x="25" y="125" width="25" height="25" fill="#C5C5C5"/>
<rect x="150" y="50" width="25" height="25" fill="#CDCDCD"/>
<rect x="125" y="75" width="25" height="50" fill="#CDCDCD"/>
<rect x="125" y="125" width="25" height="50" transform="rotate(90 125 125)" fill="#CDCDCD"/>
<rect x="125" y="50" width="25" height="50" transform="rotate(90 125 50)" fill="white"/>
<rect x="75" y="125" width="25" height="50" transform="rotate(180 75 125)" fill="white"/>
<rect x="150" y="25" width="25" height="75" transform="rotate(90 150 25)" fill="#CDCDCD"/>
<rect x="50" y="25" width="25" height="50" fill="#7D7D7D"/>
<rect x="25" y="50" width="25" height="75" fill="#7D7D7D"/>
<rect x="125" y="150" width="25" height="75" transform="rotate(90 125 150)" fill="#DCDCDC"/>
<rect x="75" y="75" width="50" height="50" fill="#7D7D7D"/>
<rect x="125" y="125" width="25" height="50" fill="#7D7D7D"/>
<rect x="150" y="75" width="25" height="75" fill="#7D7D7D"/>
<rect x="50" y="175" width="100" height="25" fill="#222035"/>
<rect x="50" width="100" height="25" fill="#222035"/>
<rect x="200" y="50" width="100" height="25" transform="rotate(90 200 50)" fill="#222035"/>
<rect x="25" y="50" width="100" height="25" transform="rotate(90 25 50)" fill="#222035"/>
</svg>
