<svg width="68" height="280" viewBox="0 0 68 280" fill="none" xmlns="http://www.w3.org/2000/svg">
<rect width="68" height="280" fill="#2E344B"/>
<rect width="35" height="30" fill="#677283"/>
<rect y="59" width="35" height="30" fill="#677283"/>
<rect y="95" width="35" height="30" fill="#677283"/>
<rect y="95" width="35" height="30" fill="#677283"/>
<rect y="95" width="35" height="30" fill="#677283"/>
<rect y="95" width="35" height="30" fill="#677283"/>
<rect y="155" width="35" height="30" fill="#677283"/>
<rect y="191" width="35" height="29" fill="#677283"/>
<rect y="250" width="35" height="30" fill="#677283"/>
<rect y="226" width="23" height="24" fill="#677283"/>
<rect y="131" width="23" height="24" fill="#677283"/>
<rect y="36" width="23" height="23" fill="#677283"/>
<rect x="35" width="24" height="30" fill="#445063"/>
<rect x="35" y="59" width="24" height="30" fill="#445063"/>
<rect x="35" y="95" width="24" height="30" fill="#445063"/>
<rect x="35" y="155" width="24" height="30" fill="#445063"/>
<rect x="35" y="191" width="24" height="29" fill="#445063"/>
<rect x="35" y="250" width="24" height="30" fill="#445063"/>
<rect x="23" y="226" width="24" height="24" fill="#445063"/>
<rect x="23" y="131" width="24" height="24" fill="#445063"/>
<rect x="23" y="36" width="24" height="23" fill="#445063"/>
<rect x="6" y="30" width="23" height="6" fill="#445063"/>
<rect x="6" y="125" width="23" height="6" fill="#445063"/>
<rect x="6" y="220" width="23" height="6" fill="#445063"/>
<path d="M0 0H35V6H6V12H0V0Z" fill="#8F98A2"/>
<path d="M0 59H35V65H6V71H0V59Z" fill="#8F98A2"/>
<path d="M0 95H35V101H6V107H0V95Z" fill="#8F98A2"/>
<path d="M0 155H35V161H6V167H0V155Z" fill="#8F98A2"/>
<path d="M0 190H35V196H6V202H0V190Z" fill="#8F98A2"/>
<path d="M0 250H35V256H6V262H0V250Z" fill="#8F98A2"/>
<path d="M0 226H23V232H6V238H0V226Z" fill="#8F98A2"/>
<path d="M0 131H23V137H6V143H0V131Z" fill="#8F98A2"/>
<path d="M0 35H23V41H6V47H0V35Z" fill="#8F98A2"/>
<rect opacity="0.8" x="53" y="36" width="12" height="11" fill="#455063"/>
<rect opacity="0.8" x="53" y="131" width="12" height="12" fill="#455063"/>
<rect opacity="0.8" x="53" y="226" width="12" height="12" fill="#455063"/>
</svg>
