<svg width="598" height="912" viewBox="0 0 598 912" fill="none" xmlns="http://www.w3.org/2000/svg">
<path d="M44.0794 772.133H16.1847V887.803H44.0794V772.133Z" fill="black"/>
<path d="M124.416 884.813H42.5917V911.978H124.416V884.813Z" fill="black"/>
<path d="M153.799 857.304H122.17V886.687H153.799V857.304Z" fill="black"/>
<path d="M124.788 806.35H99.125V861.024H124.788V806.35Z" fill="black"/>
<path d="M100.985 775.852H72.7085V808.036H100.985V775.852Z" fill="black"/>
<path d="M123.672 710.764H43.3356V772.505H123.672V710.764Z" fill="black"/>
<path d="M179.09 710.47H112.142V740.891H179.09V710.47Z" fill="black"/>
<path d="M153.165 689.192H70.8583V714.112H153.165V689.192Z" fill="black"/>
<path d="M101.914 767.856H72.52V786.638H101.914V767.856Z" fill="black"/>
<path d="M261.704 686.695H177.13V713.138H261.704V686.695Z" fill="black"/>
<path d="M127.314 630.032H101.661V697.884H127.314V630.032Z" fill="black"/>
<path d="M154.01 601.365H124.278V633.454H154.01V601.365Z" fill="black"/>
<path d="M208.45 601.219H176.983V632.795H208.45V601.219Z" fill="black"/>
<path d="M183.206 520.357H152.552V603.616H183.206V520.357Z" fill="black"/>
<path d="M207.657 521.152H180.296V548.907H207.657V521.152Z" fill="black"/>
<path d="M261.286 488.351H205.869V522.995H261.286V488.351Z" fill="black"/>
<path d="M290.299 429.586H257.939V490.479H290.299V429.586Z" fill="black"/>
<path d="M339.949 403.551H288.251V431.074H339.949V403.551Z" fill="black"/>
<path d="M289.316 712.011H258.497V780.687H289.316V712.011Z" fill="black"/>
<path d="M395.924 777.337H287.321V804.305H395.924V777.337Z" fill="black"/>
<path d="M396.482 742.192H365.69V782.547H396.482V742.192Z" fill="black"/>
<path d="M367.467 715.202H339.655V745.356H367.467V715.202Z" fill="black"/>
<path d="M341.995 634.705H314.844V718.389H341.995V634.705Z" fill="black"/>
<path d="M288.995 656.727H258.069V689.379H288.995V656.727Z" fill="black"/>
<path d="M315.588 599.156H285.803V659.066H315.588V599.156Z" fill="black"/>
<path d="M315.191 518.542H283.268V551.222H315.191V518.542Z" fill="black"/>
<path d="M340.507 547.209H311.627V602.254H340.507V547.209Z" fill="black"/>
<path d="M476.261 663.715H340.135V690.494H476.261V663.715Z" fill="black"/>
<path d="M419.728 607.182H341.065V636.193H419.728V607.182Z" fill="black"/>
<path d="M394.251 635.263H340.693V667.063H394.251V635.263Z" fill="black"/>
<path d="M531.307 622.245H476.633V664.645H531.307V622.245Z" fill="black"/>
<path d="M554.799 546.663H525.344V628.454H554.799V546.663Z" fill="black"/>
<path d="M527.974 519.311H499.307V549.293H527.974V519.311Z" fill="black"/>
<path d="M501.467 491.487H472.8V521.468H501.467V491.487Z" fill="black"/>
<path d="M474.319 459.695H421.457V492.307H474.319V459.695Z" fill="black"/>
<path d="M424.33 431.205H308.083V461.985H424.33V431.205Z" fill="black"/>
<path d="M365.535 459.133H336.203V571.169H365.535V459.133Z" fill="black"/>
<path d="M417.458 517.626H364.071V547.607H417.458V517.626Z" fill="black"/>
<path d="M416.78 499.137H388.114V529.118H416.78V499.137Z" fill="black"/>
<path d="M393.504 649.768V635.313L407.082 635.579L419.595 635.446L419.728 621.501V607.823L380.303 607.423H341.545V620.252L341.278 635.212L327.967 635.346L315.721 634.946L315.588 618.526V602.106L327.834 601.706L340.479 602.239L340.08 586.884V570.997L353.524 570.864L365.371 570.597L364.705 559.761L365.238 547.06L391.567 547.193L417.097 547.06L416.564 523.312L416.697 499.697L402.752 499.564L388.674 499.297L388.541 507.93L388.141 518.027L377.622 517.761L364.838 518.027L365.371 489.466V460.773L393.56 460.64L421.881 460.906L422.148 476.926L421.615 492.015L447.012 491.882H472.675L473.074 507.186L472.941 520.626L485.559 521.025L499.509 521.292L499.642 535.586L499.775 549.347H511.594L525.544 548.814V585.796L525.411 622.378L500.436 622.245L477.193 622.511L476.927 643.101L476.794 664.223L435.615 663.956L393.504 664.489V649.768Z" fill="#000080"/>
<path d="M151.939 699.978V689.192H139.293H126.648V661.298V633.403H140.037H153.427V618.154V602.905H166.072H178.718V617.782V632.659H193.223H207.728V617.41V602.161H195.083H182.437V575.382V548.603H194.711H206.984V535.586V522.568H234.135H261.286V506.203V489.838H275.419H289.553V460.456V431.074H298.851H308.149V446.323V461.572H322.282H336.416V504.344V547.116H325.63H314.844V532.982V518.849H299.223H283.602V534.842V550.835H297.735H311.868V575.382V599.929H299.223H286.577V628.568V657.207H272.444H258.311V672.077V686.948L217.956 687.14L177.602 687.333L177.397 699.049L177.192 710.764H164.566H151.939V699.978Z" fill="#000080"/>
<path d="M288.809 744.982V712.252H275.047H261.286V701.094V689.936L274.887 689.137H289.02L288.887 674.953L288.088 658.772L302.331 658.373L314.977 658.639L314.844 689.192L315.11 718.014L327.889 718.281L340.135 718.014V731.964V744.982H353.153H366.17V761.347V777.711H327.489H288.809L288.809 744.982Z" fill="#000080"/>
<path d="M44.0793 829.038V772.504H58.5846H73.0898V789.985V807.466H86.1073H99.1249V834.245V861.024H111.027H122.928V873.297V885.571H83.5038H44.0793V829.038Z" fill="#000080"/>
<path d="M294.305 405.005H259.224V440.148H294.305V405.005Z" fill="#FFAAAA"/>
<path d="M269.047 371.788H210.793V466.595H269.047V371.788Z" fill="#FFAAAA"/>
<path d="M330.94 216.8H151.589V251.943H330.94V216.8Z" fill="#FFAAAA"/>
<path d="M305.809 250.055H238.333V285.198H305.809V250.055Z" fill="#FFAAAA"/>
<path d="M331.108 187.737H210.26V222.88H331.108V187.737Z" fill="#FFAAAA"/>
<path d="M330.043 158.704H273.653V193.847H330.043V158.704Z" fill="#FFAAAA"/>
<path d="M160.516 550.681H95.3263V581.278H160.516V550.681Z" fill="black"/>
<path d="M477.668 188.785H416.622V283.417H477.668V188.785Z" fill="#FFAAAA"/>
<path d="M597.269 221.545H508.349V354.976H597.269V221.545Z" fill="#FFAAAA"/>
<path d="M97.2145 581.056H27.5051V610.522H97.2145V581.056Z" fill="black"/>
<path d="M31.0994 553.783H0V583.249H31.0994V553.783Z" fill="black"/>
<path d="M59.3249 526.588H28.7905V556.996H59.3249V526.588Z" fill="black"/>
<path d="M214.865 250.911H181.355V471.356H214.865V250.911Z" fill="black"/>
<path d="M196.147 250.934H151.717V378.338H196.147V250.934Z" fill="black"/>
<path d="M242.175 250.916H211.075V403.935H242.175V250.916Z" fill="black"/>
<path d="M152.826 218H121.713V313.762H152.826V218Z" fill="black"/>
<path d="M211.008 188.802H148.998V218.269H211.008V188.802Z" fill="black"/>
<path d="M273.602 159.237H209.195V188.703H273.602V159.237Z" fill="black"/>
<path d="M388.135 128.073H272.055V160.612H388.135V128.073Z" fill="black"/>
<path d="M414.771 94.9428H358.887V129.306H414.771V94.9428Z" fill="black"/>
<path d="M301.836 98.7741H173.528V128.24H301.836V98.7741Z" fill="black"/>
<path d="M201.421 127.264H140.11V156.731H201.421V127.264Z" fill="black"/>
<path d="M361.596 186.672H330.12V256.344H361.596V186.672Z" fill="black"/>
<path d="M332.453 252.195H301.354V285.455H332.453V252.195Z" fill="black"/>
<path d="M330.511 309.034H274.319V342.267H330.511V309.034Z" fill="black"/>
<path d="M272.572 343.321H240.719V374.482H272.572V343.321Z" fill="black"/>
<path d="M449.89 281.792H416.342V315.214H449.89V281.792Z" fill="black"/>
<path d="M509.225 283.092H476.807V315.572H509.225V283.092Z" fill="black"/>
<path d="M538.861 219.551H506.443V284.048H538.861V219.551Z" fill="black"/>
<path d="M509.586 189.893H477.169V253.637H509.586V189.893Z" fill="black"/>
<path d="M477.731 157.199H445.313V222.827H477.731V157.199Z" fill="black"/>
<path d="M509.535 124.826H477.117V157.306H509.535V124.826Z" fill="black"/>
<path d="M570.029 125.543H509.111V158.023H570.029V125.543Z" fill="#FFAAAA"/>
<path d="M478.645 344.769H387.895V379.912H478.645V344.769Z" fill="#FFAAAA"/>
<path d="M480.267 377.116H445.186V412.259H480.267V377.116Z" fill="#FFAAAA"/>
<path d="M452.566 315.588H417.485V350.731H452.566V315.588Z" fill="#FFAAAA"/>
<path d="M478.366 93.015H445.948V125.495H478.366V93.015Z" fill="black"/>
<path d="M447.404 125.218H414.987V157.697H447.404V125.218Z" fill="black"/>
<path d="M417.325 157.029H383.401V254.11H417.325V157.029Z" fill="black"/>
<path d="M570.295 156.84H537.878V222.347H570.295V156.84Z" fill="black"/>
<path d="M597.996 189.868H565.578V286.273H597.996V189.868Z" fill="black"/>
<path d="M597.996 345.952H565.578V378.432H597.996V345.952Z" fill="black"/>
<path d="M591.907 95.3193H533.874V127.799H591.907V95.3193Z" fill="black"/>
<path d="M592.864 64.3204H560.446V96.8002H592.864V64.3204Z" fill="black"/>
<path d="M564.702 32.3185H532.284V64.7981H564.702V32.3185Z" fill="black"/>
<path d="M534.909 0H410.957V32.4797H534.909V0Z" fill="black"/>
<path d="M414.851 31.9444H382.433V64.4241H414.851V31.9444Z" fill="black"/>
<path d="M446.245 62.0827H413.827V95.8808H446.245V62.0827Z" fill="black"/>
<path d="M478.832 253.205H447.544V284.554H478.832V253.205Z" fill="black"/>
<path d="M300.086 374.254H268.61V408.052H300.086V374.254Z" fill="black"/>
<path d="M295.512 437.007H264.666V467.272H295.512V437.007Z" fill="black"/>
<path d="M422.787 378.256H351.948V408.476H422.787V378.256Z" fill="black"/>
<path d="M483.644 407.682H419.208V437.148H483.644V407.682Z" fill="black"/>
<path d="M567.094 315.136H477.42V408.262H567.094V315.136Z" fill="black"/>
<path d="M510.384 315.129H445.948V344.595H510.384V315.129Z" fill="black"/>
<path d="M353.509 406.695H293.363V437.479H353.509V406.695Z" fill="black"/>
<path d="M303.966 282.56H235.298V313.156H303.966V282.56Z" fill="black"/>
<path d="M122.353 498.263H56.9752V529.236H122.353V498.263Z" fill="black"/>
<path d="M184.853 469.679H119.287V500.464H184.853V469.679Z" fill="black"/>
<path d="M30.2039 568.625V556.373H44.5871H58.9703V542.523V528.672H90.4002H121.83V514.289V499.906H153.26H184.69V485.523V471.139H198.008C210.615 471.139 211.326 471.026 211.326 469.008C211.326 466.934 212.036 466.878 237.961 466.878H264.597V480.728V494.579H236.363H208.129V508.962V523.345H182.559H156.989V537.195V551.046H126.092H95.1946V565.962V580.878H62.6992H30.2039V568.625Z" fill="#000080"/>
<path d="M299.756 390.7V374.186H285.372H270.989V359.27V344.354H256.073H241.157V328.373V312.391H257.672H274.186V327.307V342.223H301.887H329.588V326.775V311.326H316.802H304.017V298.655C304.017 288.083 304.297 285.877 305.703 285.337C306.63 284.982 312.862 284.69 319.553 284.69H331.718V270.307V255.924H346.102H360.485V221.298V186.672H345.569H330.653V173.354V160.036H357.288H383.924V206.915V253.793H399.736H415.548L416.25 276.339C416.636 288.739 416.952 309.115 416.952 321.619V344.354H402.036H387.12V361.401V378.448H369.541H351.961V392.831V407.214H325.859H299.756V390.7Z" fill="#000080"/>
<path d="M354.092 422.894V408.403H386.588H419.083V422.168V435.933H410.732C406.139 435.933 391.516 436.26 378.236 436.66L354.092 437.386V422.894Z" fill="#000080"/>
<path d="M295.053 452.056V436.981H311.255H327.457V452.056V467.131H311.255H295.053V452.056Z" fill="#000080"/>
<path d="M420.52 393.331V378.507H433.246H445.971V393.331V408.156H433.246H420.52V393.331Z" fill="#000080"/>
<path d="M356.982 437.314C358.22 437.268 382.646 436.569 386.375 436.473C388.11 436.428 389.802 436.384 390.136 436.375L390.742 436.36V436.587V436.814H388.423H386.104V437.073V437.332L371.443 437.328C363.379 437.326 356.872 437.318 356.982 437.314Z" fill="#000080"/>
<path d="M390.758 436.588V436.355L390.845 436.355C390.893 436.355 391.367 436.344 391.898 436.33C395.256 436.244 402.916 436.084 405.719 436.042L406.489 436.031V436.427V436.822H398.624H390.758L390.758 436.588Z" fill="#000080"/>
<path d="M353.51 422.912V408.496H367.743H381.976V408.912V409.328H368.026H354.076V423.328V437.329H353.793H353.51V422.912Z" fill="#000080"/>
<path d="M406.504 436.425V436.025H412.813H419.123V422.676V409.327H400.571H382.019V408.903V408.48H400.595H419.17V422.652V436.825H412.837H406.504V436.425Z" fill="#000080"/>
<path d="M478.613 268.399V253.306H492.774H506.935V268.399V283.492H492.774H478.613V268.399Z" fill="#000080"/>
<path d="M449.116 299.213V283.262H463.486H477.856V299.213V315.165H463.486H449.116V299.213Z" fill="#000080"/>
<path d="M509.5 205.531V189.933H493.065H476.629V173.221V156.509H485.031C489.652 156.509 503.458 156.675 515.71 156.878L537.988 157.246V189.187V221.128H523.744H509.5V205.531Z" fill="#000080"/>
<path d="M416.81 172.695V156.853H431.241H445.673V172.695V188.536H431.241H416.81V172.695Z" fill="#000080"/>
<path d="M446.83 141.297V125.299H462.421H478.012V141.297V157.294H462.421H446.83V141.297Z" fill="#000080"/>
<path d="M387.134 143.083V128.84H401.409H415.685V143.083V157.327H401.409H387.134V143.083Z" fill="#000080"/>
<path d="M301.753 112.019V95.1784H331.012H360.27V112.019V128.859H331.012H301.753V112.019Z" fill="#000080"/>
<path d="M112.179 113.347V98.7359H143.402H174.625V113.347V127.959H143.402H112.179V113.347Z" fill="#000080"/>
<path d="M174.235 84.0475V69.2009H244.013H313.79V84.0475V98.894H244.013H174.235V84.0475Z" fill="#000080"/>
<path d="M414.954 111.594V95.2469H430.768H446.582V111.594V127.94H430.768H414.954V111.594Z" fill="#000080"/>
<path d="M494.507 126.482L478.227 126.254V109.703V93.1523H462.138H446.05V77.7693V62.3863H429.961H413.873V46.6086V30.8312H473.247H532.621V47.792V64.7529H546.795H560.968V80.1359V95.519H547.561H534.154V111.296V127.074L522.47 126.893C516.044 126.794 503.461 126.609 494.507 126.482Z" fill="#000080"/>
<path d="M95.9507 527.97H57.8752V558.015H95.9507V527.97Z" fill="white"/>
<path d="M96.217 555.405H28.8424V583.189H96.217V555.405Z" fill="white"/>
<path d="M148.48 500.132H121.787V527.917H148.48V500.132Z" fill="white"/>
</svg>
