<svg width="42" height="55" viewBox="0 0 42 55" fill="none" xmlns="http://www.w3.org/2000/svg">
<path d="M30.8355 10.7134C29.3552 7.99853 27.4432 7.8854 26.6722 8.16821L16.264 8.16821C14.4908 8.09751 10.9443 7.3198 8.63136 12.8344C6.31843 18.3491 6.79779 22.5343 5.41004 28.6852C4.02228 34.8362 0.998692 51.0127 2.15515 52.2853C3.75678 54.0478 15.9014 54.6825 22.0245 54.6825C25.4939 54.6825 40.3185 52.9216 40.7811 51.0127C41.2437 49.1038 38.9308 35.1051 37.0804 27.4694C35.2301 19.8338 32.6858 14.107 30.8355 10.7134Z" fill="url(#paint0_linear_5_1353)"/>
<path d="M26.66 8.09662C27.4776 7.80531 29.4119 7.95291 30.8984 10.6791C32.7515 14.0779 35.298 19.8105 37.1499 27.4526C38.0756 31.2728 39.1168 36.6833 39.8687 41.3772C40.2447 43.7242 40.5486 45.893 40.7295 47.5949C40.8199 48.4457 40.8796 49.1808 40.9023 49.7634C40.9248 50.3431 40.9111 50.7799 40.8507 51.0295C40.8169 51.169 40.7198 51.2998 40.5794 51.4224C40.4384 51.5455 40.248 51.6654 40.0169 51.7823C39.5546 52.0161 38.9191 52.243 38.1629 52.4602C36.6498 52.8949 34.6417 53.2945 32.5418 53.634C28.3429 54.3131 23.7649 54.754 22.0245 54.754C18.9611 54.754 14.3919 54.5954 10.3875 54.2161C8.3855 54.0265 6.5229 53.7815 5.05962 53.4734C4.32811 53.3193 3.69457 53.1491 3.19259 52.9614C2.69298 52.7745 2.31433 52.5669 2.10213 52.3334C2.01671 52.2394 1.95758 52.086 1.91589 51.8931C1.87367 51.6978 1.84724 51.4514 1.83451 51.1613C1.80903 50.5809 1.83797 49.817 1.90931 48.9201C2.05205 47.1258 2.36525 44.79 2.75775 42.3034C3.5428 37.3298 4.64602 31.7464 5.34024 28.6694C6.03322 25.598 6.25957 23.0197 6.60282 20.5115C6.94594 18.0042 7.40544 15.5723 8.56535 12.8068C9.72786 10.035 11.206 8.83335 12.6266 8.33921C14.0405 7.8474 15.3901 8.06166 16.2668 8.09662H26.66ZM30.7727 10.7476C29.3062 8.05797 27.4286 7.96697 26.6969 8.23532L26.6849 8.2398H16.2626L16.2612 8.23966C15.3647 8.20391 14.0544 7.99412 12.6736 8.47442C11.2994 8.95241 9.84775 10.1193 8.69734 12.8621C7.54435 15.6112 7.08711 18.0292 6.74474 20.5309C6.4025 23.0317 6.17469 25.6215 5.47992 28.7009C4.78638 31.7749 3.68381 37.3552 2.89925 42.3257C2.50694 44.8112 2.19437 47.1427 2.05207 48.9316C1.98091 49.8262 1.95245 50.5832 1.97755 51.155C1.9901 51.441 2.016 51.6786 2.05585 51.8629C2.09623 52.0498 2.14898 52.172 2.20811 52.2371C2.39631 52.4442 2.74763 52.6421 3.24265 52.8273C3.73529 53.0116 4.3612 53.18 5.08912 53.3333C6.54475 53.6398 8.40132 53.8841 10.4011 54.0735C14.4001 54.4522 18.9647 54.6108 22.0245 54.6108C23.7535 54.6108 28.3226 54.1713 32.5189 53.4927C34.6167 53.1534 36.6183 52.7549 38.1233 52.3225C38.8762 52.1062 39.5018 51.8823 39.9523 51.6545C40.1776 51.5405 40.3565 51.4269 40.4852 51.3146C40.6145 51.2016 40.6876 51.0948 40.7116 50.9958C40.7667 50.768 40.7818 50.3499 40.7592 49.769C40.7367 49.1908 40.6772 48.4593 40.587 47.61C40.4065 45.9116 40.1031 43.7455 39.7274 41.3999C38.9759 36.7083 37.9354 31.3017 37.0108 27.4863C35.162 19.8571 32.6202 14.1361 30.7727 10.7476Z" fill="#98A06F"/>
<path d="M22.0194 54.6772C25.4888 54.6772 40.3133 52.9163 40.7759 51.0074C40.9729 50.1945 40.8466 48.8497 40.7122 47.9532C34.5898 50.8669 27.6227 51.5393 22.0194 51.5393C15.3247 51.5393 9.69197 51.5393 1.84727 48.8497C1.6051 51.8979 1.94817 52.2572 2.14998 52.28C3.7516 54.0425 15.8962 54.6772 22.0194 54.6772Z" fill="#888F62"/>
<path d="M40.7829 47.9426C40.8504 48.3925 40.9159 48.9555 40.9398 49.5086C40.9636 50.0603 40.9463 50.6078 40.8454 51.0242C40.8116 51.1638 40.7145 51.2946 40.5742 51.4171C40.4332 51.5402 40.2429 51.6602 40.0118 51.777C39.5495 52.0108 38.9139 52.2378 38.1577 52.455C36.6445 52.8897 34.6364 53.2892 32.5366 53.6288C28.3377 54.3079 23.7598 54.7488 22.0194 54.7488C18.956 54.7488 14.3867 54.5901 10.3824 54.2109C8.38038 54.0213 6.51765 53.7763 5.05437 53.4682C4.32285 53.3141 3.68932 53.1439 3.18734 52.9561C2.70106 52.7742 2.32979 52.5725 2.11464 52.3465C2.04962 52.3321 1.98299 52.2908 1.92406 52.2031C1.85913 52.1064 1.80267 51.9525 1.76159 51.7114C1.67931 51.2286 1.65467 50.3693 1.77585 48.844L1.78326 48.7521L1.87051 48.7821C9.70313 51.4675 15.3256 51.4677 22.0194 51.4677C27.6185 51.4677 34.5731 50.7957 40.6814 47.8886L40.7687 47.8471L40.7829 47.9426ZM40.655 48.0589C34.5399 50.9442 27.6003 51.6109 22.0194 51.6109C15.3487 51.6109 9.72283 51.6109 1.91162 48.947C1.79886 50.4123 1.82511 51.2322 1.90267 51.6874C1.9423 51.92 1.99432 52.0509 2.04291 52.1232C2.0834 52.1835 2.12015 52.2015 2.14707 52.2071L2.15798 52.2089L2.18483 52.2119L2.203 52.2319C2.39121 52.439 2.74252 52.6369 3.23754 52.822C3.73016 53.0063 4.356 53.1748 5.08387 53.3281C6.5395 53.6346 8.39607 53.8789 10.3958 54.0683C14.3949 54.447 18.9596 54.6056 22.0194 54.6056C23.7484 54.6056 28.3175 54.1661 32.5138 53.4875C34.6116 53.1482 36.6132 52.7496 38.1182 52.3173C38.871 52.101 39.4966 51.8772 39.9471 51.6494C40.1724 51.5354 40.3514 51.4217 40.4801 51.3093C40.6094 51.1964 40.6823 51.0896 40.7063 50.9905C40.8024 50.594 40.8204 50.0627 40.7968 49.5147C40.7748 49.0062 40.7169 48.4882 40.655 48.0589Z" fill="#888F62"/>
<path d="M31.0334 53.3063C31.014 53.3063 30.9944 53.3063 30.9747 53.3063C30.2756 53.3268 27.9581 54.0306 23.3019 54.3085C18.7821 54.5784 5.04689 53.2265 3.32877 52.8768C1.61065 52.527 1.3243 50.8723 1.3243 50.8723C1.3243 50.8723 1.40464 49.5675 1.68224 48.8678C2.29052 47.3346 2.32654 45.0021 2.32654 45.0021L5.19007 29.6106L6.97977 19.6598C7.2184 19.9939 6.97977 24.7426 6.97977 25.888C6.97977 29.1881 6.97977 33.4764 8.33995 39.4898C9.70013 45.5032 13.2795 48.5099 17.0021 50.8723C20.3203 52.9781 27.6531 53.3025 30.9747 53.3063C30.9957 53.3057 31.0153 53.3057 31.0334 53.3063Z" fill="#4E5142" fill-opacity="0.23"/>
<path d="M23.5883 14.5572C27.8468 13.5893 29.3411 10.8216 29.4159 8.72967C27.6228 6.48832 12.6532 8.06029 12.717 8.72967C13.1653 13.4365 18.6573 15.6778 23.5883 14.5572Z" fill="#888F62"/>
<path d="M20.3683 7.60242C22.3484 7.50414 24.3877 7.49671 26.0446 7.6543C26.873 7.73308 27.607 7.8533 28.1909 8.0244C28.7733 8.19507 29.2125 8.41813 29.4438 8.70729L29.4521 8.71764L29.4517 8.73092C29.3763 10.8399 27.8698 13.6208 23.5962 14.5921C21.1235 15.1541 18.5091 14.8734 16.4557 13.8608C14.4018 12.848 12.907 11.1014 12.6814 8.73302C12.6777 8.6942 12.7019 8.66191 12.731 8.6371C12.7613 8.61136 12.8052 8.58641 12.8597 8.56202C12.9691 8.51299 13.13 8.46235 13.3339 8.41087C13.7424 8.30776 14.3303 8.2 15.042 8.09669C16.4657 7.89003 18.3881 7.70072 20.3683 7.60242ZM26.0378 7.72561C24.3857 7.56848 22.3503 7.57567 20.3718 7.67387C18.3936 7.77207 16.4734 7.96114 15.0522 8.16744C14.3415 8.27061 13.7564 8.378 13.3514 8.48022C13.1487 8.5314 12.9926 8.581 12.8889 8.62745C12.8368 8.65077 12.8 8.67232 12.7773 8.69163C12.7535 8.71188 12.7523 8.7233 12.7526 8.7263C12.9753 11.0647 14.4506 12.7923 16.4875 13.7966C18.5249 14.8013 21.1222 15.081 23.5803 14.5223C27.8147 13.5599 29.2994 10.8151 29.3794 8.74182C29.1601 8.47543 28.7426 8.26065 28.1708 8.09306C27.593 7.92375 26.8639 7.80418 26.0378 7.72561Z" fill="#888F62"/>
<path d="M14.4989 7.60527C14.7119 7.56143 14.9201 7.69851 14.9639 7.91148C15.0078 8.12445 14.8707 8.33265 14.6577 8.37652C12.3517 8.8513 10.2884 10.4128 9.0628 12.9582C7.99076 15.1847 7.43432 17.8723 6.96157 20.9227C6.49154 23.9555 6.10394 27.3515 5.36076 30.9081C4.90453 33.0915 4.12029 36.8642 3.45025 40.4481C2.77656 44.0515 2.22933 47.4096 2.22933 48.7962V48.8713L2.20165 48.9411C1.52424 50.6524 1.64841 51.3629 1.95179 51.7318C2.11646 51.9319 2.37532 52.0894 2.75199 52.2341C3.13202 52.3802 3.57407 52.4935 4.09133 52.6413C5.05256 52.9159 7.92026 53.3552 11.6094 53.6653C15.2863 53.9745 19.7409 54.1523 23.8621 53.9155C30.0471 53.56 36.7337 52.2096 40.1493 51.2155C40.388 51.1199 40.5233 50.991 40.6063 50.8431C40.6958 50.6835 40.7438 50.4669 40.7438 50.1743C40.7438 49.5711 40.546 48.8062 40.3251 47.8859L40.3193 47.8619L40.3167 47.8375C39.245 38.1921 37.9597 32.1241 36.7464 27.1992C36.31 25.428 34.538 19.4364 32.4032 14.7399C30.4591 10.4629 28.6711 8.90149 27.9997 8.55564C27.8064 8.45604 27.7304 8.21859 27.83 8.02529C27.9296 7.83201 28.167 7.75613 28.3603 7.85569C29.2639 8.32117 31.1474 10.0742 33.1201 14.4141C35.2806 19.1673 37.0667 25.2077 37.5109 27.0107C38.7304 31.9607 40.021 38.0564 41.0963 47.7249C41.3035 48.5869 41.5313 49.4594 41.5313 50.1743C41.5313 50.5439 41.472 50.909 41.2931 51.2281C41.1091 51.5562 40.8182 51.8008 40.4211 51.9552L40.4052 51.9614L40.3887 51.9661C36.926 52.9761 30.1673 54.3418 23.9073 54.7016C19.7372 54.9412 15.2432 54.7611 11.5434 54.45C7.85568 54.14 4.91826 53.6966 3.87503 53.3986C3.39008 53.26 2.89249 53.1317 2.46941 52.969C2.04299 52.8051 1.63526 52.5866 1.34357 52.232C0.74234 51.5011 0.78554 50.406 1.44256 48.7202C1.46114 47.2036 2.01937 43.8165 2.6762 40.3032C3.34792 36.7104 4.13368 32.9305 4.58993 30.747C5.32766 27.2164 5.70695 23.8758 6.18333 20.802C6.657 17.7457 7.22654 14.9567 8.35335 12.6165C9.67847 9.86434 11.937 8.13273 14.4989 7.60527Z" fill="#614D35"/>
<path d="M21.5086 12.983C25.1155 12.8573 27.6616 10.7646 28.2981 6.9932C28.9988 2.84231 22.5695 0.401257 18.326 1.66894C14.448 2.82747 12.8198 5.9703 13.8704 8.32427C15.3556 11.6519 18.5382 13.0865 21.5086 12.983Z" fill="#E9D295"/>
<path d="M15.9833 2.31076C18.1893 0.598398 21.1507 0.647934 24.2082 1.52748C26.413 2.16172 27.6106 3.45591 28.1871 4.83606C28.7537 6.19224 28.7099 7.60311 28.4929 8.50454C28.1786 10.0603 26.4202 13.3959 21.8802 13.3959C16.5975 13.3959 14.3084 10.2199 13.6307 8.11137C13.2656 6.97547 13.5381 5.77291 14.0368 4.75636C14.5368 3.73718 15.2905 2.8485 15.9833 2.31076ZM23.9905 2.28433C21.0173 1.42901 18.3724 1.45315 16.4661 2.93282C15.8703 3.3953 15.1923 4.18907 14.7438 5.10326C14.294 6.02006 14.1012 7.00192 14.3804 7.87045C14.9724 9.71224 16.9976 12.6084 21.8802 12.6084C25.9363 12.6084 27.4601 9.65396 27.7222 8.34319L27.7239 8.33536L27.7257 8.32753C27.9126 7.55818 27.9528 6.318 27.4605 5.13961C26.9764 3.98077 25.9666 2.85278 23.9905 2.28433Z" fill="#614D35"/>
<path d="M23.9922 23.8864C24.0548 23.6989 24.2576 23.5976 24.4451 23.6601C25.3096 23.9482 25.8053 24.2615 26.2364 24.6027C26.6717 24.9474 26.9692 25.2537 27.5384 25.6159C27.7051 25.722 27.7542 25.9432 27.6481 26.11C27.542 26.2768 27.3208 26.326 27.154 26.2199C26.546 25.833 26.1585 25.4542 25.792 25.164C25.4212 24.8704 24.9983 24.5992 24.2186 24.3393C24.0311 24.2768 23.9297 24.074 23.9922 23.8864Z" fill="#484D2D"/>
<path d="M26.693 22.5201C26.1883 24.0342 27.3894 24.4158 26.145 26.9046C25.4142 28.3661 27.2411 28.0429 28.0631 26.9046C31.6254 21.972 27.2411 20.8759 26.693 22.5201Z" fill="#484D2D"/>
<path d="M27.6308 21.7468C28.0831 21.6931 28.5928 21.8362 28.9688 22.1943C29.3466 22.5542 29.5835 23.1253 29.5002 23.9149C29.4171 24.7025 29.0159 25.7077 28.1212 26.9466C27.6999 27.5299 27.0199 27.9085 26.5279 27.951C26.283 27.9721 26.0585 27.9103 25.9572 27.7141C25.8591 27.5244 25.8961 27.2422 26.0809 26.8727C26.6969 25.6406 26.7051 24.9374 26.6255 24.3566C26.5455 23.7724 26.3659 23.2749 26.6251 22.4975C26.7731 22.0536 27.1785 21.8006 27.6308 21.7468ZM28.87 22.298C28.5267 21.9711 28.0603 21.84 27.6477 21.889C27.2352 21.9381 26.887 22.1647 26.761 22.5428C26.5154 23.2795 26.6841 23.7299 26.7673 24.3372C26.8509 24.9478 26.8373 25.68 26.209 26.9367C26.0284 27.2978 26.0198 27.5233 26.0844 27.6484C26.1457 27.7671 26.2924 27.8275 26.5156 27.8082C26.9599 27.7699 27.6043 27.4177 28.0051 26.8627C28.8915 25.6353 29.2782 24.6538 29.3577 23.8999C29.4371 23.1482 29.2114 22.6232 28.87 22.298Z" fill="#484D2D"/>
<path d="M29.4797 39.5169C26.0728 41.0807 23.5952 37.3276 22.0465 36.3893C19.8785 35.0758 19.259 31.0724 20.8076 28.8831C22.3562 26.6938 23.9048 24.8173 27.6215 25.1301C30.6345 25.3836 34.0535 28.9605 34.745 32.0107C35.4364 35.0609 32.8867 37.9531 29.4797 39.5169Z" fill="#E5E77C"/>
<path d="M23.3615 26.009C24.4219 25.2952 25.7549 24.9012 27.6275 25.0588C29.1575 25.1875 30.7804 26.1576 32.1043 27.4708C33.4289 28.7848 34.4653 30.4531 34.8148 31.9949C35.1663 33.5455 34.6925 35.0523 33.7065 36.3643C32.7209 37.6756 31.2213 38.7963 29.5096 39.582C27.7734 40.3789 26.2744 39.8172 25.0254 38.9501C24.4016 38.517 23.8368 38.0057 23.3339 37.5466C22.8282 37.085 22.389 36.6806 22.0093 36.4505C20.9012 35.7791 20.1969 34.427 19.9626 32.976C19.7283 31.5243 19.9612 29.9557 20.7491 28.8418C21.5233 27.7473 22.3042 26.7208 23.3615 26.009ZM27.6155 25.2014C25.7715 25.0462 24.4718 25.4341 23.4415 26.1277C22.4083 26.8233 21.6404 27.8297 20.866 28.9245C20.1054 29.9999 19.8738 31.5276 20.104 32.9532C20.3343 34.3796 21.0237 35.6859 22.0836 36.328C22.4782 36.5671 22.9296 36.9837 23.4305 37.4409C23.9341 37.9005 24.4921 38.4056 25.1071 38.8325C26.3358 39.6856 27.7792 40.2186 29.4499 39.4518C31.1451 38.6737 32.6238 37.5664 33.592 36.2781C34.5597 34.9905 35.0151 33.526 34.6752 32.0265C34.3332 30.5181 33.3144 28.8729 32.0035 27.5725C30.6917 26.2713 29.0985 25.3262 27.6155 25.2014Z" fill="#DADB81"/>
<defs>
<linearGradient id="paint0_linear_5_1353" x1="15.7851" y1="28.68" x2="-17.4318" y2="39.7761" gradientUnits="userSpaceOnUse">
<stop stop-color="#98A06F"/>
</linearGradient>
</defs>
</svg>
