<svg width="12" height="21" viewBox="0 0 12 21" fill="none" xmlns="http://www.w3.org/2000/svg">
<path d="M11.1019 16.3667C10.9779 14.5054 10.64 9.74954 11.1019 5.48527C11.4148 2.59698 8.9543 0.474091 6.37712 0.474091C3.51359 0.474091 1.75504 2.49465 1.22276 4.33986C0.00438172 8.56357 0.50689 10.9976 1.36595 14.9349C2.0532 18.0848 2.43977 19.8075 4.0863 20.2325C5.17586 20.5136 9.31224 21.0614 11.1019 19.8745C11.9953 19.2821 11.226 18.228 11.1019 16.3667Z" fill="#FFE5A2"/>
<path d="M6.37713 0.0803528C9.14217 0.0803528 11.8363 2.36272 11.4935 5.52763C11.0358 9.75233 11.3705 14.4745 11.4949 16.3405C11.5556 17.2511 11.7642 17.8927 11.8718 18.531C11.922 18.8287 11.9501 19.1396 11.8788 19.4316C11.8022 19.7454 11.6197 20.0036 11.3195 20.2027C10.8076 20.5422 10.1529 20.7433 9.46969 20.859C8.7819 20.9755 8.03726 21.0098 7.32484 20.9977C5.90445 20.9735 4.56672 20.7631 3.98787 20.6137C3.01269 20.3621 2.4264 19.7141 2.00633 18.7649C1.59808 17.8424 1.32151 16.5781 0.981304 15.0188C0.119384 11.0683 -0.402409 8.55317 0.844419 4.2308C1.41388 2.25666 3.30012 0.0803528 6.37713 0.0803528ZM6.37713 0.867824C3.72712 0.867824 2.09624 2.73266 1.60113 4.44892C0.411224 8.57391 0.894409 10.9268 1.7506 14.851C2.09763 16.4416 2.35794 17.6137 2.72641 18.4462C3.08306 19.2521 3.51342 19.6779 4.18474 19.8512C4.69547 19.983 5.97069 20.1871 7.33826 20.2104C8.01984 20.222 8.71307 20.1884 9.33826 20.0826C9.96801 19.9759 10.5015 19.8003 10.8844 19.5464C11.0308 19.4492 11.0873 19.3534 11.1138 19.2448C11.1457 19.1143 11.1412 18.9343 11.0952 18.6618C11.0106 18.1596 10.7724 17.3435 10.7091 16.3928C10.5853 14.5362 10.2442 9.74669 10.7105 5.4429C10.9934 2.83126 8.76644 0.867824 6.37713 0.867824Z" fill="#614D35"/>
<path d="M6.37711 0.0803528C9.14215 0.0803528 11.8363 2.36272 11.4934 5.52763C11.0358 9.75233 11.3704 14.4745 11.4948 16.3405C11.5555 17.2511 11.7642 17.8927 11.8718 18.531C11.922 18.8287 11.95 19.1396 11.8788 19.4316C11.8022 19.7454 11.6197 20.0036 11.3195 20.2027C10.8076 20.5422 10.1529 20.7433 9.46967 20.859C8.78188 20.9755 8.03724 21.0098 7.32482 20.9977C5.90443 20.9735 4.5667 20.7631 3.98785 20.6137C3.01267 20.3621 2.42639 19.7141 2.00631 18.7649C1.59806 17.8424 1.32149 16.5781 0.981285 15.0188C0.119365 11.0683 -0.402428 8.55317 0.8444 4.2308C1.41386 2.25666 3.3001 0.0803528 6.37711 0.0803528ZM6.37711 0.867824C3.7271 0.867824 2.09622 2.73266 1.60111 4.44892C0.411205 8.57391 0.89439 10.9268 1.75058 14.851C2.09761 16.4416 2.35792 17.6137 2.72639 18.4462C3.08304 19.2521 3.5134 19.6779 4.18472 19.8512C4.69545 19.983 5.97067 20.1871 7.33824 20.2104C8.01982 20.222 8.71305 20.1884 9.33824 20.0826C9.96799 19.9759 10.5015 19.8003 10.8844 19.5464C11.0308 19.4492 11.0873 19.3534 11.1138 19.2448C11.1457 19.1143 11.1412 18.9343 11.0952 18.6618C11.0105 18.1596 10.7724 17.3435 10.709 16.3928C10.5853 14.5362 10.2442 9.74669 10.7104 5.4429C10.9934 2.83126 8.76642 0.867824 6.37711 0.867824Z" fill="#614D35"/>
</svg>
