<svg width="16" height="26" viewBox="0 0 16 26" fill="none" xmlns="http://www.w3.org/2000/svg">
<path d="M13.3167 22.5546C13.4695 21.7908 13.794 17.281 13.6031 15.3242C12.0568 8.3372 3.07961 10.0267 2.29215 14.7515C2.22056 16.9708 2.50689 21.4808 3.29435 22.5546C4.52206 24.2288 5.94312 24.9171 8.44873 25.1318C11.4445 25.3886 13.0304 23.9864 13.3167 22.5546Z" fill="#FFE5A2"/>
<path d="M13.8282 14.1431C14.0455 14.1489 14.2171 14.3297 14.2114 14.5471C14.1622 16.422 14.1399 18.8521 13.9234 21.0892C13.8893 21.4419 13.7042 22.77 13.4136 24.005C13.3638 24.2167 13.1518 24.3479 12.9402 24.2981C12.7285 24.2482 12.5973 24.0363 12.6471 23.8246C12.9292 22.6256 13.1087 21.3325 13.1396 21.0134C13.3526 18.812 13.3745 16.4218 13.4242 14.5264C13.4299 14.309 13.6108 14.1374 13.8282 14.1431Z" fill="#614D35"/>
<path d="M2.68586 22.6978C2.68586 21.6192 2.49337 20.0906 2.29534 18.5604C2.10022 17.0527 1.89838 15.5352 1.89838 14.5367C1.89838 14.3193 2.07467 14.143 2.29212 14.143C2.50957 14.143 2.68586 14.3193 2.68586 14.5367C2.68586 15.4711 2.87776 16.9246 3.07637 18.4594C3.27208 19.9717 3.47333 21.5572 3.47333 22.6978C3.47333 22.9153 3.29704 23.0915 3.07959 23.0915C2.86214 23.0915 2.68586 22.9153 2.68586 22.6978Z" fill="#614D35"/>
<path d="M14.7553 4.87337C15.4712 6.75484 15.1133 12.072 15.1133 13.9535C15.1133 15.8349 11.0767 16.2536 8.31241 16.3258C5.98877 16.3864 1.29674 15.9986 1.29674 13.9535C1.29677 9.86334 0.795619 6.42763 2.01262 4.13715C3.22962 1.84667 5.87598 1.11045 9.02828 1.11044C11.4623 1.11044 14.0395 2.99191 14.7553 4.87337Z" fill="#5E6152"/>
<path d="M14.7911 13.9535C14.7911 13.4772 14.8138 12.7851 14.836 11.9964C14.8584 11.2044 14.8806 10.3084 14.8806 9.4134C14.8806 8.51774 14.8583 7.62808 14.7923 6.84852C14.7257 6.062 14.6164 5.41426 14.4542 4.98793C14.1262 4.12578 13.3555 3.23285 12.355 2.55281C11.3569 1.87438 10.1661 1.43257 9.02829 1.43256C5.89847 1.43257 3.42416 2.16724 2.29717 4.28827C1.72621 5.36286 1.54714 6.72965 1.52046 8.37565C1.50718 9.19529 1.53148 10.0725 1.55947 11.0065C1.5874 11.9384 1.6189 12.9252 1.6189 13.9535C1.61892 14.32 1.82239 14.6408 2.24697 14.9288C2.67602 15.2198 3.29144 15.447 4.00718 15.6157C5.43418 15.9521 7.1581 16.0336 8.30401 16.0037C9.68032 15.9678 11.3508 15.8456 12.6691 15.5061C13.3301 15.3359 13.8764 15.1174 14.2506 14.8467C14.6181 14.5809 14.7911 14.2886 14.7911 13.9535ZM15.4354 13.9535C15.4354 14.5591 15.1038 15.0248 14.6281 15.3688C14.1591 15.708 13.5235 15.9515 12.8299 16.1301C11.4388 16.4884 9.70881 16.6115 8.32079 16.6477C7.14309 16.6785 5.35915 16.5964 3.85925 16.2428C3.11156 16.0665 2.40871 15.817 1.8854 15.462C1.35769 15.1041 0.974629 14.6095 0.974604 13.9535C0.97461 12.9368 0.943461 11.9601 0.91546 11.0258C0.887527 10.0938 0.862611 9.20199 0.87617 8.36516C0.903183 6.69817 1.08208 5.20185 1.7281 3.98597C3.03512 1.52607 5.85352 0.788271 9.02829 0.788269C10.3245 0.788271 11.6393 1.28729 12.7172 2.01995C13.7927 2.751 14.6686 3.73946 15.0564 4.75876C15.2521 5.27317 15.3666 5.99573 15.4342 6.79413C15.5024 7.59948 15.5249 8.50944 15.5249 9.4134C15.5249 10.3181 15.5024 11.2217 15.48 12.0146C15.4576 12.8109 15.4354 13.4891 15.4354 13.9535Z" fill="#614D35"/>
<path d="M1.4809 13.359C3.19902 5.68477 11.2646 6.24793 15.0827 7.48879C15.2259 5.53204 13.1498 1.61857 9.85673 1.33221C4.77396 0.890235 3.27061 2.54921 2.1252 4.48209C1.20887 6.0284 1.31386 11.1875 1.4809 13.359Z" fill="#4E5142"/>
<path d="M14.7911 13.993C14.7911 13.5167 14.8138 12.8246 14.836 12.036C14.8584 11.2439 14.8806 10.3479 14.8806 9.45292C14.8806 8.55726 14.8583 7.6676 14.7923 6.88805C14.7257 6.10152 14.6164 5.45378 14.4542 5.02745C14.1262 4.1653 13.3555 3.27237 12.355 2.59233C11.3569 1.9139 10.1661 1.47209 9.02829 1.47208C5.89847 1.47209 3.42416 2.20676 2.29717 4.32779C1.72621 5.40238 1.54714 6.76917 1.52046 8.41517C1.50718 9.23481 1.53148 10.112 1.55947 11.046C1.5874 11.9779 1.6189 12.9647 1.6189 13.993C1.61892 14.3596 1.82239 14.6803 2.24697 14.9683C2.67602 15.2593 3.29144 15.4865 4.00718 15.6552C5.43418 15.9917 7.1581 16.0732 8.30401 16.0432C9.68032 16.0073 11.3508 15.8851 12.6691 15.5456C13.3301 15.3754 13.8764 15.1569 14.2506 14.8862C14.6181 14.6204 14.7911 14.3281 14.7911 13.993ZM15.4354 13.993C15.4354 14.5986 15.1038 15.0643 14.6281 15.4083C14.1591 15.7475 13.5235 15.991 12.8299 16.1696C11.4388 16.5279 9.70881 16.651 8.32079 16.6873C7.14309 16.718 5.35915 16.6359 3.85925 16.2823C3.11156 16.1061 2.40871 15.8565 1.8854 15.5016C1.35769 15.1436 0.97463 14.649 0.974604 13.993C0.97461 12.9763 0.943461 11.9996 0.91546 11.0653C0.887527 10.1333 0.862611 9.24151 0.87617 8.40468C0.903183 6.73769 1.08208 5.24137 1.7281 4.02549C3.03512 1.56559 5.85352 0.827792 9.02829 0.827789C10.3245 0.827791 11.6393 1.32681 12.7172 2.05947C13.7927 2.79052 14.6686 3.77898 15.0564 4.79828C15.2521 5.31269 15.3666 6.03525 15.4342 6.83365C15.5024 7.639 15.5249 8.54896 15.5249 9.45292C15.5249 10.3576 15.5024 11.2612 15.48 12.0541C15.4576 12.8504 15.4354 13.5286 15.4354 13.993Z" fill="#614D35"/>
</svg>
