<svg width="17" height="27" viewBox="0 0 17 27" fill="none" xmlns="http://www.w3.org/2000/svg">
<path d="M6.16001 10.1434C9.75209 2.83144 13.6345 -0.158819 14.717 1.63972C15.6636 3.2126 16.0056 7.06296 16.0056 10.1434C16.0056 15.275 15.6405 22.3816 13.8656 24.7057C12.7831 26.1231 1.92522 25.5089 1.40156 22.935C0.663581 19.3075 2.20187 18.2005 6.16001 10.1434Z" fill="#989F6F"/>
<path d="M14.6299 1.33796C14.6431 1.33262 14.6578 1.33245 14.6777 1.33455C14.6974 1.33674 14.7223 1.34038 14.7483 1.3442C14.7757 1.34821 14.8011 1.35352 14.8242 1.35971C14.9164 1.38389 14.9734 1.42287 14.995 1.47584C15.0704 1.66159 15.0977 1.86701 15.0768 2.0918C15.0754 2.10786 15.0737 2.12423 15.0716 2.14013C15.0684 2.16477 15.0629 2.18943 15.0514 2.21062C15.0399 2.23182 15.0232 2.24788 15.0028 2.25619C14.9823 2.26449 14.9592 2.26461 14.9361 2.25744C14.9131 2.25027 14.892 2.23639 14.8726 2.22093C14.86 2.21101 14.8474 2.20045 14.8351 2.18997C14.6634 2.04339 14.5398 1.87707 14.4643 1.69133C14.4428 1.63836 14.4565 1.57066 14.5058 1.48903C14.518 1.46846 14.5325 1.44698 14.5493 1.42501C14.5653 1.40411 14.5807 1.38413 14.5932 1.36885C14.6061 1.35346 14.6167 1.34331 14.6299 1.33796Z" fill="#614D35"/>
<path d="M5.84214 9.88069C5.93514 9.68414 6.16977 9.6002 6.36633 9.69319C6.56288 9.78619 6.64681 10.0208 6.55383 10.2174C5.57752 12.2807 4.73335 13.9451 4.03677 15.327C3.3382 16.7128 2.79346 17.8043 2.4066 18.7368C2.02043 19.6677 1.80175 20.4169 1.74301 21.1156C1.68486 21.8073 1.78183 22.4704 2.05803 23.2299C2.12244 23.407 2.28362 23.6063 2.58012 23.8136C2.87337 24.0185 3.26952 24.2106 3.7507 24.3832C4.71239 24.7281 5.95798 24.9761 7.25587 25.1142C8.5517 25.252 9.88109 25.2782 11.0049 25.1883C11.5668 25.1433 12.0708 25.0697 12.4899 24.9692C12.9145 24.8673 13.2272 24.7435 13.4248 24.6118C13.9423 24.2667 14.4789 23.4602 14.7592 21.9332C15.3527 18.7004 15.5363 13.3071 15.5363 10.1206C15.5363 9.90318 15.7126 9.7269 15.9301 9.72688C16.1475 9.72688 16.3238 9.90317 16.3238 10.1206C16.3238 13.3108 16.1413 18.7662 15.5338 22.0753C15.2354 23.7008 14.6326 24.753 13.8616 25.267C13.5529 25.4728 13.1378 25.6236 12.6735 25.735C12.2037 25.8477 11.6574 25.926 11.0678 25.9732C9.88856 26.0676 8.50974 26.0394 7.17267 25.8972C5.83764 25.7552 4.5254 25.4976 3.4849 25.1244C2.965 24.9379 2.49896 24.7176 2.12892 24.459C1.76217 24.2026 1.45899 23.8868 1.31795 23.499C1.00843 22.6478 0.889344 21.8702 0.958335 21.0496C1.02675 20.2359 1.27841 19.4013 1.67925 18.4351C2.07939 17.4705 2.63834 16.3517 3.33361 14.9724C4.03089 13.5892 4.87074 11.9336 5.84214 9.88069Z" fill="#614D35"/>
<path d="M11.7359 1.28341C12.4675 0.819286 13.2333 0.569874 13.9852 0.677284C14.2004 0.708039 14.3499 0.90737 14.3192 1.12261C14.2885 1.33786 14.0891 1.4875 13.8739 1.45679C13.373 1.38522 12.7973 1.5427 12.1577 1.9484C11.5196 2.35323 10.8496 2.98605 10.1794 3.80326C8.83986 5.43674 7.5445 7.75169 6.53471 10.2673C6.4537 10.4691 6.22448 10.567 6.02268 10.486C5.82089 10.405 5.723 10.1758 5.804 9.97397C6.83447 7.40686 8.16645 5.01609 9.5705 3.30396C10.2721 2.44839 11.0029 1.74839 11.7359 1.28341Z" fill="#614D35"/>
<path d="M15.4328 9.54792C15.4328 9.38977 15.5611 9.26157 15.7192 9.26157C15.8773 9.26157 16.0056 9.38977 16.0056 9.54792C16.0056 12.2439 15.9354 17.0322 15.4189 20.4011C15.3102 21.1101 15.2035 21.7498 15.0592 22.3042C14.915 22.8584 14.7287 23.3459 14.4505 23.7434C14.0717 24.2845 13.5691 24.67 13.135 24.9049C12.7377 25.1198 12.2255 25.2385 11.7114 25.2961C11.1928 25.3542 10.6495 25.3526 10.1754 25.3127C9.70777 25.2734 9.28253 25.1948 9.01059 25.0862C8.94101 25.0584 8.87231 25.0251 8.81247 24.9843C8.75648 24.9461 8.68418 24.8853 8.64049 24.7936C8.5887 24.6848 8.59136 24.5613 8.65014 24.4535C8.69977 24.3625 8.77797 24.3031 8.84253 24.2643C8.97813 24.183 9.15405 24.2269 9.23543 24.3625C9.27462 24.4278 9.28446 24.5024 9.26926 24.5714C9.47055 24.642 9.80844 24.7071 10.2234 24.742C10.6655 24.7791 11.171 24.7803 11.6476 24.7269C12.1286 24.673 12.558 24.566 12.8627 24.4012C13.235 24.1998 13.6633 23.8692 13.9812 23.4151C14.2041 23.0967 14.3689 22.6828 14.505 22.16C14.641 21.6374 14.7439 21.0243 14.8527 20.3144C15.3618 16.9943 15.4328 12.2468 15.4328 9.54792Z" fill="#989F6F"/>
</svg>
