<svg width="13" height="22" viewBox="0 0 13 22" fill="none" xmlns="http://www.w3.org/2000/svg">
<path d="M11.5672 17.0803C11.4431 15.219 11.1053 10.4632 11.5672 6.19893C11.8801 3.31063 9.41959 1.18774 6.84241 1.18774C3.97888 1.18774 2.22032 3.20831 1.68805 5.05351C0.469668 9.27722 0.972176 11.7112 1.83124 15.6486C2.51848 18.7985 2.90505 20.5212 4.55158 20.9461C5.64114 21.2273 9.77753 21.7751 11.5672 20.5882C12.4606 19.9957 11.6913 18.9416 11.5672 17.0803Z" fill="#FFE5A2"/>
<path d="M6.84241 0.794006C9.60745 0.794006 12.3016 3.07637 11.9587 6.24129C11.5011 10.466 11.8357 15.1882 11.9601 17.0542C12.0208 17.9647 12.2295 18.6064 12.3371 19.2446C12.3873 19.5423 12.4153 19.8533 12.3441 20.1452C12.2675 20.459 12.085 20.7172 11.7848 20.9163C11.2729 21.2558 10.6182 21.457 9.93497 21.5726C9.24718 21.6891 8.50254 21.7235 7.79012 21.7114C6.36973 21.6872 5.032 21.4768 4.45315 21.3274C3.47797 21.0757 2.89169 20.4277 2.47161 19.4786C2.06336 18.5561 1.7868 17.2918 1.44659 15.7325C0.584666 11.782 0.0628733 9.26682 1.3097 4.94445C1.87917 2.97031 3.7654 0.794006 6.84241 0.794006ZM6.84241 1.58148C4.1924 1.58148 2.56152 3.44632 2.06641 5.16257C0.876506 9.28756 1.35969 11.6405 2.21588 15.5647C2.56291 17.1553 2.82322 18.3273 3.19169 19.1599C3.54834 19.9658 3.9787 20.3916 4.65002 20.5648C5.16075 20.6966 6.43597 20.9007 7.80354 20.924C8.48513 20.9356 9.17835 20.9021 9.80354 20.7962C10.4333 20.6896 10.9668 20.5139 11.3497 20.26C11.4961 20.1629 11.5526 20.067 11.5791 19.9584C11.611 19.8279 11.6065 19.648 11.5605 19.3755C11.4758 18.8733 11.2377 18.0572 11.1743 17.1065C11.0506 15.2499 10.7095 10.4603 11.1757 6.15656C11.4587 3.54491 9.23172 1.58148 6.84241 1.58148Z" fill="#614D35"/>
<path d="M6.84241 0.794006C9.60745 0.794006 12.3016 3.07637 11.9587 6.24129C11.5011 10.466 11.8357 15.1882 11.9601 17.0542C12.0208 17.9647 12.2295 18.6064 12.3371 19.2446C12.3873 19.5423 12.4153 19.8533 12.3441 20.1452C12.2675 20.459 12.085 20.7172 11.7848 20.9163C11.2729 21.2558 10.6182 21.457 9.93497 21.5726C9.24718 21.6891 8.50254 21.7235 7.79012 21.7114C6.36973 21.6872 5.032 21.4768 4.45315 21.3274C3.47797 21.0757 2.89169 20.4277 2.47161 19.4786C2.06336 18.5561 1.7868 17.2918 1.44659 15.7325C0.584666 11.782 0.0628733 9.26682 1.3097 4.94445C1.87917 2.97031 3.7654 0.794006 6.84241 0.794006ZM6.84241 1.58148C4.1924 1.58148 2.56152 3.44632 2.06641 5.16257C0.876506 9.28756 1.35969 11.6405 2.21588 15.5647C2.56291 17.1553 2.82322 18.3273 3.19169 19.1599C3.54834 19.9658 3.9787 20.3916 4.65002 20.5648C5.16075 20.6966 6.43597 20.9007 7.80354 20.924C8.48513 20.9356 9.17835 20.9021 9.80354 20.7962C10.4333 20.6896 10.9668 20.5139 11.3497 20.26C11.4961 20.1629 11.5526 20.067 11.5791 19.9584C11.611 19.8279 11.6065 19.648 11.5605 19.3755C11.4758 18.8733 11.2377 18.0572 11.1743 17.1065C11.0506 15.2499 10.7095 10.4603 11.1757 6.15656C11.4587 3.54492 9.23172 1.58148 6.84241 1.58148Z" fill="#614D35"/>
</svg>
