<svg width="18" height="28" viewBox="0 0 18 28" fill="none" xmlns="http://www.w3.org/2000/svg">
<path d="M11.3042 10.8139C7.09409 3.83942 2.92134 0.658461 1.99823 2.54377C1.19095 4.19252 1.22936 8.59518 1.49539 11.6641C1.93855 16.7766 2.91596 23.8251 4.88498 25.9872C6.08584 27.3058 16.8501 25.7563 17.1495 23.1467C17.5715 19.4691 15.9434 18.4991 11.3042 10.8139Z" fill="#888F62"/>
<path d="M11.5982 10.5247C11.4886 10.337 11.2476 10.2736 11.0598 10.3832C10.872 10.4928 10.8086 10.7338 10.9182 10.9216C12.0691 12.8929 13.0538 14.4783 13.8671 15.7948C14.6828 17.1151 15.3197 18.1554 15.7857 19.0511C16.2508 19.9451 16.5334 20.6727 16.6522 21.3637C16.7699 22.0477 16.7306 22.7168 16.521 23.4973C16.4721 23.6793 16.3287 23.8918 16.0513 24.1239C15.7768 24.3534 15.3987 24.579 14.9342 24.7924C14.0059 25.2191 12.7864 25.5738 11.5053 25.8234C10.2262 26.0726 8.90404 26.2136 7.77668 26.221C7.21295 26.2247 6.70451 26.1949 6.27827 26.131C5.84645 26.0662 5.5243 25.9698 5.31605 25.8556C4.77062 25.5566 4.16642 24.7994 3.75527 23.3023C2.88483 20.1328 2.23611 14.7756 1.96093 11.601C1.94215 11.3843 1.75129 11.2239 1.53466 11.2427C1.31802 11.2615 1.15762 11.4523 1.1764 11.669C1.4519 14.8473 2.10487 20.2665 2.99583 23.5108C3.43348 25.1044 4.12496 26.1006 4.93747 26.5461C5.26277 26.7245 5.6893 26.8389 6.1615 26.9097C6.63928 26.9814 7.19035 27.0123 7.78178 27.0084C8.96477 27.0007 10.336 26.8534 11.6558 26.5963C12.9736 26.3395 14.2587 25.9696 15.2631 25.5079C15.7649 25.2772 16.2102 25.0175 16.5565 24.7279C16.8997 24.4408 17.1745 24.1 17.2815 23.7014C17.5164 22.8267 17.5679 22.0417 17.4283 21.2301C17.2899 20.4254 16.9671 19.6157 16.4843 18.6877C16.0023 17.7613 15.3488 16.6949 14.5371 15.3808C13.7229 14.063 12.7432 12.4861 11.5982 10.5247Z" fill="#614D35"/>
<path d="M3.55474 1.88393C3.34085 1.84469 3.13566 1.9864 3.09642 2.20028C3.05721 2.41415 3.19876 2.61937 3.41263 2.65861C3.79961 2.72961 4.31246 2.96468 4.91791 3.38325C5.51744 3.79772 6.18358 4.37517 6.87498 5.09886C8.25758 6.54606 9.72244 8.55873 10.9416 10.9697C11.0398 11.1637 11.2766 11.2415 11.4706 11.1433C11.6647 11.0452 11.7424 10.8084 11.6443 10.6143C10.3919 8.13771 8.88301 6.0608 7.44436 4.55493C6.72515 3.80212 6.01883 3.18711 5.36575 2.73561C4.71863 2.28823 4.09872 1.98374 3.55474 1.88393Z" fill="#614D35"/>
<path d="M2.01459 11.0214C2.00094 10.8639 1.86214 10.7472 1.70458 10.7609C1.54702 10.7745 1.43037 10.9133 1.44403 11.0709C1.67685 13.7568 2.16022 18.5212 2.96579 21.8329C3.13532 22.5298 3.2968 23.1579 3.48841 23.6978C3.67997 24.2375 3.90771 24.7071 4.2192 25.079C4.64328 25.5854 5.17726 25.9261 5.63003 26.1226C6.04441 26.3024 6.56499 26.3764 7.08215 26.3894C7.60379 26.4025 8.1449 26.354 8.61378 26.2733C9.07631 26.1938 9.49318 26.0787 9.75472 25.9471C9.82165 25.9134 9.88721 25.8742 9.9433 25.8284C9.99579 25.7856 10.0626 25.7187 10.0982 25.6235C10.1404 25.5107 10.1271 25.3879 10.0592 25.2856C10.0019 25.1992 9.91884 25.1468 9.85118 25.1137C9.70906 25.0444 9.53759 25.1034 9.46823 25.2455C9.43483 25.3139 9.43147 25.3891 9.45256 25.4565C9.25812 25.5443 8.92712 25.6382 8.51672 25.7088C8.07947 25.7841 7.57594 25.8288 7.09652 25.8168C6.61265 25.8046 6.17568 25.7352 5.85789 25.5973C5.46958 25.4288 5.01429 25.1364 4.65834 24.7114C4.40879 24.4135 4.20884 24.0154 4.02814 23.5063C3.84751 22.9974 3.69209 22.3955 3.52232 21.6976C2.72841 18.4338 2.24767 13.7103 2.01459 11.0214Z" fill="#888F62"/>
</svg>
