<svg width="576" height="904" viewBox="0 0 576 904" fill="none" xmlns="http://www.w3.org/2000/svg">
<path d="M283.372 389.959H249.594V423.797H283.372V389.959Z" fill="#FFAAAA"/>
<path d="M259.052 357.977H202.962V449.262H259.052V357.977Z" fill="#FFAAAA"/>
<path d="M318.646 208.746H145.958V242.583H318.646V208.746Z" fill="#FFAAAA"/>
<path d="M294.449 240.766H229.479V274.603H294.449V240.766Z" fill="#FFAAAA"/>
<path d="M318.808 180.763H202.449V214.6H318.808V180.763Z" fill="#FFAAAA"/>
<path d="M317.782 152.808H263.487V186.646H317.782V152.808Z" fill="#FFAAAA"/>
<path d="M154.552 530.224H91.7849V559.683H154.552V530.224Z" fill="black"/>
<path d="M459.923 181.772H401.145V272.889H459.923V181.772Z" fill="#FFAAAA"/>
<path d="M575.081 213.315H489.464V341.789H575.081V213.315Z" fill="#FFAAAA"/>
<path d="M93.6032 559.47H26.4834V587.842H93.6032V559.47Z" fill="black"/>
<path d="M29.944 533.21H0V561.582H29.944V533.21Z" fill="black"/>
<path d="M57.121 507.026H27.7209V536.304H57.121V507.026Z" fill="black"/>
<path d="M206.883 241.59H174.617V453.846H206.883V241.59Z" fill="black"/>
<path d="M188.861 241.612H146.081V364.283H188.861V241.612Z" fill="black"/>
<path d="M233.178 241.595H203.234V388.929H233.178V241.595Z" fill="black"/>
<path d="M147.148 209.901H117.191V302.106H147.148V209.901Z" fill="black"/>
<path d="M203.17 181.788H143.463V210.16H203.17V181.788Z" fill="black"/>
<path d="M263.438 153.321H201.423V181.693H263.438V153.321Z" fill="black"/>
<path d="M373.716 123.315H261.948V154.645H373.716V123.315Z" fill="black"/>
<path d="M399.362 91.4157H345.554V124.502H399.362V91.4157Z" fill="black"/>
<path d="M290.623 95.1047H205.527V123.476H290.623V95.1047Z" fill="black"/>
<path d="M208.209 120.525H148.113V148.897H208.209V120.525Z" fill="black"/>
<path d="M348.163 179.737H317.856V246.821H348.163V179.737Z" fill="black"/>
<path d="M320.103 242.826H290.159V274.85H320.103V242.826Z" fill="black"/>
<path d="M318.232 297.553H264.128V329.552H318.232V297.553Z" fill="black"/>
<path d="M262.446 330.567H231.776V360.57H262.446V330.567Z" fill="black"/>
<path d="M433.177 271.324H400.875V303.504H433.177V271.324Z" fill="black"/>
<path d="M490.307 272.575H459.094V303.848H490.307V272.575Z" fill="black"/>
<path d="M518.843 211.395H487.629V273.496H518.843V211.395Z" fill="black"/>
<path d="M490.656 182.838H459.442V244.215H490.656V182.838Z" fill="black"/>
<path d="M459.984 151.359H428.77V214.549H459.984V151.359Z" fill="black"/>
<path d="M490.606 120.189H459.393V151.462H490.606V120.189Z" fill="black"/>
<path d="M548.853 120.879H490.198V152.152H548.853V120.879Z" fill="#FFAAAA"/>
<path d="M460.863 331.961H373.485V365.798H460.863V331.961Z" fill="#FFAAAA"/>
<path d="M462.426 363.106H428.648V396.944H462.426V363.106Z" fill="#FFAAAA"/>
<path d="M435.754 303.864H401.976V337.701H435.754V303.864Z" fill="#FFAAAA"/>
<path d="M460.595 89.5594H429.382V120.833H460.595V89.5594Z" fill="black"/>
<path d="M430.784 120.566H399.57V151.839H430.784V120.566Z" fill="black"/>
<path d="M401.822 151.195H369.158V244.67H401.822V151.195Z" fill="black"/>
<path d="M549.109 151.013H517.896V214.087H549.109V151.013Z" fill="black"/>
<path d="M575.781 182.814H544.568V275.638H575.781V182.814Z" fill="black"/>
<path d="M575.781 333.1H544.568V364.373H575.781V333.1Z" fill="black"/>
<path d="M569.918 91.7783H514.041V123.051H569.918V91.7783Z" fill="black"/>
<path d="M570.839 61.9309H539.626V93.204H570.839V61.9309Z" fill="black"/>
<path d="M543.723 31.1178H512.51V62.3909H543.723V31.1178Z" fill="black"/>
<path d="M515.038 0H395.69V31.2731H515.038V0Z" fill="black"/>
<path d="M399.439 30.7577H368.226V62.0308H399.439V30.7577Z" fill="black"/>
<path d="M429.667 59.7764H398.453V92.3189H429.667V59.7764Z" fill="black"/>
<path d="M461.043 243.798H430.918V273.983H461.043V243.798Z" fill="black"/>
<path d="M288.938 360.35H258.632V392.893H288.938V360.35Z" fill="black"/>
<path d="M284.534 420.772H254.834V449.913H284.534V420.772Z" fill="black"/>
<path d="M284.371 449.292H254.671V478.433H284.371V449.292Z" fill="black"/>
<path d="M348.195 476.047H283.037V505.188H348.195V476.047Z" fill="black"/>
<path d="M375.595 504.091H345.894V562.243H375.595V504.091Z" fill="black"/>
<path d="M434.261 419.959H313.015V450.067H434.261V419.959Z" fill="black"/>
<path d="M460.693 445.102H430.993V672.807H460.693V445.102Z" fill="black"/>
<path d="M402.324 446.535H372.623V617.449H402.324V446.535Z" fill="black"/>
<path d="M431.253 559.964H401.553V732.246H431.253V559.964Z" fill="black"/>
<path d="M431.213 502.977H401.513V532.118H431.213V502.977Z" fill="black"/>
<path d="M202.696 502.62H151.57V531.761H202.696V502.62Z" fill="black"/>
<path d="M201.392 523.969H171.691V591.403H201.392V523.969Z" fill="black"/>
<path d="M231.492 561.187H201.051V618.021H231.492V561.187Z" fill="black"/>
<path d="M286.911 616.791H229.858V645.932H286.911V616.791Z" fill="black"/>
<path d="M259.791 645.3H230.091V674.441H259.791V645.3Z" fill="black"/>
<path d="M173.611 585.193H143.91V647.156H173.611V585.193Z" fill="black"/>
<path d="M145.544 646.069H115.844V713.046H145.544V646.069Z" fill="black"/>
<path d="M259.621 646.261H200.062V679.277H259.621V646.261Z" fill="black"/>
<path d="M290.571 674.663H172.205V760.559H290.571V674.663Z" fill="black"/>
<path d="M233.763 700.398H143.462V789.495H233.763V700.398Z" fill="black"/>
<path d="M144.797 760.354H115.096V878.462H144.797V760.354Z" fill="black"/>
<path d="M256.972 874.464H141.528V903.604H256.972V874.464Z" fill="black"/>
<path d="M257.047 846.097H227.347V875.238H257.047V846.097Z" fill="black"/>
<path d="M227.879 817.225H198.178V846.366H227.879V817.225Z" fill="black"/>
<path d="M199.427 788.36H169.727V817.501H199.427V788.36Z" fill="black"/>
<path d="M405.323 704.191H315.904V761.595H405.323V704.191Z" fill="black"/>
<path d="M402.99 675.749H373.289V704.89H402.99V675.749Z" fill="black"/>
<path d="M319.151 704.142H289.451V733.283H319.151V704.142Z" fill="black"/>
<path d="M407.081 364.204H338.873V393.301H407.081V364.204Z" fill="black"/>
<path d="M465.677 392.537H403.635V420.908H465.677V392.537Z" fill="black"/>
<path d="M546.027 303.429H459.684V393.095H546.027V303.429Z" fill="black"/>
<path d="M491.424 303.422H429.382V331.793H491.424V303.422Z" fill="black"/>
<path d="M340.376 391.586H282.465V421.227H340.376V391.586Z" fill="black"/>
<path d="M292.674 272.063H226.556V301.522H292.674V272.063Z" fill="black"/>
<path d="M117.807 479.753H54.8585V509.575H117.807V479.753Z" fill="black"/>
<path d="M177.986 452.231H114.855V481.872H177.986V452.231Z" fill="black"/>
<path d="M29.0818 547.501V535.704H42.9307H56.7795V522.368V509.032H87.0419H117.304V495.183V481.334H147.567H177.829V467.486V453.637H190.652C202.791 453.637 203.475 453.527 203.475 451.585C203.475 449.588 204.159 449.533 229.121 449.533H254.767V462.869V476.205H227.582H200.397V490.054V503.903H175.777L151.721 503.822L151.641 517.239L151.802 530.575H121.408H91.6582V544.937V559.298H60.37H29.0818V547.501Z" fill="#000080"/>
<path d="M288.62 376.186V360.285H274.771H260.922V345.923V331.561H246.56H232.199V316.174V300.786H248.099H264V315.148V329.51H290.672H317.344V314.635V299.76H305.033H292.723V287.56C292.723 277.381 292.992 275.256 294.346 274.737C295.238 274.395 301.24 274.114 307.682 274.114H319.395V260.265V246.416H333.244H347.093V213.077V179.737H332.731H318.369V166.914V154.091H344.015H369.662V199.228V244.365H384.886H400.111L400.787 266.073C401.158 278.012 401.463 297.632 401.463 309.671V331.561H387.101H372.739V347.975V364.388H355.813H338.886V378.237V392.086H313.753H288.62V376.186Z" fill="#000080"/>
<path d="M340.938 407.637V394.138H372.226H403.514V406.961V419.784H395.473C391.051 419.784 376.971 420.088 364.185 420.46L340.938 421.137V407.637Z" fill="#000080"/>
<path d="M284.092 435.262V420.747H299.692H315.292V435.262V449.777H299.692H284.092V435.262Z" fill="#000080"/>
<path d="M404.897 378.719V364.445H417.151H429.404V378.719V392.993H417.151H404.897V378.719Z" fill="#000080"/>
<path d="M343.72 421.068C344.913 421.024 368.431 420.351 372.021 420.258C373.692 420.215 375.322 420.173 375.643 420.164L376.226 420.149V420.367V420.585H373.993H371.761V420.834V421.084L357.644 421.08C349.88 421.078 343.614 421.072 343.72 421.068Z" fill="#000080"/>
<path d="M376.241 420.369V420.144H376.325C376.372 420.144 376.828 420.133 377.339 420.121C380.573 420.038 387.948 419.885 390.647 419.844L391.388 419.832L391.388 420.213V420.593H383.815H376.241L376.241 420.369Z" fill="#000080"/>
<path d="M340.377 407.201V393.32H354.082H367.786V393.721V394.122H354.354H340.922V407.602V421.082H340.649H340.377L340.377 407.201Z" fill="#000080"/>
<path d="M391.403 420.212V419.826H397.478H403.553V406.973V394.121H385.69H367.828V393.713V393.304H385.713H403.598V406.951V420.597H397.5H391.403V420.212Z" fill="#000080"/>
<path d="M460.833 258.428V243.896H474.468H488.102V258.428V272.96H474.468H460.833V258.428Z" fill="#000080"/>
<path d="M432.432 288.098V272.739H446.268H460.104V288.098V303.457H446.268H432.432V288.098Z" fill="#000080"/>
<path d="M490.572 197.895V182.877H474.748H458.923V166.786V150.694H467.012C471.462 150.694 484.755 150.855 496.552 151.05L518.002 151.405V182.159V212.913H504.287H490.572V197.895Z" fill="#000080"/>
<path d="M401.325 166.279V151.026H415.221H429.116V166.279V181.532H415.221H401.325V166.279Z" fill="#000080"/>
<path d="M430.23 136.048V120.645H445.242H460.254V136.048V151.451H445.242H430.23V136.048Z" fill="#000080"/>
<path d="M372.752 137.768V124.054H386.497H400.243V137.768V151.482H386.497H372.752V137.768Z" fill="#000080"/>
<path d="M290.543 107.601V91.1296H318.715H346.886V107.601V124.072H318.715H290.543V107.601Z" fill="#000080"/>
<path d="M205.783 81.249V67.2778H253.958H302.133V81.249V95.2201H253.958H205.783V81.249Z" fill="#000080"/>
<path d="M147.613 107.246V92.525H177.039H206.464V107.246V121.967H177.039H147.613V107.246Z" fill="#000080"/>
<path d="M126.613 134.996V120.525H138.039H149.464V134.996V149.467H138.039H126.613V134.996Z" fill="#000080"/>
<path d="M399.539 107.448V91.7085H414.766H429.992V107.448V123.187H414.766H399.539V107.448Z" fill="#000080"/>
<path d="M476.136 121.784L460.461 121.563V105.628V89.6918H444.97H429.479V74.8802V60.0687H413.988H398.498V44.8772V29.686H455.666H512.835V46.0167V62.3474H526.481H540.128V77.159V91.9705H527.219H514.31V107.162V122.353L503.061 122.18C496.874 122.084 484.758 121.905 476.136 121.784Z" fill="#000080"/>
<path d="M254.993 476.047H200.195V503.768H254.993V476.047Z" fill="black"/>
<path d="M290.341 690.112V675.419H274.542H258.742V661.186L258.628 645.699H272.683L286.738 645.813L286.624 631.801L286.852 617.561L258.278 616.65L229.931 617.561V588.642L230.102 561.148L214.625 561.121L199.29 561.178L199.262 546.403C199.244 537.526 199.611 532.17 200.191 532.17C200.771 532.17 201.12 526.813 201.12 517.936V503.703H227.608H254.095V491.306L254.136 478.265L268.036 478.386L283.266 478.265L283.428 492.305V504.975L314.041 505.54H346.105V534.465V562.021L359.621 562.061H372.976L373.057 590.939L372.772 617.376L388.041 617.491L402.797 617.348V647.414V676.339H388.392H373.986V690.573V704.806H332.164H290.341V690.112Z" fill="#000080"/>
<path d="M347.707 491.706L347.821 476.83L316.552 476.146H284.143V462.556V448.966L305.672 449.597C317.513 449.944 337.514 450.229 350.118 450.23L373.036 450.233V478.066V505.898H360.998L347.935 504.759L347.707 491.706Z" fill="#000080"/>
<path d="M402.325 476.21V448.688H416.811H431.296V476.21V503.733H416.811H402.325V476.21Z" fill="#000080"/>
<path d="M402.211 545.957V531.883H416.856H431.5V545.957V560.032H416.856H402.211V545.957Z" fill="#000080"/>
<path d="M145.902 673.884V647.9H160.034H174.166V620.092V592.284H187.842H201.518V605.504V618.724H215.649H229.781V632.4V646.076H214.738H199.694V660.208V674.34H185.563H171.431V687.104V699.868H158.667H145.902V673.884Z" fill="#000080"/>
<path d="M144.991 832.068V790.129H157.299H169.607V804.261V818.392H183.739H197.871V832.524V846.656H212.458H227.046V860.332V874.008H186.018H144.991V832.068Z" fill="#000080"/>
<path d="M144.848 848.422C144.848 831.118 144.866 822.41 144.905 822.41C144.943 822.41 144.962 831.052 144.962 848.223V874.036H186.018H227.075V860.332V846.627H212.487H197.899V834.518C197.899 822.447 197.9 822.41 198.013 822.41C198.127 822.41 198.127 822.447 198.127 834.404V846.399H212.715H227.302V860.417V874.435H186.075H144.848V848.422Z" fill="#000080"/>
<path d="M198.004 822.362C197.962 822.32 197.928 821.397 197.928 820.311V818.335H183.796H169.664V817.936V817.538H183.91H198.156V819.988C198.156 821.335 198.138 822.438 198.118 822.438C198.097 822.438 198.046 822.404 198.004 822.362Z" fill="#000080"/>
<path d="M144.848 805.999L144.82 789.502H157.242H169.664V789.787V790.072H157.299H144.935L144.905 806.283L144.876 822.495L144.848 805.999Z" fill="#000080"/>
<path d="M304.997 704.065L290.693 704.023V689.277V674.531L275.261 674.489L259.828 674.447L275.341 674.408L290.854 674.368V688.955V703.541H331.953H373.052V689.438V675.336H387.154H401.257V646.567V617.797H386.671H372.085V605.709C372.085 595.072 372.113 593.622 372.326 593.622C372.539 593.622 372.568 595.054 372.568 605.548V617.475H386.993H401.418V646.567V675.658H387.315H373.212V689.922V704.185L346.256 704.146C331.431 704.125 312.864 704.088 304.997 704.065Z" fill="#000080"/>
<path d="M372.085 578.364V562.999H358.868H345.652V534.31V505.622H314.224H282.795V492.406V479.19H269.016H255.237L255.195 491.56L255.152 503.93L255.113 491.237L255.074 478.545H269.015H282.957V491.922V505.3H314.385H345.814V533.827V562.354H359.191H372.568V578.042C372.568 591.879 372.54 593.729 372.327 593.729C372.113 593.729 372.085 591.914 372.085 578.364Z" fill="#000080"/>
<path d="M231.491 616.445C231.491 616.143 234.732 616.103 259.298 616.103C283.864 616.103 287.106 616.143 287.106 616.445C287.106 616.747 283.864 616.787 259.298 616.787C234.732 616.787 231.491 616.747 231.491 616.445Z" fill="#000080"/>
<path d="M146.016 673.884V648.014H160.148H174.28V620.206V592.398H187.842H201.404V605.618V618.838H215.535H229.667V632.4V645.962H214.624H199.58V660.094V674.226H185.449H171.317V686.99V699.754H158.667H146.016V673.884Z" fill="#000080"/>
<path d="M208.657 618.667C212.584 618.632 218.943 618.633 222.789 618.668C226.635 618.703 223.422 618.731 215.649 618.731C207.877 618.731 204.73 618.703 208.657 618.667Z" fill="#000080"/>
<path d="M201.632 618.383C201.632 618.233 206.456 618.155 215.649 618.155C224.843 618.155 229.667 618.233 229.667 618.383C229.667 618.532 224.843 618.611 215.649 618.611C206.456 618.611 201.632 618.532 201.632 618.383Z" fill="#000080"/>
<path d="M181.077 592.227C184.879 592.192 191.033 592.192 194.753 592.228C198.474 592.263 195.364 592.291 187.842 592.291C180.32 592.291 177.276 592.262 181.077 592.227Z" fill="#000080"/>
<path d="M180.605 591.316C184.397 591.281 190.603 591.281 194.395 591.316C198.187 591.351 195.084 591.38 187.5 591.38C179.915 591.38 176.813 591.351 180.605 591.316Z" fill="#000080"/>
<path d="M145.561 673.827L145.618 647.102L160.319 647.045H173.482V620.149V591.43L187.899 591.658L201.461 591.943L201.917 605.618L201.973 617.984L215.535 617.87L229.667 617.813V632.4V646.418L214.624 646.304L200.207 646.475L200.093 660.265L200.264 674.909L185.392 674.682L172.285 674.909L172.4 687.047L172.342 700.495L158.724 700.666H145.675L145.561 673.827Z" fill="#000080"/>
<path d="M145.561 673.77V647.33H159.692H173.824V619.408V591.487H187.614L201.632 591.544L201.404 575.987V560.488H216.447C226.324 560.488 231.491 560.566 231.491 560.716C231.491 560.866 226.362 560.944 216.561 560.944L201.404 560.887V575.987L201.632 592.17H187.842H174.052V619.978V647.786H159.92H145.788V673.884V699.982H158.667H171.545V687.218C171.545 678.86 171.623 674.454 171.773 674.454C171.922 674.454 172.001 678.898 172.001 687.332V700.21H158.781H145.561L145.561 673.77Z" fill="#000080"/>
<path d="M202.65 517.637C202.65 510.053 202.679 506.95 202.714 510.742C202.749 514.534 202.749 520.74 202.714 524.532C202.679 528.324 202.65 525.221 202.65 517.637Z" fill="#000080"/>
<path d="M372.124 477.407V450.853L355.314 450.853C338.383 450.853 314.118 450.529 304.201 450.17C299.866 450.013 300.845 449.994 309.329 450.072C315.096 450.126 331.686 450.169 346.197 450.169L372.58 450.169V477.065C372.58 494.844 372.503 503.961 372.352 503.961C372.202 503.961 372.124 494.958 372.124 477.407Z" fill="#000080"/>
<path d="M300.269 475.755C309.076 475.722 323.487 475.722 332.293 475.755C341.1 475.788 333.894 475.815 316.281 475.815C298.668 475.815 291.462 475.788 300.269 475.755Z" fill="#000080"/>
<path d="M402.439 476.495V450.169H416.685H430.931V476.495C430.931 493.894 430.853 502.821 430.703 502.821C430.552 502.821 430.475 494.008 430.475 476.837V450.853H416.685H402.895V476.837C402.895 494.008 402.818 502.821 402.667 502.821C402.516 502.821 402.439 493.894 402.439 476.495Z" fill="#000080"/>
<path d="M402.439 546.014V532.224H416.685H430.931V546.014V559.804H416.685H402.439V546.014ZM430.475 546.242V532.908H416.685H402.895V546.242V559.576H416.685H430.475V546.242Z" fill="#000080"/>
<path d="M203.512 618.444L201.86 618.383L204.3 618.297C207.138 618.198 224.932 618.21 227.616 618.313L229.439 618.383L226.999 618.468C224.325 618.562 206.162 618.543 203.512 618.444Z" fill="#000080"/>
<path d="M173.595 619.237C173.595 603.912 173.608 597.642 173.625 605.305C173.64 612.968 173.64 625.507 173.625 633.17C173.609 640.832 173.595 634.563 173.595 619.237Z" fill="#000080"/>
<path d="M200.036 660.464C200.036 652.645 200.043 649.446 200.051 653.356C200.059 657.266 200.059 663.663 200.051 667.573C200.043 671.483 200.036 668.284 200.036 660.464Z" fill="#000080"/>
<path d="M91.6719 507.677H55.9344V535.877H91.6719V507.677Z" fill="white"/>
<path d="M91.9219 533.427H28.6844V559.505H91.9219V533.427Z" fill="white"/>
<path d="M140.976 481.548H115.922V507.627H140.976V481.548Z" fill="white"/>
</svg>
