<svg width="540" height="970" viewBox="0 0 540 970" fill="none" xmlns="http://www.w3.org/2000/svg">
<path d="M390.636 452.81H239.869V577.829H390.636V452.81Z" fill="#000080"/>
<path d="M387.177 332.764H271.375V453.945H387.177V332.764Z" fill="#000080"/>
<path d="M360.664 421.241H329.647V452.4H360.664V421.241Z" fill="#1A1A1A"/>
<path d="M359.796 451.933H328.779V483.093H359.796V451.933Z" fill="#1A1A1A"/>
<path d="M417.428 452.045H386.411V583.025H417.428V452.045Z" fill="#1A1A1A"/>
<path d="M329.967 454.907H298.951V546.515H329.967V454.907Z" fill="#1A1A1A"/>
<path d="M299.894 454.333H268.877V485.492H299.894V454.333Z" fill="#1A1A1A"/>
<path d="M272.078 326.655H240.934V423.16H272.078V326.655Z" fill="#000080"/>
<path d="M271.808 422.444H239.24V455.161H271.808V422.444Z" fill="#1A1A1A"/>
<path d="M301.641 273.716H179.698V364.491H301.641V273.716Z" fill="#000080"/>
<path d="M300.555 393.115H269.538V424.274H300.555V393.115Z" fill="#1A1A1A"/>
<path d="M330.944 362.527H299.928V393.686H330.944V362.527Z" fill="#1A1A1A"/>
<path d="M299.554 180.121H268.537V244.33H299.554V180.121Z" fill="#1A1A1A"/>
<path d="M272.029 151.179H241.012V181.127H272.029V151.179Z" fill="#1A1A1A"/>
<path d="M301.003 179.964H234.276V286.656H301.003V179.964Z" fill="#000080"/>
<path d="M330.698 270.315H299.681V302.355H330.698V270.315Z" fill="#1A1A1A"/>
<path d="M360.557 331.535H329.54V362.694H360.557V331.535Z" fill="#1A1A1A"/>
<path d="M330.668 300.971H234.605V356.054H330.668V300.971Z" fill="#000080"/>
<path d="M389.179 362.601H358.162V452.808H389.179V362.601Z" fill="#1A1A1A"/>
<path d="M329.669 181.347H299.273V270.774H329.669V181.347Z" fill="#FFAAAA"/>
<path d="M358.515 211.572H327.188V239.927H358.515V211.572Z" fill="#FFAAAA"/>
<path d="M389.222 0H270.117V30.4785H389.222V0Z" fill="#1A1A1A"/>
<path d="M388.932 149.241H329.714V211.583H388.932V149.241Z" fill="#000080"/>
<path d="M330.592 92.605H269.181V151.213H330.592V92.605Z" fill="#000080"/>
<path d="M418.76 29.8169H270.059V121.248H418.76V29.8169Z" fill="#000080"/>
<path d="M418.378 29.2898H388.602V61.0723H418.378V29.2898Z" fill="#1A1A1A"/>
<path d="M447.534 60.4491H417.137V121.521H447.534V60.4491Z" fill="#1A1A1A"/>
<path d="M418.998 92.2314H387.981V120.275H418.998V92.2314Z" fill="#1A1A1A"/>
<path d="M358.205 120.586H329.049V150.188H358.205V120.586Z" fill="#1A1A1A"/>
<path d="M329.669 91.6083H298.652V122.768H329.669V91.6083Z" fill="#1A1A1A"/>
<path d="M269.544 91.0317H238.527V122.191H269.544V91.0317Z" fill="#1A1A1A"/>
<path d="M299.242 121.043H268.225V152.203H299.242V121.043Z" fill="#1A1A1A"/>
<path d="M330.06 149.882H299.043V181.041H330.06V149.882Z" fill="#1A1A1A"/>
<path d="M360.258 180.589H329.241V211.748H360.258V180.589Z" fill="#1A1A1A"/>
<path d="M419.865 182.01H388.848V213.169H419.865V182.01Z" fill="#1A1A1A"/>
<path d="M419.69 149.396H388.673V182.425H419.69V149.396Z" fill="#1A1A1A"/>
<path d="M298.032 62.9417H268.876V92.8546H298.032V62.9417Z" fill="#1A1A1A"/>
<path d="M271.176 28.4397H237.859V63.5649H271.176V28.4397Z" fill="#1A1A1A"/>
<path d="M418.688 120.742H357.585V149.876H418.688V120.742Z" fill="#FFAAAA"/>
<path d="M298.963 152.057H271.357V180.724H298.963V152.057Z" fill="#FFAAAA"/>
<path d="M252.294 301.037H211.28V423.54H252.294V301.037Z" fill="#000080"/>
<path d="M239.407 180.683H208.648V287.376H239.407V180.683Z" fill="#000080"/>
<path d="M246.5 151.197H208.777V190.195H246.5V151.197Z" fill="#000080"/>
<path d="M180.132 331.722H85.9505V423.582H180.132V331.722Z" fill="#1A1A1A"/>
<path d="M242.117 393.097L211.41 392.486L210.842 425.476L241.549 426.086L242.117 393.097Z" fill="#1A1A1A"/>
<path d="M212.857 363.714H179.979V394.873H212.857V363.714Z" fill="#1A1A1A"/>
<path d="M240.525 301.522H120.024V332.681H240.525V301.522Z" fill="#1A1A1A"/>
<path d="M209.412 272.974H178.396V304.133H209.412V272.974Z" fill="#1A1A1A"/>
<path d="M148.127 181.411H117.111V212.571H148.127V181.411Z" fill="#1A1A1A"/>
<path d="M209.695 151.337H147.534V182.496H209.695V151.337Z" fill="#1A1A1A"/>
<path d="M239.57 210.637H208.553V275.727H239.57V210.637Z" fill="#1A1A1A"/>
<path d="M149.146 422.452H118.129V513.1H149.146V422.452Z" fill="#1A1A1A"/>
<path d="M89.0858 274.28H56.8282V397.096H89.0858V274.28Z" fill="#1A1A1A"/>
<path d="M118.989 210.574H87.9722V276.545H118.989V210.574Z" fill="#1A1A1A"/>
<path d="M239.922 452.982H208.905V483.597H239.922V452.982Z" fill="#1A1A1A"/>
<path d="M209.27 181.97H146.979V273.305H209.27V181.97Z" fill="#FFAAAA"/>
<path d="M178.307 212.195H119.064V301.622H178.307V212.195Z" fill="#FFAAAA"/>
<path d="M120.615 276.383H88.0472V332.158H120.615V276.383Z" fill="#FFAAAA"/>
<path d="M239.72 424.39H209.324V453.056H239.72V424.39Z" fill="#FFAAAA"/>
<path d="M211.185 394.788H180.478V450.252H211.185V394.788Z" fill="#FFAAAA"/>
<path d="M184.2 423.143H148.53V482.657H184.2V423.143Z" fill="#FFAAAA"/>
<path d="M210.874 449.317H183.579V482.657H210.874V449.317Z" fill="#FFAAAA"/>
<path d="M120.026 511.318H89.0089V543.799H120.026V511.318Z" fill="#1A1A1A"/>
<path d="M90.469 541.179H59.4521V573.66H90.469V541.179Z" fill="#1A1A1A"/>
<path d="M60.3436 571.887H29.3267V604.368H60.3436V571.887Z" fill="#1A1A1A"/>
<path d="M90.1169 603.467H59.1V635.949H90.1169V603.467Z" fill="#000080"/>
<path d="M149.037 542.971H119.57V575.452H149.037V542.971Z" fill="#000080"/>
<path d="M210.76 481.594H147.722V543.835H210.76V481.594Z" fill="#000080"/>
<path d="M121.041 542.87H90.0244V605.37H121.041V542.87Z" fill="#000080"/>
<path d="M31.017 601.971H0V667.481H31.017V601.971Z" fill="#1A1A1A"/>
<path d="M120.759 604.207H89.7422V635.367H120.759V604.207Z" fill="#1A1A1A"/>
<path d="M89.7251 632.96H58.7082V664.119H89.7251V632.96Z" fill="#1A1A1A"/>
<path d="M61.8242 662.704H30.8073V693.864H61.8242V662.704Z" fill="#1A1A1A"/>
<path d="M147.91 512.882H119.529V542.639H147.91V512.882Z" fill="white"/>
<path d="M90.2138 573.584H60.3859V603.549H90.2138V573.584Z" fill="white"/>
<path d="M59.2892 604.21H30.9965V662.597H59.2892V604.21Z" fill="white"/>
<path d="M476.348 575.042H347.825V698.426H476.348V575.042Z" fill="#000080"/>
<path d="M443.011 515.994H385.549V578.567H443.011V515.994Z" fill="#000080"/>
<path d="M371.951 574.601H293.433V638.937H371.951V574.601Z" fill="#000080"/>
<path d="M413.327 484.577H382.31V516.983H413.327V484.577Z" fill="#1A1A1A"/>
<path d="M444.225 515.908H413.208V547.067H444.225V515.908Z" fill="#1A1A1A"/>
<path d="M473.671 545.813H442.654V576.972H473.671V545.813Z" fill="#1A1A1A"/>
<path d="M386.255 544.832H294.445V575.991H386.255V544.832Z" fill="#1A1A1A"/>
<path d="M385.06 636.812H295.11V667.972H385.06V636.812Z" fill="#1A1A1A"/>
<path d="M358.593 667.252H327.576V698.411H358.593V667.252Z" fill="#1A1A1A"/>
<path d="M473.299 907.369H442.282V938.529H473.299V907.369Z" fill="#1A1A1A"/>
<path d="M443.408 879.812H385.195V910.971H443.408V879.812Z" fill="#1A1A1A"/>
<path d="M473.497 937.963H324.46V969.122H473.497V937.963Z" fill="#1A1A1A"/>
<path d="M327.074 876.586H296.057V938.593H327.074V876.586Z" fill="#1A1A1A"/>
<path d="M504.532 574.244H473.515V698.881H504.532V574.244Z" fill="#1A1A1A"/>
<path d="M474.845 666.304H443.828V727.377H474.845V666.304Z" fill="#1A1A1A"/>
<path d="M445.102 696.142H356.393V809.562H445.102V696.142Z" fill="#1A1A1A"/>
<path d="M414.906 804.808H326.198V882.083H414.906V804.808Z" fill="#1A1A1A"/>
<path d="M327.691 575.872H266.278V607.031H327.691V575.872Z" fill="#1A1A1A"/>
<path d="M385.71 881.251H326.158V938.896H385.71V881.251Z" fill="#000080"/>
<path d="M442.471 910.23H380.748V938.585H442.471V910.23Z" fill="#000080"/>
<path d="M270.172 540.685H148.204V780.717H270.172V540.685Z" fill="#000080"/>
<path d="M300.363 600.29H269.346V752.347H300.363V600.29Z" fill="#1A1A1A"/>
<path d="M271.266 750.831H240.249V781.991H271.266V750.831Z" fill="#1A1A1A"/>
<path d="M243.373 779.613H176.387V812.019H243.373V779.613Z" fill="#1A1A1A"/>
<path d="M148.908 573.356H117.891V757.424H148.908V573.356Z" fill="#1A1A1A"/>
<path d="M180.13 690.289H149.113V721.448H180.13V690.289Z" fill="#1A1A1A"/>
<path d="M178.987 541.802H147.97V574.283H178.987V541.802Z" fill="#1A1A1A"/>
<path d="M215.88 511.193H177.406V542.352H215.88V511.193Z" fill="#1A1A1A"/>
<path d="M178.125 754.121H87.9663V842.62H178.125V754.121Z" fill="#1A1A1A"/>
<path d="M148.579 838.711H117.562V869.871H148.579V838.711Z" fill="#1A1A1A"/>
<path d="M148.939 833.219H117.922V900.953H148.939V833.219Z" fill="#1A1A1A"/>
<path d="M178.807 899.776H147.79V963.964H178.807V899.776Z" fill="#1A1A1A"/>
<path d="M148.139 932.538H57.8794V963.697H148.139V932.538Z" fill="#1A1A1A"/>
<path d="M58.463 871.811H27.4461V933.818H58.463V871.811Z" fill="#1A1A1A"/>
<path d="M89.3611 812.637H58.3441V874.644H89.3611V812.637Z" fill="#1A1A1A"/>
<path d="M270.067 541.128H239.05V572.288H270.067V541.128Z" fill="#1A1A1A"/>
<path d="M239.974 480.787H210.273V542.689H239.974V480.787Z" fill="#1A1A1A"/>
<path d="M118.391 841.416H86.7534V933.024H118.391V841.416Z" fill="#000080"/>
<path d="M147.857 900.619H57.9077V933.024H147.857V900.619Z" fill="#000080"/>
<path d="M94.5076 874.445H58.2177V904.358H94.5076V874.445Z" fill="#000080"/>
<path d="M389.644 210.793H358.627V241.952H389.644V210.793Z" fill="#1A1A1A"/>
<path d="M450.469 212.756H418.832V243.915H450.469V212.756Z" fill="#1A1A1A"/>
<path d="M478.291 213.013H447.274V244.173H478.291V213.013Z" fill="#1A1A1A"/>
<path d="M508.285 242.17H477.268V273.33H508.285V242.17Z" fill="#1A1A1A"/>
<path d="M539.294 272.507H508.277V303.666H539.294V272.507Z" fill="#1A1A1A"/>
<path d="M539.214 302.571H508.197V333.73H539.214V302.571Z" fill="#1A1A1A"/>
<path d="M539.142 330.614H508.125V361.773H539.142V330.614Z" fill="#1A1A1A"/>
<path d="M508.435 360.878H477.418V392.037H508.435V360.878Z" fill="#1A1A1A"/>
<path d="M508.607 302.571H446.362V391.897H508.607V302.571Z" fill="#1A1A1A"/>
<path d="M447.373 332.31H416.356V363.469H447.373V332.31Z" fill="#1A1A1A"/>
<path d="M447.393 301.542H416.376V332.702H447.393V301.542Z" fill="#1A1A1A"/>
<path d="M447.512 272.466H416.495V303.625H447.512V272.466Z" fill="#1A1A1A"/>
<path d="M419.227 241.446H388.21V272.606H419.227V241.446Z" fill="#1A1A1A"/>
<path d="M360.087 239.657H329.07V271.698H360.087V239.657Z" fill="#1A1A1A"/>
<path d="M417.55 331.865H386.533V393.87H417.55V331.865Z" fill="#1A1A1A"/>
<path d="M388.192 302.451H329.979V333.61H388.192V302.451Z" fill="#1A1A1A"/>
<path d="M388.932 241.548H359.542V302.799H388.932V241.548Z" fill="#FFAAAA"/>
<path d="M416.517 272.644H388.136V332.314H416.517V272.644Z" fill="#FFAAAA"/>
<path d="M369.061 271.709H330.29V302.868H369.061V271.709Z" fill="#FFAAAA"/>
<path d="M477.62 243.354H418.998V272.644H477.62V243.354Z" fill="#FFAAAA"/>
<path d="M508.017 272.176H447.534V302.868H508.017V272.176Z" fill="#FFAAAA"/>
<path d="M419.929 213.13H389.377V241.485H419.929V213.13Z" fill="#FFAAAA"/>
</svg>
