<svg width="440" height="610" viewBox="0 0 440 610" fill="none" xmlns="http://www.w3.org/2000/svg">
<path d="M410.759 300.523H328.12V379.549H410.759V300.523Z" fill="#FFAAAA"/>
<path d="M331.973 279.721H301.711V358.798H331.973V279.721Z" fill="black"/>
<path d="M327.662 445.609H242.719V499.627H327.662V445.609Z" fill="#000080"/>
<path d="M305.171 52.9484H275.519V82.2883H305.171V52.9484Z" fill="#E9AFAF"/>
<path d="M248.63 389.693H204.609V426.53H248.63V389.693Z" fill="#E9AFAF"/>
<path d="M384.203 493.404H301.134V530.241H384.203V493.404Z" fill="#000080"/>
<path d="M357.026 298.479H328.311V327.194H357.026V298.479Z" fill="black"/>
<path d="M142.475 447.386H84.161V476.101H142.475V447.386Z" fill="black"/>
<path d="M89.216 530.417H59.1755V579.011H89.216V530.417Z" fill="black"/>
<path d="M65.8021 578.128H17.649V609.052H65.8021V578.128Z" fill="black"/>
<path d="M59.6407 495.59H21.2418V581.471H59.6407V495.59Z" fill="#000080"/>
<path d="M113.682 474.036H69.6606V510.873H113.682V474.036Z" fill="#000080"/>
<path d="M300.545 279.511H109.641V446.942H300.545V279.511Z" fill="#000080"/>
<path d="M260.501 427.179H216.479V464.016H260.501V427.179Z" fill="#000080"/>
<path d="M302.36 352.52H274.582V425.281H302.36V352.52Z" fill="#000080"/>
<path d="M167.412 127.919H52.7922V294.706H167.412V127.919Z" fill="#000080"/>
<path d="M277.369 35.4551H109.333V134.143H277.369V35.4551Z" fill="#000080"/>
<path d="M199.899 3.59229H81.531V61.0463H199.899V3.59229Z" fill="#000080"/>
<path d="M98.3757 26.0836H54.354V62.9206H98.3757V26.0836Z" fill="#000080"/>
<path d="M99.6252 47.3254H20.3046V84.1624H99.6252V47.3254Z" fill="#000080"/>
<path d="M109.621 322.219H47.1693V355.308H109.621V322.219Z" fill="#000080"/>
<path d="M84.631 375.324H55.6035V405.289H84.631V375.324Z" fill="#000080"/>
<path d="M109.621 291.606H80.2816V322.508H109.621V291.606Z" fill="#E6E6E6"/>
<path d="M85.2558 349.084H55.9159V379.986H85.2558V349.084Z" fill="#E6E6E6"/>
<path d="M62.7645 370.638H28.1141V430.279H62.7645V370.638Z" fill="#E6E6E6"/>
<path d="M277.369 21.7103H186.803V58.5473H277.369V21.7103Z" fill="#000080"/>
<path d="M413.79 83.0929H269.427V136.642H413.79V83.0929Z" fill="#000080"/>
<path d="M414.504 44.8264H320.814V202.554H414.504V44.8264Z" fill="#000080"/>
<path d="M333.598 28.5826H303.945V58.5472H333.598V28.5826Z" fill="#000080"/>
<path d="M410.829 227.204H299.659V300.708H410.829V227.204Z" fill="#000080"/>
<path d="M271.605 81.9546H167.944V278.271H271.605V81.9546Z" fill="#FFAAAA"/>
<path d="M327.248 157.333H299.572V207.865H327.248V157.333Z" fill="#E9AFAF"/>
<path d="M28.6933 494.191H6.16296V583.871H28.6933V494.191Z" fill="black"/>
<path d="M120.14 504.352H89.2159V531.3H120.14V504.352Z" fill="black"/>
<path d="M142.67 470.336H111.746V505.677H142.67V470.336Z" fill="black"/>
<path d="M242.657 460.461H213.942V500.883H242.657V460.461Z" fill="black"/>
<path d="M302.047 498.401H240.845V527.117H302.047V498.401Z" fill="black"/>
<path d="M412.63 525.891H297.073V554.606H412.63V525.891Z" fill="black"/>
<path d="M412.705 497.666H383.99V526.381H412.705V497.666Z" fill="black"/>
<path d="M384.647 469.284H327.438V497.999H384.647V469.284Z" fill="black"/>
<path d="M331.663 443.644H300.449V472.359H331.663V443.644Z" fill="black"/>
<path d="M270.497 442.486H241.782V471.201H270.497V442.486Z" fill="black"/>
<path d="M310.624 418.745H269.896V447.46H310.624V418.745Z" fill="black"/>
<path d="M192.402 376.261H163.687V431.841H192.402V376.261Z" fill="black"/>
<path d="M163.351 403.75H63.413V432.466H163.351V403.75Z" fill="black"/>
<path d="M28.7151 371.263H0V432.778H28.7151V371.263Z" fill="black"/>
<path d="M55.8921 316.909H27.177V374.051H55.8921V316.909Z" fill="black"/>
<path d="M80.2577 276.925H51.5426V323.445H80.2577V276.925Z" fill="black"/>
<path d="M54.0179 195.081H25.3027V278.463H54.0179V195.081Z" fill="black"/>
<path d="M81.1949 124.171H52.4797V199.743H81.1949V124.171Z" fill="black"/>
<path d="M110.871 61.0702H82.1558V129.77H110.871V61.0702Z" fill="black"/>
<path d="M138.673 59.1959H61.2264V87.9111H138.673V59.1959Z" fill="black"/>
<path d="M187.404 28.2704H111.207V60.7341H187.404V28.2704Z" fill="black"/>
<path d="M113.37 353.191H84.6548V408.413H113.37V353.191Z" fill="black"/>
<path d="M138.828 301.292H110.113V356.513H138.828V301.292Z" fill="black"/>
<path d="M165.586 249.152H136.87V304.373H165.586V249.152Z" fill="black"/>
<path d="M111.07 200.635H82.355V279.712H111.07V200.635Z" fill="black"/>
<path d="M136.543 227.282H107.828V255.555H136.543V227.282Z" fill="black"/>
<path d="M194.162 203.4H165.447V280.269H194.162V203.4Z" fill="black"/>
<path d="M332.036 350.779H301.112V446.706H332.036V350.779Z" fill="black"/>
<path d="M357.026 356.257H328.311V422.965H357.026V356.257Z" fill="black"/>
<path d="M385.765 379.697H357.05V407.971H385.765V379.697Z" fill="black"/>
<path d="M412.005 351.4H383.29V380.557H412.005V351.4Z" fill="black"/>
<path d="M439.494 245.641H410.779V352.992H439.494V245.641Z" fill="black"/>
<path d="M410.755 178.837H382.04V254.722H410.755V178.837Z" fill="black"/>
<path d="M439.182 31.3383H410.467V204.116H439.182V31.3383Z" fill="black"/>
<path d="M414.504 31.0818H381.103V59.7969H414.504V31.0818Z" fill="black"/>
<path d="M384.828 201.953H274.582V230.669H384.828V201.953Z" fill="black"/>
<path d="M277.369 250.685H221.165V324.07H277.369V250.685Z" fill="black"/>
<path d="M227.389 275.987H192.113V304.702H227.389V275.987Z" fill="black"/>
<path d="M299.236 177.275H244.593V205.991H299.236V177.275Z" fill="black"/>
<path d="M299.548 129.794H270.833V180.375H299.548V129.794Z" fill="black"/>
<path d="M328.287 106.365H299.572V157.572H328.287V106.365Z" fill="black"/>
<path d="M357.026 81.0625H328.311V109.778H357.026V81.0625Z" fill="black"/>
<path d="M384.515 29.8323H355.8V83.5378H384.515V29.8323Z" fill="black"/>
<path d="M332.348 56.072H303.633V84.7872H332.348V56.072Z" fill="black"/>
<path d="M278.152 0H186.178V28.7151H278.152V0Z" fill="black"/>
<path d="M359.837 27.9579H331.122V56.673H359.837V27.9579Z" fill="black"/>
<path d="M304.546 79.8129H244.906V108.528H304.546V79.8129Z" fill="black"/>
<path d="M247.068 53.8855H218.353V82.6006H247.068V53.8855Z" fill="black"/>
<path d="M194.589 78.5634H165.874V107.278H194.589V78.5634Z" fill="black"/>
<path d="M167.099 108.552H138.384V176.002H167.099V108.552Z" fill="black"/>
<path d="M305.064 25.7935H276.349V57.32H305.064V25.7935Z" fill="black"/>
<path d="M333.803 0.348389H305.088V29.0635H333.803V0.348389Z" fill="black"/>
<path d="M355.776 176.026H327.061V204.741H355.776V176.026Z" fill="black"/>
<path d="M328.287 226.006H274.582V254.722H328.287V226.006Z" fill="black"/>
<path d="M303.297 247.248H274.582V353.746H303.297V247.248Z" fill="black"/>
<path d="M57.0985 431.523H28.3834V496.022H57.0985V431.523Z" fill="black"/>
<path d="M220.014 431.534H56.5591V460.249H220.014V431.534Z" fill="black"/>
<path d="M89.6529 459.666H57.1655V529.952H89.6529V459.666Z" fill="#000080"/>
</svg>
