<svg width="639" height="616" viewBox="0 0 639 616" fill="none" xmlns="http://www.w3.org/2000/svg">
<path d="M390.988 544.987H340.792V615.5H390.988V544.987Z" fill="black"/>
<path d="M410.589 523.759H390.518V594.959H410.589V523.759Z" fill="black"/>
<path d="M390.591 523.548H248.542V569.854H390.591V523.548Z" fill="black"/>
<path d="M206.636 544.09H114.013V597.274H206.636V544.09Z" fill="black"/>
<path d="M162.117 571.28H114.61V614.903H162.117V571.28Z" fill="black"/>
<path d="M90.5121 523.474H47.3833V547.377H90.5121V523.474Z" fill="#1A1A1A"/>
<path d="M367.107 477.81H23.5466V545.869H367.107V477.81Z" fill="#1A1A1A"/>
<path d="M229.942 544.688H114.535V570.458H229.942V544.688Z" fill="#AA8800"/>
<path d="M321.968 521.98H227.552V546.78H321.968V521.98Z" fill="#AA8800"/>
<path d="M366.887 503.364H319.578V525.565H366.887V503.364Z" fill="#AA8800"/>
<path d="M114.909 522.578H89.5122V546.779H114.909V522.578Z" fill="#AA8800"/>
<path d="M253.247 363.623H203.35V411.13H253.247V363.623Z" fill="#AA8800"/>
<path d="M228.682 182.341H180.512V208.539H228.682V182.341Z" fill="#AA8800"/>
<path d="M434.61 522.876H367.384V546.779H434.61V522.876Z" fill="black"/>
<path d="M455.227 502.26H431.324V526.163H455.227V502.26Z" fill="black"/>
<path d="M477.934 478.656H454.031V502.559H477.934V478.656Z" fill="black"/>
<path d="M388.896 500.739H367.106V525.267H388.896V500.739Z" fill="black"/>
<path d="M367.155 433.539H341.389V503.989H367.155V433.539Z" fill="black"/>
<path d="M140.605 454.872H45.2917V480.15H140.605V454.872Z" fill="#1A1A1A"/>
<path d="M297.467 456.546H157.337V480.449H297.467V456.546Z" fill="#1A1A1A"/>
<path d="M273.863 435.033H183.63V458.936H273.863V435.033Z" fill="#1A1A1A"/>
<path d="M253.397 411.197H203.649V437.423H253.397V411.197Z" fill="#1A1A1A"/>
<path d="M162.117 409.957H69.6399V458.936H162.117V409.957Z" fill="#1A1A1A"/>
<path d="M184.825 410.831H160.922V434.734H184.825V410.831Z" fill="#1A1A1A"/>
<path d="M525.442 456.844H477.038V480.747H525.442V456.844Z" fill="black"/>
<path d="M571.753 433.539H522.752V457.442H571.753V433.539Z" fill="black"/>
<path d="M592.071 410.234H568.168V434.137H592.071V410.234Z" fill="black"/>
<path d="M615.675 388.123H591.772V412.026H615.675V388.123Z" fill="black"/>
<path d="M638.681 339.122H614.779V389.318H638.681V339.122Z" fill="black"/>
<path d="M615.078 317.61H591.175V341.513H615.078V317.61Z" fill="black"/>
<path d="M591.772 339.72H567.869V388.721H591.772V339.72Z" fill="black"/>
<path d="M569.064 387.227H521.856V411.13H569.064V387.227Z" fill="black"/>
<path d="M523.649 409.338H477.934V433.241H523.649V409.338Z" fill="black"/>
<path d="M480.026 364.818H456.123V411.13H480.026V364.818Z" fill="black"/>
<path d="M458.513 297.168H434.61V366.825H458.513V297.168Z" fill="black"/>
<path d="M456.753 366.34H272.071V435.033H456.753V366.34Z" fill="#1A1A1A"/>
<path d="M276.851 362.942H252.948V411.877H276.851V362.942Z" fill="#1A1A1A"/>
<path d="M435.692 341.016H274.461V371.842H435.692V341.016Z" fill="#1A1A1A"/>
<path d="M203.42 363.501H93.2046V411.896H203.42V363.501Z" fill="#1A1A1A"/>
<path d="M183.378 339.421H70.5286V364.37H183.378V339.421Z" fill="#1A1A1A"/>
<path d="M162.117 317.909H138.214V341.812H162.117V317.909Z" fill="#1A1A1A"/>
<path d="M274.116 316.265H182.584V340.168H274.116V316.265Z" fill="#1A1A1A"/>
<path d="M253.546 338.047H202.752V364.071H253.546V338.047Z" fill="#1A1A1A"/>
<path d="M341.241 317.217H294.851V345.113H341.241V317.217Z" fill="#1A1A1A"/>
<path d="M114.61 546.481H45.5906V570.384H114.61V546.481Z" fill="black"/>
<path d="M137.916 501.065H114.013V546.704H137.916V501.065Z" fill="black"/>
<path d="M295.525 275.183H161.52V318.059H295.525V275.183Z" fill="#1A1A1A"/>
<path d="M320.23 206.541H178.874V275.78H320.23V206.541Z" fill="#1A1A1A"/>
<path d="M180.672 138.631H156.769V227.289H180.672V138.631Z" fill="#1A1A1A"/>
<path d="M320.624 160.15H174.069V182.437H320.624V160.15Z" fill="#1A1A1A"/>
<path d="M320.175 179.87H228.747V207.657H320.175V179.87Z" fill="#1A1A1A"/>
<path d="M321.819 138.04H228.597V161.046H321.819V138.04Z" fill="#1A1A1A"/>
<path d="M298.812 113.561H251.903V152.083H298.812V113.561Z" fill="#1A1A1A"/>
<path d="M228.576 45.4614H181.987V138.067H228.576V45.4614Z" fill="#1A1A1A"/>
<path d="M47.3834 522.906H23.4805V546.809H47.3834V522.906Z" fill="black"/>
<path d="M23.9029 476.753H0V523.896H23.9029V476.753Z" fill="black"/>
<path d="M47.2384 454.01H23.3354V477.914H47.2384V454.01Z" fill="black"/>
<path d="M69.9522 409.614H46.0493V455.278H69.9522V409.614Z" fill="black"/>
<path d="M93.994 363.474H70.0911V410.533H93.994V363.474Z" fill="black"/>
<path d="M70.441 294.909H46.5381V365.926H70.441V294.909Z" fill="black"/>
<path d="M115.761 274.884H66.5056V298.787H115.761V274.884Z" fill="black"/>
<path d="M180.191 251.258H112.766V275.161H180.191V251.258Z" fill="black"/>
<path d="M180.25 226.193H156.347V251.74H180.25V226.193Z" fill="black"/>
<path d="M158.526 45.3137H134.623V227.25H158.526V45.3137Z" fill="black"/>
<path d="M182.285 22.5583H158.382V46.4612H182.285V22.5583Z" fill="black"/>
<path d="M229.942 0H181.24V23.9029H229.942V0Z" fill="black"/>
<path d="M251.753 23.7534H227.85V47.6564H251.753V23.7534Z" fill="black"/>
<path d="M275.584 45.7324H251.681V114.425H275.584V45.7324Z" fill="black"/>
<path d="M298.998 90.2637H275.095V114.167H298.998V90.2637Z" fill="black"/>
<path d="M321.778 114.312H297.875V138.214H321.778V114.312Z" fill="black"/>
<path d="M343.991 138.003H320.088V274.304H343.991V138.003Z" fill="black"/>
<path d="M367.405 250.202H343.502V274.105H367.405V250.202Z" fill="black"/>
<path d="M435.358 273.866H365.186V297.769H435.358V273.866Z" fill="black"/>
<path d="M138.468 297.485H70.2268V339.74H138.468V297.485Z" fill="#550000"/>
<path d="M162.131 274.879H114.978V317.979H162.131V274.879Z" fill="#550000"/>
<path d="M203.118 340.163H182.413V364.037H203.118V340.163Z" fill="#550000"/>
<path d="M182.836 317.979H161.708V340.162H182.836V317.979Z" fill="#550000"/>
<path d="M162.237 456.574H140.37V478.23H162.237V456.574Z" fill="#2B0000"/>
<path d="M183.892 433.938H161.708V456.68H183.892V433.938Z" fill="#2B0000"/>
<path d="M203.963 411.256H183.364V435.236H203.963V411.256Z" fill="#2B0000"/>
<path d="M273.863 411.13H252.874V435.033H273.863V411.13Z" fill="#2B0000"/>
<path d="M297.692 434.436H273.639V456.994H297.692V434.436Z" fill="#2B0000"/>
<path d="M341.538 456.097H297.094V477.909H341.538V456.097Z" fill="#2B0000"/>
<path d="M275.163 338.895H252.556V363.614H275.163V338.895Z" fill="#550000"/>
<path d="M295.656 317.134H273.05V341.008H295.656V317.134Z" fill="#550000"/>
<path d="M365.165 273.823H294.811V317.556H365.165V273.823Z" fill="#550000"/>
<path d="M435.097 297.274H340.446V342.486H435.097V297.274Z" fill="#550000"/>
<path d="M365.591 273.689H319.876V296.994H365.591V273.689Z" fill="#800000"/>
<path d="M434.909 297.143H365.591V321.942H434.909V297.143Z" fill="#800000"/>
<path d="M228.682 137.762H180.301V161.214H228.682V137.762Z" fill="#AA8800"/>
<path d="M182.413 46.2805H158.328V138.818H182.413V46.2805Z" fill="#AA8800"/>
<path d="M252.556 46.7031H227.837V138.396H252.556V46.7031Z" fill="#AA8800"/>
<path d="M228.894 23.0967H182.413V46.2805H228.894V23.0967Z" fill="#AA8800"/>
<path d="M523.832 432.912H477.14V457.208H523.832V432.912Z" fill="#CCCCCC"/>
<path d="M568.622 410.834H523.409V433.44H568.622V410.834Z" fill="#CCCCCC"/>
<path d="M591.862 388.544H568.728V410.622H591.862V388.544Z" fill="#CCCCCC"/>
<path d="M615.208 341.113H591.545V388.861H615.208V341.113Z" fill="#CCCCCC"/>
<path d="M341.634 432.643H295.974V456.546H341.634V432.643Z" fill="#1A1A1A"/>
<path d="M433.771 495.597H384.414V525.864H433.771V495.597Z" fill="#1A1A1A"/>
<path d="M454.779 480.449H366.945V503.114H454.779V480.449Z" fill="#1A1A1A"/>
<path d="M477.636 456.638H367.027V482.839H477.636V456.638Z" fill="#1A1A1A"/>
<path d="M478.084 410.832H367.152V458.936H478.084V410.832Z" fill="#1A1A1A"/>
</svg>
