<svg width="571" height="615" viewBox="0 0 571 615" fill="none" xmlns="http://www.w3.org/2000/svg">
<path d="M303.306 543.572H253.11V614.086H303.306V543.572Z" fill="black"/>
<path d="M322.908 522.345H302.837V593.544H322.908V522.345Z" fill="black"/>
<path d="M302.91 522.134H160.861V568.439H302.91V522.134Z" fill="black"/>
<path d="M212.293 543.383H119.669V596.567H212.293V543.383Z" fill="black"/>
<path d="M167.774 570.573H120.267V614.196H167.774V570.573Z" fill="black"/>
<path d="M80.892 523.474H42.3472V547.377H80.892V523.474Z" fill="#1A1A1A"/>
<path d="M328.089 477.81H21.0439V545.869H328.089V477.81Z" fill="#1A1A1A"/>
<path d="M205.502 544.688H102.362V570.458H205.502V544.688Z" fill="#AA8800"/>
<path d="M287.748 521.98H203.366V546.78H287.748V521.98Z" fill="#AA8800"/>
<path d="M327.892 503.364H285.611V525.565H327.892V503.364Z" fill="#AA8800"/>
<path d="M102.696 522.578H79.9983V546.779H102.696V522.578Z" fill="#AA8800"/>
<path d="M226.331 363.623H181.737V411.13H226.331V363.623Z" fill="#AA8800"/>
<path d="M204.377 182.341H161.326V208.539H204.377V182.341Z" fill="#AA8800"/>
<path d="M388.418 522.876H328.336V546.779H388.418V522.876Z" fill="black"/>
<path d="M406.843 502.26H385.48V526.163H406.843V502.26Z" fill="black"/>
<path d="M427.137 478.656H405.775V502.559H427.137V478.656Z" fill="black"/>
<path d="M347.562 500.739H328.088V525.267H347.562V500.739Z" fill="black"/>
<path d="M328.132 433.539H305.104V503.989H328.132V433.539Z" fill="black"/>
<path d="M125.66 454.872H40.4778V480.15H125.66V454.872Z" fill="#1A1A1A"/>
<path d="M265.851 456.546H140.614V480.449H265.851V456.546Z" fill="#1A1A1A"/>
<path d="M244.756 435.033H164.113V458.936H244.756V435.033Z" fill="#1A1A1A"/>
<path d="M226.464 411.197H182.004V437.423H226.464V411.197Z" fill="#1A1A1A"/>
<path d="M144.886 409.957H62.238V458.936H144.886V409.957Z" fill="#1A1A1A"/>
<path d="M165.181 410.831H143.818V434.734H165.181V410.831Z" fill="#1A1A1A"/>
<path d="M469.595 456.844H426.336V480.747H469.595V456.844Z" fill="black"/>
<path d="M510.984 433.539H467.191V457.442H510.984V433.539Z" fill="black"/>
<path d="M529.143 410.234H507.78V434.137H529.143V410.234Z" fill="black"/>
<path d="M550.238 388.123H528.875V412.026H550.238V388.123Z" fill="black"/>
<path d="M570.799 339.122H549.437V389.318H570.799V339.122Z" fill="black"/>
<path d="M549.704 317.61H528.341V341.513H549.704V317.61Z" fill="black"/>
<path d="M528.876 339.72H507.513V388.721H528.876V339.72Z" fill="black"/>
<path d="M508.581 387.227H466.391V411.13H508.581V387.227Z" fill="black"/>
<path d="M467.993 409.338H427.137V433.241H467.993V409.338Z" fill="black"/>
<path d="M429.007 364.818H407.644V411.13H429.007V364.818Z" fill="black"/>
<path d="M409.78 297.168H388.418V366.825H409.78V297.168Z" fill="black"/>
<path d="M408.207 366.34H243.154V435.033H408.207V366.34Z" fill="#1A1A1A"/>
<path d="M247.426 362.942H226.064V411.877H247.426V362.942Z" fill="#1A1A1A"/>
<path d="M389.384 341.016H245.29V371.842H389.384V341.016Z" fill="#1A1A1A"/>
<path d="M181.8 363.501H83.2983V411.896H181.8V363.501Z" fill="#1A1A1A"/>
<path d="M163.887 339.421H63.0325V364.37H163.887V339.421Z" fill="#1A1A1A"/>
<path d="M144.887 317.909H123.524V341.812H144.887V317.909Z" fill="#1A1A1A"/>
<path d="M244.981 316.265H163.178V340.168H244.981V316.265Z" fill="#1A1A1A"/>
<path d="M226.598 338.047H181.203V364.071H226.598V338.047Z" fill="#1A1A1A"/>
<path d="M304.973 317.217H263.513V345.113H304.973V317.217Z" fill="#1A1A1A"/>
<path d="M102.429 546.481H40.7449V570.384H102.429V546.481Z" fill="black"/>
<path d="M123.257 501.065H101.895V546.704H123.257V501.065Z" fill="black"/>
<path d="M264.115 275.183H144.353V318.059H264.115V275.183Z" fill="#1A1A1A"/>
<path d="M286.194 206.541H159.863V275.78H286.194V206.541Z" fill="#1A1A1A"/>
<path d="M161.469 138.631H140.107V227.289H161.469V138.631Z" fill="#1A1A1A"/>
<path d="M286.546 160.15H155.568V182.437H286.546V160.15Z" fill="#1A1A1A"/>
<path d="M286.146 179.87H204.434V207.657H286.146V179.87Z" fill="#1A1A1A"/>
<path d="M287.614 138.04H204.301V161.046H287.614V138.04Z" fill="#1A1A1A"/>
<path d="M267.053 113.561H225.129V152.083H267.053V113.561Z" fill="#1A1A1A"/>
<path d="M204.282 45.4614H162.644V138.067H204.282V45.4614Z" fill="#1A1A1A"/>
<path d="M42.347 522.906H20.9846V546.809H42.347V522.906Z" fill="black"/>
<path d="M21.3624 476.753H0V523.896H21.3624V476.753Z" fill="black"/>
<path d="M42.2174 454.01H20.855V477.914H42.2174V454.01Z" fill="black"/>
<path d="M62.5172 409.614H41.1548V455.278H62.5172V409.614Z" fill="black"/>
<path d="M84.0038 363.474H62.6414V410.533H84.0038V363.474Z" fill="black"/>
<path d="M62.9542 294.909H41.5918V365.926H62.9542V294.909Z" fill="black"/>
<path d="M103.458 274.884H59.437V298.787H103.458V274.884Z" fill="black"/>
<path d="M161.04 251.258H100.781V275.161H161.04V251.258Z" fill="black"/>
<path d="M161.092 226.193H139.729V251.74H161.092V226.193Z" fill="black"/>
<path d="M141.677 45.3137H120.314V227.25H141.677V45.3137Z" fill="black"/>
<path d="M162.911 22.5583H141.549V46.4612H162.911V22.5583Z" fill="black"/>
<path d="M205.502 0H161.977V23.9029H205.502V0Z" fill="black"/>
<path d="M224.996 23.7534H203.633V47.6564H224.996V23.7534Z" fill="black"/>
<path d="M246.293 45.7324H224.931V114.425H246.293V45.7324Z" fill="black"/>
<path d="M267.219 90.2637H245.856V114.167H267.219V90.2637Z" fill="black"/>
<path d="M287.578 114.312H266.215V138.214H287.578V114.312Z" fill="black"/>
<path d="M307.429 138.003H286.067V274.304H307.429V138.003Z" fill="black"/>
<path d="M328.355 250.202H306.993V274.105H328.355V250.202Z" fill="black"/>
<path d="M389.086 273.866H326.372V297.769H389.086V273.866Z" fill="black"/>
<path d="M123.751 297.485H62.7627V339.74H123.751V297.485Z" fill="#550000"/>
<path d="M144.899 274.879H102.758V317.979H144.899V274.879Z" fill="#550000"/>
<path d="M181.53 340.163H163.025V364.037H181.53V340.163Z" fill="#550000"/>
<path d="M163.403 317.979H144.521V340.162H163.403V317.979Z" fill="#550000"/>
<path d="M144.993 456.574H125.45V478.23H144.993V456.574Z" fill="#2B0000"/>
<path d="M164.347 433.938H144.521V456.68H164.347V433.938Z" fill="#2B0000"/>
<path d="M182.285 411.256H163.875V435.236H182.285V411.256Z" fill="#2B0000"/>
<path d="M244.756 411.13H225.997V435.033H244.756V411.13Z" fill="#2B0000"/>
<path d="M266.051 434.436H244.555V456.994H266.051V434.436Z" fill="#2B0000"/>
<path d="M305.238 456.097H265.517V477.909H305.238V456.097Z" fill="#2B0000"/>
<path d="M245.917 338.895H225.713V363.614H245.917V338.895Z" fill="#550000"/>
<path d="M264.232 317.134H244.029V341.008H264.232V317.134Z" fill="#550000"/>
<path d="M326.353 273.823H263.477V317.556H326.353V273.823Z" fill="#550000"/>
<path d="M388.852 297.274H304.262V342.486H388.852V297.274Z" fill="#550000"/>
<path d="M326.734 273.689H285.878V296.994H326.734V273.689Z" fill="#800000"/>
<path d="M388.685 297.143H326.734V321.942H388.685V297.143Z" fill="#800000"/>
<path d="M204.377 137.762H161.137V161.214H204.377V137.762Z" fill="#AA8800"/>
<path d="M163.025 46.2805H141.5V138.818H163.025V46.2805Z" fill="#AA8800"/>
<path d="M225.713 46.7031H203.621V138.396H225.713V46.7031Z" fill="#AA8800"/>
<path d="M204.565 23.0967H163.025V46.2805H204.565V23.0967Z" fill="#AA8800"/>
<path d="M468.156 432.912H426.427V457.208H468.156V432.912Z" fill="#CCCCCC"/>
<path d="M508.186 410.834H467.779V433.44H508.186V410.834Z" fill="#CCCCCC"/>
<path d="M528.956 388.544H508.28V410.622H528.956V388.544Z" fill="#CCCCCC"/>
<path d="M549.82 341.113H528.673V388.861H549.82V341.113Z" fill="#CCCCCC"/>
<path d="M305.324 432.643H264.516V456.546H305.324V432.643Z" fill="#1A1A1A"/>
<path d="M387.668 495.597H343.557V525.864H387.668V495.597Z" fill="#1A1A1A"/>
<path d="M406.442 480.449H327.944V503.114H406.442V480.449Z" fill="#1A1A1A"/>
<path d="M426.87 456.638H328.017V482.839H426.87V456.638Z" fill="#1A1A1A"/>
<path d="M427.271 410.832H328.129V458.936H427.271V410.832Z" fill="#1A1A1A"/>
</svg>
